<?xml version="1.0" encoding="UTF-8"?>
<svg width="150px" height="25px" viewBox="0 0 150 25" version="1.1" xmlns="http://www.w3.org/2000/svg" xmlns:xlink="http://www.w3.org/1999/xlink">
    <!-- Generator: sketchtool 44.1 (41455) - http://www.bohemiancoding.com/sketch -->
    <title>6D18C87C-9FED-4399-BE96-44379BC96F52</title>
    <desc>Created with sketchtool.</desc>
    <defs>
        <polygon id="path-1" points="0 24.8680229 149.279211 24.8680229 149.279211 -3.55271368e-15 0 -3.55271368e-15"></polygon>
    </defs>
    <g id="Page-1" stroke="none" stroke-width="1" fill="none" fill-rule="evenodd">
        <g id="MobileHomepage" transform="translate(-20.000000, -12.000000)">
            <g id="Group-2">
                <g id="Page-1" transform="translate(20.000000, 12.000000)">
                    <path d="M43.0095,12.7583632 C43.0095,13.4234777 42.8484474,13.9221163 42.5271316,14.2542791 C42.2050263,14.5856528 41.7763421,14.7513397 41.2402895,14.7513397 C40.7571316,14.7513397 40.3718684,14.6101114 40.0821316,14.3260767 C39.7923947,14.0420421 39.6479211,13.6317698 39.6479211,13.0968379 L39.6479211,8.41894493 L38.1463421,8.41894493 L38.1463421,8.41578899 L36.5081842,8.41578899 L36.5081842,8.41894493 L35.2347632,8.41894493 L35.2347632,8.33846844 C35.2347632,7.3419802 35.8031842,6.88673577 36.9400263,6.97273515 L36.9400263,4.97975866 C35.6855526,4.90401609 34.7413421,5.16122525 34.1089737,5.75059715 C33.4758158,6.33996906 33.1600263,7.20311881 33.1600263,8.33846844 L33.1600263,8.41894493 L32.0018684,8.41894493 L32.0018684,10.4119214 L33.1600263,10.4119214 L33.1600263,16.4563366 L35.2347632,16.4563366 L35.2347632,10.4119214 L36.9400263,10.4119214 L36.9400263,10.4111324 L37.5731842,10.4111324 L37.5731842,13.353258 C37.5731842,14.3931405 37.8597632,15.2073731 38.4337105,15.796745 C39.0068684,16.386117 39.7339737,16.6811974 40.6126579,16.6811974 C41.7068684,16.6811974 42.5050263,16.3056405 43.0095,15.5553156 L43.0095,16.4563366 L45.0842368,16.4563366 L45.0842368,8.41894493 L43.0095,8.41894493 L43.0095,12.7583632 Z" id="Fill-1" fill="#404041"></path>
                    <path d="M51.1413158,8.19392636 C50.0471053,8.19392636 49.2489474,8.56948329 48.7444737,9.31901918 L48.7444737,8.41878713 L46.6697368,8.41878713 L46.6697368,16.4561788 L48.7444737,16.4561788 L48.7444737,12.1159715 C48.7444737,11.451646 48.9055263,10.9530074 49.2268421,10.6208447 C49.5489474,10.2886819 49.9776316,10.1222061 50.5136842,10.1222061 C50.9960526,10.1222061 51.3821053,10.2650124 51.6718421,10.548258 C51.9615789,10.8330817 52.1060526,11.242565 52.1060526,11.7782859 L52.1060526,16.4561788 L54.1807895,16.4561788 L54.1807895,11.5210767 C54.1807895,10.4811943 53.8942105,9.66696163 53.3202632,9.07758973 C52.7471053,8.48900681 52.02,8.19392636 51.1413158,8.19392636" id="Fill-3" fill="#404041"></path>
                    <path d="M61.1303684,14.0689465 C60.7119474,14.4918425 60.1814211,14.7040795 59.538,14.7040795 C58.8945789,14.7040795 58.3616842,14.4918425 57.9377368,14.0689465 C57.5137895,13.6460504 57.3022105,13.1016507 57.3022105,12.4373252 C57.3022105,11.7729997 57.5137895,11.2285999 57.9377368,10.8057039 C58.3616842,10.3828079 58.8945789,10.1713598 59.538,10.1713598 C60.1814211,10.1713598 60.7119474,10.3828079 61.1303684,10.8057039 C61.5487895,11.2285999 61.7572105,11.7729997 61.7572105,12.4373252 C61.7572105,13.1016507 61.5487895,13.6460504 61.1303684,14.0689465 L61.1303684,14.0689465 Z M61.7572105,9.36738397 C61.1469474,8.58549969 60.2777368,8.19416306 59.1519474,8.19416306 C58.0687895,8.19416306 57.1443158,8.60364635 56.3777368,9.42340192 C55.6111579,10.2431575 55.2274737,11.2483246 55.2274737,12.4373252 C55.2274737,13.6263258 55.6111579,14.6314929 56.3777368,15.4512485 C57.1443158,16.271004 58.0687895,16.6812763 59.1519474,16.6812763 C60.2777368,16.6812763 61.1469474,16.2891507 61.7572105,15.5072664 L61.7572105,16.4556265 L63.8327368,16.4556265 L63.8327368,5.20469833 L61.7572105,5.20469833 L61.7572105,9.36738397 Z" id="Fill-5" fill="#404041"></path>
                    <path d="M66.462,4.89857209 C66.1185789,4.89857209 65.8209474,5.02717667 65.5691053,5.28438583 C65.3172632,5.54159499 65.1917368,5.84140934 65.1917368,6.18461788 C65.1917368,6.52703744 65.3172632,6.82448484 65.5691053,7.07696009 C65.8209474,7.32864635 66.1185789,7.45409499 66.462,7.45409499 C66.8156842,7.45409499 67.1188421,7.32864635 67.3706842,7.07696009 C67.6225263,6.82448484 67.7488421,6.52703744 67.7488421,6.18461788 C67.7488421,5.84140934 67.6225263,5.54159499 67.3706842,5.28438583 C67.1188421,5.02717667 66.8156842,4.89857209 66.462,4.89857209" id="Fill-7" fill="#404041"></path>
                    <mask id="mask-2" fill="white">
                        <use xlink:href="#path-1"></use>
                    </mask>
                    <g id="Clip-10"></g>
                    <polygon id="Fill-9" fill="#404041" mask="url(#mask-2)" points="65.4331579 16.4558632 67.5078947 16.4558632 67.5078947 8.41847153 65.4331579 8.41847153"></polygon>
                    <path d="M73.5788684,8.19392636 C72.4854474,8.19392636 71.6865,8.56948329 71.1820263,9.31901918 L71.1820263,8.41878713 L69.1072895,8.41878713 L69.1072895,16.4561788 L71.1820263,16.4561788 L71.1820263,12.1159715 C71.1820263,11.451646 71.3430789,10.9530074 71.6651842,10.6208447 C71.9865,10.2886819 72.4151842,10.1222061 72.9520263,10.1222061 C73.4343947,10.1222061 73.8204474,10.2650124 74.1093947,10.548258 C74.3991316,10.8330817 74.5443947,11.242565 74.5443947,11.7782859 L74.5443947,16.4561788 L76.6191316,16.4561788 L76.6191316,11.5210767 C76.6191316,10.4811943 76.3317632,9.66696163 75.7586053,9.07758973 C75.1846579,8.48900681 74.4583421,8.19392636 73.5788684,8.19392636" id="Fill-11" fill="#404041" mask="url(#mask-2)"></path>
                    <path d="M83.6149737,13.8917404 C83.1910263,14.3043796 82.6526053,14.5103048 81.9989211,14.5103048 C81.3444474,14.5103048 80.8052368,14.3043796 80.3820789,13.8917404 C79.9589211,13.4798902 79.7473421,12.9520591 79.7473421,12.3082472 C79.7473421,11.6762701 79.9589211,11.1539619 80.3820789,10.7413227 C80.8052368,10.3286835 81.3444474,10.1227584 81.9989211,10.1227584 C82.6526053,10.1227584 83.1910263,10.3286835 83.6149737,10.7413227 C84.0389211,11.1539619 84.2505,11.6762701 84.2505,12.3082472 C84.2505,12.9520591 84.0389211,13.4798902 83.6149737,13.8917404 L83.6149737,13.8917404 Z M84.2505,9.41503868 C83.6394474,8.60159499 82.7812895,8.19368967 81.6768158,8.19368967 C80.5510263,8.19368967 79.6020789,8.59607209 78.8299737,9.40004796 C78.0578684,10.2032348 77.6726053,11.1736866 77.6726053,12.3082472 C77.6726053,13.4554316 78.0555,14.4282503 78.8220789,15.2259143 C79.5886579,16.0243673 80.5399737,16.4235937 81.6768158,16.4235937 C82.7812895,16.4235937 83.6394474,16.0164774 84.2505,15.2014558 L84.2505,16.0701284 C84.2505,16.7028945 84.0626053,17.1896983 83.6876053,17.5321179 C83.3118158,17.8753264 82.7970789,18.0473252 82.1433947,18.0473252 C81.1462895,18.0473252 80.4436579,17.6717683 80.0362895,16.9222324 L78.2670789,17.9345003 C78.6207632,18.5767342 79.1276053,19.065116 79.7868158,19.3972788 C80.4468158,19.7286525 81.2102368,19.8951284 82.0794474,19.8951284 C83.2368158,19.8951284 84.2260263,19.5676996 85.0462895,18.9144199 C85.8665526,18.2611402 86.2770789,17.31278 86.2770789,16.0701284 L86.2770789,8.41855043 L84.2505,8.41855043 L84.2505,9.41503868 Z" id="Fill-12" fill="#404041" mask="url(#mask-2)"></path>
                    <path d="M94.0446316,12.3391754 C93.5622632,12.2121488 93.0822632,12.0859112 92.6054211,11.9604626 C92.1285789,11.8350139 91.722,11.6622262 91.3856842,11.4405213 C91.0493684,11.2188165 90.8812105,10.9134793 90.8812105,10.5229316 C90.8812105,10.0708431 91.0667368,9.70948793 91.4362105,9.440444 C91.8064737,9.17218905 92.2643684,9.03727259 92.8114737,9.03727259 C93.2717368,9.03727259 93.6901579,9.14220761 94.0659474,9.35128868 C94.4409474,9.56036974 94.7093684,9.86255105 94.8696316,10.2594106 L95.5454211,9.87359684 C95.3204211,9.38048113 94.9691053,8.98993348 94.4922632,8.70037593 C94.0146316,8.41081838 93.4548947,8.2664341 92.8114737,8.2664341 C92.007,8.2664341 91.3501579,8.48577197 90.8409474,8.9252367 C90.3317368,9.36470142 90.0775263,9.90594524 90.0775263,10.5481791 C90.0775263,11.084689 90.2433158,11.513108 90.5756842,11.8342249 C90.9080526,12.1561309 91.3154211,12.3802027 91.7977895,12.5072293 C92.2801579,12.6342559 92.7601579,12.7604935 93.237,12.8859421 C93.7138421,13.0113908 94.1188421,13.1912794 94.452,13.427186 C94.7843684,13.6630925 94.9501579,13.9786866 94.9501579,14.3747571 C94.9501579,14.856827 94.7543684,15.229228 94.3635789,15.4911711 C93.972,15.7539032 93.4762105,15.8848747 92.8762105,15.8848747 C92.2746316,15.8848747 91.7685789,15.7594261 91.3556842,15.5077398 C90.9427895,15.2552645 90.6617368,14.910478 90.5109474,14.4702243 L89.8193684,14.8726067 C90.0230526,15.4083277 90.3909474,15.8399025 90.9214737,16.1665424 C91.452,16.4931822 92.1041053,16.6565022 92.8762105,16.6565022 C93.7335789,16.6565022 94.4275263,16.4418982 94.9580526,16.0134793 C95.4893684,15.5850603 95.7546316,15.0390826 95.7546316,14.3739681 C95.7546316,13.8137887 95.5904211,13.3672231 95.262,13.0319044 C94.9327895,12.6965857 94.527,12.4654131 94.0446316,12.3391754" id="Fill-13" fill="#404041" mask="url(#mask-2)"></path>
                    <path d="M103.318658,14.8887809 C102.664184,15.5531064 101.8605,15.8852692 100.906026,15.8852692 C99.9515526,15.8852692 99.1447105,15.5531064 98.4855,14.8887809 C97.8262895,14.2244554 97.4962895,13.4157457 97.4962895,12.4618626 C97.4962895,11.5079796 97.8262895,10.6984808 98.4855,10.0341553 C99.1447105,9.37061881 99.9515526,9.03766708 100.906026,9.03766708 C101.8605,9.03766708 102.664184,9.37061881 103.318658,10.0341553 C103.972342,10.6984808 104.299974,11.5079796 104.299974,12.4618626 C104.299974,13.4157457 103.972342,14.2244554 103.318658,14.8887809 M100.906026,8.2660396 C99.7265526,8.2660396 98.7270789,8.67078899 97.9068158,9.48028775 C97.0857632,10.2889975 96.6760263,11.2831188 96.6760263,12.4618626 C96.6760263,13.6406064 97.0857632,14.6347277 97.9068158,15.4426485 C98.7270789,16.2529363 99.7265526,16.6561077 100.906026,16.6561077 C102.074447,16.6561077 103.069184,16.2529363 103.889447,15.4426485 C104.709711,14.6347277 105.120237,13.6406064 105.120237,12.4618626 C105.120237,11.2831188 104.709711,10.2889975 103.889447,9.48028775 C103.069184,8.67078899 102.074447,8.2660396 100.906026,8.2660396" id="Fill-14" fill="#404041" mask="url(#mask-2)"></path>
                    <path d="M112.080711,15.4350743 C111.570711,15.7348886 110.995184,15.8847958 110.351763,15.8847958 C109.386237,15.8847958 108.577026,15.555789 107.923342,14.8961974 C107.268868,14.2373948 106.942026,13.4255291 106.942026,12.4613892 C106.942026,11.4972494 107.268868,10.6845947 107.923342,10.0265811 C108.577026,9.36777847 109.386237,9.03798267 110.351763,9.03798267 C110.995184,9.03798267 111.570711,9.18788985 112.080711,9.48770421 C112.589921,9.78830755 112.962553,10.1946349 113.198605,10.7098422 L113.857816,10.3232395 C113.568868,9.69205136 113.107026,9.19025681 112.474658,8.82022277 C111.842289,8.45097772 111.134132,8.2663552 110.351763,8.2663552 C109.139921,8.2663552 108.132553,8.66794864 107.328079,9.47113552 C106.523605,10.2751114 106.121763,11.2723886 106.121763,12.4613892 C106.121763,13.6503899 106.523605,14.6476671 107.328079,15.4516429 C108.132553,16.2548298 109.139921,16.6564233 110.351763,16.6564233 C111.134132,16.6564233 111.844658,16.4718007 112.482553,16.1025557 C113.120447,15.7325217 113.600447,15.237039 113.922553,14.6153187 L113.246763,14.2137252 C112.978342,14.7281436 112.589921,15.1352599 112.080711,15.4350743" id="Fill-15" fill="#404041" mask="url(#mask-2)"></path>
                    <polygon id="Fill-16" fill="#404041" mask="url(#mask-2)" points="115.231579 16.4795328 116.036053 16.4795328 116.036053 8.44214109 115.231579 8.44214109"></polygon>
                    <path d="M115.633342,5.22836788 C115.462026,5.22836788 115.311237,5.28990873 115.183342,5.41299041 C115.054658,5.53686108 114.989921,5.68361231 114.989921,5.85561108 C114.989921,6.03707766 115.054658,6.19014078 115.183342,6.31322246 C115.311237,6.43630415 115.462026,6.49784499 115.633342,6.49784499 C115.804658,6.49784499 115.954658,6.43630415 116.083342,6.31322246 C116.212026,6.19014078 116.276763,6.03707766 116.276763,5.85561108 C116.276763,5.68361231 116.212026,5.53686108 116.083342,5.41299041 C115.954658,5.28990873 115.804658,5.22836788 115.633342,5.22836788" id="Fill-17" fill="#404041" mask="url(#mask-2)"></path>
                    <path d="M118.372263,12.0919075 C118.457526,11.1916754 118.806474,10.4579192 119.417526,9.88984994 C120.029368,9.32178063 120.790421,9.03774598 121.701474,9.03774598 C122.516211,9.03774598 123.222,9.30915687 123.816474,9.8496117 C124.411737,10.3908555 124.752,11.1380244 124.838053,12.0919075 L118.372263,12.0919075 Z M121.701474,8.2661185 C120.479368,8.2661185 119.479105,8.66534499 118.702263,9.46379796 C117.924632,10.2622509 117.536211,11.2611061 117.536211,12.4619415 C117.536211,13.6832905 117.932526,14.6876686 118.725947,15.4750758 C119.520158,16.262483 120.533053,16.6561866 121.766211,16.6561866 C122.548579,16.6561866 123.245684,16.4928666 123.856737,16.1662268 C124.467789,15.8395869 124.939895,15.3969663 125.272263,14.8399428 L124.564105,14.4225696 C124.317789,14.8620343 123.953053,15.2154997 123.470684,15.4837546 C122.988316,15.7512206 122.425421,15.8853481 121.782,15.8853481 C120.859895,15.8853481 120.085421,15.6092033 119.457789,15.0577027 C118.830947,14.506202 118.469368,13.7795467 118.372263,12.8793147 L125.658316,12.8793147 C125.658316,12.8367095 125.660684,12.7720127 125.666211,12.6868023 C125.671737,12.6015919 125.674105,12.5361061 125.674105,12.4935009 C125.674105,11.3471055 125.307,10.3561402 124.572789,9.5198159 C123.837789,8.68428063 122.880947,8.2661185 121.701474,8.2661185 L121.701474,8.2661185 Z" id="Fill-18" fill="#404041" mask="url(#mask-2)"></path>
                    <path d="M128.445316,6.19298113 L127.625053,6.43441058 L127.625053,8.44316677 L125.855842,8.44316677 L125.855842,9.23057395 L127.625053,9.23057395 L127.625053,14.4544446 C127.625053,15.3444199 127.890316,15.9440486 128.420842,16.2549087 C128.952158,16.5649799 129.759,16.6407225 130.841368,16.4797695 L130.841368,15.7562701 C130.295053,15.8099211 129.844263,15.8233338 129.490579,15.7965084 C129.136895,15.7704718 128.874,15.654491 128.702684,15.4509329 C128.530579,15.2481637 128.445316,14.9160009 128.445316,14.4544446 L128.445316,9.23057395 L130.841368,9.23057395 L130.841368,8.44316677 L128.445316,8.44316677 L128.445316,6.19298113 Z" id="Fill-19" fill="#404041" mask="url(#mask-2)"></path>
                    <polygon id="Fill-20" fill="#404041" mask="url(#mask-2)" points="132.091579 16.4795328 132.896053 16.4795328 132.896053 8.44214109 132.091579 8.44214109"></polygon>
                    <path d="M132.493342,5.22836788 C132.322026,5.22836788 132.171237,5.28990873 132.043342,5.41299041 C131.914658,5.53686108 131.849921,5.68361231 131.849921,5.85561108 C131.849921,6.03707766 131.914658,6.19014078 132.043342,6.31322246 C132.171237,6.43630415 132.322026,6.49784499 132.493342,6.49784499 C132.664658,6.49784499 132.814658,6.43630415 132.943342,6.31322246 C133.072026,6.19014078 133.136763,6.03707766 133.136763,5.85561108 C133.136763,5.68361231 133.072026,5.53686108 132.943342,5.41299041 C132.814658,5.28990873 132.664658,5.22836788 132.493342,5.22836788" id="Fill-21" fill="#404041" mask="url(#mask-2)"></path>
                    <path d="M135.232184,12.0919075 C135.317447,11.1916754 135.666395,10.4579192 136.277447,9.88984994 C136.8885,9.32178063 137.650342,9.03774598 138.561395,9.03774598 C139.376132,9.03774598 140.081132,9.30915687 140.676395,9.8496117 C141.271658,10.3908555 141.611921,11.1380244 141.697974,12.0919075 L135.232184,12.0919075 Z M138.561395,8.2661185 C137.339289,8.2661185 136.339026,8.66534499 135.561395,9.46379796 C134.784553,10.2622509 134.395342,11.2611061 134.395342,12.4619415 C134.395342,13.6832905 134.792447,14.6876686 135.585868,15.4750758 C136.379289,16.262483 137.392184,16.6561866 138.625342,16.6561866 C139.4085,16.6561866 140.105605,16.4928666 140.716658,16.1662268 C141.327711,15.8395869 141.799816,15.3969663 142.132184,14.8399428 L141.424026,14.4225696 C141.177711,14.8620343 140.812974,15.2154997 140.330605,15.4837546 C139.848237,15.7512206 139.285342,15.8853481 138.641921,15.8853481 C137.719816,15.8853481 136.944553,15.6092033 136.317711,15.0577027 C135.690868,14.506202 135.3285,13.7795467 135.232184,12.8793147 L142.518237,12.8793147 C142.518237,12.8367095 142.520605,12.7720127 142.526132,12.6868023 C142.531658,12.6015919 142.534026,12.5361061 142.534026,12.4935009 C142.534026,11.3471055 142.166921,10.3561402 141.432711,9.5198159 C140.697711,8.68428063 139.740868,8.2661185 138.561395,8.2661185 L138.561395,8.2661185 Z" id="Fill-22" fill="#404041" mask="url(#mask-2)"></path>
                    <path d="M148.786263,13.0319044 C148.457053,12.6965857 148.052053,12.4654131 147.569684,12.3391754 C147.087316,12.2121488 146.607316,12.0859112 146.130474,11.9604626 C145.652842,11.8350139 145.246263,11.6622262 144.909947,11.4405213 C144.574421,11.2188165 144.406263,10.9134793 144.406263,10.5229316 C144.406263,10.0708431 144.591,9.70948793 144.961263,9.440444 C145.330737,9.17218905 145.789421,9.03806157 146.335737,9.03806157 C146.796789,9.03806157 147.215211,9.14220761 147.590211,9.35128868 C147.966,9.56036974 148.233632,9.86255105 148.394684,10.2594106 L149.070474,9.87359684 C148.845474,9.38048113 148.494158,8.98993348 148.016526,8.70037593 C147.539684,8.41160736 146.979158,8.2664341 146.335737,8.2664341 C145.532053,8.2664341 144.875211,8.48577197 144.366,8.9252367 C143.856789,9.36549041 143.601789,9.90594524 143.601789,10.5489681 C143.601789,11.084689 143.768368,11.513108 144.099947,11.8342249 C144.432316,12.1561309 144.839684,12.3802027 145.322842,12.5072293 C145.805211,12.6342559 146.284421,12.7604935 146.762053,12.8859421 C147.238895,13.0113908 147.643895,13.1912794 147.976263,13.427186 C148.308632,13.6630925 148.475211,13.9786866 148.475211,14.3747571 C148.475211,14.856827 148.279421,15.229228 147.887842,15.4911711 C147.496263,15.7539032 147.000474,15.8848747 146.400474,15.8848747 C145.799684,15.8848747 145.293632,15.7594261 144.880737,15.5077398 C144.467842,15.2552645 144.186,14.910478 144.036,14.4702243 L143.344421,14.8726067 C143.548105,15.4083277 143.916,15.8399025 144.446526,16.1665424 C144.977053,16.4931822 145.628368,16.6565022 146.400474,16.6565022 C147.257842,16.6565022 147.952579,16.4418982 148.483105,16.0134793 C149.014421,15.5850603 149.279684,15.0390826 149.279684,14.3739681 C149.279684,13.8137887 149.115474,13.3672231 148.786263,13.0319044" id="Fill-23" fill="#404041" mask="url(#mask-2)"></path>
                    <polygon id="Fill-24" fill="#FFB50D" mask="url(#mask-2)" points="12.4451053 7.28091275 7.29221053 12.4306188 2.13852632 7.28091275 7.29221053 2.13120668"></polygon>
                    <polyline id="Fill-25" fill="#27E3CC" mask="url(#mask-2)" points="12.4451053 17.5808772 7.29221053 12.4311711 12.4451053 7.28067605"></polyline>
                    <polyline id="Fill-26" fill="#5203E9" mask="url(#mask-2)" points="12.4451053 7.28091275 17.598 12.4306188 12.4451053 17.5811139"></polyline>
                    <polygon id="Fill-27" fill="#3E7EFF" mask="url(#mask-2)" points="22.7510526 17.5808772 17.5981579 22.7297942 12.4452632 17.5808772 17.5981579 12.4311711"></polygon>
                    <path d="M22.7487632,7.2832008 L17.5958684,12.4329069 L22.7487632,17.5826129 C25.5948158,14.7383215 25.5948158,10.1267033 22.7487632,7.2832008" id="Fill-28" fill="#07C0A6" mask="url(#mask-2)"></path>
                    <path d="M12.4428158,7.2832008 L17.5957105,12.4329069 L22.7486053,7.2832008 C19.9033421,4.43890934 15.2888684,4.43890934 12.4428158,7.2832008" id="Fill-29" fill="#27E3CC" mask="url(#mask-2)"></path>
                    <path d="M2.13457895,17.5847432 L7.28747368,12.4350371 L2.13457895,7.28533106 C-0.711473684,10.1296225 -0.711473684,14.7412407 2.13457895,17.5847432" id="Fill-30" fill="#5203E9" mask="url(#mask-2)"></path>
                    <path d="M7.28968421,2.13325804 L12.4425789,7.28296411 L17.5962632,2.13325804 C14.7502105,-0.711033416 10.1357368,-0.711033416 7.28968421,2.13325804" id="Fill-31" fill="#FFDD0F" mask="url(#mask-2)"></path>
                    <path d="M12.4405263,17.5847432 L7.28763158,12.4350371 L2.13473684,17.5847432 C4.98078947,20.4290347 9.59447368,20.4290347 12.4405263,17.5847432" id="Fill-32" fill="#3B03A8" mask="url(#mask-2)"></path>
                    <path d="M17.5936579,22.734686 L12.4407632,17.5849799 L7.28707895,22.734686 C10.1331316,25.5789774 14.7476053,25.5789774 17.5936579,22.734686" id="Fill-33" fill="#2C50FF" mask="url(#mask-2)"></path>
                </g>
            </g>
        </g>
    </g>
</svg>