<svg xmlns="http://www.w3.org/2000/svg" xmlns:xlink="http://www.w3.org/1999/xlink" width="173" height="58" viewBox="0 0 173 58">
    <defs>
        <path id="a" d="M0 57.843h172.99V0H0z"/>
    </defs>
    <g fill="none" fill-rule="evenodd">
        <path fill="#404041" d="M88.67 25.719v1.567h3.582V13.291h-3.583v7.557c0 1.158-.277 2.025-.833 2.603-.555.579-1.296.868-2.221.868-.834 0-1.5-.247-2-.742-.5-.494-.75-1.208-.75-2.141v-8.145h-2.593v-.005h-2.828v.005h-2.198v-.14c0-1.736.981-2.529 2.944-2.379V7.301c-2.166-.13-3.795.317-4.888 1.343-1.092 1.027-1.638 2.53-1.638 4.507v.14h-2v3.47h2v10.525h3.582V16.762h2.944v-.001h1.093v5.123c0 1.81.495 3.229 1.486 4.255.99 1.026 2.245 1.54 3.763 1.54 1.888 0 3.267-.654 4.137-1.96zM98.572 19.729c0-1.157.277-2.025.832-2.603.556-.579 1.296-.868 2.222-.868.833 0 1.5.247 2 .742s.75 1.208.75 2.14v8.146h3.581v-8.593c0-1.81-.495-3.228-1.485-4.255-.99-1.025-2.245-1.539-3.763-1.539-1.888 0-3.268.653-4.137 1.96V13.29h-3.583v13.995h3.583V19.73zM117.207 24.235c-1.11 0-2.032-.368-2.763-1.105-.731-.737-1.097-1.684-1.097-2.842 0-1.156.366-2.103 1.097-2.84.731-.738 1.652-1.106 2.763-1.106s2.027.368 2.749 1.105c.722.738 1.083 1.685 1.083 2.841 0 1.158-.361 2.105-1.083 2.842-.722.737-1.638 1.105-2.749 1.105m3.832 1.4v1.651h3.582V7.693h-3.582v7.25c-1.055-1.363-2.554-2.044-4.498-2.044-1.87 0-3.467.714-4.79 2.141-1.324 1.428-1.986 3.177-1.986 5.248 0 2.072.662 3.821 1.985 5.25 1.324 1.426 2.92 2.14 4.79 2.14 1.945 0 3.444-.681 4.5-2.044"/>
        <mask id="b" fill="#fff">
            <use xlink:href="#a"/>
        </mask>
        <path fill="#404041" d="M127.384 27.286h3.582V13.291h-3.582zM129.161 11.612a2.13 2.13 0 0 0 1.57-.658c.434-.439.652-.957.652-1.554 0-.597-.218-1.12-.652-1.567a2.11 2.11 0 0 0-1.57-.672c-.592 0-1.106.224-1.54.672-.436.448-.653.97-.653 1.567s.217 1.115.652 1.554c.435.439.949.658 1.541.658M141.449 12.899c-1.888 0-3.268.654-4.138 1.96V13.29h-3.582v13.995h3.582V19.73c0-1.157.278-2.025.834-2.603.554-.578 1.295-.868 2.22-.868.834 0 1.5.247 2 .742.5.494.75 1.208.75 2.14v8.146h3.582v-8.593c0-1.81-.495-3.228-1.486-4.254-.99-1.026-2.244-1.54-3.762-1.54M158.777 22.822c-.732.718-1.662 1.077-2.791 1.077-1.13 0-2.06-.359-2.79-1.077-.732-.719-1.098-1.638-1.098-2.757 0-1.101.366-2.01 1.097-2.73.731-.718 1.662-1.077 2.791-1.077s2.059.36 2.79 1.078c.732.718 1.097 1.628 1.097 2.729 0 1.12-.365 2.038-1.096 2.757zm4.596-9.531h-3.5v1.735c-1.055-1.418-2.536-2.127-4.442-2.127-1.945 0-3.583.7-4.915 2.1-1.334 1.4-2 3.088-2 5.066 0 1.996.662 3.69 1.986 5.08 1.323 1.39 2.966 2.085 4.929 2.085 1.906 0 3.387-.709 4.442-2.127v1.511c0 1.101-.324 1.95-.971 2.547-.649.598-1.537.896-2.666.896-1.722 0-2.935-.653-3.638-1.959l-3.055 1.763a6.04 6.04 0 0 0 2.625 2.547c1.138.578 2.457.868 3.957.868 1.999 0 3.707-.57 5.123-1.708 1.417-1.138 2.125-2.79 2.125-4.954V13.291zM77.626 43.017l-2.485-.659c-.824-.218-1.526-.52-2.107-.905-.58-.386-.87-.918-.87-1.597 0-.789.319-1.418.958-1.885.638-.468 1.43-.702 2.374-.702.796 0 1.518.181 2.166.545.648.364 1.11.892 1.389 1.582l1.166-.672a4.552 4.552 0 0 0-1.819-2.043c-.824-.504-1.791-.756-2.902-.756-1.388 0-2.522.383-3.401 1.148-.88.765-1.32 1.707-1.32 2.827 0 .933.287 1.68.861 2.24.574.559 1.277.95 2.11 1.17l2.485.66c.823.218 1.523.532 2.097.943.574.41.862.96.862 1.65 0 .84-.339 1.488-1.014 1.944-.676.457-1.532.686-2.569.686s-1.911-.22-2.624-.658c-.713-.438-1.199-1.04-1.458-1.805l-1.194.7c.351.932.986 1.684 1.903 2.252.916.57 2.04.854 3.373.854 1.481 0 2.68-.373 3.596-1.12.917-.746 1.375-1.697 1.375-2.854 0-.976-.284-1.755-.851-2.338-.568-.584-1.268-.985-2.101-1.207M93.637 47.457c-1.13 1.158-2.517 1.736-4.165 1.736-1.648 0-3.04-.578-4.18-1.736-1.138-1.157-1.707-2.565-1.707-4.226 0-1.66.57-3.07 1.708-4.227 1.138-1.157 2.531-1.735 4.179-1.735 1.648 0 3.036.578 4.165 1.735 1.13 1.157 1.694 2.566 1.694 4.227 0 1.66-.565 3.07-1.694 4.226m-4.165-11.532c-2.037 0-3.763.705-5.179 2.113-1.416 1.41-2.124 3.14-2.124 5.193 0 2.053.708 3.783 2.124 5.192 1.416 1.409 3.142 2.113 5.179 2.113 2.017 0 3.735-.704 5.151-2.113s2.125-3.14 2.125-5.192c0-2.053-.709-3.784-2.125-5.193-1.416-1.408-3.134-2.113-5.151-2.113M108.766 48.409c-.88.523-1.875.784-2.986.784-1.666 0-3.063-.574-4.193-1.722-1.13-1.147-1.694-2.56-1.694-4.24 0-1.68.565-3.094 1.694-4.241 1.13-1.147 2.527-1.721 4.193-1.721 1.111 0 2.106.261 2.986.784.879.522 1.522 1.23 1.93 2.127l1.138-.672c-.5-1.1-1.296-1.973-2.388-2.617-1.093-.644-2.314-.966-3.666-.966-2.092 0-3.832.7-5.22 2.1-1.389 1.399-2.083 3.134-2.083 5.206 0 2.07.694 3.806 2.083 5.206 1.388 1.4 3.128 2.1 5.22 2.1 1.352 0 2.578-.323 3.68-.967 1.101-.643 1.93-1.506 2.485-2.589l-1.166-.7a5.22 5.22 0 0 1-2.013 2.128M114.205 50.228h1.389V36.233h-1.389zM114.9 30.635c-.297 0-.556.108-.778.322a1.034 1.034 0 0 0-.334.77c0 .317.112.583.334.797.222.215.481.322.777.322.296 0 .556-.107.778-.322.222-.214.333-.48.333-.797 0-.299-.11-.556-.333-.77a1.087 1.087 0 0 0-.778-.322M119.628 42.587c.148-1.568.75-2.846 1.806-3.835 1.055-.989 2.369-1.484 3.943-1.484 1.406 0 2.624.472 3.65 1.414 1.029.943 1.616 2.244 1.765 3.905h-11.164zm5.749-6.662c-2.111 0-3.837.696-5.18 2.085-1.342 1.39-2.012 3.13-2.012 5.22 0 2.128.684 3.877 2.054 5.249 1.37 1.371 3.12 2.057 5.249 2.057 1.35 0 2.555-.284 3.61-.854 1.055-.569 1.87-1.338 2.443-2.309l-1.222-.727c-.426.765-1.055 1.38-1.888 1.847-.833.467-1.805.7-2.915.7-1.593 0-2.93-.48-4.013-1.442-1.083-.96-1.708-2.225-1.875-3.793h12.58c0-.074.004-.186.014-.336.009-.148.013-.26.013-.335 0-1.997-.634-3.723-1.902-5.179-1.268-1.455-2.92-2.183-4.956-2.183zM137.02 32.314l-1.417.42v3.5h-3.054v1.37h3.054v9.097c0 1.55.459 2.594 1.375 3.135.917.542 2.309.672 4.18.392v-1.26c-.945.094-1.722.117-2.333.071-.612-.047-1.065-.248-1.36-.602-.297-.354-.445-.933-.445-1.736v-9.097h4.137v-1.37h-4.137v-3.92zM144.009 30.635c-.296 0-.556.108-.778.322a1.033 1.033 0 0 0-.333.77c0 .317.11.583.333.797.222.215.482.322.778.322.296 0 .555-.107.778-.322.221-.214.333-.48.333-.797 0-.299-.112-.556-.333-.77a1.087 1.087 0 0 0-.778-.322M143.315 50.228h1.388V36.233h-1.388zM148.738 42.587c.148-1.568.75-2.846 1.805-3.835 1.055-.989 2.369-1.484 3.943-1.484 1.406 0 2.624.472 3.651 1.414 1.028.943 1.615 2.244 1.763 3.905h-11.162zm5.748-6.662c-2.11 0-3.837.696-5.179 2.085-1.343 1.39-2.013 3.13-2.013 5.22 0 2.128.684 3.877 2.054 5.249 1.37 1.371 3.12 2.057 5.249 2.057 1.351 0 2.555-.284 3.61-.854 1.055-.569 1.87-1.338 2.443-2.309l-1.222-.727c-.425.765-1.055 1.38-1.887 1.847-.834.467-1.806.7-2.916.7-1.593 0-2.93-.48-4.013-1.442-1.083-.96-1.708-2.225-1.874-3.793h12.579c0-.074.004-.186.014-.336.01-.148.014-.26.014-.335 0-1.997-.634-3.723-1.903-5.179-1.268-1.455-2.92-2.183-4.956-2.183zM172.14 44.224c-.568-.584-1.268-.986-2.102-1.207l-2.484-.659c-.824-.218-1.526-.52-2.107-.905-.58-.386-.87-.918-.87-1.597 0-.789.319-1.418.958-1.885.638-.468 1.43-.703 2.374-.703.796 0 1.518.182 2.166.547.648.363 1.11.89 1.389 1.581l1.166-.672a4.556 4.556 0 0 0-1.819-2.043c-.824-.504-1.791-.756-2.902-.756-1.389 0-2.523.383-3.401 1.148-.88.765-1.32 1.707-1.32 2.827 0 .933.287 1.68.861 2.24.574.56 1.277.95 2.11 1.17l2.485.66c.823.218 1.523.532 2.097.943.574.41.861.96.861 1.65 0 .84-.338 1.488-1.013 1.944-.676.457-1.532.686-2.569.686s-1.912-.22-2.624-.658c-.713-.438-1.199-1.04-1.458-1.806l-1.194.7c.351.933.986 1.684 1.902 2.253.917.57 2.041.854 3.374.854 1.481 0 2.68-.373 3.596-1.12.917-.746 1.375-1.697 1.375-2.855 0-.975-.284-1.754-.852-2.337" mask="url(#b)"/>
        <path fill="#FFB50D" d="M28.7 16.935L16.816 28.914 4.933 16.935 16.816 4.956z" mask="url(#b)"/>
        <path fill="#27E3CC" d="M28.7 40.892L16.816 28.914 28.7 16.935" mask="url(#b)"/>
        <path fill="#5203E9" d="M28.7 16.935l11.884 11.979L28.7 40.892" mask="url(#b)"/>
        <path fill="#3E7EFF" d="M52.467 40.892L40.584 52.871 28.7 40.892l11.884-11.978z" mask="url(#b)"/>
        <path fill="#07C0A6" d="M52.462 16.94L40.578 28.92l11.884 11.978c6.563-6.615 6.563-17.341 0-23.957" mask="url(#b)"/>
        <path fill="#27E3CC" d="M28.695 16.94L40.579 28.92 52.462 16.94a16.712 16.712 0 0 0-23.767 0" mask="url(#b)"/>
        <path fill="#5203E9" d="M4.922 40.903l11.884-11.979L4.922 16.946c-6.563 6.615-6.563 17.341 0 23.957" mask="url(#b)"/>
        <path fill="#FFDD0F" d="M16.811 4.962L28.695 16.94 40.579 4.962a16.712 16.712 0 0 0-23.768 0" mask="url(#b)"/>
        <path fill="#3B03A8" d="M28.69 40.903L16.806 28.924 4.922 40.903a16.712 16.712 0 0 0 23.768 0" mask="url(#b)"/>
        <path fill="#2C50FF" d="M40.573 52.881L28.69 40.903 16.806 52.88a16.712 16.712 0 0 0 23.767 0" mask="url(#b)"/>
    </g>
</svg>
