<svg xmlns="http://www.w3.org/2000/svg" xmlns:xlink="http://www.w3.org/1999/xlink" width="130" height="130" viewBox="0 0 130 130">
    <defs>
        <circle id="a" cx="65" cy="65" r="65"/>
        <path id="c" d="M0 266.437h148.736V.167H0z"/>
    </defs>
    <g fill="none" fill-rule="evenodd">
        <mask id="b" fill="#fff">
            <use xlink:href="#a"/>
        </mask>
        <use fill="#C3D9FD" xlink:href="#a"/>
        <g mask="url(#b)">
            <path fill="#FFB50D" d="M46.008-8.312L19.09 18.655-7.827-8.312 19.09-35.279z"/>
            <path fill="#27E3CC" d="M46.008 45.622L19.09 18.655 46.008-8.312"/>
            <path fill="#5203E9" d="M46.008-8.312l26.917 26.967-26.917 26.967"/>
            <path fill="#3E7EFF" d="M99.843 45.622L72.925 72.589 46.008 45.622l26.917-26.967z"/>
            <g transform="translate(-19 -46.603)">
                <path fill="#08C0A6" d="M118.832 38.303L91.914 65.27l26.918 26.967c14.865-14.894 14.865-39.04 0-53.934"/>
                <path fill="#27E3CC" d="M64.996 38.303L91.914 65.27l26.917-26.967c-14.866-14.893-38.969-14.893-53.835 0"/>
                <path fill="#5203E9" d="M11.15 92.248l26.917-26.966L11.15 38.315c-14.867 14.893-14.867 39.04 0 53.933"/>
                <path fill="#3B03A8" d="M64.985 92.248L38.067 65.282 11.15 92.248c14.865 14.894 38.969 14.894 53.835 0"/>
                <path fill="#2C50FF" d="M91.902 119.215L64.985 92.248l-26.918 26.967c14.866 14.893 38.97 14.893 53.835 0"/>
                <path fill="#3E02A9" d="M119.42 116.45l-1.582-20.886 3.024-.891 3.714 16.041a4.546 4.546 0 0 0 2.722 3.19l17.251 6.984c2.348.95 3.546 3.467 2.677 5.62-.87 2.154-3.476 3.128-5.824 2.178l-18.346-7.504c-2.116-.865-3.43-2.727-3.62-4.671-.005-.02-.012-.04-.016-.061"/>
                <path fill="#F2A50C" d="M120.862 94.673s-.797-6.037-2.095-5.594c-1.298.442-1.219 2.751-1.011 3.693.206.94.082 2.792.082 2.792l3.024-.891z"/>
                <path fill="#4C32E2" d="M53.49 113.575L52.473 89.03l-3.644-.624-2.129 19.196a5.335 5.335 0 0 1-2.733 4.09l-19.14 10.506c-2.604 1.43-3.655 4.526-2.347 6.914 1.307 2.39 4.478 3.166 7.08 1.736l20.344-11.261c2.346-1.299 3.621-3.65 3.577-5.94.002-.025.008-.048.01-.073"/>
                <path fill="#F2A50C" d="M48.83 88.407s.1-7.141 1.673-6.804c1.571.338 1.796 3.038 1.685 4.163-.114 1.125.285 3.264.285 3.264l-3.644-.623z"/>
                <path fill="#FFB50D" d="M37.555 111.475l-4.94-.187a3.39 3.39 0 0 1-3.256-3.519l.479-12.735 11.708.443-.48 12.734a3.39 3.39 0 0 1-3.511 3.264"/>
                <path fill="#FFB50D" d="M39.01 115.776l-9.939-.375.411-10.911 9.938.375z"/>
                <path fill="#5410FC" d="M28.121 93.666a5.982 5.982 0 0 0-1.705 5.704c.844 3.646 2.602 10.218 4.309 10.194 2.36-.035 3.603.71 4.179-3.064.577-3.775 3.946-8.368 5.768-9.803 1.821-1.434 3.277-3.539 3.214-5.244-.064-1.706-1.057-2.855-3.34-2.63-1.813.18-8.62 1.26-12.425 4.843"/>
                <path fill="#5930EE" d="M51.207 156.667H19.13l1.42-31.296c.236-6.284 5.744-11.177 12.303-10.93l8.01.303c5.923.224 10.552 5.005 10.338 10.68l.007 31.243z"/>
                <path fill="#4C32E2" d="M50.652 116.83l-27.113 39.837h27.668z"/>
                <path fill="#5930EE" d="M28.984 112.324l9.919-.307 2.018 2.739a.63.63 0 0 1-.393 1.106l-13.938.431 2.394-3.97z"/>
                <path fill="#2374F7" d="M19.13 156.667l-8.965 66.724-8.37 32.231 6.576 2.462 13.761-34.241 18.833-66.221z"/>
                <path fill="#3E7EFF" d="M53.43 225.025h-.012l-2.21-68.381-30.926.045 20.68 67.865h.014l8.075 36.38 6.184-.637z"/>
                <path fill="#FFB50D" d="M135.086 113.885h-.719c-3.408 0-6.17-2.768-6.17-6.182v-6.781a6.176 6.176 0 0 1 6.17-6.181h.719a6.176 6.176 0 0 1 6.17 6.18v6.782c0 3.414-2.763 6.182-6.17 6.182"/>
                <mask id="d" fill="#fff">
                    <use xlink:href="#c"/>
                </mask>
                <path fill="#FFB50D" d="M131.548 118.754h8.761v-8.072h-8.76z" mask="url(#d)"/>
                <path fill="#5930EE" d="M141.649 120.79h-11.89v-1.646c0-1.168.945-2.114 2.11-2.114h8.117c.918 0 1.663.746 1.663 1.665v2.096z" mask="url(#d)"/>
                <path fill="#5930EE" d="M148.558 157.073h-25.552v-30.146c0-4.408 3.567-7.98 7.967-7.98h11.907a5.683 5.683 0 0 1 5.678 5.687v32.439z" mask="url(#d)"/>
                <path fill="#5930EE" d="M123.614 121.31l-.54 35.81h25.552z" mask="url(#d)"/>
                <path fill="#2D0393" d="M128.326 97.537c-.187.6-.182 1.315.088 2.174.633 2.021 3.283 7.723 7.33 10.476 3.653 2.485 6.128 4.587 9.359 3.017 3.178-1.545 4.503-5.373 3.038-8.595a3.153 3.153 0 0 0-.054-.117c-.755-1.598-2.09-2.841-3.705-3.55-.882-.387-2.078-1.08-2.94-2.228-1.53-2.04-2.931-4.062-6.153-4.791-1.16-.263-2.92.061-4.04.468-1.147.415-2.537 1.908-2.923 3.146" mask="url(#d)"/>
                <path fill="#2374F7" d="M148.705 156.88h-16.251l2.536 57.02 1.724 38.154h8.893l.977-38.154h.181z" mask="url(#d)"/>
                <path fill="#3E7EFF" d="M147.228 156.88h-24.075c-2.165 8.336-4.33 16.67-6.493 25.006-1.632 6.28-3.262 12.562-4.893 18.843-1.24 4.773-3.547 9.32-3.297 14.355.169 3.42.8 6.908 1.167 10.318.122 1.132 2.535 26.097 2.817 26.097l7.923.012c.319-9.72-1.755-30.133 1.771-39.418 1.641-4.321 3.89-8.516 5.8-12.726l15.667-34.525c.28-.617 2.999-7.962 3.613-7.962" mask="url(#d)"/>
                <path fill="#5930EE" d="M109.979 120.849l-1.736-22.898 3.316-.977 4.072 17.587a4.986 4.986 0 0 0 2.983 3.497l18.916 7.657c2.573 1.042 3.887 3.802 2.934 6.162-.954 2.361-3.812 3.43-6.385 2.387l-20.114-8.226c-2.32-.949-3.76-2.99-3.97-5.122-.005-.023-.012-.044-.016-.067" mask="url(#d)"/>
                <path fill="#FFB50D" d="M111.706 97.49s-.874-6.62-2.297-6.134c-1.422.486-1.336 3.017-1.11 4.05.228 1.031.091 3.061.091 3.061l3.316-.978z" mask="url(#d)"/>
                <path fill="#5930EE" d="M64.99 116.754l-1.114-26.91-3.996-.683-2.334 21.046a5.85 5.85 0 0 1-2.997 4.483l-20.984 11.519c-2.855 1.567-4.007 4.962-2.574 7.58 1.434 2.62 4.91 3.47 7.765 1.903l22.302-12.346c2.572-1.424 3.97-4 3.922-6.512.002-.027.009-.053.01-.08" mask="url(#d)"/>
                <path fill="#FFB50D" d="M59.88 90.43s.111-7.83 1.835-7.46c1.724.37 1.97 3.33 1.847 4.564-.123 1.233.313 3.579.313 3.579l-3.995-.683z" mask="url(#d)"/>
            </g>
        </g>
    </g>
</svg>
