<svg width="280" height="110" viewBox="0 0 280 110" fill="none" xmlns="http://www.w3.org/2000/svg">
<mask id="mask0" mask-type="alpha" maskUnits="userSpaceOnUse" x="0" y="0" width="280" height="110">
<rect width="280" height="110" rx="10" fill="#C4C4C4"/>
</mask>
<g mask="url(#mask0)">
<rect x="-59.1113" y="-95.8579" width="398.222" height="301.714" rx="10" fill="white"/>
<path d="M89.8498 80.2473C91.7278 82.1445 94.7728 82.1445 96.6509 80.2473C98.5289 78.35 98.5289 75.274 96.6509 73.3768C94.7728 71.4795 91.7278 71.4795 89.8498 73.3768C87.9717 75.274 87.9717 78.35 89.8498 80.2473Z" fill="#E6E6E6"/>
<path d="M76.2878 80.2473C78.1658 82.1445 81.2108 82.1445 83.0888 80.2473C84.9669 78.35 84.9669 75.274 83.0888 73.3768C81.2108 71.4795 78.1658 71.4795 76.2878 73.3768C74.4097 75.274 74.4097 78.35 76.2878 80.2473Z" fill="#F2F2F2"/>
<path d="M76.2658 66.4597C78.1438 68.3569 81.1888 68.3569 83.0669 66.4597C84.9449 64.5624 84.9449 61.4864 83.0669 59.5892C81.1888 57.6919 78.1438 57.6919 76.2658 59.5892C74.3877 61.4864 74.3877 64.5624 76.2658 66.4597Z" fill="#E6E6E6"/>
<path d="M123.877 87.1008C125.755 88.998 128.8 88.998 130.678 87.1008C132.556 85.2035 132.556 82.1275 130.678 80.2303C128.8 78.3331 125.755 78.3331 123.877 80.2303C121.999 82.1275 121.999 85.2035 123.877 87.1008Z" fill="#F2F2F2"/>
<path d="M80.1942 15.489C82.0664 17.3802 82.0664 20.4264 80.1942 22.3176C78.295 24.2362 75.1951 24.2362 73.2959 22.3176L-16.2984 -68.1909C-18.1705 -70.0822 -18.1705 -73.1283 -16.2984 -75.0196C-14.3992 -76.9382 -11.2993 -76.9382 -9.40009 -75.0196L80.1942 15.489Z" fill="url(#paint0_linear)"/>
<path d="M80.0641 29.1601C81.9422 31.0573 84.9871 31.0573 86.8652 29.1601C88.7433 27.2629 88.7433 24.1868 86.8652 22.2896C84.9871 20.3924 81.9422 20.3924 80.0641 22.2896C78.1861 24.1868 78.1861 27.2629 80.0641 29.1601Z" fill="#5203E9"/>
<path d="M117.059 25.2661C118.937 27.1633 121.982 27.1633 123.86 25.2661C125.738 23.3688 125.738 20.2928 123.86 18.3956C121.982 16.4983 118.937 16.4983 117.059 18.3956C115.181 20.2928 115.181 23.3688 117.059 25.2661Z" fill="#F2F2F2"/>
<path d="M123.939 32.2055C125.817 34.1027 128.862 34.1027 130.74 32.2055C132.618 30.3083 132.618 27.2323 130.74 25.335C128.862 23.4378 125.817 23.4378 123.939 25.335C122.061 27.2323 122.061 30.3083 123.939 32.2055Z" fill="#E6E6E6"/>
<path d="M202.657 21.289C204.535 23.1862 207.58 23.1862 209.458 21.289C211.337 19.3918 211.337 16.3157 209.458 14.4185C207.58 12.5213 204.535 12.5213 202.657 14.4185C200.779 16.3157 200.779 19.3918 202.657 21.289Z" fill="#E6E6E6"/>
<path d="M168.623 28.1371C170.501 30.0344 173.546 30.0344 175.424 28.1371C177.302 26.2399 177.302 23.1639 175.424 21.2667C173.546 19.3694 170.501 19.3694 168.623 21.2667C166.745 23.1639 166.745 26.2399 168.623 28.1371Z" fill="#E6E6E6"/>
<path d="M155.061 28.1398C156.939 30.0371 159.984 30.0371 161.862 28.1398C163.74 26.2426 163.74 23.1666 161.862 21.2693C159.984 19.3721 156.939 19.3721 155.061 21.2693C153.183 23.1666 153.183 26.2426 155.061 28.1398Z" fill="#F2F2F2"/>
<path d="M155.039 14.3496C156.917 16.2468 159.962 16.2468 161.84 14.3496C163.718 12.4523 163.718 9.3763 161.84 7.47906C159.962 5.58183 156.917 5.58183 155.039 7.47906C153.161 9.3763 153.161 12.4523 155.039 14.3496Z" fill="#E6E6E6"/>
<path d="M202.65 34.9907C204.528 36.8879 207.573 36.8879 209.451 34.9907C211.329 33.0934 211.329 30.0174 209.451 28.1202C207.573 26.2229 204.528 26.2229 202.65 28.1202C200.772 30.0174 200.772 33.0934 202.65 34.9907Z" fill="#F2F2F2"/>
<path d="M130.626 -3.34576C132.504 -1.44853 135.549 -1.44853 137.427 -3.34576C139.305 -5.24299 139.305 -8.31902 137.427 -10.2162C135.549 -12.1135 132.504 -12.1135 130.626 -10.2162C128.748 -8.31902 128.748 -5.24299 130.626 -3.34576Z" fill="#F2F2F2"/>
<path d="M24.4264 104.307C26.3045 106.205 29.3494 106.205 31.2275 104.307C33.1056 102.41 33.1056 99.3341 31.2275 97.4368C29.3494 95.5396 26.3045 95.5396 24.4264 97.4368C22.5484 99.3341 22.5484 102.41 24.4264 104.307Z" fill="#E6E6E6"/>
<path d="M34.1925 72.7629C36.0706 74.6601 39.1156 74.6601 40.9936 72.7629C42.8717 70.8656 42.8717 67.7896 40.9936 65.8924C39.1156 63.9952 36.0706 63.9952 34.1925 65.8924C32.3145 67.7896 32.3145 70.8656 34.1925 72.7629Z" fill="#E6E6E6"/>
<path d="M24.4484 90.4499C26.3265 92.3471 29.3714 92.3471 31.2495 90.4499C33.1276 88.5527 33.1276 85.4766 31.2495 83.5794C29.3714 81.6822 26.3265 81.6822 24.4484 83.5794C22.5703 85.4766 22.5703 88.5527 24.4484 90.4499Z" fill="#F2F2F2"/>
<path d="M51.672 90.4633C53.5501 92.3606 56.595 92.3606 58.4731 90.4633C60.3512 88.5661 60.3512 85.4901 58.4731 83.5928C56.595 81.6956 53.5501 81.6956 51.672 83.5928C49.794 85.4901 49.794 88.5661 51.672 90.4633Z" fill="#F2F2F2"/>
<path d="M265.085 113.126C266.963 115.024 270.008 115.024 271.886 113.126C273.764 111.229 273.764 108.153 271.886 106.256C270.008 104.359 266.963 104.359 265.085 106.256C263.207 108.153 263.207 111.229 265.085 113.126Z" fill="#F2F2F2"/>
<path d="M271.707 106.396C273.585 108.294 276.63 108.294 278.508 106.396C280.386 104.499 280.386 101.423 278.508 99.5259C276.63 97.6287 273.585 97.6287 271.707 99.5259C269.829 101.423 269.829 104.499 271.707 106.396Z" fill="#E6E6E6"/>
<path d="M268.728 61.7922C270.606 63.6894 273.651 63.6894 275.529 61.7922C277.407 59.8949 277.407 56.8189 275.529 54.9217C273.651 53.0245 270.606 53.0245 268.728 54.9217C266.85 56.8189 266.85 59.8949 268.728 61.7922Z" fill="#E6E6E6"/>
<path d="M234.694 68.643C236.572 70.5402 239.617 70.5402 241.495 68.643C243.373 66.7458 243.373 63.6698 241.495 61.7725C239.617 59.8753 236.572 59.8753 234.694 61.7725C232.815 63.6698 232.815 66.7458 234.694 68.643Z" fill="#E6E6E6"/>
<path d="M221.132 68.6428C223.01 70.54 226.055 70.54 227.933 68.6428C229.811 66.7455 229.811 63.6695 227.933 61.7723C226.055 59.875 223.01 59.875 221.132 61.7723C219.254 63.6695 219.254 66.7455 221.132 68.6428Z" fill="#F2F2F2"/>
<path d="M221.11 54.8554C222.988 56.7526 226.033 56.7526 227.911 54.8554C229.789 52.9582 229.789 49.8822 227.911 47.9849C226.033 46.0877 222.988 46.0877 221.11 47.9849C219.231 49.8822 219.231 52.9582 221.11 54.8554Z" fill="#E6E6E6"/>
<path d="M268.721 75.4938C270.599 77.3911 273.644 77.3911 275.522 75.4938C277.401 73.5966 277.401 70.5206 275.522 68.6233C273.644 66.7261 270.599 66.7261 268.721 68.6233C266.843 70.5206 266.843 73.5966 268.721 75.4938Z" fill="#F2F2F2"/>
<path d="M241.504 61.7814C243.382 63.6787 246.427 63.6787 248.305 61.7814C250.183 59.8842 250.183 56.8082 248.305 54.9109C246.427 53.0137 243.382 53.0137 241.504 54.9109C239.626 56.8082 239.626 59.8842 241.504 61.7814Z" fill="#F2F2F2"/>
<path d="M241.514 34.2814C243.392 36.1787 246.437 36.1787 248.315 34.2814C250.193 32.3842 250.193 29.3082 248.315 27.4109C246.437 25.5137 243.392 25.5137 241.514 27.4109C239.636 29.3082 239.636 32.3842 241.514 34.2814Z" fill="#F2F2F2"/>
<path d="M248.169 27.5834C250.047 29.4807 253.092 29.4807 254.97 27.5834C256.848 25.6862 256.848 22.6102 254.97 20.713C253.092 18.8157 250.047 18.8157 248.169 20.713C246.291 22.6102 246.291 25.6862 248.169 27.5834Z" fill="#E6E6E6"/>
<path d="M261.902 13.6618C263.781 15.559 266.826 15.559 268.704 13.6618C270.582 11.7646 270.582 8.68855 268.704 6.79132C266.826 4.89409 263.781 4.89409 261.902 6.79132C260.024 8.68855 260.024 11.7646 261.902 13.6618Z" fill="#F2F2F2"/>
<path d="M268.737 34.2922C270.616 36.1894 273.66 36.1894 275.539 34.2922C277.417 32.3949 277.417 29.3189 275.539 27.4217C273.66 25.5245 270.616 25.5245 268.737 27.4217C266.859 29.3189 266.859 32.3949 268.737 34.2922Z" fill="#F2F2F2"/>
<path d="M268.783 20.6039C270.661 22.5012 273.706 22.5012 275.584 20.6039C277.463 18.7067 277.463 15.6307 275.584 13.7335C273.706 11.8362 270.661 11.8362 268.783 13.7335C266.905 15.6307 266.905 18.7067 268.783 20.6039Z" fill="#E6E6E6"/>
<path d="M23.17 116.087L-6.07473 86.544C-7.9528 84.6468 -10.9978 84.6468 -12.8758 86.544C-14.7539 88.4412 -14.7539 91.5173 -12.8758 93.4145L16.3689 122.958C18.2469 124.855 21.2919 124.855 23.1699 122.958C25.048 121.06 25.048 117.984 23.17 116.087Z" fill="#08C0A6"/>
<path d="M69.0172 114.952C70.8953 116.85 73.9403 116.85 75.8183 114.952C77.6964 113.055 77.6964 109.979 75.8183 108.082C73.9403 106.185 70.8953 106.185 69.0172 108.082C67.1392 109.979 67.1392 113.055 69.0172 114.952Z" fill="#F2F2F2"/>
<path d="M75.7067 108.225C77.5848 110.123 80.6297 110.123 82.5078 108.225C84.3859 106.328 84.3859 103.252 82.5078 101.355C80.6297 99.4576 77.5848 99.4576 75.7067 101.355C73.8286 103.252 73.8286 106.328 75.7067 108.225Z" fill="#E6E6E6"/>
<path d="M89.4401 94.3007C91.3182 96.198 94.3631 96.198 96.2412 94.3007C98.1192 92.4035 98.1192 89.3275 96.2412 87.4302C94.3631 85.533 91.3182 85.533 89.4401 87.4302C87.562 89.3275 87.562 92.4035 89.4401 94.3007Z" fill="#F2F2F2"/>
<path d="M96.2746 114.931C98.1526 116.828 101.198 116.828 103.076 114.931C104.954 113.034 104.954 109.958 103.076 108.061C101.198 106.163 98.1526 106.163 96.2746 108.061C94.3965 109.958 94.3965 113.034 96.2746 114.931Z" fill="#F2F2F2"/>
<path d="M96.3205 101.24C98.1985 103.137 101.243 103.137 103.122 101.24C105 99.3429 105 96.2669 103.122 94.3697C101.243 92.4725 98.1985 92.4725 96.3205 94.3697C94.4424 96.2669 94.4424 99.3429 96.3205 101.24Z" fill="#E6E6E6"/>
<path d="M2.79654 41.2531C4.67461 43.1503 7.71956 43.1503 9.59763 41.2531C11.4757 39.3559 11.4757 36.2799 9.59763 34.3826C7.71956 32.4854 4.67461 32.4854 2.79654 34.3826C0.918472 36.2799 0.918472 39.3559 2.79654 41.2531Z" fill="#E6E6E6"/>
<path d="M2.7897 54.9521C4.66777 56.8493 7.71273 56.8493 9.59079 54.9521C11.4689 53.0549 11.4689 49.9788 9.59079 48.0816C7.71273 46.1844 4.66777 46.1844 2.7897 48.0816C0.911636 49.9788 0.911636 53.0549 2.7897 54.9521Z" fill="#F2F2F2"/>
<path d="M2.8859 0.0272851C4.76396 1.92452 7.80892 1.92452 9.68699 0.0272851C11.5651 -1.86995 11.5651 -4.94597 9.68699 -6.8432C7.80892 -8.74044 4.76396 -8.74044 2.8859 -6.8432C1.00783 -4.94597 1.00783 -1.86995 2.8859 0.0272851Z" fill="#E6E6E6"/>
<path d="M130.667 10.4069C132.545 12.3042 135.59 12.3042 137.468 10.4069C139.346 8.50969 139.346 5.43367 137.468 3.53644C135.59 1.6392 132.545 1.6392 130.667 3.53644C128.789 5.43367 128.789 8.50969 130.667 10.4069Z" fill="#3E7EFF"/>
<path d="M174.611 -40.8762C174.611 -40.8673 174.6 -40.8629 174.594 -40.8692L171.638 -43.8552C170.968 -44.5328 170.968 -45.6242 171.639 -46.3012L199.891 -74.7998C201.764 -76.6893 201.766 -79.7351 199.894 -81.626C197.995 -83.5442 194.895 -83.5431 192.998 -81.6235L163.646 -51.9287L162.329 -50.6074C159.279 -47.548 159.27 -42.6006 162.309 -39.5305C165.341 -36.4681 165.341 -31.5357 162.309 -28.4734L137.402 -3.3116C135.532 -1.42227 135.537 1.62241 137.414 3.50511C139.308 5.40553 142.388 5.40009 144.276 3.49299L179.435 -32.0251C180.52 -33.1212 180.523 -34.8857 179.442 -35.9857L174.628 -40.8832C174.622 -40.8896 174.611 -40.8852 174.611 -40.8762Z" fill="url(#paint1_linear)"/>
<path d="M169.811 104.301C167.933 102.404 164.888 102.404 163.01 104.301C161.132 106.198 161.132 109.274 163.01 111.172C164.888 113.069 167.933 113.069 169.811 111.172C171.689 109.274 171.689 106.198 169.811 104.301Z" fill="#FFDD0F"/>
<path d="M125.895 155.614C128.208 157.924 128.218 161.67 125.916 163.991L100.615 189.513C98.7416 191.403 98.7405 194.448 100.612 196.339C102.511 198.258 105.611 198.256 107.508 196.337L136.843 166.659C136.849 166.653 136.86 166.657 136.86 166.666C136.86 166.675 136.871 166.68 136.877 166.673L141.713 161.788C142.807 160.682 142.807 158.902 141.713 157.796L138.204 154.252C135.168 151.184 135.166 146.244 138.2 143.175L163.083 118.003C164.94 116.124 164.939 113.099 163.08 111.221C161.194 109.315 158.115 109.314 156.228 111.218L125.899 141.821C122.115 145.639 122.113 151.793 125.895 155.614Z" fill="url(#paint2_linear)"/>
<path d="M24.2774 48.9285C21.986 46.6137 21.9846 42.8858 24.2743 40.5693L49.5876 14.9603C51.4468 13.0794 51.451 10.0541 49.5971 8.16796C47.7059 6.24398 44.6065 6.2385 42.7086 8.1558L13.3126 37.8518L12.0075 39.1609C8.94887 42.2289 8.93468 47.1888 11.9757 50.2743C15.0091 53.3521 15.0036 58.2969 11.9635 61.368L-12.9076 86.493C-14.7685 88.3728 -14.7738 91.399 -12.9196 93.2854C-11.0292 95.2087 -7.93085 95.2141 -6.03361 93.2975L24.3016 62.6528C28.0671 58.8489 28.0562 52.719 24.2774 48.9285Z" fill="url(#paint3_linear)"/>
<path d="M175.433 21.278C177.311 23.1753 180.356 23.1753 182.234 21.278C184.112 19.3808 184.112 16.3048 182.234 14.4075C180.356 12.5103 177.311 12.5103 175.433 14.4075C173.555 16.3048 173.555 19.3808 175.433 21.278Z" fill="#3E7EFF"/>
<path d="M58.3377 90.2912C56.4597 92.1884 56.4597 95.2645 58.3377 97.1617C60.2158 99.0589 63.2608 99.0589 65.1388 97.1617C67.0169 95.2645 67.0169 92.1884 65.1388 90.2912C63.2608 88.394 60.2158 88.394 58.3377 90.2912Z" fill="#27E3CC"/>
<path d="M2.80582 13.7504C4.68389 15.6477 7.72884 15.6477 9.60691 13.7504C11.485 11.8532 11.485 8.77717 9.60691 6.87994C7.72884 4.98271 4.68389 4.98271 2.80582 6.87994C0.927749 8.77717 0.927749 11.8532 2.80582 13.7504Z" fill="#27E3CC"/>
<rect opacity="0.5" x="-59.1113" y="-95.8579" width="398.222" height="301.714" rx="10" fill="white"/>
</g>
<path d="M0.25 10.0661C0.25 4.64325 4.61677 0.25 10 0.25H270C275.383 0.25 279.75 4.64326 279.75 10.0661V99.9339C279.75 105.357 275.383 109.75 270 109.75H10C4.61677 109.75 0.25 105.357 0.25 99.9339V10.0661Z" stroke="#303030" stroke-width="0.5"/>
<defs>
<linearGradient id="paint0_linear" x1="71.0423" y1="27.9834" x2="25.1798" y2="-92.9186" gradientUnits="userSpaceOnUse">
<stop offset="0.00945313" stop-color="#3B03A8"/>
<stop offset="0.7347" stop-color="white"/>
</linearGradient>
<linearGradient id="paint1_linear" x1="142.111" y1="7.69915" x2="196.296" y2="-85.2033" gradientUnits="userSpaceOnUse">
<stop offset="0.00945313" stop-color="#1D3BFF"/>
<stop offset="0.7347" stop-color="white"/>
</linearGradient>
<linearGradient id="paint2_linear" x1="105.016" y1="200.394" x2="159.2" y2="107.492" gradientUnits="userSpaceOnUse">
<stop offset="0.2653" stop-color="white"/>
<stop offset="0.9905" stop-color="#FFB50D"/>
</linearGradient>
<linearGradient id="paint3_linear" x1="-16.2761" y1="50.7275" x2="52.9458" y2="50.7275" gradientUnits="userSpaceOnUse">
<stop offset="0.2307" stop-color="#08C0A6"/>
<stop offset="0.7347" stop-color="white"/>
</linearGradient>
</defs>
</svg>
