<svg xmlns="http://www.w3.org/2000/svg" xmlns:xlink="http://www.w3.org/1999/xlink" width="302" height="51" viewBox="0 0 302 51">
    <defs>
        <path id="a" d="M0 50.233h301.544V0H0z"/>
    </defs>
    <g fill="none" fill-rule="evenodd">
        <path fill="#404041" d="M86.88 25.772c0 1.343-.326 2.35-.975 3.022-.65.669-1.517 1.004-2.6 1.004-.976 0-1.754-.286-2.34-.86-.584-.573-.876-1.402-.876-2.482v-9.45h-3.033V17h-3.31v.006h-2.572v-.162c0-2.013 1.148-2.933 3.445-2.76V10.06c-2.534-.153-4.441.367-5.719 1.557-1.279 1.19-1.917 2.934-1.917 5.228v.162h-2.34v4.026h2.34v12.21h4.191v-12.21h3.445v-.002h1.279v5.944c0 2.1.579 3.745 1.738 4.935 1.158 1.191 2.627 1.787 4.402 1.787 2.21 0 3.822-.759 4.841-2.274v1.82h4.191V17.006h-4.19v8.766zM103.305 16.552c-2.21 0-3.822.758-4.841 2.272v-1.818h-4.191V33.24h4.19v-8.767c0-1.342.326-2.349.975-3.02.65-.67 1.517-1.007 2.6-1.007.974 0 1.754.288 2.34.86.584.576.876 1.403.876 2.485v9.45h4.191v-9.97c0-2.1-.579-3.745-1.738-4.935-1.158-1.19-2.627-1.785-4.402-1.785M123.483 28.42c-.845.854-1.917 1.282-3.216 1.282-1.3 0-2.376-.428-3.233-1.283-.856-.854-1.284-1.954-1.284-3.296 0-1.342.428-2.441 1.284-3.295.857-.855 1.933-1.282 3.233-1.282s2.371.427 3.216 1.282c.846.854 1.267 1.953 1.267 3.295 0 1.342-.421 2.442-1.267 3.296zm1.267-9.498c-1.233-1.58-2.989-2.37-5.263-2.37-2.188 0-4.055.827-5.604 2.483-1.548 1.656-2.324 3.687-2.324 6.088 0 2.402.776 4.433 2.324 6.089 1.549 1.655 3.416 2.484 5.604 2.484 2.274 0 4.03-.792 5.263-2.371v1.915h4.192V10.513h-4.192v8.41zM134.253 9.895c-.693 0-1.295.26-1.803.78-.51.519-.763 1.125-.763 1.818 0 .692.254 1.292.763 1.802.508.509 1.11.762 1.803.762.715 0 1.327-.253 1.836-.762.509-.51.764-1.11.764-1.802 0-.693-.255-1.299-.764-1.819a2.477 2.477 0 0 0-1.836-.779"/>
        <mask id="b" fill="#fff">
            <use xlink:href="#a"/>
        </mask>
        <path fill="#404041" d="M132.175 33.24h4.19V17.006h-4.19zM148.63 16.552c-2.21 0-3.823.758-4.842 2.272v-1.818h-4.191V33.24h4.19v-8.767c0-1.342.326-2.349.977-3.02.649-.67 1.515-1.007 2.6-1.007.973 0 1.753.288 2.337.86.585.576.879 1.403.879 2.485v9.45h4.19v-9.97c0-2.1-.58-3.745-1.738-4.935-1.159-1.19-2.626-1.785-4.403-1.785M168.902 28.061c-.856.834-1.944 1.25-3.264 1.25-1.322 0-2.411-.416-3.266-1.25-.855-.832-1.282-1.898-1.282-3.198 0-1.277.427-2.332 1.282-3.166.855-.833 1.944-1.249 3.266-1.249 1.32 0 2.408.416 3.264 1.25.857.833 1.284 1.888 1.284 3.165 0 1.3-.427 2.366-1.284 3.198zm1.284-9.043c-1.234-1.643-2.968-2.467-5.199-2.467-2.274 0-4.19.813-5.75 2.437-1.56 1.623-2.338 3.583-2.338 5.875 0 2.317.773 4.282 2.322 5.893 1.548 1.613 3.47 2.42 5.766 2.42 2.231 0 3.965-.823 5.199-2.47v1.756c0 1.278-.38 2.261-1.137 2.953-.76.693-1.799 1.04-3.12 1.04-2.013 0-3.433-.758-4.256-2.272l-3.574 2.045a7.048 7.048 0 0 0 3.07 2.955c1.334.669 2.876 1.005 4.631 1.005 2.338 0 4.337-.661 5.994-1.98 1.656-1.32 2.486-3.236 2.486-5.746V17.005h-4.094v2.013zM189.97 24.925l-2.907-.765c-.963-.253-1.785-.602-2.464-1.05-.68-.448-1.019-1.065-1.019-1.854 0-.913.375-1.643 1.121-2.186.748-.542 1.673-.815 2.778-.815.93 0 1.775.212 2.534.635a3.58 3.58 0 0 1 1.624 1.834l1.365-.78c-.455-.995-1.164-1.784-2.128-2.37-.964-.584-2.095-.876-3.395-.876-1.625 0-2.952.443-3.98 1.331-1.029.888-1.542 1.981-1.542 3.278 0 1.084.334 1.95 1.006 2.598.671.65 1.494 1.103 2.469 1.36l2.907.765c.963.253 1.781.616 2.454 1.093.671.476 1.006 1.114 1.006 1.914 0 .974-.395 1.726-1.185 2.255-.79.53-1.792.795-3.004.795-1.215 0-2.237-.253-3.072-.761-.834-.51-1.401-1.207-1.706-2.096l-1.397.813c.412 1.082 1.155 1.954 2.226 2.613 1.072.66 2.39.99 3.949.99 1.732 0 3.134-.433 4.205-1.299 1.074-.865 1.61-1.968 1.61-3.312 0-1.131-.332-2.033-.996-2.71-.665-.678-1.484-1.145-2.459-1.4M208.704 30.075c-1.322 1.342-2.946 2.013-4.874 2.013-1.928 0-3.558-.67-4.89-2.013-1.33-1.342-1.997-2.975-1.997-4.902s.666-3.562 1.998-4.904c1.331-1.34 2.961-2.013 4.89-2.013 1.927 0 3.55.673 4.873 2.013 1.32 1.342 1.982 2.977 1.982 4.904s-.662 3.56-1.982 4.902m-4.874-13.378c-2.382 0-4.401.818-6.058 2.453-1.659 1.634-2.486 3.642-2.486 6.023s.827 4.39 2.486 6.021c1.657 1.637 3.676 2.451 6.058 2.451 2.36 0 4.37-.814 6.027-2.45 1.657-1.633 2.486-3.641 2.486-6.022 0-2.381-.83-4.39-2.486-6.023-1.657-1.635-3.667-2.453-6.027-2.453M226.403 31.179c-1.03.605-2.193.908-3.492.908-1.95 0-3.585-.664-4.906-1.997-1.322-1.33-1.982-2.97-1.982-4.918s.66-3.59 1.982-4.918c1.32-1.331 2.955-1.997 4.906-1.997 1.3 0 2.462.303 3.492.908 1.029.607 1.781 1.428 2.258 2.469l1.332-.781c-.584-1.275-1.517-2.289-2.794-3.036-1.278-.746-2.708-1.119-4.288-1.119-2.448 0-4.483.811-6.108 2.434-1.625 1.624-2.437 3.638-2.437 6.04s.812 4.416 2.437 6.04c1.625 1.623 3.66 2.434 6.108 2.434 1.58 0 3.015-.373 4.304-1.119 1.288-.747 2.258-1.748 2.909-3.004l-1.366-.811a6.078 6.078 0 0 1-2.355 2.467M232.768 33.289h1.625V17.053h-1.625zM233.58 10.561c-.347 0-.651.125-.91.373-.26.25-.39.547-.39.894 0 .367.13.676.39.925.259.248.563.373.91.373.345 0 .648-.125.908-.373.26-.249.391-.558.391-.925 0-.347-.13-.644-.39-.894a1.274 1.274 0 0 0-.91-.373M239.112 24.426c.172-1.819.877-3.301 2.111-4.449 1.236-1.147 2.774-1.72 4.614-1.72 1.646 0 3.071.547 4.272 1.64 1.203 1.093 1.89 2.602 2.064 4.529h-13.061zm6.725-7.728c-2.469 0-4.49.806-6.058 2.419-1.571 1.613-2.356 3.63-2.356 6.056 0 2.467.8 4.496 2.403 6.087 1.605 1.59 3.65 2.385 6.142 2.385 1.58 0 2.988-.33 4.223-.99 1.234-.659 2.188-1.553 2.859-2.678l-1.43-.843c-.498.887-1.235 1.601-2.21 2.143-.974.54-2.11.811-3.41.811-1.863 0-3.427-.557-4.695-1.671-1.266-1.114-1.997-2.582-2.193-4.4h14.718c0-.087.005-.218.016-.39a6.48 6.48 0 0 0 .016-.39c0-2.316-.742-4.318-2.225-6.007-1.485-1.688-3.417-2.532-5.8-2.532zM259.46 12.51l-1.657.488v4.057h-3.574v1.59h3.574v10.553c0 1.798.535 3.009 1.607 3.637 1.073.626 2.703.78 4.89.454v-1.461c-1.104.108-2.015.135-2.729.08-.714-.052-1.246-.286-1.592-.697-.347-.41-.52-1.08-.52-2.013V18.646h4.84v-1.59h-4.84V12.51zM266.825 33.289h1.625V17.053h-1.625zM267.637 10.561c-.347 0-.651.125-.91.373-.26.25-.39.547-.39.894 0 .367.13.676.39.925.259.248.563.373.91.373.346 0 .649-.125.909-.373.26-.249.39-.558.39-.925 0-.347-.13-.644-.39-.894a1.274 1.274 0 0 0-.91-.373M273.169 24.426c.172-1.819.877-3.301 2.111-4.449 1.235-1.147 2.774-1.72 4.614-1.72 1.646 0 3.07.547 4.272 1.64 1.203 1.093 1.89 2.602 2.064 4.529h-13.061zm6.725-7.728c-2.469 0-4.49.806-6.06 2.419-1.57 1.613-2.355 3.63-2.355 6.056 0 2.467.802 4.496 2.404 6.087 1.603 1.59 3.65 2.385 6.14 2.385 1.582 0 2.99-.33 4.225-.99 1.234-.659 2.188-1.553 2.859-2.678l-1.43-.843c-.498.887-1.235 1.601-2.21 2.143-.974.54-2.11.811-3.41.811-1.863 0-3.429-.557-4.695-1.671-1.266-1.114-1.998-2.582-2.193-4.4h14.718c0-.087.005-.218.016-.39a6.48 6.48 0 0 0 .016-.39c0-2.316-.742-4.318-2.225-6.007-1.485-1.688-3.417-2.532-5.8-2.532zM300.548 26.324c-.665-.677-1.483-1.144-2.457-1.399l-2.907-.765c-.965-.253-1.787-.602-2.466-1.05-.678-.448-1.017-1.065-1.017-1.854 0-.913.373-1.643 1.12-2.186.747-.542 1.674-.813 2.777-.813.932 0 1.777.21 2.534.633.76.422 1.3 1.032 1.625 1.834l1.365-.78c-.454-.995-1.164-1.784-2.129-2.37-.963-.583-2.095-.876-3.395-.876-1.623 0-2.95.443-3.979 1.331-1.028.89-1.543 1.981-1.543 3.28 0 1.082.336 1.947 1.006 2.596.671.65 1.494 1.103 2.47 1.36l2.907.765c.964.253 1.782.616 2.453 1.093.671.476 1.008 1.114 1.008 1.914 0 .974-.396 1.726-1.187 2.255-.79.53-1.792.795-3.004.795-1.214 0-2.236-.253-3.07-.761-.834-.51-1.403-1.207-1.706-2.096l-1.397.813c.411 1.082 1.154 1.954 2.226 2.613 1.072.66 2.387.99 3.947.99 1.732 0 3.135-.433 4.207-1.299 1.073-.865 1.609-1.968 1.609-3.312 0-1.131-.332-2.033-.997-2.71" mask="url(#b)"/>
        <path fill="#FFB50D" d="M25.14 14.707L14.73 25.11 4.32 14.707 14.73 4.305z" mask="url(#b)"/>
        <path fill="#27E3CC" d="M25.14 35.513L14.73 25.111l10.41-10.404" mask="url(#b)"/>
        <path fill="#5203E9" d="M25.14 14.707L35.547 25.11 25.139 35.514" mask="url(#b)"/>
        <path fill="#3E7EFF" d="M45.957 35.513L35.548 45.914l-10.409-10.4L35.55 25.11z" mask="url(#b)"/>
        <path fill="#07C0A6" d="M45.953 14.712l-10.41 10.402 10.41 10.403c5.749-5.746 5.749-15.061 0-20.805" mask="url(#b)"/>
        <path fill="#27E3CC" d="M25.134 14.712l10.41 10.402 10.408-10.402c-5.747-5.745-15.068-5.745-20.818 0" mask="url(#b)"/>
        <path fill="#5203E9" d="M4.312 35.521L14.72 25.12 4.31 14.716c-5.748 5.746-5.748 15.061 0 20.805" mask="url(#b)"/>
        <path fill="#FFDD0F" d="M14.725 4.31l10.409 10.402 10.41-10.403c-5.749-5.745-15.07-5.745-20.819 0" mask="url(#b)"/>
        <path fill="#3B03A8" d="M25.13 35.521L14.72 25.12 4.312 35.52c5.75 5.746 15.069 5.746 20.818 0" mask="url(#b)"/>
        <path fill="#2C50FF" d="M35.54 45.924L25.13 35.522 14.72 45.924c5.749 5.746 15.07 5.746 20.82 0" mask="url(#b)"/>
    </g>
</svg>
