<svg xmlns="http://www.w3.org/2000/svg" width="82" height="82" viewBox="0 0 82 82">
    <g fill="none" fill-rule="evenodd">
        <path fill="#FFB50D" d="M41 24L24 41 7 24 24 7z"/>
        <path fill="#27E3CC" d="M41 58L24 41l17-17"/>
        <path fill="#5203E9" d="M41 24l17 17-17 17"/>
        <path fill="#3E7EFF" d="M75 58L58 75 41 58l17-17z"/>
        <path fill="#07C0A6" d="M74.97 24L58 41l16.97 17c9.373-9.389 9.373-24.611 0-34"/>
        <path fill="#27E3CC" d="M41 24.03L58 41l17-16.97c-9.389-9.373-24.61-9.373-34 0"/>
        <path fill="#5203E9" d="M7.03 58L24 41 7.03 24c-9.373 9.389-9.373 24.611 0 34"/>
        <path fill="#FFDD0F" d="M24 7.03L41 24 58 7.03c-9.39-9.373-24.611-9.373-34 0"/>
        <path fill="#3B03A8" d="M41 57.97L24 41 7 57.97c9.39 9.373 24.611 9.373 34 0"/>
        <path fill="#2C50FF" d="M58 74.97L41 58 24 74.97c9.389 9.373 24.61 9.373 34 0"/>
    </g>
</svg>
