<svg xmlns="http://www.w3.org/2000/svg" xmlns:xlink="http://www.w3.org/1999/xlink" width="304" height="299" viewBox="0 0 304 299">
    <defs>
        <path id="a" d="M.471 5.085h12.656V.393H.471v4.692z"/>
        <path id="c" d="M0 .568v13.116h8.456V.568H0z"/>
    </defs>
    <g fill="none" fill-rule="evenodd">
        <path fill="#08C0A6" d="M136.395 236.47c-65.316 0-118.263-52.905-118.263-118.165C18.132 53.043 71.079.138 136.395.138c65.315 0 118.264 52.905 118.264 118.167 0 65.26-52.95 118.166-118.264 118.166" opacity=".2"/>
        <path fill="#08C0A6" d="M136.395 210.66c-51.048 0-92.43-41.35-92.43-92.355 0-51.006 41.382-92.355 92.43-92.355 51.048 0 92.43 41.349 92.43 92.355 0 51.006-41.382 92.354-92.43 92.354" opacity=".2"/>
        <path fill="#08C0A6" d="M136.395 182.812c-35.656 0-64.56-28.881-64.56-64.507 0-35.627 28.904-64.508 64.56-64.508 35.656 0 64.56 28.881 64.56 64.508 0 35.626-28.904 64.507-64.56 64.507" opacity=".2"/>
        <path fill="#08C0A6" d="M180.36 118.305c0 24.261-19.683 43.929-43.964 43.929-24.282 0-43.966-19.668-43.966-43.929 0-24.262 19.684-43.93 43.966-43.93 24.28 0 43.965 19.668 43.965 43.93"/>
        <path fill="#FFF" d="M126.26 136.728a3.806 3.806 0 0 1-2.597-1.02l-11.368-10.554a3.813 3.813 0 0 1-.198-5.391 3.822 3.822 0 0 1 5.395-.198l8.67 8.052 29.034-29.048a3.817 3.817 0 0 1 5.397-.004 3.81 3.81 0 0 1 .004 5.393l-31.635 31.651a3.807 3.807 0 0 1-2.701 1.12"/>
        <path fill="#5882FF" d="M272.662 210.22l-7.079 12.913c.233.231.59.31.905.164l21.186-9.82a.806.806 0 0 0 .393-1.07l-7.239-15.595a.796.796 0 0 0-.575-.437.799.799 0 0 0-.497.045l-21.187 9.82a.807.807 0 0 0-.393 1.07l7.24 15.594c.042.09.101.163.167.228l7.079-12.911z"/>
        <path fill="#706AE2" d="M264.495 240.024l-7.68-38.057-19.637.31 16.429 43.545 1.206 3.135a5.678 5.678 0 0 0 5.24 3.59l26.793-.44.558-6.9-20.667-3.086a2.702 2.702 0 0 1-2.242-2.097"/>
        <path fill="#FFDA99" d="M299.939 247.079l-12.535-1.872-.559 6.9 12.525-.206z"/>
        <path fill="#6C4DCE" d="M299.366 251.933l1.197 6.566a2.07 2.07 0 0 0 1.75 1.495l1.395-11.856a.608.608 0 0 0-.534-.676l-3.237-.38-.57 4.85z"/>
        <path fill="#613CBC" d="M277.898 214.753l-3.195 2.553L252.665 185a7.37 7.37 0 0 1 2.041-10.313l23.192 40.066z"/>
        <path fill="#FFDA99" d="M277.898 214.753s1.299 1.932.805 2.99c-.493 1.057-2.085 2.313-3.626 1.442 0 0 .908-.735.679-1.08-.23-.345-.767-1.028-.767-1.028l2.91-2.324zM245.81 168.866a5.376 5.376 0 0 1-5.464-5.29l-.084-5.288a5.378 5.378 0 0 1 5.295-5.46 5.378 5.378 0 0 1 5.464 5.289l.083 5.289a5.378 5.378 0 0 1-5.294 5.46"/>
        <path fill="#FFDA99" d="M250.318 173.998l-8.07.127-.136-8.583 8.07-.127z"/>
        <path fill="#6C4DCE" d="M251.261 173.246l-10.432.164-.048-3.083a.816.816 0 0 1 .805-.83l8.795-.14a.817.817 0 0 1 .83.804l.05 3.085z"/>
        <path fill="#6C4DCE" d="M256.815 201.967l-19.637.31-.344-23.24a6.512 6.512 0 0 1 6.392-6.014l6.621-.105a6.503 6.503 0 0 1 6.609 6.397l.359 22.652z"/>
        <path fill="#6C4DCE" d="M247.758 181.949l-21.755 8.134a4.054 4.054 0 1 1-2.845-7.595l21.755-8.135a4.055 4.055 0 1 1 2.845 7.596"/>
        <path fill="#6C4DCE" d="M223.924 190.175a3.362 3.362 0 0 1-3.414-3.527l1.1-22.243 3.776-.06 1.838 22.191a3.363 3.363 0 0 1-3.3 3.639"/>
        <path fill="#FFDA99" d="M221.609 164.405s-2.119-4.009 1.834-4.543c0 0 3.942-.142 1.943 4.483l-3.777.06z"/>
        <path fill="#6C4DCE" d="M240.1 294.13l-6.361 2.04a2.065 2.065 0 0 0-1.256 1.927l11.945-.157a.609.609 0 0 0 .601-.616l-.042-3.257-4.888.064z"/>
        <path fill="#FFDA99" d="M240.072 294.132l4.915-.065 1.92-13.42-7.675.12z"/>
        <path fill="#8579F2" d="M250.484 255.383l6.33-53.416-19.636.31.357 52.99c.021.384.08.756.164 1.118l1.533 24.383 7.675-.12 3.563-24.903c.011-.122.009-.24.014-.362"/>
        <path fill="#4C06B0" d="M239.986 155.154c-.167.549-.158 1.203.095 1.985.594 1.84 3.059 7.027 6.782 9.51 3.362 2.244 5.641 4.144 8.586 2.689 2.9-1.433 4.085-4.937 2.722-7.867l-.05-.106c-.702-1.454-1.932-2.58-3.416-3.215-.81-.347-1.91-.97-2.707-2.013-1.415-1.852-2.71-3.687-5.665-4.33-1.063-.232-2.671.076-3.693.455-1.048.388-2.31 1.76-2.654 2.892"/>
        <path fill="#3A6FE9" d="M176.585 253.307a5.959 5.959 0 0 1 .019-1.049l7.385-51.885 16.886-.464-12.78 53.648a5.64 5.64 0 0 1-.105.617l-4.589 39.868-4.94.306-1.885-41.04h.01z"/>
        <path fill="#5882FF" d="M188.647 200.57l16.59-.78 1.312 47.769c.001.03.007.057.008.086l.707 45.572-4.986.308-6.887-39.656a5.733 5.733 0 0 1-.282-1.624l-.002-.01-.57-3.277a5.619 5.619 0 0 1-.076-1.137l-5.814-47.25z"/>
        <path fill="#6C4DCE" d="M199.13 169.581a3.998 3.998 0 0 1 4.933 2.759l5.18 18.32c.026.092.03.186.048.278.02.06.053.113.07.175l5.767 23.305-2.856.846-10.32-21.418c-.03-.065-.042-.133-.067-.199a3.977 3.977 0 0 1-.338-.814l-5.178-18.321a3.994 3.994 0 0 1 2.76-4.93"/>
        <path fill="#FFDA99" d="M192.65 165.027l.129-.004a5.135 5.135 0 0 0 4.994-5.272l-.253-9.249-10.4.285.254 9.25a5.135 5.135 0 0 0 5.276 4.99"/>
        <path fill="#FFDA99" d="M188.565 171.161l8.67-.238-.302-10.962-8.669.238z"/>
        <path fill="#6C4DCE" d="M183.99 200.373l21.246-.583-.685-24.927a6.979 6.979 0 0 0-7.171-6.782l-7.287.2a6.98 6.98 0 0 0-6.79 7.165l.686 24.927z"/>
        <path fill="#6C4DCE" d="M187.908 169.571l9.896-.271-.093-3.4a.758.758 0 0 0-.779-.736l-8.38.23a.758.758 0 0 0-.737.777l.093 3.4zM180.047 192.641l11.132-16.832a2.903 2.903 0 0 0-.822-4.026l-1.819-1.202a2.91 2.91 0 0 0-4.03.822l-11.132 16.833a3.944 3.944 0 0 0 1.116 5.467l.083.054a3.95 3.95 0 0 0 5.472-1.116"/>
        <path fill="#6C4DCE" d="M177.85 193.735a3.668 3.668 0 0 0 1.8-4.813l-9.163-21.315-2.955.776 5.211 22.968a3.674 3.674 0 0 0 5.106 2.384"/>
        <path fill="#FFDA99" d="M170.441 167.58s.84-2.73-1.15-3.483a2.212 2.212 0 0 0-1.614.034c-1.07.434-2.625 1.613-.145 4.252l2.909-.802z"/>
        <path fill="#5882FF" d="M198.131 158.84s-1.063 1.2-1.472.04c-.41-1.159-.46-4.367-2.4-4.806-1.94-.438-8.787-.627-8.156-3.816.63-3.19 3.285-2.847 4.58-2.543 1.35.318 2.68.753 3.99 1.203 1.173.404 2.864.71 3.472 1.94.675 1.367.61 3.505.47 4.986-.145 1.552-.228 2.756-.484 2.997"/>
        <path fill="#002486" d="M202.323 293.523l-6.33 2.376a2.093 2.093 0 0 0-1.176 2.012l12.073-.749a.615.615 0 0 0 .577-.654l-.203-3.29-4.94.305z"/>
        <g transform="translate(170.48 293.65)">
            <mask id="b" fill="#fff">
                <use xlink:href="#a"/>
            </mask>
            <path fill="#002486" d="M7.982.698L1.651 3.073A2.094 2.094 0 0 0 .475 5.085l12.074-.748a.616.616 0 0 0 .577-.654l-.204-3.29-4.94.305z" mask="url(#b)"/>
        </g>
        <path fill="#FFDA99" d="M215.137 214.382s1.39 3.267 1.53 4.84c.14 1.572.034 3.112-.705 3.013-.739-.1-1.965-2.43-2.401-3.29-.437-.861-.636-1.752-.998-2.05-.361-.3-.29-1.63-.29-1.63l2.864-.883z"/>
        <path fill="#613CBC" d="M38.21 187.264a3.436 3.436 0 0 0 4.57-1.596l9.59-19.886a3.429 3.429 0 0 0-1.598-4.565 3.434 3.434 0 0 0-4.57 1.596l-9.59 19.884a3.43 3.43 0 0 0 1.598 4.567"/>
        <path fill="#FFD188" d="M3.05 284.086l8.92-19.373 6.62 5.278L6.03 288.3z"/>
        <path fill="#38057F" d="M18.195 250.463l8.679-58.751 17.618 4.91-15.586 58.333-.023.034-10.292 15.002-6.62-5.279 5.655-12.282c.286-.624.479-1.287.569-1.967"/>
        <path fill="#FFDA99" d="M46.848 293.322l-5.168.026-.138-18.55h8.24z"/>
        <path fill="#4B04B0" d="M25.995 197.663l18.497-1.041 8.248 57.17a9.96 9.96 0 0 1-.045 2.848l-2.912 18.158h-8.24l-.137-15.96a14.832 14.832 0 0 0-.64-4.199l-14.771-56.976z"/>
        <path fill="#FFDA99" d="M39.49 153.544l1.019-.089a4.29 4.29 0 0 1 4.65 3.898l.37 4.243a4.28 4.28 0 0 1-1.76 3.844 2.67 2.67 0 0 0-1.09 2.565l.525 3.404-5.314.82-.998-6.461.957-.148a4.277 4.277 0 0 1-1.89-3.189l-.371-4.242a4.29 4.29 0 0 1 3.902-4.645"/>
        <path fill="#6C4DCE" d="M43.133 170.503s3.93 9.059 2.53 15.33c-1.402 6.27-1.17 10.788-1.17 10.788l-18.498 1.042 3.545-20.415 7.167-8.681s3.834 4.051 6.426 1.936"/>
        <path fill="#5882FF" d="M31.117 210.838a.83.83 0 0 1-.15-.74l31.887-1.608a.837.837 0 0 1-.256.926l-18.9 15.452a.845.845 0 0 1-1.189-.119l-11.392-13.91zm20.207-16.52l11.392 13.911c.065.08.107.17.138.261l-31.887 1.608a.818.818 0 0 1 .268-.446l18.901-15.454a.845.845 0 0 1 1.188.12z"/>
        <path fill="#00CCA1" d="M46.938 293.284l6.818 2.348a2.228 2.228 0 0 1 1.312 2.11l-12.89-.446a.657.657 0 0 1-.636-.679l.121-3.515 5.275.182z"/>
        <path fill="#FFDA99" d="M53.191 215.014s3.282 3.538.992 5.124c-2.289 1.588-3.072-.291-4.58-2.185l3.588-2.94zM53.191 215.013l-8.432-11.44-4.529 3.703 9.372 10.677z"/>
        <path fill="#613CBC" d="M43.019 201.213a4.876 4.876 0 0 1-.76-1.543l-5.951-20.627c-.703-2.201-3.024-3.4-5.046-2.52-1.764.767-2.543 2.95-1.915 4.916l6.529 20.457c.252.789.73 1.433 1.322 1.895l-.017.012 3.05 3.472 4.528-3.702-1.74-2.36z"/>
        <g transform="translate(0 283.48)">
            <mask id="d" fill="#fff">
                <use xlink:href="#c"/>
            </mask>
            <path fill="#00CCA1" d="M6.09 4.738l2.303 6.664c.21.859-.119 1.76-.834 2.282L.124 3.494a.642.642 0 0 1 .14-.9L3.047.569l3.042 4.17z" mask="url(#d)"/>
        </g>
        <path fill="#FFAD1F" d="M45.806 156.078a.732.732 0 0 1-.56.985c-1.94.342-6.642 1.555-7.223 5.321-.733 4.763 5.175 10.487.821 15.06-4.134 4.343-.661 8.434-4.11 12.521-5.089 6.032-15.079 4.617-17.599-3.787-2.435-8.12 4.044-9.49 6.576-14.77 2.368-4.94 5.143-5.693 6.509-8.713 1.583-3.504 1.772-9.608 7.275-10.686 5.062-.99 7.332 1.608 8.311 4.07"/>
        <path fill="#FFDA99" d="M57.685 142.103s.7-2.803 2.63-2.762c2.767.058 3.219 3.295 1.712 4.899l-4.342-2.137zM57.685 142.103l4.342 2.137-5.395 12.018-5.166-2.948z"/>
        <path fill="#613CBC" d="M46.328 162.57l5.138-9.26 5.166 2.949-4.185 9.324c-.78 1.582-2.795 2.198-4.478 1.369-1.683-.829-2.421-2.8-1.641-4.382"/>
    </g>
</svg>
