<svg xmlns="http://www.w3.org/2000/svg" xmlns:xlink="http://www.w3.org/1999/xlink" width="319" height="434" viewBox="0 0 319 434">
    <defs>
        <path id="a" d="M435.898 10.666c0 5.548-97.436 10.046-217.63 10.046C98.071 20.712.635 16.214.635 10.666.636 5.118 98.072.62 218.267.62"/>
    </defs>
    <g fill="none" fill-rule="evenodd">
        <g transform="translate(-70 423)">
            <mask id="b" fill="#fff">
                <use xlink:href="#a"/>
            </mask>
            <path d="M435.898 10.666c0 5.548-97.436 10.046-217.63 10.046C98.071 20.712.635 16.214.635 10.666.636 5.118 98.072.62 218.267.62s217.631 4.498 217.631 10.046" mask="url(#b)"/>
        </g>
        <path fill="#2374F7" d="M29.568 210.76l27.262-10.69c1.762-.692 2.629-2.674 1.925-4.405l-1.84-4.533c-.703-1.731-2.72-2.583-4.483-1.892L25.17 199.931c-1.762.69-2.629 2.673-1.926 4.404l1.841 4.533c.704 1.732 2.721 2.583 4.483 1.892"/>
        <path fill="#2374F7" d="M59.973 196.566L76 166.721 70.374 163l-19.47 27.568a5.428 5.428 0 0 0 1.532 7.529 5.443 5.443 0 0 0 7.537-1.53"/>
        <path fill="#FFB50D" d="M75.575 167L70 163.225s7.672-13.692 8.84-14.17c1.17-.478 2.529 2.266 2.068 4.348-.46 2.08-5.333 13.597-5.333 13.597"/>
        <path fill="#F2A50C" d="M171.237 211.943l19.12 6.057L192 207.1l-18.974-6.031c-2.765-.463-5.384 1.452-5.848 4.275l-.107.65c-.465 2.824 1.4 5.488 4.166 5.95"/>
        <path fill="#F2A50C" d="M173.862 210.082a5.026 5.026 0 0 0 1.218-7.01l-20.927-32.337-.876-4.061s-.914-6.359-1.782-7.192c-.868-.835-2.684-.7-2.988 1.317-.2 1.318-.39 5.012-.5 7.413a7.58 7.58 0 0 0 .974 4.07l17.86 36.584a5.045 5.045 0 0 0 7.021 1.216"/>
        <path fill="#3E02A9" d="M180 214.216L181.265 203 195 208.339l-1.026 2.465c-2.449 5.885-3.426 7.58-9.178 5.076L180 214.216z"/>
        <path fill="#0ABFA6" d="M246.507 194.84L244 161.427l4.79-1.427 5.883 25.665a7.253 7.253 0 0 0 4.312 5.103l27.328 11.173c3.717 1.521 5.615 5.548 4.238 8.993-1.377 3.445-5.506 5.005-9.224 3.483l-29.06-12.004c-3.353-1.384-5.434-4.364-5.736-7.474-.006-.034-.018-.064-.024-.099"/>
        <path fill="#F2A50C" d="M249 159.63s-1.236-9.275-3.247-8.594c-2.012.68-1.89 4.227-1.57 5.673.321 1.446.129 4.291.129 4.291l4.688-1.37z"/>
        <path fill="#F4CC08" d="M142 190.237l-1.61-39.241-5.772-.996-3.372 30.69a8.53 8.53 0 0 1-4.328 6.537l-30.31 16.798c-4.124 2.286-5.788 7.236-3.718 11.054 2.07 3.82 7.091 5.062 11.214 2.775l32.216-18.003c3.716-2.077 5.735-5.834 5.666-9.496.002-.04.011-.078.014-.118"/>
        <path fill="#F2A50C" d="M134 150.995s.168-11.52 2.756-10.976c2.588.544 2.957 4.9 2.773 6.715-.185 1.815.471 5.266.471 5.266l-6-1.005z"/>
        <path fill="#CCE6FF" d="M205 186h-75V7.708A7.707 7.707 0 0 1 137.706 0h59.587A7.707 7.707 0 0 1 205 7.708V186z"/>
        <path fill="#7DBEFF" d="M141 166h-5V14.863c0-1.028.892-1.863 1.99-1.863h1.02c1.1 0 1.99.835 1.99 1.863V166zM155 166h-5V14.863c0-1.028.892-1.863 1.99-1.863h1.02c1.1 0 1.99.835 1.99 1.863V166zM170 166h-5V14.863c0-1.028.892-1.863 1.99-1.863h1.02c1.1 0 1.99.835 1.99 1.863V166zM185 166h-5V14.863c0-1.028.892-1.863 1.99-1.863h1.02c1.1 0 1.99.835 1.99 1.863V166zM199 166h-5V14.863c0-1.028.892-1.863 1.99-1.863h1.02c1.1 0 1.99.835 1.99 1.863V166z"/>
        <path fill="#96C5FF" d="M144 186H78V71.996C78 68.132 81.116 65 84.96 65h52.08c3.844 0 6.96 3.132 6.96 6.996V186z"/>
        <path fill="#CCE6FF" d="M85 96h11V85H85zM106 96h11V85h-11zM127 96h11V85h-11zM85 120h11v-11H85zM106 120h11v-11h-11zM127 120h11v-11h-11zM85 144h11v-11H85zM106 144h11v-11h-11zM127 144h11v-11h-11z"/>
        <path fill="#96C5FF" d="M260.196 186H217V30.993c0-3.862 3.116-6.993 6.96-6.993h52.08c3.844 0 6.96 3.131 6.96 6.993v132.092C283 175.74 272.79 186 260.196 186"/>
        <path fill="#CCE6FF" d="M223 55h11V44h-11zM244 55h11V44h-11zM265 55h11V44h-11zM223 79h11V68h-11zM244 79h11V68h-11zM265 79h11V68h-11zM223 104h11V93h-11zM244 104h11V93h-11zM265 104h11V93h-11zM89 186H19.51C8.734 186 0 177.304 0 166.575V50.576C0 47.496 2.507 45 5.6 45h77.8c3.093 0 5.6 2.496 5.6 5.576V186z"/>
        <path fill="#7DBEFF" d="M67.538 80H0v-6h67.538c.808 0 1.462.665 1.462 1.485v3.029c0 .82-.654 1.486-1.462 1.486M67.538 98H0v-6h67.538c.808 0 1.462.665 1.462 1.485v3.029c0 .82-.654 1.486-1.462 1.486M67.538 117H0v-6h67.538c.808 0 1.462.665 1.462 1.485v3.029c0 .82-.654 1.486-1.462 1.486M67.538 136H0v-6h67.538c.808 0 1.462.665 1.462 1.485v3.029c0 .82-.654 1.486-1.462 1.486M67.538 154H0v-6h67.538c.808 0 1.462.665 1.462 1.485v3.029c0 .82-.654 1.486-1.462 1.486"/>
        <path fill="#CCE6FF" d="M243 186h56.509c10.764 0 19.491-8.731 19.491-19.503v-95.9A5.596 5.596 0 0 0 313.405 65h-64.81A5.596 5.596 0 0 0 243 70.598V186z"/>
        <path fill="#7DBEFF" d="M261.462 95H319v-5h-57.538c-.807 0-1.462.649-1.462 1.449v2.102c0 .8.655 1.449 1.462 1.449M261.462 111H319v-5h-57.538c-.807 0-1.462.649-1.462 1.449v2.102c0 .8.655 1.449 1.462 1.449M261.462 127H319v-5h-57.538c-.807 0-1.462.649-1.462 1.449v2.102c0 .8.655 1.449 1.462 1.449M261.462 143H319v-5h-57.538c-.807 0-1.462.649-1.462 1.449v2.102c0 .8.655 1.449 1.462 1.449M261.462 159H319v-5h-57.538c-.807 0-1.462.649-1.462 1.449v2.102c0 .8.655 1.449 1.462 1.449M74 44H41v-9.654C41 33.051 42.096 32 43.45 32h28.1c1.354 0 2.45 1.05 2.45 2.346V44z"/>
        <path fill="#96C5FF" d="M275.835 113h-121.67a3.175 3.175 0 0 1-3.165-3.185v-5.63a3.176 3.176 0 0 1 3.166-3.185h121.67c1.747 0 3.164 1.427 3.164 3.186v5.63a3.175 3.175 0 0 1-3.165 3.184"/>
        <path fill="#96C5FF" d="M259.35 186H157v-75h115v62.432c0 6.94-5.663 12.568-12.65 12.568"/>
        <path fill="#CCE6FF" d="M204 186h-34v-46.513c0-1.926 1.543-3.487 3.446-3.487h27.107c1.904 0 3.447 1.561 3.447 3.487V186zM261 164h-46v-24.575c0-1.892 1.552-3.425 3.466-3.425h39.068c1.914 0 3.466 1.533 3.466 3.425V164z"/>
        <path fill="#CCE6FF" d="M262.639 167H214.36a2.36 2.36 0 0 1-2.361-2.357V162h53v2.643a2.36 2.36 0 0 1-2.361 2.357M258.676 106h-87.338c-3.457 0-6.49 2.135-7.41 5.218L161 121.03v6.157c0 2.894 2.271 5.493 5.384 5.784 3.573.334 6.616-2.281 6.616-5.522 0 3.053 2.7 5.551 6 5.551s6-2.498 6-5.551c0 3.053 2.7 5.551 6 5.551s6-2.498 6-5.551c0 3.053 2.7 5.551 6 5.551s6-2.498 6-5.551c0 3.053 2.7 5.551 6 5.551s6-2.498 6-5.551c0 3.053 2.7 5.551 6 5.551s6-2.498 6-5.551c0 3.053 2.7 5.551 6 5.551s6-2.498 6-5.551c0 3.053 2.7 5.551 6 5.551s6-2.498 6-5.551c0 3.24 3.042 5.856 6.615 5.522 3.114-.291 5.385-2.89 5.385-5.784v-6.157l-2.912-9.803c-.917-3.088-3.95-5.227-7.412-5.227"/>
        <path fill="#FFB50D" d="M115.778 186.996l-7.697-.295c-2.914-.111-5.188-2.602-5.077-5.564L103.75 161l18.249.7-.747 20.136c-.11 2.962-2.56 5.271-5.475 5.16"/>
        <path fill="#FFB50D" d="M118.365 194L103 193.402l.635-17.402 15.365.598z"/>
        <path fill="#5410FC" d="M101.956 158.726c-2.453 2.307-3.469 5.763-2.709 9.044 1.341 5.785 4.134 16.209 6.844 16.17 3.75-.056 5.724 1.128 6.64-4.859.915-5.988 6.267-13.273 9.16-15.548 2.894-2.276 5.207-5.613 5.106-8.318-.101-2.705-1.68-4.528-5.306-4.17-2.879.284-13.694 1.998-19.735 7.68"/>
        <path fill="#FFDD10" d="M138 259H87l2.257-49.647c.376-9.97 9.134-17.732 19.562-17.339l12.734.48c9.416.355 16.775 7.94 16.435 16.943L138 259z"/>
        <path fill="#F4CC08" d="M137.117 195L94 258h44z"/>
        <path fill="#FFDD10" d="M102.784 188.503l15.681-.503 3.191 4.484c.683.616.283 1.78-.621 1.81L99 195l3.784-6.497z"/>
        <path fill="#2374F7" d="M87.437 259L73.25 364.924 60 416.091 70.41 420l21.78-54.358L122 260.517z"/>
        <path fill="#3E7EFF" d="M142.11 367.843l-.021-.001L138.546 259 89 259.072l33.134 108.021.02.001L135.093 425l9.907-1.013z"/>
        <path fill="#5410FC" d="M145.014 423l12.353 3.973c1.548.545 2.587 1.901 2.633 3.434l-23.59.593c-.664.016-1.218-.47-1.236-1.085l-.174-5.962 10.014-.953zM70.227 419.87l7.724 8.757a3.948 3.948 0 0 1 .668 4.373l-20.94-9.778a1.166 1.166 0 0 1-.566-1.557l2.69-5.665 10.424 3.87z"/>
        <path fill="#FFB50D" d="M168.614 424l9.288-.153L178 357h-15zM209 356l4.564 67 9.779-.16L225 356.613z"/>
        <path fill="#3E7EFF" d="M199.575 249.445l-8.53.138-5.138.084-9.837 38.096c-3.705 14.353-8.505 28.41-11.83 42.864-1.29 5.608-2.47 10.956-2.202 16.684.08 1.696-.038 7.508.706 9.327l.115.362H224.6L227 249l-27.425.445z"/>
        <path fill="#FFB50D" d="M200.913 193l8.497-.14c3.138-.05 5.64-2.65 5.59-5.807l-.23-14.191c-.053-3.29-2.748-5.915-6.02-5.861l-8.012.13c-3.272.054-5.882 2.764-5.732 6.063l.23 14.19c-.046 3.15 2.539 5.666 5.677 5.615"/>
        <path fill="#FFB50D" d="M197.365 212l16.635-.274-.365-22.726-16.635.274z"/>
        <path fill="#5800EB" d="M185.839 250l41.161-.086-.837-39.679c-.076-4.622-3.904-8.309-8.551-8.234l-24.333.393c-4.647.075-8.353 3.883-8.278 8.506l.838 39.1z"/>
        <path fill="#0028ED" d="M168.803 423.156l-11.512 4.096c-1.412.644-2.316 2.124-2.29 3.748l21.9-.393c.618-.012 1.11-.55 1.099-1.201L177.9 423l-9.098.156zM213.803 423.156l-11.512 4.096c-1.412.644-2.316 2.124-2.29 3.748l21.9-.393c.618-.012 1.11-.55 1.099-1.201L222.9 423l-9.098.156z"/>
        <path fill="#5800EB" d="M216 204h-19v-6.268a.73.73 0 0 1 .727-.732h17.546a.73.73 0 0 1 .727.732V204z"/>
        <path fill="#3E02A9" d="M224.603 205L186 250l41-.087z"/>
        <path fill="#0028ED" d="M194.164 170.027a.718.718 0 0 1 .013-.929c5.582-6.218 14.828-6.852 20.93-1.329a15.144 15.144 0 0 1 2.526 2.956c.419.64.786 1.309 1.104 1.999 1.083 2.353 2.277 4.644 3.862 6.656 2.024 2.568 4.8 5.44 8.562 8.222.81.6 1.089 1.741.59 2.66-1.982 3.664-7.986 11.959-21.221 10.586a1.075 1.075 0 0 1-.893-.733l-6.034-17.797a10.916 10.916 0 0 0-2.02-3.576l-7.419-8.715z"/>
        <path fill="#FFB50D" d="M272.078 190h-1.156c-5.48 0-9.922-4.337-9.922-9.686v-10.628c0-5.35 4.442-9.686 9.922-9.686h1.156c5.48 0 9.922 4.337 9.922 9.686v10.628c0 5.35-4.442 9.686-9.922 9.686"/>
        <path fill="#FFB50D" d="M266 199h14v-13h-14z"/>
        <path fill="#28E2CC" d="M282 202h-19v-4.907c0-.603.49-1.093 1.093-1.093h16.814c.604 0 1.093.49 1.093 1.093V202z"/>
        <path fill="#28E2CC" d="M293 260h-41v-51.161c0-5.434 4.41-9.839 9.85-9.839h22.04c5.031 0 9.11 4.074 9.11 9.1V260z"/>
        <path fill="#0ABFA6" d="M253.866 203L253 260h41z"/>
        <path fill="#2D0393" d="M261.207 164.958c-.3.963-.292 2.114.141 3.494 1.018 3.247 5.275 12.408 11.778 16.831 5.869 3.992 9.846 7.37 15.036 4.847 5.107-2.482 7.235-8.633 4.882-13.808a8.725 8.725 0 0 0-.086-.189c-1.214-2.566-3.357-4.565-5.954-5.704-1.417-.62-3.339-1.735-4.723-3.58-2.46-3.278-4.71-6.525-9.885-7.697-1.863-.421-4.692.098-6.492.752-1.843.668-4.077 3.066-4.697 5.054"/>
        <path fill="#FFB50D" d="M273 394l4.24 30 9.727-.038L288 394zM237.16 424h9.88l.96-30h-14z"/>
        <path fill="#4631DD" d="M293 259h-26l4.058 90.465L273.816 410h14.227l1.565-60.535h.29z"/>
        <path fill="#522FE9" d="M291 259h-38.493l-10.382 39.636-7.823 29.87c-1.982 7.565-5.67 14.772-5.272 22.754.27 5.422 1.28 10.949 1.867 16.353.196 1.797 4.053 41.368 4.503 41.368l12.669.019c.51-15.407-2.806-47.764 2.831-62.482 2.624-6.85 6.22-13.499 9.274-20.172l25.05-54.725C285.67 270.642 290.017 259 291 259"/>
        <path fill="#2D0393" d="M238.24 424.039l-12.703 4.046c-1.542.657-2.543 2.203-2.537 3.915l23.791-.095c.67-.003 1.212-.563 1.209-1.25l-.025-6.655-9.735.039zM278.24 424.039l-12.703 4.046c-1.542.657-2.543 2.203-2.537 3.915l23.791-.095c.67-.003 1.212-.563 1.209-1.25l-.025-6.655-9.735.039z"/>
        <path fill="#28E2CC" d="M231.774 202.008L229 165.557l5.3-1.557 6.508 27.998a7.946 7.946 0 0 0 4.77 5.567l30.236 12.19c4.113 1.658 6.213 6.05 4.69 9.809-1.523 3.758-6.092 5.46-10.206 3.8l-32.152-13.095c-3.71-1.51-6.012-4.761-6.345-8.154-.009-.036-.021-.07-.027-.107"/>
        <path fill="#FFB50D" d="M235 164.493s-1.483-10.202-3.897-9.454c-2.414.749-2.267 4.65-1.883 6.241.385 1.59.154 4.72.154 4.72l5.626-1.507zM42.866 190h1.268c5.45 0 9.866-4.456 9.866-9.953v-11.094c0-5.497-4.417-9.953-9.866-9.953h-1.268c-5.448 0-9.866 4.456-9.866 9.953v11.094c0 5.497 4.418 9.953 9.866 9.953"/>
        <path fill="#FFB50D" d="M34 197h14v-13H34z"/>
        <path fill="#2374F7" d="M32 201h19v-4.92a1.08 1.08 0 0 0-1.08-1.08H33.08a1.08 1.08 0 0 0-1.08 1.08V201z"/>
        <path fill="#3E7EFF" d="M21 258h41v-51.276c0-5.37-4.358-9.724-9.735-9.724h-22.26C25.03 197 21 201.027 21 205.995V258z"/>
        <path fill="#2374F7" d="M22.761 206L21 259h41z"/>
        <path fill="#FFB50D" d="M41 396l-4.24 30-9.727-.038L26 396z"/>
        <path fill="#4631DD" d="M21 259h26l-4.058 91.598L40.965 396H25.957l-1.564-45.402h-.29z"/>
        <path fill="#522FE9" d="M23 259h38.493l10.383 40.17 7.823 30.27c1.982 7.669 5.67 14.972 5.271 23.06-.27 5.496-1.279 11.097-1.867 16.574-.195 1.82-2.441 26.926-2.892 26.926H65.932c-.51-15.615 2.805-33.389-2.832-48.305-2.623-6.942-6.22-13.68-9.274-20.443l-25.05-55.462C28.33 270.8 23.982 259 23 259"/>
        <path fill="#FFB50D" d="M76.841 426h-9.88l-.961-30h14z"/>
        <path fill="#2D0393" d="M76.76 426.04l12.703 4.045c1.542.657 2.544 2.203 2.537 3.915l-23.791-.095c-.67-.003-1.212-.562-1.209-1.25l.025-6.655 9.736.04zM36.76 426.04l12.703 4.045c1.542.657 2.544 2.203 2.537 3.915l-23.791-.095c-.67-.003-1.212-.562-1.209-1.25l.025-6.655 9.736.04z"/>
        <path fill="#3E7EFF" d="M34.393 222.694l34.835-13.605c2.251-.88 3.358-3.403 2.46-5.607l-2.353-5.769c-.898-2.204-3.476-3.286-5.728-2.407l-34.835 13.606c-2.251.88-3.358 3.402-2.46 5.606l2.353 5.769c.898 2.203 3.476 3.287 5.728 2.407"/>
        <path fill="#3E7EFF" d="M71.775 206.987L89 171.998 82.262 168l-21.348 32.542c-1.81 2.948-.847 6.78 2.151 8.56 3 1.78 6.9.833 8.71-2.115"/>
        <path fill="#FFB50D" d="M88.506 172L82 167.907s8.079-16.219 9.383-16.83c1.304-.61 2.976 2.498 2.55 4.929-.427 2.43-5.427 15.994-5.427 15.994"/>
        <path fill="#2D0393" d="M53.85 164.218c.38.703.003 1.582-.762 1.813-3.265.986-11.103 4.037-11.332 10.648-.289 8.36 11.038 17.02 4.487 25.793-6.224 8.333.583 14.674-4.512 22.426-7.52 11.436-24.984 11.038-31.033-2.934-5.845-13.5 5.016-17.185 8.29-26.806 3.065-9 7.683-10.864 9.413-16.35 2.008-6.364 1.087-16.926 10.329-19.906 8.502-2.742 12.936 1.272 15.12 5.316"/>
        <path fill="#FFDD10" d="M160 195.736l-1.77-42.653-6.35-1.083-3.708 33.358a9.27 9.27 0 0 1-4.763 7.107l-33.341 18.257c-4.536 2.486-6.366 7.865-4.089 12.016 2.277 4.152 7.8 5.502 12.336 3.016l35.437-19.568c4.087-2.258 6.309-6.342 6.232-10.322.003-.043.013-.084.016-.128"/>
        <path fill="#FFB50D" d="M152 153.91s.167-12.48 2.756-11.89c2.587.59 2.957 5.309 2.772 7.275-.185 1.965.472 5.705.472 5.705l-6-1.09zM188.792 208.879c2.442-1.854 2.934-5.356 1.098-7.822l-24.06-35.168-1.101-4.475s-1.22-7.026-2.2-7.92c-.98-.896-2.968-.684-3.233 1.564-.174 1.47-.258 5.575-.295 8.243a8.49 8.49 0 0 0 1.206 4.484l20.84 39.985a5.495 5.495 0 0 0 7.745 1.109"/>
        <path fill="#5800EB" d="M221.545 217.96c1.887.287 3.654-.986 3.955-2.85l.431-2.677c.477-2.958-1.57-5.736-4.565-6.192L206.683 204 205 215.435l16.545 2.524z"/>
        <path fill="#FFB50D" d="M183.622 208.708L204.326 215 206 203.334l-20.545-6.268c-2.991-.467-5.801 1.604-6.277 4.626l-.11.696c-.475 3.023 1.564 5.852 4.554 6.32"/>
    </g>
</svg>
