<?xml version="1.0" encoding="UTF-8"?>
<svg width="50px" height="50px" viewBox="0 0 201 200" version="1.1" xmlns="http://www.w3.org/2000/svg" xmlns:xlink="http://www.w3.org/1999/xlink">
    <!-- Generator: Sketch 46.2 (44496) - http://www.bohemiancoding.com/sketch -->
    <title>Income</title>
    <desc>Created with Sketch.</desc>
    <defs></defs>
    <g id="Page-1" stroke="none" stroke-width="1" fill="none" fill-rule="evenodd">
        <g id="Income" fill="#FFFFFF">
            <path d="M147.910907,106.943495 C150.139553,105.009461 152.683574,103.390539 155.522208,102.128778 L155.522208,101.372142 C155.522208,95.7997372 160.042313,91.2796321 165.613666,91.2796321 L168.137188,91.2796321 L168.137188,88.6094612 C168.137188,84.5521682 164.83548,81.2507227 160.778449,81.2507227 L125.603679,81.2507227 C121.545335,81.2507227 118.244941,84.5521682 118.244941,88.6094612 L118.244941,129.90276 C118.244941,133.960841 121.545335,137.261498 125.603679,137.261498 L137.839685,137.261498 C137.460972,135.243101 137.25046,133.140604 137.25046,130.954008 C137.25046,126.160841 138.155059,121.681735 139.920631,117.666491 C141.708016,113.629961 144.399737,109.99159 147.910907,106.943495 Z" id="Fill-1"></path>
            <path d="M66.4812089,0.115637319 C62.4231275,0.115637319 59.1224704,3.41629435 59.1224704,7.47437582 L59.1224704,129.90276 C59.1224704,133.960841 62.4231275,137.261498 66.4812089,137.261498 L101.634428,137.261498 C105.69251,137.261498 108.993167,133.960841 108.993167,129.90276 L108.993167,7.47437582 C108.993167,3.41629435 105.69251,0.115637319 101.634428,0.115637319 L66.4812089,0.115637319 Z" id="Fill-2"></path>
            <path d="M49.892247,129.92431 L49.892247,46.2864652 C49.892247,42.2281209 46.59159,38.9277267 42.5335085,38.9277267 L7.3587385,38.9277267 C3.30065703,38.9277267 0,42.2281209 0,46.2864652 L0,129.92431 C0,133.98134 3.30065703,137.283049 7.3587385,137.283049 L42.5130092,137.283049 C46.59159,137.283049 49.892247,133.98134 49.892247,129.92431 Z" id="Fill-3"></path>
            <path d="M193.409198,148.321156 C191.243101,146.155059 188.446518,144.305125 185.12431,142.832852 C182.034428,141.466491 178.670171,140.793955 175.432326,140.142181 C171.18502,139.279895 167.148489,138.480946 164.520368,136.272799 C164.141656,135.957687 163.784231,135.600526 163.46912,135.221551 C162.417871,133.93929 161.892247,132.320368 161.892247,130.281472 C161.892247,128.221025 162.501971,126.580552 163.826281,125.109593 C164.87753,123.931932 166.412352,123.049146 168.157687,122.565572 C169.146386,122.291459 170.197635,122.144547 171.269382,122.144547 C174.002102,122.144547 176.441261,123.091196 177.913535,124.751117 C179.006833,125.970828 179.783968,128.010775 180.184494,130.659396 C180.457556,132.404468 181.950066,133.644678 183.653351,133.644678 C183.821551,133.644678 184.010512,133.624179 184.178975,133.603679 L195.469645,131.921156 C197.382129,131.626281 198.706439,129.86071 198.433377,127.946912 C197.466229,121.071748 194.522996,115.542444 189.687779,111.527464 C187.206307,109.465966 184.094612,107.868594 180.604205,106.859396 L180.604205,101.392641 C180.604205,99.4586071 179.027332,97.8817346 177.093298,97.8817346 L165.613666,97.8817346 C163.679632,97.8817346 162.10276,99.4586071 162.10276,101.392641 L162.10276,106.775296 C158.254928,107.848095 154.89067,109.592378 152.24205,111.926675 C146.669645,116.804205 143.832063,123.237845 143.832063,131.016557 C143.832063,133.224704 144.083574,135.327201 144.567148,137.324047 C145.051774,139.301445 145.76636,141.171879 146.733246,142.938502 C148.709593,146.533771 151.548226,149.392904 155.185283,151.432852 C160.335874,154.312484 165.319054,155.574244 170.827858,156.814192 C174.465177,157.634428 178.481209,158.83364 180.541656,161.35611 C181.508804,162.533509 181.992116,164.278844 181.992116,166.50749 C181.992116,169.282523 181.214192,171.531669 179.637319,173.340604 C178.166097,175.022339 176,176.157687 173.560578,176.536399 C172.972405,176.620762 172.384231,176.662812 171.774507,176.662812 C168.283837,176.662812 165.066491,175.190539 163.154008,172.73088 C162.270959,171.595269 161.051511,169.15611 160.315375,164.047832 C160.062812,162.302497 158.54954,161.040736 156.846518,161.040736 C156.636005,161.040736 156.447043,161.061235 156.236531,161.103548 L145.198423,163.017083 C143.432852,163.332194 142.171091,164.930618 142.29724,166.738502 C142.675164,172.183706 144.125624,176.914323 146.607096,180.804205 C149.108804,184.735874 152.178449,187.65887 155.731669,189.487254 C157.749803,190.51774 159.89435,191.358739 162.144809,191.968463 L162.144809,196.488568 C162.144809,198.422865 163.721682,199.999737 165.655716,199.999737 L177.093298,199.999737 C179.027332,199.999737 180.604205,198.422865 180.604205,196.488568 L180.604205,192.073062 C185.503285,190.706702 189.770828,188.226544 193.072536,184.756636 C197.887254,179.710644 200.325361,173.361104 200.325361,165.897766 C200.325361,162.491459 199.737188,159.253614 198.58134,156.288568 C197.340079,153.198423 195.616294,150.548752 193.409198,148.321156 Z" id="Fill-4"></path>
        </g>
    </g>
</svg>