<svg width="72" height="55" viewBox="0 0 72 55" fill="none" xmlns="http://www.w3.org/2000/svg">
<path d="M39.7711 5.88234L19.9263 18.7662C19.682 18.9291 19.5192 19.1733 19.4581 19.4583L18.9696 21.7582C18.9086 22.0432 18.9696 22.3485 19.1325 22.5927L25.0758 31.6909C25.4014 32.1997 26.0934 32.3422 26.5819 32.0165L46.4268 19.1326C46.671 18.9698 46.8339 18.7255 46.8949 18.4406L47.3834 16.1406C47.4445 15.8557 47.3834 15.5504 47.2206 15.3061L41.2773 6.208C40.9517 5.69915 40.28 5.55668 39.7711 5.88234Z" fill="#B2CAFB"/>
<path d="M47.1595 15.8556L26.643 29.228C26.4801 29.3297 26.2766 29.289 26.1748 29.1262L19.7838 19.3157C19.682 19.1529 19.7227 18.9493 19.8855 18.8476L40.4021 5.47516C40.5649 5.37339 40.7684 5.4141 40.8702 5.57693L47.2409 15.3671C47.363 15.5299 47.3223 15.7538 47.1595 15.8556Z" fill="#3E7EFF"/>
<path d="M45.1445 15.652L27.2739 27.2943C26.9686 27.4979 26.5412 27.4165 26.3376 27.0908L21.6766 19.9466C21.4731 19.6413 21.5545 19.2139 21.8802 19.0104L39.7507 7.36805C40.056 7.16451 40.4835 7.24592 40.687 7.57158L45.348 14.7157C45.5516 15.0414 45.4498 15.4485 45.1445 15.652ZM26.8465 27.0908L45.1445 15.1839L40.2189 7.61229L21.9209 19.5192L26.8465 27.0908Z" fill="white"/>
<path d="M36.0531 21.231C38.2009 19.8324 38.8082 16.9575 37.4096 14.8098C36.011 12.662 33.1361 12.0547 30.9883 13.4533C28.8406 14.8519 28.2333 17.7268 29.6319 19.8746C31.0305 22.0223 33.9054 22.6297 36.0531 21.231Z" fill="white"/>
<path d="M32.2605 14.7565C32.5048 14.614 32.7694 14.4919 33.0543 14.4105C33.3393 14.3291 33.6446 14.2884 33.9295 14.3291C33.8685 14.6954 33.8278 15.0415 33.7667 15.3875C33.6039 15.3468 33.4207 15.3468 33.2375 15.3875C33.0543 15.4282 32.9119 15.4892 32.7694 15.5707L33.4003 16.5476C33.5835 16.4866 33.7871 16.4459 33.9906 16.4052C34.1941 16.3644 34.3977 16.3441 34.6012 16.3645C34.8047 16.3848 34.9879 16.4255 35.1711 16.5273C35.3543 16.6087 35.5171 16.7715 35.6596 16.9954C35.8021 17.2193 35.8835 17.4432 35.9242 17.6467C35.9446 17.8706 35.9446 18.0742 35.8835 18.2573C35.8224 18.4609 35.7207 18.6441 35.5985 18.8069C35.4764 18.9697 35.3136 19.1122 35.1304 19.2343L35.4154 19.6821L34.9676 19.9671L34.6826 19.5193C34.418 19.6821 34.1127 19.8042 33.7871 19.8856C33.4614 19.9671 33.1357 19.9874 32.8101 19.9264C32.8508 19.7432 32.8711 19.56 32.9119 19.3768C32.9526 19.1936 32.9729 19.0104 33.0136 18.8272C33.1154 18.8476 33.1968 18.868 33.3189 18.868C33.4207 18.868 33.5225 18.868 33.6242 18.8476C33.726 18.8272 33.8278 18.8069 33.9092 18.7865C34.011 18.7662 34.072 18.7255 34.1534 18.6848L33.4614 17.6264C33.2579 17.6874 33.0543 17.7485 32.8508 17.7892C32.6473 17.8299 32.4641 17.8503 32.2809 17.8299C32.0977 17.8096 31.9145 17.7485 31.7517 17.6671C31.5889 17.5653 31.4464 17.4228 31.3039 17.2193C31.1818 17.0158 31.1004 16.8122 31.08 16.6087C31.0597 16.4052 31.08 16.2016 31.1411 15.9981C31.2021 15.8149 31.2836 15.6317 31.426 15.4689C31.5482 15.3061 31.6906 15.1636 31.8331 15.0618L31.5685 14.6344L32.0163 14.3494L32.2605 14.7565ZM32.3216 15.8353C32.2198 15.9167 32.1384 16.0184 32.0977 16.1609C32.057 16.283 32.0774 16.4255 32.1588 16.5476C32.2402 16.6698 32.3419 16.7512 32.4641 16.7715C32.5862 16.7919 32.7287 16.7715 32.8711 16.7308L32.3216 15.8353ZM34.6012 18.3998C34.7437 18.2981 34.8048 18.1759 34.8455 18.0538C34.8658 17.9113 34.8455 17.7892 34.7437 17.6467C34.6419 17.5043 34.5402 17.4228 34.418 17.4025C34.2959 17.3821 34.1534 17.4025 33.9906 17.4432L34.6012 18.3998Z" fill="#003CC1"/>
<path d="M27.3392 21.9046C27.6313 21.7144 27.7138 21.3235 27.5237 21.0315C27.3335 20.7395 26.9426 20.6569 26.6506 20.8471C26.3586 21.0373 26.276 21.4281 26.4662 21.7201C26.6563 22.0122 27.0472 22.0947 27.3392 21.9046Z" fill="white"/>
<path d="M40.1788 13.5368C40.4709 13.3466 40.5534 12.9558 40.3633 12.6637C40.1731 12.3717 39.7822 12.2891 39.4902 12.4793C39.1982 12.6695 39.1156 13.0603 39.3058 13.3524C39.4959 13.6444 39.8868 13.7269 40.1788 13.5368Z" fill="white"/>
<path d="M51.3118 37.5729C58.1303 33.2172 64.9284 28.8819 71.7469 24.5262C72.3372 24.1598 71.7876 23.2032 71.1974 23.5899C64.3789 27.9456 57.5807 32.281 50.7622 36.6366C50.172 37.003 50.7215 37.9596 51.3118 37.5729Z" fill="#D6E4FF"/>
<path d="M38.8145 51.1489C46.325 46.3251 53.8355 41.4809 61.346 36.657C61.9973 36.2296 62.6487 35.8225 63.3 35.3951C63.8902 35.0084 63.3407 34.0721 62.7504 34.4588C55.2399 39.2827 47.7294 44.1269 40.2189 48.9507C39.5675 49.3781 38.9162 49.7852 38.2649 50.2126C37.6746 50.5993 38.2242 51.5356 38.8145 51.1489Z" fill="#D6E4FF"/>
<path d="M0.793748 44.0862C7.51048 39.7305 14.2272 35.3545 20.9643 30.9988C21.5545 30.612 21.005 29.6758 20.4147 30.0625C13.698 34.4182 6.98128 38.7942 0.244198 43.1499C-0.325706 43.5366 0.20349 44.4729 0.793748 44.0862Z" fill="#D6E4FF"/>
<path d="M5.25124 35.5376C9.64764 32.6678 14.0644 29.8182 18.4608 26.9484C18.7458 26.7652 18.4812 26.297 18.1962 26.4802C13.7998 29.3501 9.38304 32.1996 4.98664 35.0695C4.70169 35.273 4.96629 35.7412 5.25124 35.5376Z" fill="#D6E4FF"/>
<path d="M9.22019 35.1509C12.5989 32.9527 15.998 30.7749 19.3767 28.5767C19.6616 28.3935 19.3971 27.9253 19.1121 28.1085C15.7334 30.3067 12.3343 32.4846 8.95559 34.6828C8.65029 34.8863 8.93524 35.3544 9.22019 35.1509Z" fill="#D6E4FF"/>
<path d="M50.3144 35.1509C53.6931 32.9527 57.0922 30.7749 60.4709 28.5767C60.7559 28.3935 60.4913 27.9253 60.2063 28.1085C56.8276 30.3067 53.4286 32.4846 50.0498 34.6828C49.7445 34.8863 50.0295 35.3544 50.3144 35.1509Z" fill="#D6E4FF"/>
<path d="M53.0215 31.1819C57.255 28.5359 61.4683 25.8696 65.7018 23.2236C66.0071 23.0404 65.7222 22.5723 65.4372 22.7555C61.2037 25.4015 56.9904 28.0678 52.7569 30.7138C52.4516 30.897 52.7365 31.3651 53.0215 31.1819Z" fill="#D6E4FF"/>
<path d="M42.8852 51.0879C47.1188 48.442 51.332 45.7756 55.5656 43.1296C55.8709 42.9465 55.586 42.4783 55.301 42.6615C51.0674 45.3075 46.8542 47.9738 42.6206 50.6198C42.3153 50.803 42.6003 51.2711 42.8852 51.0879Z" fill="#D6E4FF"/>
<path d="M11.6219 44.3507C11.1741 46.7321 9.40336 48.625 7.10339 49.2356C9.40336 49.8462 11.1945 51.7595 11.6219 54.1205C12.0697 51.7391 13.8405 49.8462 16.1404 49.2356C13.8405 48.625 12.0493 46.7321 11.6219 44.3507Z" fill="#79A6FF"/>
<path d="M48.9099 0C48.625 1.48582 47.5055 2.68669 46.0604 3.07341C47.5055 3.46013 48.625 4.661 48.9099 6.14682C49.1949 4.661 50.3144 3.46013 51.7595 3.07341C50.3144 2.68669 49.1949 1.48582 48.9099 0Z" fill="#79A6FF"/>
<path d="M40.3207 27.4165L20.4758 40.3004C20.2316 40.4633 20.0688 40.7075 20.0077 40.9925L19.5192 43.2924C19.4581 43.5774 19.5192 43.8827 19.682 44.1269L25.6253 53.225C25.951 53.7339 26.643 53.8764 27.1315 53.5507L46.9764 40.6668C47.2206 40.504 47.3834 40.2597 47.4445 39.9748L47.933 37.6748C47.9941 37.3898 47.933 37.0845 47.7702 36.8403L41.8269 27.7422C41.5012 27.2333 40.8295 27.0909 40.3207 27.4165Z" fill="#B2CAFB"/>
<path d="M47.7091 37.3897L27.1925 50.7621C27.0297 50.8639 26.8262 50.8232 26.7244 50.6604L20.3537 40.8702C20.2519 40.7074 20.2926 40.5039 20.4555 40.4021L40.9517 27.0093C41.1145 26.9076 41.318 26.9483 41.4198 27.1111L47.7905 36.9012C47.9126 37.0844 47.8719 37.288 47.7091 37.3897Z" fill="#3E7EFF"/>
<path d="M45.8365 37.1048L27.6606 48.9303C27.4367 49.0728 27.1314 49.0117 26.9889 48.7878L22.1448 41.3384C22.0023 41.1145 22.0633 40.8092 22.2872 40.6667L40.4631 28.8412C40.687 28.6987 40.9923 28.7598 41.1348 28.9836L45.979 36.4331C46.1214 36.657 46.0604 36.9623 45.8365 37.1048ZM27.3757 48.625L45.6737 36.7181L40.7481 29.1465L22.4501 41.0534L27.3757 48.625Z" fill="white"/>
<path d="M36.608 42.7806C38.7557 41.382 39.363 38.5071 37.9644 36.3593C36.5658 34.2116 33.6909 33.6043 31.5432 35.0029C29.3954 36.4015 28.7881 39.2764 30.1867 41.4241C31.5853 43.5719 34.4602 44.1792 36.608 42.7806Z" fill="white"/>
<path d="M32.8102 36.2907C33.0545 36.1482 33.3191 36.0261 33.604 35.9447C33.889 35.8633 34.1943 35.8226 34.4792 35.8633C34.4182 36.2296 34.3775 36.5756 34.3164 36.9217C34.1536 36.8809 33.9704 36.8809 33.7872 36.9217C33.604 36.9624 33.4615 37.0234 33.3191 37.1048L33.95 38.0818C34.1332 38.0208 34.3367 37.98 34.5403 37.9393C34.7438 37.8986 34.9474 37.8783 35.1509 37.8986C35.3544 37.919 35.5376 37.9597 35.7208 38.0615C35.904 38.1429 36.0668 38.3057 36.2093 38.5296C36.3518 38.7535 36.4332 38.9774 36.4739 39.1809C36.4942 39.4048 36.4942 39.6083 36.4332 39.7915C36.3721 39.9951 36.2703 40.1782 36.1482 40.3411C36.0261 40.5039 35.8633 40.6464 35.6801 40.7685L35.965 41.2163L35.5173 41.5012L35.2323 41.0535C34.9677 41.2163 34.6624 41.3384 34.3367 41.4198C34.0111 41.5012 33.6854 41.5216 33.3598 41.4605C33.4005 41.2773 33.4208 41.0942 33.4615 40.911C33.5022 40.7278 33.5226 40.5446 33.5633 40.3614C33.6651 40.3818 33.7465 40.4021 33.8686 40.4021C33.9704 40.4021 34.0721 40.4021 34.1739 40.3818C34.2757 40.3614 34.3775 40.3411 34.4589 40.3207C34.5606 40.3004 34.6217 40.2597 34.7031 40.219L34.0111 39.1606C33.8075 39.2216 33.604 39.2827 33.4005 39.3234C33.1969 39.3641 33.0138 39.3845 32.8306 39.3641C32.6474 39.3437 32.4642 39.2827 32.3014 39.2013C32.1385 39.0995 31.9961 38.957 31.8536 38.7535C31.7315 38.55 31.6501 38.3464 31.6297 38.1429C31.6093 37.9393 31.6297 37.7358 31.6908 37.5323C31.7518 37.3491 31.8332 37.1659 31.9757 37.0031C32.0978 36.8402 32.2403 36.6978 32.3828 36.596L32.1182 36.1686L32.566 35.8836L32.8102 36.2907ZM32.8713 37.3694C32.7695 37.4508 32.6881 37.5526 32.6474 37.6951C32.6067 37.8172 32.627 37.9597 32.7084 38.0818C32.7899 38.2039 32.8916 38.2854 33.0138 38.3057C33.1359 38.3261 33.2784 38.3057 33.4208 38.265L32.8713 37.3694ZM35.1509 39.9544C35.2934 39.8526 35.3544 39.7305 35.3951 39.6083C35.4155 39.4659 35.3951 39.3437 35.2934 39.2013C35.1916 39.0588 35.0898 38.9774 34.9677 38.957C34.8456 38.9367 34.7031 38.957 34.5403 38.9977L35.1509 39.9544Z" fill="#003CC1"/>
<path d="M27.8828 43.4371C28.1748 43.2469 28.2574 42.856 28.0672 42.564C27.8771 42.272 27.4862 42.1894 27.1942 42.3796C26.9021 42.5697 26.8196 42.9606 27.0097 43.2526C27.1999 43.5446 27.5908 43.6272 27.8828 43.4371Z" fill="white"/>
<path d="M40.7224 35.0694C41.0144 34.8792 41.097 34.4883 40.9068 34.1963C40.7167 33.9043 40.3258 33.8217 40.0338 34.0119C39.7417 34.202 39.6592 34.5929 39.8493 34.8849C40.0395 35.177 40.4304 35.2595 40.7224 35.0694Z" fill="white"/>
<path d="M62.7302 3.01233L41.5827 16.7511L40.8906 19.9263L47.7091 30.327L68.8363 16.5883L69.5283 13.3927L62.7302 3.01233Z" fill="#B2CAFB"/>
<path d="M62.7084 3.01545L41.6096 16.7549L48.3627 27.1252L69.4614 13.3858L62.7084 3.01545Z" fill="#3E7EFF"/>
<path d="M67.269 13.3112L49.2152 25.0756C48.9506 25.2385 48.6046 25.1774 48.4418 24.9128L43.6587 17.5855C43.4958 17.3209 43.5569 16.9749 43.8215 16.812L61.8752 5.04758C62.1398 4.88475 62.4859 4.94581 62.6487 5.21041L67.4318 12.5378C67.5946 12.8023 67.5336 13.1484 67.269 13.3112ZM48.8692 24.811L67.1672 12.9041L62.2416 5.33254L43.9436 17.2395L48.8692 24.811Z" fill="white"/>
<path d="M58.0765 18.9537C60.2242 17.5551 60.8315 14.6802 59.4329 12.5324C58.0343 10.3847 55.1594 9.77736 53.0117 11.176C50.8639 12.5746 50.2566 15.4495 51.6552 17.5972C53.0538 19.745 55.9287 20.3523 58.0765 18.9537Z" fill="white"/>
<path d="M54.2834 12.4767C54.5276 12.3342 54.7922 12.2121 55.0772 12.1307C55.3621 12.0493 55.6674 12.0086 55.9524 12.0493C55.8913 12.4157 55.8506 12.7617 55.7895 13.1077C55.6267 13.067 55.4435 13.067 55.2603 13.1077C55.0772 13.1484 54.9347 13.2095 54.7922 13.2909L55.4232 14.2678C55.6064 14.2068 55.8099 14.1661 56.0134 14.1254C56.217 14.0847 56.4205 14.0643 56.624 14.0847C56.8276 14.105 57.0108 14.1457 57.1939 14.2475C57.3771 14.3289 57.54 14.4917 57.6824 14.7156C57.8249 14.9395 57.9063 15.1634 57.947 15.3669C57.9674 15.5908 57.9674 15.7944 57.9063 15.9776C57.8453 16.1811 57.7435 16.3643 57.6214 16.5271C57.4992 16.6899 57.3364 16.8324 57.1532 16.9545L57.4382 17.4023L56.9904 17.6873L56.7055 17.2395C56.4409 17.4023 56.1355 17.5244 55.8099 17.6059C55.4842 17.6873 55.1586 17.7076 54.8329 17.6466C54.8736 17.4634 54.894 17.2802 54.9347 17.097C54.9754 16.9138 54.9957 16.7307 55.0365 16.5475C55.1382 16.5678 55.2196 16.5882 55.3418 16.5882C55.4435 16.5882 55.5453 16.5882 55.6471 16.5678C55.7488 16.5475 55.8506 16.5271 55.932 16.5068C56.0338 16.4864 56.0948 16.4457 56.1763 16.405L55.4842 15.3466C55.2807 15.4077 55.0772 15.4687 54.8736 15.5094C54.6701 15.5501 54.4869 15.5705 54.3037 15.5501C54.1205 15.5298 53.9373 15.4687 53.7745 15.3873C53.6117 15.2855 53.4692 15.1431 53.3267 14.9395C53.2046 14.736 53.1232 14.5325 53.1028 14.3289C53.0825 14.1254 53.1028 13.9218 53.1639 13.7183C53.225 13.5351 53.3064 13.3519 53.4489 13.1891C53.571 13.0263 53.7135 12.8838 53.8559 12.782L53.571 12.3546L54.0188 12.0697L54.2834 12.4767ZM54.3444 13.5555C54.2427 13.6369 54.1612 13.7387 54.1205 13.8811C54.0798 14.0033 54.1002 14.1457 54.1816 14.2678C54.263 14.39 54.3648 14.4714 54.4869 14.4917C54.609 14.5121 54.7515 14.4917 54.894 14.451L54.3444 13.5555ZM56.624 16.12C56.7665 16.0183 56.8276 15.8961 56.8683 15.774C56.8886 15.6315 56.8683 15.5094 56.7665 15.3669C56.6647 15.2245 56.563 15.1431 56.4409 15.1227C56.3187 15.1024 56.1763 15.1227 56.0134 15.1634L56.624 16.12Z" fill="#003CC1"/>
<path d="M49.3795 19.616C49.6715 19.4259 49.7541 19.035 49.5639 18.743C49.3738 18.4509 48.9829 18.3684 48.6909 18.5585C48.3988 18.7487 48.3163 19.1396 48.5064 19.4316C48.6966 19.7236 49.0875 19.8062 49.3795 19.616Z" fill="white"/>
<path d="M62.202 11.2593C62.4941 11.0692 62.5766 10.6783 62.3865 10.3863C62.1963 10.0943 61.8054 10.0117 61.5134 10.2018C61.2214 10.392 61.1388 10.7829 61.3289 11.0749C61.5191 11.3669 61.91 11.4495 62.202 11.2593Z" fill="white"/>
</svg>
