<svg width="62" height="64" viewBox="0 0 62 64" fill="none" xmlns="http://www.w3.org/2000/svg">
<path d="M0.349863 48.9606L24.783 44.4392L32.3477 51.8952C32.4347 51.9822 32.4782 52.1126 32.4782 52.243L32.3042 55.3733C32.2825 55.5689 32.1521 55.7428 31.9565 55.7863L7.0016 60.3947C6.84944 60.4164 6.69728 60.3729 6.61032 60.2642L0.284652 53.4821C0.219439 53.4169 0.175964 53.3082 0.175964 53.1995L0.00206531 49.4171C-0.0196724 49.178 0.132486 49.0041 0.349863 48.9606Z" fill="#D6E4FF"/>
<path d="M7.34935 56.9384L32.1303 52.1126C32.3042 52.0691 32.3694 51.8518 32.239 51.7213L24.8917 44.5044C24.8482 44.461 24.7612 44.4392 24.696 44.4392L0.371557 48.9172C0.197655 48.9389 0.132434 49.1563 0.241123 49.2867L7.13197 56.8297C7.19718 56.9384 7.28413 56.9601 7.34935 56.9384Z" fill="#3E7EFF"/>
<path d="M11.61 51.2864C13.1099 52.8733 16.4575 53.7645 19.0443 53.308C21.6311 52.8298 22.4571 51.156 20.892 49.5909C19.3486 48.0475 16.0662 47.178 13.5229 47.6345C10.9796 48.091 10.1318 49.7213 11.61 51.2864Z" fill="#9FE2CC"/>
<path d="M15.0228 48.4824C15.2401 48.4389 15.4792 48.4172 15.7184 48.3954C15.9575 48.3737 16.1749 48.3954 16.414 48.4172C16.3922 48.5476 16.3922 48.678 16.3705 48.8084C16.2183 48.7867 16.0662 48.7867 15.914 48.7867C15.7618 48.7867 15.6097 48.8084 15.4793 48.8519L16.1096 49.3519C16.2835 49.3301 16.4792 49.3084 16.6531 49.2867C16.827 49.2649 17.0009 49.2649 17.1748 49.2867C17.3487 49.3084 17.5226 49.3301 17.6965 49.3736C17.8704 49.4171 18.0443 49.504 18.2182 49.6127C18.3921 49.7432 18.5443 49.8518 18.6312 49.9823C18.7182 50.1127 18.7834 50.2431 18.8051 50.3953C18.8269 50.5474 18.8051 50.6779 18.7399 50.8083C18.6747 50.9605 18.566 51.0909 18.4356 51.2213L18.9573 51.6343L18.566 52.0256L18.0226 51.5691C17.74 51.7865 17.3922 51.9821 16.9574 52.1343C16.4792 52.3082 15.9575 52.3952 15.4358 52.3952C15.501 52.1343 15.5662 51.8952 15.6097 51.6561C15.6532 51.4387 15.7184 51.2431 15.7401 51.0474C15.8705 51.0692 16.001 51.0692 16.1531 51.0692C16.3053 51.0692 16.4357 51.0474 16.5661 51.0257C16.6966 51.0039 16.8052 50.9822 16.9139 50.9387C17.0226 50.917 17.1096 50.8735 17.1748 50.83L16.2401 50.0257C16.001 50.0692 15.7836 50.1127 15.5445 50.1562C15.3053 50.1996 15.0445 50.1996 14.8054 50.1996C14.5663 50.1996 14.3272 50.1562 14.1315 50.091C13.9359 50.0257 13.762 49.9171 13.6316 49.7649C13.5011 49.6345 13.4794 49.4823 13.5011 49.3519C13.5229 49.2215 13.6098 49.1128 13.7185 49.0041C13.8272 48.9171 13.9576 48.8302 14.1315 48.7432C14.2837 48.678 14.4576 48.6128 14.6097 48.5911L14.3924 48.3954L14.8271 48.3085L15.0228 48.4824ZM15.0228 48.9389C14.9141 48.9823 14.8271 49.0258 14.7836 49.091C14.7184 49.1562 14.7402 49.2214 14.8271 49.3084C14.9141 49.3954 15.0228 49.4388 15.1532 49.4388C15.2836 49.4606 15.4358 49.4388 15.6097 49.4171L15.0228 48.9389ZM17.6095 50.5474C17.7182 50.4605 17.7834 50.3735 17.7617 50.2866C17.7617 50.1996 17.6748 50.091 17.5661 50.004C17.4356 49.9171 17.3269 49.8736 17.1965 49.8518C17.0661 49.8518 16.9357 49.8518 16.7835 49.8736L17.6095 50.5474Z" fill="#08C0A6"/>
<path d="M22.957 49.0476C23.1744 49.265 23.6309 49.3736 23.9787 49.3084C24.3265 49.2432 24.4352 49.0258 24.2178 48.8085C24.0004 48.5911 23.5439 48.4824 23.1961 48.5476C22.8483 48.6128 22.7396 48.8519 22.957 49.0476Z" fill="#9FE2CC"/>
<path d="M7.63201 51.8735C7.82765 52.0909 8.28415 52.1996 8.63195 52.1344C8.97976 52.0691 9.08845 51.8518 8.89281 51.6344C8.69717 51.417 8.24067 51.3083 7.89287 51.3735C7.54506 51.4387 7.43637 51.6779 7.63201 51.8735Z" fill="#9FE2CC"/>
<path d="M7.50153 55.3951L2.50186 50.1128C2.28449 49.8737 2.41491 49.5042 2.71924 49.4389L24.2395 45.4392L30.4131 51.3301L7.89281 55.5255C7.74064 55.5472 7.58848 55.5038 7.50153 55.3951ZM2.74097 49.8085L7.78412 55.1342L29.587 51.0693L24.1091 45.8305L2.74097 49.8085Z" fill="#D6E4FF"/>
<path d="M51.4334 52.5475L27.935 48.1999C27.6307 48.1347 27.3046 48.2434 27.0872 48.4608L20.0442 55.3951C19.8486 55.5908 19.7399 55.8733 19.7617 56.1342L19.9138 58.6123C19.9355 59.047 20.2616 59.4166 20.6964 59.5035L44.9556 63.9815C45.2817 64.0467 45.6078 63.938 45.8469 63.6989L51.8247 57.2646C51.9769 57.0907 52.0638 56.8733 52.0856 56.6559L52.2377 53.5257C52.2595 53.0692 51.9117 52.6344 51.4334 52.5475Z" fill="#D6E4FF"/>
<path d="M44.8034 60.6119L20.4137 55.8731C20.1094 55.8078 20.0007 55.4383 20.2181 55.2209L27.2828 48.2649C27.3698 48.1779 27.5002 48.1344 27.6306 48.1562L51.5856 52.5689C51.8899 52.6341 51.9986 52.9819 51.8029 53.2211L45.1729 60.4814C45.0642 60.5901 44.9338 60.6336 44.8034 60.6119Z" fill="#3E7EFF"/>
<path d="M40.6298 54.9604C39.1299 56.5472 35.7823 57.4385 33.1955 56.982C30.6087 56.5037 29.7827 54.8299 31.3478 53.2648C32.8912 51.7214 36.1735 50.8519 38.7168 51.3084C41.2602 51.7649 42.1297 53.3952 40.6298 54.9604Z" fill="#D6E4FF"/>
<path d="M38.0429 52.4388C38.3038 52.504 38.5646 52.5692 38.8037 52.6779C39.0429 52.7866 39.2168 52.917 39.3472 53.0692C38.9559 53.1996 38.5646 53.3083 38.1733 53.417C38.1299 53.33 38.0429 53.2431 37.9125 53.1561C37.7821 53.0909 37.6517 53.0257 37.4995 53.0039L36.8039 53.7213C36.956 53.7865 37.1082 53.8735 37.2604 53.9387C37.4125 54.0256 37.5212 54.1126 37.6082 54.2213C37.6951 54.3299 37.7386 54.4386 37.7386 54.5691C37.7386 54.6995 37.6517 54.8299 37.4995 55.0038C37.3473 55.1777 37.1517 55.3081 36.9343 55.3951C36.7169 55.5038 36.4996 55.569 36.2604 55.6342C36.0213 55.6777 35.7822 55.7212 35.5431 55.7212C35.304 55.7212 35.0649 55.6994 34.8475 55.6777L34.5214 56.0037L33.978 55.8951L34.304 55.569C33.9997 55.5038 33.7171 55.4168 33.4563 55.2864C33.1954 55.156 33.0215 55.0038 32.9128 54.8299C33.1085 54.7647 33.3258 54.7212 33.5432 54.656C33.7606 54.5908 33.9562 54.5473 34.1736 54.4821C34.1954 54.5473 34.2388 54.5908 34.2823 54.656C34.3258 54.6995 34.391 54.7647 34.4562 54.8082C34.5214 54.8516 34.5866 54.8951 34.6736 54.9169C34.7605 54.9603 34.8257 54.9821 34.9127 54.9821L35.6735 54.1995C35.4996 54.1343 35.3475 54.0474 35.1953 53.9604C35.0431 53.8735 34.9344 53.7865 34.8692 53.6996C34.804 53.5909 34.7605 53.5039 34.7823 53.3735C34.804 53.2648 34.8692 53.1126 35.0214 52.9822C35.1735 52.83 35.3475 52.7214 35.5431 52.6127C35.7605 52.5257 35.9778 52.4388 36.1952 52.3953C36.4343 52.3518 36.6517 52.3083 36.8908 52.3083C37.1299 52.3083 37.3473 52.3083 37.543 52.3518L37.8473 52.0475L38.369 52.1344L38.0429 52.4388ZM36.956 52.917C36.8256 52.8953 36.6735 52.917 36.5213 52.9387C36.3691 52.9605 36.2387 53.0257 36.1517 53.1344C36.0648 53.2213 36.0431 53.3083 36.0865 53.3735C36.13 53.4387 36.217 53.5039 36.3474 53.5474L36.956 52.917ZM35.4344 55.069C35.6083 55.0908 35.7605 55.0908 35.9126 55.0473C36.0648 55.0038 36.1952 54.9386 36.3039 54.8299C36.4126 54.7212 36.4343 54.6343 36.3909 54.5691C36.3474 54.5038 36.2604 54.4386 36.13 54.3734L35.4344 55.069Z" fill="#3E7EFF"/>
<path d="M29.3044 52.743C29.0871 52.9604 28.6306 53.0691 28.2828 53.0039C27.935 52.9386 27.8263 52.7213 28.0437 52.5039C28.261 52.2865 28.7175 52.1778 29.0653 52.243C29.4131 52.3083 29.5001 52.5256 29.3044 52.743Z" fill="#9FE2CC"/>
<path d="M44.6078 55.5688C44.4121 55.7862 43.9556 55.8949 43.6078 55.8297C43.26 55.7644 43.1513 55.5471 43.347 55.3297C43.5426 55.1123 43.9991 55.0036 44.3469 55.0688C44.6947 55.1123 44.8034 55.3514 44.6078 55.5688Z" fill="#D6E4FF"/>
<path d="M44.3468 59.1774L22.7396 55.1559C22.37 55.0907 22.2396 54.6342 22.5005 54.3516L28.0001 49.0693L28.0871 49.0911L49.39 53.0691C49.7595 53.1343 49.8899 53.569 49.6508 53.8516L44.7381 59.0469C44.6729 59.1556 44.499 59.2208 44.3468 59.1774ZM22.6744 54.7646L44.4555 58.8078L49.4987 53.4821L28.1523 49.5258L22.6744 54.7646Z" fill="#D6E4FF"/>
<path d="M33.0868 54.1559C34.2172 53.3517 35.1736 51.9822 34.7606 50.6562C34.4128 49.4823 33.1303 48.852 31.9347 48.6128C28.761 47.9824 25.5438 49.265 22.3049 49.3737C18.2835 49.5041 14.3272 47.852 10.3057 48.1781C9.39276 48.265 8.4363 48.4607 7.69722 49.0041C6.95814 49.5693 6.4799 50.5475 6.74075 51.4387C7.1103 52.6778 8.63193 53.1125 9.91445 53.3517C10.1318 53.3951 10.3492 53.4386 10.5666 53.4603C11.9143 53.6995 13.2838 53.9603 14.5881 54.3951C16.1749 54.9168 17.7183 55.7211 18.8704 56.9601C19.5225 57.634 20.1094 58.4817 21.0007 58.7209C22.0223 59.0035 23.0657 58.4383 23.87 57.7644C24.6743 57.0905 25.4134 56.2645 26.3916 55.895C27.3046 55.5472 28.3045 55.6341 29.2827 55.5472C30.6739 55.4385 31.9782 54.9385 33.0868 54.1559Z" fill="#003CC1"/>
<path d="M49.4987 16.202L47.1945 22.1146C47.1293 22.2668 46.9989 22.3972 46.825 22.4407L26.7176 27.1143C26.1959 27.2447 25.8481 26.5926 26.2394 26.2231L35.6301 17.5063C35.717 17.441 35.804 17.3758 35.9127 17.3758L48.9335 15.5064C49.3465 15.4194 49.6509 15.8107 49.4987 16.202Z" fill="#79A6FF"/>
<path d="M49.7161 10.1589C49.5205 10.4632 49.4118 10.7675 49.2814 11.0719C53.1072 8.0938 56.9113 5.11574 60.7371 2.13767C62.0631 1.116 60.1937 -0.709961 58.8894 0.289972C55.8679 2.63764 52.8463 4.98531 49.8248 7.33298C49.0205 7.96337 46.9989 8.98504 46.9989 10.1806C46.9989 11.9631 46.9989 13.8325 46.9989 15.5716C46.9989 17.3106 49.7161 17.3106 49.7161 15.5716C49.7161 15.5933 49.7161 11.9631 49.7161 10.1589Z" fill="#003CC1"/>
<path d="M42.0211 19.1147C40.5864 19.7669 40.4125 21.6798 39.0865 22.4841C37.5866 23.3971 35.478 22.4624 33.7608 22.9623C32.0435 23.4623 30.7827 25.3535 29.0219 25.0057C27.9568 24.81 27.2395 23.8101 27.109 22.8319C26.9786 21.8537 27.3047 20.8755 27.6307 19.9408C28.4133 17.6366 29.761 14.7889 32.6739 14.3325C33.4347 14.2238 34.0434 14.4629 34.6085 14.0499C35.065 13.7455 35.3476 12.6369 35.7606 12.1804C36.804 11.0501 38.2822 10.4197 39.9125 10.4197C42.521 10.3979 44.9774 11.8544 46.4773 13.8325C47.0642 14.5933 47.5207 15.4846 47.5642 16.4193C47.5859 17.354 47.1077 18.3322 46.1947 18.7235C44.8905 19.2452 43.2819 18.5496 42.0211 19.1147Z" fill="#1E5EE0"/>
<path d="M22.544 44.1349L46.2598 39.7656C46.5206 39.7221 46.7815 39.8091 46.9771 39.983L54.1288 47.026C54.3027 47.1781 54.3897 47.4173 54.3679 47.6564L54.2158 50.3518C54.1941 50.7214 53.9332 51.0257 53.5637 51.0909L29.1088 55.6124C28.8479 55.6558 28.5653 55.5689 28.3697 55.3733L22.2831 48.8302C22.1527 48.6998 22.0875 48.5041 22.0658 48.3085L21.9136 44.9826C21.8701 44.5696 22.1527 44.2001 22.544 44.1349Z" fill="#D6E4FF"/>
<path d="M29.2175 52.1779L54.0637 47.3521C54.2158 47.3304 54.281 47.113 54.1724 47.0043L46.7815 39.7439C46.7381 39.7004 46.6729 39.6787 46.6076 39.6787L22.218 44.1784C22.0658 44.2002 22.0006 44.3958 22.1093 44.5262L29.0436 52.1127C29.0653 52.1779 29.1523 52.1996 29.2175 52.1779Z" fill="#3E7EFF"/>
<path d="M33.4782 46.526C34.9781 48.1129 38.3257 49.0041 40.9124 48.5476C43.4992 48.0911 44.3253 46.3956 42.7601 44.8305C41.2168 43.2871 37.9344 42.4176 35.3911 42.8741C32.8478 43.3306 32 44.9609 33.4782 46.526Z" fill="#D6E4FF"/>
<path d="M36.8909 43.7C37.1083 43.6565 37.3474 43.6348 37.5865 43.6131C37.8256 43.5913 38.043 43.6131 38.2821 43.6348C38.2604 43.7652 38.2604 43.8957 38.2387 44.0261C38.0865 44.0043 37.9343 44.0043 37.7822 44.0043C37.63 44.0043 37.4778 44.0261 37.3474 44.0696L37.9778 44.5695C38.1517 44.5478 38.3473 44.5261 38.5212 44.5043C38.6951 44.4826 38.869 44.4826 39.0429 44.5043C39.2168 44.5261 39.3908 44.5478 39.5647 44.5913C39.7386 44.6347 39.9125 44.7217 40.0864 44.8304C40.2603 44.9608 40.4124 45.0695 40.4994 45.1999C40.5863 45.3303 40.6515 45.4608 40.6733 45.6129C40.695 45.7651 40.6733 45.8955 40.6081 46.026C40.5428 46.1781 40.4342 46.3085 40.3037 46.439L40.8254 46.852L40.4342 47.2433L39.8907 46.7868C39.6081 47.0042 39.2603 47.1998 38.8256 47.3519C38.3473 47.5259 37.8256 47.6128 37.3039 47.6128C37.3691 47.352 37.4344 47.1128 37.4778 46.8737C37.5213 46.6563 37.5865 46.4607 37.6083 46.2651C37.7387 46.2868 37.8691 46.2868 38.0213 46.2868C38.1734 46.2868 38.3039 46.2651 38.4343 46.2433C38.5647 46.2216 38.6734 46.1999 38.7821 46.1564C38.8908 46.1346 38.9777 46.0912 39.0429 46.0477L38.1082 45.2434C37.8691 45.2869 37.6517 45.3304 37.4126 45.3738C37.1735 45.4173 36.9127 45.4173 36.6735 45.4173C36.4344 45.4173 36.1953 45.3738 35.9997 45.3086C35.804 45.2434 35.6301 45.1347 35.4997 44.9825C35.3693 44.8521 35.3475 44.7 35.3693 44.5695C35.391 44.4391 35.478 44.3304 35.5867 44.2217C35.6953 44.1348 35.8258 44.0478 35.9997 43.9609C36.1518 43.8957 36.3257 43.8304 36.4779 43.8087L36.2605 43.6131L36.6953 43.5261L36.8909 43.7ZM36.8909 44.1783C36.7822 44.2217 36.6953 44.2652 36.6518 44.3304C36.5866 44.3956 36.6083 44.4608 36.6953 44.5478C36.7822 44.6347 36.8909 44.6782 37.0213 44.6782C37.1518 44.7 37.3039 44.6782 37.4778 44.6565L36.8909 44.1783ZM39.4777 45.7868C39.5864 45.6999 39.6516 45.6129 39.6299 45.526C39.6299 45.439 39.5429 45.3303 39.4342 45.2434C39.3038 45.1564 39.1951 45.113 39.0647 45.0912C38.9343 45.0912 38.8038 45.0912 38.6517 45.113L39.4777 45.7868Z" fill="#3E7EFF"/>
<path d="M44.8252 44.2868C45.0425 44.5042 45.499 44.6129 45.8468 44.5477C46.1946 44.4825 46.3033 44.2651 46.0859 44.0477C45.8686 43.8303 45.4121 43.7216 45.0643 43.7869C44.7165 43.8521 44.6078 44.0912 44.8252 44.2868Z" fill="#D6E4FF"/>
<path d="M29.5002 47.113C29.6958 47.3304 30.1523 47.4391 30.5001 47.3739C30.8479 47.3086 30.9566 47.0913 30.761 46.8739C30.5653 46.6565 30.1088 46.5478 29.761 46.613C29.4132 46.6782 29.3045 46.8956 29.5002 47.113Z" fill="#9FE2CC"/>
<path d="M29.3479 50.6127L24.4134 45.3957C24.1743 45.1348 24.3047 44.7218 24.6525 44.6566L45.8685 40.7004C45.9989 40.6786 46.1511 40.7221 46.2598 40.8091L51.629 45.9609C51.8898 46.2217 51.7594 46.6565 51.4116 46.7217L29.7609 50.7432C29.6087 50.7649 29.4566 50.7214 29.3479 50.6127ZM24.6091 45.0479L29.6522 50.3736L51.4551 46.3087L45.9772 41.0699L24.6091 45.0479Z" fill="#D6E4FF"/>
<path d="M31.8478 42.2655L7.63205 36.6789C7.47989 36.6354 7.30599 36.7006 7.1973 36.8093L0.284718 44.0914C0.197767 44.1784 0.154297 44.3088 0.154297 44.4392L0.328196 47.5912C0.349933 47.7869 0.480354 47.9608 0.675993 48.0042L24.1744 54.0256C24.3266 54.069 24.5005 54.0256 24.6092 53.9169L31.5435 47.1565C31.6087 47.0912 31.6739 46.9826 31.6739 46.8739L32.1739 42.7437C32.2391 42.5263 32.0869 42.309 31.8478 42.2655Z" fill="#D6E4FF"/>
<path d="M24.0223 50.4606L0.610817 44.374C0.39344 44.3088 0.306486 44.0479 0.45865 43.874L7.24081 36.7441C7.30602 36.6571 7.41471 36.6354 7.5234 36.6571L31.7174 42.222C31.9566 42.2655 32.0218 42.548 31.8696 42.7219L24.3049 50.3736C24.2397 50.4606 24.131 50.4823 24.0223 50.4606Z" fill="#3E7EFF"/>
<path d="M20.0879 44.3305C18.5227 45.9391 15.2186 46.7216 12.7188 46.113C10.2624 45.5043 9.5016 43.7436 11.045 42.1785C12.5666 40.5916 15.849 39.7873 18.3488 40.3742C20.8922 40.9394 21.6747 42.7219 20.0879 44.3305Z" fill="#D6E4FF"/>
<path d="M17.6097 41.5263C17.8706 41.5915 18.1314 41.7002 18.3488 41.8089C18.5879 41.9393 18.7618 42.0697 18.8705 42.2436C18.4792 42.3523 18.0662 42.461 17.6967 42.5697C17.6532 42.461 17.5662 42.3741 17.4358 42.2871C17.3054 42.2002 17.1749 42.135 17.0228 42.1132L16.3054 42.8306C16.4576 42.9175 16.6098 43.0045 16.7402 43.0914C16.8924 43.1784 17.001 43.2871 17.088 43.3957C17.1749 43.5044 17.2184 43.6349 17.1967 43.7653C17.1967 43.8957 17.1097 44.0479 16.9576 44.2C16.8054 44.3739 16.6098 44.5044 16.3924 44.5913C16.175 44.7 15.9576 44.7652 15.7185 44.8087C15.4794 44.8522 15.2403 44.8739 15.0229 44.8739C14.7838 44.8739 14.5664 44.8522 14.349 44.787L14.023 45.113L13.5013 44.9826L13.8273 44.6565C13.523 44.5696 13.2622 44.4609 13.0013 44.3305C12.7622 44.1783 12.5883 44.0261 12.4796 43.8305C12.6753 43.787 12.8926 43.7218 13.0883 43.6783C13.2839 43.6349 13.5013 43.5697 13.6969 43.5262C13.7187 43.5914 13.7404 43.6349 13.7839 43.7001C13.8274 43.7653 13.8926 43.8088 13.9578 43.8522C14.023 43.8957 14.0882 43.9392 14.1534 43.9827C14.2186 44.0261 14.3056 44.0479 14.3925 44.0696L15.1533 43.2871C14.9794 43.2001 14.8273 43.1132 14.6968 43.0262C14.5447 42.9393 14.4577 42.8306 14.3708 42.7436C14.3056 42.6349 14.2621 42.5262 14.2838 42.3958C14.3056 42.2654 14.3708 42.135 14.5229 41.9828C14.6751 41.8306 14.849 41.7219 15.0447 41.6133C15.262 41.5263 15.4794 41.4611 15.6968 41.3959C15.9359 41.3524 16.1533 41.3307 16.3924 41.3307C16.6315 41.3307 16.8271 41.3524 17.0228 41.3959L17.3271 41.0916L17.8488 41.222L17.6097 41.5263ZM16.5228 42.0045C16.3924 41.9828 16.2402 41.9828 16.0881 42.0263C15.9359 42.048 15.8055 42.1132 15.7185 42.2219C15.6316 42.3089 15.5881 42.3958 15.6316 42.4828C15.6751 42.548 15.762 42.6132 15.8924 42.6784L16.5228 42.0045ZM14.9577 44.2218C15.1316 44.2653 15.2838 44.2435 15.4359 44.2218C15.5881 44.1783 15.7185 44.1131 15.8272 44.0044C15.9359 43.8957 15.9576 43.8088 15.9142 43.7218C15.8707 43.6566 15.7837 43.5696 15.6533 43.5044L14.9577 44.2218Z" fill="#3E7EFF"/>
<path d="M9.08845 41.5482C8.89281 41.7656 8.45806 41.8742 8.11025 41.7873C7.78419 41.7003 7.6755 41.4612 7.89288 41.2656C8.08852 41.0482 8.52327 40.9395 8.87107 41.0265C9.19714 41.0917 9.28409 41.3308 9.08845 41.5482Z" fill="#D6E4FF"/>
<path d="M24.0875 45.1349C23.8702 45.3522 23.4137 45.4609 23.0659 45.374C22.7181 45.287 22.6094 45.0479 22.8267 44.8305C23.0441 44.6132 23.5006 44.5045 23.8484 44.5914C24.1962 44.6566 24.3049 44.9175 24.0875 45.1349Z" fill="#9FE2CC"/>
<path d="M23.7179 48.9607L2.56717 43.7001C2.37153 43.6567 2.28458 43.3958 2.43675 43.2436L7.82769 37.7658C7.8929 37.7005 7.97985 37.6788 8.08854 37.7005L30.0871 42.8524L23.9788 48.8737C23.8918 48.9607 23.8049 48.9824 23.7179 48.9607ZM2.84975 43.3741L23.7397 48.5694L29.3045 43.0915L8.04506 38.1135L2.84975 43.3741Z" fill="#D6E4FF"/>
<path d="M32.7824 39.2439C29.6957 38.5917 26.6307 37.9613 23.5439 37.3092C21.1745 36.8093 18.3703 36.418 16.6096 38.0918C15.3271 39.2873 15.0445 41.4394 16.0009 42.9175C17.0878 44.5913 18.7616 44.6348 20.5224 44.4827C20.3702 44.5044 20.6745 46.6999 20.7398 46.8955C20.9789 47.6564 21.4571 48.352 22.1092 48.8084C23.457 49.7866 25.4134 49.8084 26.7828 48.8519C27.435 48.3954 27.9784 47.7216 28.7175 47.439C29.6739 47.0694 30.7173 47.352 31.739 47.4824C33.3911 47.6781 35.1736 47.3303 36.4126 46.2434C37.6517 45.1348 38.2168 43.2001 37.4343 41.7437C36.543 40.1351 34.5432 39.6134 32.7824 39.2439Z" fill="#003CC1"/>
<path d="M43.4122 34.0051L19.2399 29.5489C19.0878 29.5272 18.9356 29.5706 18.8269 29.6793L11.4578 36.9614C11.3491 37.0484 11.3057 37.2006 11.3057 37.331L11.4796 40.4177C11.5013 40.6351 11.6535 40.809 11.8708 40.8525L36.7822 45.4391C36.9344 45.4609 37.1083 45.4174 37.217 45.287L43.4992 38.5266C43.5861 38.4396 43.6296 38.3309 43.6296 38.2222L43.8035 34.4833C43.8252 34.266 43.6513 34.0486 43.4122 34.0051Z" fill="#D6E4FF"/>
<path d="M36.4561 42.0045L11.6317 37.1788C11.4795 37.157 11.4143 36.9397 11.523 36.831L18.9138 29.5706C18.9573 29.5271 19.0225 29.5054 19.0877 29.5054L43.4556 34.0051C43.6078 34.0268 43.673 34.2224 43.5643 34.3529L36.63 41.9393C36.6082 42.0045 36.5213 42.0263 36.4561 42.0045Z" fill="#3E7EFF"/>
<path d="M32.1956 36.3529C30.6957 37.9398 27.3481 38.831 24.7613 38.3745C22.1745 37.8963 21.3485 36.2225 22.9136 34.6574C24.4569 33.114 27.7393 32.2445 30.2826 32.701C32.8259 33.1575 33.6737 34.7878 32.1956 36.3529Z" fill="#D6E4FF"/>
<path d="M29.6087 33.8095C29.8696 33.8747 30.1304 33.9399 30.3695 34.0486C30.6087 34.1573 30.7826 34.2877 30.913 34.4399C30.5217 34.5703 30.1304 34.679 29.7391 34.7877C29.6957 34.7007 29.6087 34.6138 29.4783 34.5268C29.3479 34.4616 29.2174 34.3964 29.0653 34.3747L28.3697 35.092C28.5218 35.1572 28.674 35.2442 28.8262 35.3094C28.9783 35.3963 29.087 35.4833 29.1957 35.592C29.2827 35.7007 29.3261 35.8094 29.3261 35.9398C29.3261 36.0702 29.2392 36.2006 29.087 36.3745C28.9348 36.5484 28.7392 36.6789 28.5218 36.7658C28.3045 36.8745 28.0871 36.9397 27.848 37.0049C27.6088 37.0484 27.3697 37.0919 27.1306 37.0919C26.8915 37.0919 26.6524 37.0701 26.435 37.0484L26.1089 37.3745L25.5655 37.2658L25.8916 36.9397C25.5872 36.8745 25.3047 36.7876 25.0438 36.6571C24.783 36.5267 24.6091 36.3745 24.5004 36.2006C24.696 36.1354 24.9134 36.0919 25.1308 36.0267C25.3481 35.9615 25.5438 35.918 25.7611 35.8528C25.7829 35.918 25.8264 35.9615 25.8698 36.0267C25.9133 36.0702 25.9785 36.1354 26.0437 36.1789C26.1089 36.2224 26.1742 36.2658 26.2611 36.2876C26.3481 36.3311 26.4133 36.3528 26.5002 36.3528L27.2611 35.5702C27.0872 35.505 26.935 35.4181 26.7828 35.3311C26.6307 35.2442 26.522 35.1572 26.4568 35.0703C26.3915 34.9616 26.3481 34.8746 26.3698 34.7442C26.3915 34.6355 26.4568 34.4834 26.6089 34.3529C26.7611 34.2008 26.935 34.0921 27.1306 33.9834C27.348 33.8964 27.5654 33.8095 27.7828 33.766C28.0219 33.7225 28.2392 33.6791 28.4784 33.6791C28.7175 33.6791 28.9349 33.6791 29.1305 33.7225L29.4348 33.4182L29.9565 33.5052L29.6087 33.8095ZM28.5218 34.2877C28.3914 34.266 28.2392 34.2877 28.0871 34.3095C27.9349 34.3312 27.8045 34.3964 27.7175 34.5051C27.6306 34.592 27.6089 34.679 27.6523 34.7442C27.6958 34.8094 27.7828 34.8746 27.9132 34.9181L28.5218 34.2877ZM27.0002 36.4615C27.1741 36.4832 27.3263 36.4832 27.4784 36.4397C27.6306 36.3963 27.761 36.3311 27.8697 36.2224C27.9784 36.1137 28.0001 36.0267 27.9566 35.9615C27.9132 35.8963 27.8262 35.8311 27.6958 35.7659L27.0002 36.4615Z" fill="#3E7EFF"/>
<path d="M20.8485 34.1139C20.6311 34.3312 20.1747 34.4399 19.8269 34.3747C19.479 34.3095 19.3704 34.0921 19.5877 33.8747C19.8051 33.6574 20.2616 33.5487 20.6094 33.6139C20.9572 33.6791 21.0659 33.8965 20.8485 34.1139Z" fill="#D6E4FF"/>
<path d="M36.1736 36.9398C35.9779 37.1572 35.5214 37.2658 35.1736 37.2006C34.8258 37.1354 34.7171 36.918 34.9128 36.7007C35.1084 36.4833 35.5649 36.3746 35.9127 36.4398C36.2605 36.505 36.3692 36.7224 36.1736 36.9398Z" fill="#D6E4FF"/>
<path d="M36.0213 40.5917L13.8706 36.4616C13.675 36.4181 13.6098 36.179 13.7402 36.0485L19.1529 30.8532C19.4137 30.6141 19.7616 30.5054 20.1094 30.5706L41.3688 34.5269C41.5644 34.5704 41.6297 34.7878 41.4992 34.9399L36.217 40.5048C36.1952 40.57 36.1083 40.6134 36.0213 40.5917ZM14.2185 36.1355L36.0213 40.2004L41.0645 34.8747L19.6963 30.8967L14.2185 36.1355Z" fill="#D6E4FF"/>
<path d="M14.0664 15.0498C13.5447 17.8757 11.4144 20.1582 8.65369 20.8972C11.4144 21.6363 13.5447 23.9188 14.0664 26.7447C14.5881 23.9188 16.7184 21.6363 19.479 20.8972C16.7184 20.1582 14.6098 17.8757 14.0664 15.0498Z" fill="#D6E4FF"/>
<path d="M50.1291 27.3315C49.803 29.114 48.4553 30.5487 46.7163 31.0269C48.4553 31.4834 49.7813 32.9181 50.1291 34.7224C50.4552 32.9399 51.8029 31.5052 53.5419 31.0269C51.7812 30.5487 50.4552 29.114 50.1291 27.3315Z" fill="#D6E4FF"/>
</svg>
