<svg width="56" height="55" viewBox="0 0 56 55" fill="none" xmlns="http://www.w3.org/2000/svg">
<path d="M31.61 41.5375H1.30863C0.586635 41.5375 0 40.9509 0 40.2289V1.30862C0 0.586621 0.586635 0 1.30863 0H31.61C32.332 0 32.9186 0.586621 32.9186 1.30862V40.2289C32.9186 40.9509 32.332 41.5375 31.61 41.5375Z" fill="#79A6FF"/>
<path d="M34.7236 44.1547H4.60275C3.83562 44.1547 3.20386 43.5229 3.20386 42.7558V4.01606C3.20386 3.24894 3.83562 2.61719 4.60275 2.61719H34.7236C35.4907 2.61719 36.1225 3.24894 36.1225 4.01606V42.7558C36.1225 43.5229 35.5133 44.1547 34.7236 44.1547Z" fill="white"/>
<path d="M9.04751 17.0572C16.1321 17.0572 23.2393 17.0572 30.3239 17.0572C30.7075 17.0572 30.7075 16.448 30.3239 16.448C23.2393 16.448 16.1321 16.448 9.04751 16.448C8.64139 16.448 8.64139 17.0572 9.04751 17.0572Z" fill="#79A6FF"/>
<path d="M9.04751 21.863C16.1321 21.863 23.2393 21.863 30.3239 21.863C30.7075 21.863 30.7075 21.2538 30.3239 21.2538C23.2393 21.2538 16.1321 21.2538 9.04751 21.2538C8.64139 21.2763 8.64139 21.863 9.04751 21.863Z" fill="#79A6FF"/>
<path d="M9.04751 26.6913C16.1321 26.6913 23.2393 26.6913 30.3239 26.6913C30.7075 26.6913 30.7075 26.0822 30.3239 26.0822C23.2393 26.0822 16.1321 26.0822 9.04751 26.0822C8.64139 26.0822 8.64139 26.6913 9.04751 26.6913Z" fill="#79A6FF"/>
<path d="M9.04751 31.4971C16.1321 31.4971 23.2393 31.4971 30.3239 31.4971C30.7075 31.4971 30.7075 30.8879 30.3239 30.8879C23.2393 30.8879 16.1321 30.8879 9.04751 30.8879C8.64139 30.9105 8.64139 31.4971 9.04751 31.4971Z" fill="#79A6FF"/>
<path d="M9.04751 36.3255C16.1321 36.3255 23.2393 36.3255 30.3239 36.3255C30.7075 36.3255 30.7075 35.7163 30.3239 35.7163C23.2393 35.7163 16.1321 35.7163 9.04751 35.7163C8.64139 35.7163 8.64139 36.3255 9.04751 36.3255Z" fill="#F2F0FA"/>
<path d="M13.4625 8.82202H9.84448C9.2922 8.82202 8.84448 9.26974 8.84448 9.82202V11.432C8.84448 11.9843 9.2922 12.432 9.84448 12.432H13.4625C14.0148 12.432 14.4625 11.9843 14.4625 11.432V9.82202C14.4625 9.26974 14.0148 8.82202 13.4625 8.82202Z" fill="#79A6FF"/>
<path d="M53.4955 49.0733L46.1852 37.5214H16.493L9.34074 49.0733C9.29562 49.1636 9.25049 49.2764 9.25049 49.3667V53.7889C9.25049 54.1048 9.49868 54.353 9.81455 54.353H53.0216C53.3375 54.353 53.5857 54.1048 53.5857 53.7889V49.3667C53.5857 49.2764 53.5631 49.1636 53.4955 49.0733Z" fill="#95B4F3"/>
<path d="M52.8412 49.1636H9.18286L16.4931 37.5214H46.1853L53.1571 48.6221C53.2925 48.8477 53.1345 49.1636 52.8412 49.1636Z" fill="#0B2E8F"/>
<path d="M37.8823 42.3723C38.4689 44.8542 35.5809 47.2007 31.3392 47.2007C27.0974 47.2007 24.2094 44.8542 24.7961 42.3723C25.2924 40.274 28.203 38.7849 31.3392 38.7849C34.4754 38.7849 37.3859 40.274 37.8823 42.3723Z" fill="#9FE2CC"/>
<path d="M31.7904 40.0483C32.1514 40.0483 32.5124 40.0934 32.896 40.1611C33.2795 40.2288 33.618 40.319 33.9339 40.477C33.6405 40.68 33.3472 40.9057 33.0539 41.1087C32.8734 41.0185 32.6929 40.9282 32.4447 40.8831C32.2191 40.838 31.9935 40.7929 31.7904 40.7929L31.813 41.7405C32.0837 41.7856 32.3319 41.8533 32.6252 41.8984C32.896 41.9661 33.1442 42.0338 33.3698 42.1466C33.5954 42.2594 33.7985 42.3948 33.9564 42.5302C34.1143 42.6881 34.2046 42.8912 34.2271 43.1394C34.2497 43.3875 34.2046 43.6132 34.0918 43.8162C33.979 44.0193 33.7985 44.1772 33.5729 44.3126C33.3472 44.448 33.0765 44.5382 32.7832 44.6285C32.4899 44.6962 32.174 44.7413 31.8355 44.7413V45.3054H31.0007V44.7413C30.5269 44.7413 30.0305 44.6736 29.5567 44.5608C29.0829 44.448 28.6768 44.29 28.3158 44.0644C28.5189 43.929 28.7219 43.7937 28.925 43.6809C29.128 43.5455 29.3311 43.4327 29.5116 43.2973C29.6019 43.365 29.7147 43.4327 29.8275 43.4778C29.9628 43.5455 30.0757 43.5906 30.211 43.6357C30.3464 43.6809 30.4818 43.7034 30.6172 43.7485C30.7525 43.7711 30.8879 43.7937 31.0007 43.7937L31.0233 42.5979C30.73 42.5527 30.4367 42.485 30.1885 42.4174C29.9177 42.3497 29.6921 42.2594 29.489 42.1692C29.286 42.0789 29.1506 41.9435 29.0378 41.8082C28.925 41.6728 28.8799 41.4923 28.9024 41.2892C28.925 41.0862 28.9927 40.9282 29.1506 40.7703C29.286 40.6349 29.4665 40.4995 29.6695 40.4093C29.8726 40.319 30.1208 40.2288 30.369 40.1837C30.6172 40.1385 30.8654 40.0934 31.1135 40.0934V39.7324H31.7904V40.0483ZM31.091 40.7703C30.9105 40.7929 30.7525 40.8154 30.6172 40.8831C30.4818 40.9508 30.3915 41.041 30.3915 41.1764C30.3915 41.3118 30.4367 41.402 30.572 41.4697C30.7074 41.5374 30.8653 41.5825 31.0684 41.6277L31.091 40.7703ZM31.813 43.7485C32.0612 43.7485 32.2417 43.6809 32.377 43.5906C32.5124 43.5004 32.5801 43.365 32.5801 43.207C32.5801 43.0491 32.4899 42.9363 32.3545 42.846C32.2191 42.7784 32.016 42.7107 31.813 42.6655V43.7485Z" fill="#08C0A6"/>
<path d="M21.4794 42.2145C21.3666 42.5303 20.8702 42.7785 20.3739 42.7785C19.8775 42.7785 19.5842 42.5303 19.7195 42.2145C19.8549 41.9212 20.3287 41.673 20.8025 41.673C21.2763 41.673 21.5696 41.8986 21.4794 42.2145Z" fill="#9FE2CC"/>
<path d="M42.9588 42.2145C43.0942 42.5303 42.8009 42.7785 42.3045 42.7785C41.8081 42.7785 41.3118 42.5303 41.1989 42.2145C41.0861 41.9212 41.402 41.673 41.8758 41.673C42.3496 41.673 42.846 41.8986 42.9588 42.2145Z" fill="#9FE2CC"/>
<path d="M49.4794 47.7647H12.4995L17.8468 38.5366H44.8089L49.7727 47.2457C49.908 47.4714 49.7501 47.7647 49.4794 47.7647ZM13.1989 47.3585H49.3891L44.5833 38.9202H18.095L13.1989 47.3585Z" fill="white"/>
<path d="M47.0201 43.8615L40.116 32.9412C39.9355 32.6705 39.6422 32.49 39.3038 32.49H10.672C10.3336 32.49 10.0403 32.6479 9.85976 32.9412L2.95566 43.8615C2.86541 44.0194 2.79773 44.1999 2.79773 44.3804V48.1935C2.79773 48.7124 3.2264 49.1636 3.7679 49.1636H46.2079C46.7268 49.1636 47.1781 48.735 47.1781 48.1935V44.3804C47.1781 44.1999 47.1104 44.0194 47.0201 43.8615Z" fill="#C3D5F9"/>
<path d="M46.6591 44.1548H3.33922C3.11359 44.1548 3.00078 43.9066 3.11359 43.7261L10.0854 32.6254C10.1305 32.5351 10.2207 32.49 10.311 32.49H39.7099C39.8001 32.49 39.8904 32.5351 39.9355 32.6254L46.9073 43.7261C46.9976 43.9066 46.8622 44.1548 46.6591 44.1548Z" fill="#003CC1"/>
<path d="M31.5422 37.2505C32.1288 39.7324 29.2408 42.0789 24.9991 42.0789C20.7573 42.0789 17.8694 39.7324 18.456 37.2505C18.9524 35.1522 21.8629 33.6631 24.9991 33.6631C28.1578 33.6631 31.0458 35.1522 31.5422 37.2505Z" fill="#9FE2CC"/>
<path d="M25.4505 34.9267C25.8115 34.9267 26.1724 34.9718 26.556 35.0395C26.9396 35.1072 27.278 35.1975 27.5939 35.3554C27.3006 35.5585 27.0073 35.7841 26.7139 35.9872C26.5334 35.8969 26.3529 35.8067 26.1047 35.7615C25.8791 35.7164 25.6535 35.6713 25.4505 35.6713L25.473 36.6189C25.7438 36.664 25.9919 36.7317 26.2853 36.7768C26.556 36.8445 26.8042 36.9122 27.0298 37.025C27.2554 37.1378 27.4585 37.2732 27.6164 37.4086C27.7744 37.5665 27.8646 37.7696 27.8872 38.0178C27.9097 38.266 27.8646 38.4916 27.7518 38.6946C27.639 38.8977 27.4585 39.0556 27.2329 39.191C27.0072 39.3264 26.7365 39.4166 26.4432 39.5069C26.1499 39.5746 25.834 39.6197 25.4956 39.6197V40.1838H24.6608V39.6197C24.187 39.6197 23.6906 39.552 23.2168 39.4392C22.743 39.3264 22.3368 39.1685 21.9758 38.9428C22.1789 38.8075 22.3819 38.6721 22.585 38.5593C22.7881 38.4239 22.9911 38.3111 23.1716 38.1757C23.2619 38.2434 23.3747 38.3111 23.4875 38.3562C23.6229 38.4239 23.7357 38.469 23.8711 38.5141C24.0065 38.5593 24.1418 38.5818 24.2772 38.627C24.4126 38.6495 24.548 38.6721 24.6608 38.6721L24.6833 37.4763C24.39 37.4311 24.0967 37.3635 23.8485 37.2958C23.5777 37.2281 23.3521 37.1378 23.1491 37.0476C22.946 36.9573 22.8106 36.822 22.6978 36.6866C22.585 36.5512 22.5399 36.3707 22.5624 36.1676C22.585 35.9646 22.6527 35.8067 22.8106 35.6487C22.946 35.5133 23.1265 35.378 23.3296 35.2877C23.5326 35.1975 23.7808 35.1072 24.029 35.0621C24.2772 35.017 24.5254 34.9718 24.7736 34.9718V34.6108H25.4505V34.9267ZM24.7736 35.6487C24.5931 35.6713 24.4351 35.6938 24.2997 35.7615C24.1644 35.8292 24.0741 35.9195 24.0741 36.0548C24.0741 36.1902 24.1193 36.2805 24.2546 36.3481C24.39 36.4158 24.5479 36.461 24.751 36.5061L24.7736 35.6487ZM25.473 38.627C25.7212 38.627 25.9017 38.5593 26.0371 38.469C26.1724 38.3788 26.2401 38.2434 26.2401 38.0855C26.2401 37.9275 26.1499 37.8147 26.0145 37.7245C25.8791 37.6568 25.6761 37.5891 25.473 37.544V38.627Z" fill="#08C0A6"/>
<path d="M15.1393 37.0928C15.0265 37.4086 14.5301 37.6568 14.0337 37.6568C13.5374 37.6568 13.2441 37.4086 13.3794 37.0928C13.5148 36.7995 13.9886 36.5513 14.4624 36.5513C14.9362 36.5513 15.2296 36.7769 15.1393 37.0928Z" fill="#9FE2CC"/>
<path d="M36.6414 37.0928C36.7768 37.4086 36.4835 37.6568 35.9871 37.6568C35.4908 37.6568 34.9944 37.4086 34.8816 37.0928C34.7688 36.7995 35.0846 36.5513 35.5584 36.5513C36.0323 36.5513 36.5061 36.7769 36.6414 37.0928Z" fill="#9FE2CC"/>
<path d="M43.7486 42.5304H6.74618C6.49799 42.5304 6.34004 42.2596 6.45285 42.034L11.4166 33.6633C11.4843 33.5731 11.5745 33.5054 11.7099 33.5054H38.469L43.7486 42.5304ZM6.85899 42.1468H43.0266L38.2208 33.9115H11.7325L6.85899 42.1468Z" fill="white"/>
<path d="M55.8872 38.8074L48.8477 27.6615C48.7123 27.4359 48.4641 27.3005 48.1934 27.3005H19.336C19.0653 27.3005 18.8171 27.4359 18.6817 27.6615L11.755 38.8074C11.6873 38.9202 11.6422 39.0781 11.6422 39.2135V43.3876C11.6422 43.8162 11.9807 44.1547 12.4093 44.1547H55.2329C55.6616 44.1547 56 43.8162 56 43.3876V39.2135C56 39.0556 55.9549 38.9202 55.8872 38.8074Z" fill="#D6E4FF"/>
<path d="M55.5261 38.9203H12.0257C11.8452 38.9203 11.7324 38.7172 11.8452 38.5819L18.8621 27.3909C18.9073 27.3232 18.975 27.2781 19.0426 27.2781H48.4866C48.5543 27.2781 48.6446 27.3232 48.6671 27.3909L55.6841 38.5819C55.7969 38.7398 55.6841 38.9203 55.5261 38.9203Z" fill="#3E7EFF"/>
<path d="M40.3191 32.1289C40.9057 34.6108 38.0177 36.9573 33.7759 36.9573C29.5342 36.9573 26.6462 34.6108 27.2328 32.1289C27.7292 30.0306 30.6398 28.5415 33.7759 28.5415C36.9121 28.5415 39.8227 30.0306 40.3191 32.1289Z" fill="white"/>
<path d="M34.2272 29.805C34.5882 29.805 34.9492 29.8501 35.3327 29.9178C35.7163 29.9855 36.0547 30.0758 36.3706 30.2337C36.0773 30.4368 35.784 30.6624 35.4907 30.8654C35.3102 30.7752 35.1297 30.6849 34.8815 30.6398C34.6559 30.5947 34.4302 30.5496 34.2272 30.5496L34.2497 31.4972C34.5205 31.5423 34.7687 31.61 35.0394 31.6551C35.3102 31.7228 35.5584 31.7905 35.784 31.9033C36.0096 32.0161 36.2127 32.1515 36.3706 32.2869C36.5285 32.4448 36.6188 32.6479 36.6414 32.8961C36.6639 33.1443 36.6188 33.3699 36.506 33.5729C36.3932 33.776 36.2127 33.9339 35.987 34.0693C35.7614 34.2047 35.4907 34.2949 35.1974 34.3852C34.904 34.4529 34.5882 34.498 34.2497 34.498V35.0621H33.4149V34.498C32.9411 34.498 32.4447 34.4303 31.9709 34.3175C31.4971 34.2047 31.091 34.0468 30.73 33.8211C30.933 33.6858 31.1361 33.5504 31.3392 33.4376C31.5422 33.3022 31.7453 33.1894 31.9258 33.054C32.0161 33.1217 32.1289 33.1894 32.2417 33.2345C32.3771 33.3022 32.4899 33.3473 32.6252 33.3924C32.7606 33.4376 32.896 33.4601 33.0314 33.5053C33.1667 33.5278 33.3021 33.5504 33.4149 33.5504L33.4375 32.3546C33.1442 32.3094 32.8509 32.2418 32.6027 32.1741C32.3319 32.1064 32.1063 32.0161 31.9032 31.9259C31.7002 31.8356 31.5648 31.7003 31.452 31.5649C31.3392 31.4295 31.2941 31.249 31.3166 31.0459C31.3392 30.8429 31.4069 30.6849 31.5648 30.527C31.7002 30.3916 31.8807 30.2563 32.0837 30.166C32.2868 30.0758 32.535 29.9855 32.7832 29.9404C33.0314 29.8953 33.2795 29.8501 33.5277 29.8501V29.4891H34.2046L34.2272 29.805ZM33.5503 30.527C33.3698 30.5496 33.2119 30.5721 33.0765 30.6398C32.9411 30.7075 32.8509 30.7978 32.8509 30.9331C32.8509 31.0685 32.896 31.1588 33.0314 31.2264C33.1667 31.2941 33.3247 31.3393 33.5277 31.3844L33.5503 30.527ZM34.2497 33.5053C34.4979 33.5053 34.6784 33.4376 34.8138 33.3473C34.9492 33.2571 35.0168 33.1217 35.0168 32.9638C35.0168 32.8058 34.9266 32.693 34.7912 32.6028C34.6558 32.5351 34.4528 32.4674 34.2497 32.4223V33.5053Z" fill="#003CC1"/>
<path d="M23.9162 31.9709C23.8034 32.2868 23.307 32.535 22.8106 32.535C22.3142 32.535 22.0209 32.2868 22.1563 31.9709C22.2917 31.6776 22.7655 31.4294 23.2393 31.4294C23.7131 31.4294 24.0064 31.6551 23.9162 31.9709Z" fill="white"/>
<path d="M45.3956 31.9709C45.5309 32.2868 45.2377 32.535 44.7413 32.535C44.2449 32.535 43.7485 32.2868 43.6357 31.9709C43.5229 31.6776 43.8388 31.4294 44.3126 31.4294C44.7864 31.4294 45.2828 31.6551 45.3956 31.9709Z" fill="white"/>
<path d="M51.9613 37.5214H15.5004C15.2522 37.5214 15.0943 37.2506 15.2296 37.0476L20.2159 28.4513C20.2836 28.361 20.3739 28.2933 20.4867 28.2933H47.0878C47.2006 28.2933 47.3135 28.361 47.3586 28.4513L52.2546 37.0476C52.3674 37.2506 52.2095 37.5214 51.9613 37.5214ZM15.6358 37.1153H51.8259L47.0202 28.6769H20.5318L15.6358 37.1153Z" fill="white"/>
<path d="M44.7638 44.1548H13.8533V44.3578H44.7638V44.1548Z" fill="#2C50FF"/>
<path d="M44.7638 49.1636H13.8533V49.3666H44.7638V49.1636Z" fill="#2C50FF"/>
<path d="M44.5609 12.4545C44.0645 15.0943 42.1016 17.1926 39.552 17.8695C42.1016 18.5463 44.087 20.6672 44.5609 23.2844C45.0572 20.6446 47.0202 18.5463 49.5697 17.8695C47.0202 17.1926 45.0347 15.0943 44.5609 12.4545Z" fill="#D6E4FF"/>
<path d="M50.382 4.42224C50.0661 6.0693 48.8252 7.40049 47.2233 7.82917C48.8252 8.25786 50.0661 9.58905 50.382 11.2361C50.6979 9.58905 51.9388 8.25786 53.5408 7.82917C51.9163 7.42305 50.6753 6.09186 50.382 4.42224Z" fill="#79A6FF"/>
</svg>
