<?xml version="1.0" encoding="UTF-8"?>
<svg width="50px" height="50px" viewBox="0 0 191 199" version="1.1" xmlns="http://www.w3.org/2000/svg" xmlns:xlink="http://www.w3.org/1999/xlink">
    <!-- Generator: Sketch 46.2 (44496) - http://www.bohemiancoding.com/sketch -->
    <title>Rewards</title>
    <desc>Created with Sketch.</desc>
    <defs></defs>
    <g id="Page-1" stroke="none" stroke-width="1" fill="none" fill-rule="evenodd">
        <path d="M183.008787,108.874871 C179.047962,103.267139 179.047962,95.7630155 183.008787,90.1552835 L187.915488,83.1439433 C194.141776,74.2784794 190.142807,61.9073454 179.873735,58.3594072 L171.791261,55.5970361 C165.318065,53.370232 160.904147,47.3094072 160.781467,40.4635309 L160.656725,31.9279639 C160.491261,21.0831186 149.936622,13.4537371 139.585075,16.6289948 L131.379921,19.1016753 C124.821673,21.1233247 117.687653,18.8140464 113.563941,13.3289948 L108.409302,6.48518041 C101.893838,-2.17512887 88.8639413,-2.17512887 82.3484774,6.48518041 L77.2763124,13.3289948 C73.1526011,18.8140464 66.0185805,21.1233247 59.460333,19.1016753 L51.2953846,16.6289948 C40.9459,13.4537371 30.389199,21.0831186 30.2242506,31.9279639 L30.1010547,40.4635309 C29.9763124,47.3094072 25.6051784,53.370232 19.0912609,55.5970361 L11.0067248,58.3594072 C0.739714472,61.8650773 -3.26080099,74.2362113 2.96703406,83.1439433 L7.87373509,90.1552835 C11.832498,95.7630155 11.832498,103.267139 7.87373509,108.874871 L2.96703406,115.886211 C-3.26080099,124.751675 0.739714472,137.122809 11.0067248,140.670747 L19.0912609,143.433119 C25.5644567,145.660438 29.9763124,151.720747 30.1010547,158.567139 L30.2242506,167.102191 C30.389199,177.947036 40.9459,185.576418 51.2953846,182.40116 L59.460333,179.886211 C66.0185805,177.864562 73.1526011,180.174356 77.2763124,185.658892 L82.4309516,192.504768 C88.9464155,201.165077 101.976312,201.165077 108.491776,192.504768 L113.563941,185.70116 C117.687653,180.216624 124.821673,177.90683 131.379921,179.926418 L139.544869,182.40116 C149.894354,185.576418 160.451055,177.947036 160.616003,167.102191 L160.739199,158.567139 C160.863941,151.720747 165.235075,145.660438 171.748993,143.433119 L179.833529,140.670747 C190.100539,137.165077 194.101055,124.793943 187.87322,115.886211 L183.008787,108.874871 Z M116.656725,128.670232 C113.441261,132.586211 109.235075,135.225902 104.327859,136.587242 C102.183529,137.165077 101.235075,138.278479 101.31755,140.505799 C101.400539,142.690335 101.31755,144.874871 101.31755,147.061469 C101.31755,148.998582 100.327343,150.071778 98.3902299,150.111985 C96.0381681,150.154253 93.6886835,150.154253 91.3366217,150.111985 C89.274766,150.071778 88.3263124,148.91817 88.2861062,146.896521 C88.2861062,145.287758 88.2438382,143.721263 88.2438382,142.1125 C88.203632,138.608892 88.0809516,138.443943 84.6979619,137.906314 C80.3690959,137.205284 76.1206423,136.216624 72.1618794,134.320232 C69.0288897,132.793943 68.7386835,132.010438 69.6067248,128.752706 C70.2649722,126.31817 70.9252815,123.885696 71.7087866,121.493943 C72.574766,118.690851 73.3577557,118.360954 75.9149722,119.67951 C80.2866217,121.949098 84.9459,123.225387 89.8526011,123.84549 C92.9876526,124.256314 96.0804361,123.927964 99.0082712,122.649613 C104.451055,120.257345 105.316519,113.947036 100.697446,110.196005 C99.1309516,108.917139 97.3593021,107.968686 95.5026011,107.143428 C90.7185805,105.041366 85.7711578,103.432603 81.2752815,100.752191 C73.9757969,96.3810567 69.3165186,90.3604381 69.8943536,81.4949742 C70.5129103,71.433634 76.2031165,65.1650773 85.3989928,61.8248711 C89.1943536,60.4212629 89.2345598,60.5037371 89.2345598,56.5052835 L89.2345598,52.4640464 C89.3170341,49.4537371 89.8123949,48.9583763 92.7804361,48.8759021 C93.6886835,48.8356959 94.6366217,48.8759021 95.5428073,48.8759021 C101.893838,48.8759021 101.893838,48.8759021 101.936106,55.2264175 C101.936106,59.7207474 101.936106,59.7207474 106.429921,60.4212629 C109.853117,60.9588918 113.151055,61.9898196 116.286106,63.3511598 C118.018065,64.1341495 118.678374,65.3305412 118.140745,67.1846649 C117.357756,69.9475515 116.616519,72.6697165 115.708271,75.3918814 C114.885075,77.9470361 114.059302,78.3197165 111.58456,77.1238402 C106.637653,74.7315722 101.440745,73.7408505 95.9556939,74.0310567 C94.5118794,74.1135309 93.1108485,74.3186856 91.7917763,74.8965206 C87.0500238,76.9583763 86.3067248,82.1954897 90.3056939,85.4114691 C92.3273433,87.0625 94.6773433,88.2161082 97.111364,89.2470361 C101.31755,90.9789948 105.524251,92.6279639 109.522704,94.854768 C122.184044,101.906314 125.605178,117.825387 116.656725,128.670232 Z" id="Rewards" fill="#FFFFFF"></path>
    </g>
</svg>