<svg xmlns="http://www.w3.org/2000/svg" xmlns:xlink="http://www.w3.org/1999/xlink" width="226" height="180" viewBox="0 0 226 180">
    <defs>
        <path id="a" d="M0 62.655V.082h99.227v62.573z"/>
        <path id="c" d="M.118 81.563h36.055V.278H.118z"/>
    </defs>
    <g fill="none" fill-rule="evenodd">
        <path fill="#FFB50D" d="M155.894 63.389a9.576 9.576 0 0 1-9.098-6.609c-7.336-22.511-28.184-37.636-51.879-37.636-23.694 0-44.543 15.125-51.878 37.636-1.639 5.027-7.043 7.773-12.067 6.135-5.026-1.638-7.773-7.04-6.135-12.066C34.748 20.434 62.912 0 94.917 0c32.006 0 60.169 20.434 70.08 50.849 1.638 5.026-1.108 10.428-6.135 12.066a9.56 9.56 0 0 1-2.968.474"/>
        <path fill="#FFB50D" d="M27.233 73.622c-1.911 1.206-4.41-.108-4.5-2.366l-.7-17.627-.698-17.626c-.09-2.258 2.3-3.766 4.3-2.714l15.614 8.208 15.614 8.208c2 1.051 2.112 3.874.201 5.08l-14.916 9.419-14.915 9.418z"/>
        <path fill="#75DBC7" d="M85.866 109.779V55.567a4.18 4.18 0 0 1 4.18-4.18h90.867a4.18 4.18 0 0 1 4.18 4.18v54.212a4.18 4.18 0 0 1-4.18 4.18H90.046a4.18 4.18 0 0 1-4.18-4.18"/>
        <g transform="translate(0 82.131)">
            <mask id="b" fill="#fff">
                <use xlink:href="#a"/>
            </mask>
            <path fill="#88B6FF" d="M0 56.643V6.095A6.012 6.012 0 0 1 6.012.082h87.203a6.012 6.012 0 0 1 6.012 6.013v50.548a6.012 6.012 0 0 1-6.012 6.012H6.012A6.012 6.012 0 0 1 0 56.643" mask="url(#b)"/>
        </g>
        <path fill="#318AF4" d="M86.273 123.57h-73.32a2.762 2.762 0 1 1 0-5.522h73.32a2.761 2.761 0 1 1 0 5.523"/>
        <path fill="#FFB50D" d="M22.949 106.772h-7.891a2.149 2.149 0 0 1-2.149-2.149v-6.827c0-1.188.962-2.15 2.149-2.15h7.89a2.15 2.15 0 0 1 2.151 2.15v6.827a2.15 2.15 0 0 1-2.15 2.15"/>
        <path fill="#318AF4" d="M88.806 96.915H74.503a2.954 2.954 0 0 1-2.945-2.945 2.954 2.954 0 0 1 2.945-2.945h14.303a2.953 2.953 0 0 1 2.945 2.945 2.953 2.953 0 0 1-2.945 2.945"/>
        <path fill="#08C0A6" d="M152.734 82.673c0 9.53-7.725 17.255-17.255 17.255s-17.255-7.726-17.255-17.255c0-9.53 7.725-17.255 17.255-17.255s17.255 7.725 17.255 17.255"/>
        <path fill="#FFB50D" d="M196.111 50.91l-1.252-.11a5.277 5.277 0 0 0-5.716 4.798l-.457 5.22a5.265 5.265 0 0 0 2.164 4.73c1 .726 1.53 1.936 1.341 3.158l-.647 4.188 6.534 1.009 1.227-7.95-1.176-.182a5.265 5.265 0 0 0 2.324-3.924l.456-5.22a5.276 5.276 0 0 0-4.798-5.717"/>
        <g transform="translate(189.844 97.6)">
            <mask id="d" fill="#fff">
                <use xlink:href="#c"/>
            </mask>
            <path fill="#2374F7" d="M11.83 50.19L19.28 78.1l.029.042 2.343 3.42h14.52l-3.022-6.569a8.43 8.43 0 0 1-.7-2.42L21.78.278.12 6.318 22.86 7.602 11.829 50.189z" mask="url(#d)"/>
        </g>
        <path fill="#3E7EFF" d="M194.544 175.313c-.38 1.253-.578 2.547-.684 3.85h-13.762l-.222-1.388a12.28 12.28 0 0 1-.056-3.506l10.141-70.35 11.712 43.87-7.13 27.524zm18.16-70.112l-11.03 42.588-11.712-43.87 22.743 1.282z"/>
        <path fill="#FFB50D" d="M155.713 64.79c.807.62 4.271 2.898 4.996 3.983.355.532.733 1.314 1.027 1.975a9.023 9.023 0 0 0 1.596 2.42l8.049 8.805-4.302 3.753-7.753-10.345a3.803 3.803 0 0 1-.506-.885c-1.206-3.088-1.154-3.557-1.154-3.557-.136-.88-2.107-4.282-2.465-5.247-.358-.966-.295-1.52.512-.901"/>
        <path fill="#3A2FD1" d="M174.35 85.22a3.014 3.014 0 0 0 4.255.194l13.264-12.088 4.344 4.766L180.732 92.2l.016.018a6.449 6.449 0 0 1-9.11-.408l-.005-.008-.019-.018.003-.002-4.539-6.056 4.303-3.753 2.97 3.247z"/>
        <path fill="#522FE9" d="M191.633 71.78s-4.834 11.147-3.11 18.863c1.722 7.717 1.439 13.275 1.439 13.275l22.743 1.284-4.36-25.122-8.812-10.684s-4.715 4.987-7.9 2.383"/>
        <path fill="#88B6FF" d="M177.803 127.183c-.01.422.232.825.648.99l27.917 11.055c.533.211 1.136-.05 1.347-.583l8.144-20.565c.126-.32.068-.653-.101-.923l-14.89 3.933 14.89-3.933a1.009 1.009 0 0 0-.482-.424l-27.917-11.056a1.037 1.037 0 0 0-1.347.583l-8.144 20.565a1.027 1.027 0 0 0-.065.358z"/>
        <path fill="#3A2FD1" d="M203.25 73.903l-13.288 30.015 22.743 1.284z"/>
        <path fill="#FFB50D" d="M191.562 131.22l5.6-16.562 6.69 2.65-6.987 16.02z"/>
        <path fill="#522FE9" d="M198.318 111.242c.226-.67.333-1.38.312-2.093l-.74-26.406c0-2.843 2.271-5.116 4.97-4.84 2.353.242 4.081 2.51 4.081 5.049v26.422a4.792 4.792 0 0 1-.84 2.715l.024.008-2.273 5.21-6.69-2.649 1.156-3.416z"/>
        <path fill="#0041A0" d="M188.345 54.03a.902.902 0 0 0 .69 1.211c2.384.422 8.167 1.914 8.88 6.549.902 5.859-6.363 12.904-1.01 18.53 5.084 5.346.814 10.379 5.054 15.409 6.257 7.421 18.54 5.681 21.639-4.66 2.995-9.993-4.973-11.678-8.085-18.176-2.913-6.08-6.324-7.006-8.003-10.722-1.947-4.312-2.18-11.824-8.945-13.149-6.225-1.218-9.016 1.977-10.22 5.007"/>
        <path fill="#FFB50D" d="M190.64 132.196c.069-.034.391-.174.62-.228.166-.453.302-.748.302-.748l5.304 2.107c-1.06 2.784-1.276 5.278-4.55 4.273-1.512-.464-1.783-1.858-1.644-3.225-.318.025-.65-.076-.755-.404a1.146 1.146 0 0 1-.035-.427c.04-.59.208-1.078.758-1.348"/>
    </g>
</svg>
