<?xml version="1.0" encoding="UTF-8"?>
<svg width="1385px" height="438px" viewBox="0 0 1385 438" version="1.1" xmlns="http://www.w3.org/2000/svg" xmlns:xlink="http://www.w3.org/1999/xlink">
    <!-- Generator: sketchtool 45 (43475) - http://www.bohemiancoding.com/sketch -->
    <title>FA95AE40-ACF7-4B6D-B0F9-D094D4621553</title>
    <desc>Created with sketchtool.</desc>
    <defs>
        <rect id="path-1" x="0" y="0" width="610" height="473"></rect>
    </defs>
    <g id="Page-1" stroke="none" stroke-width="1" fill="none" fill-rule="evenodd">
        <g id="Referral" transform="translate(0.000000, -175.000000)">
            <g id="referralBG" transform="translate(-110.000000, 140.000000)">
                <g id="Page-1" transform="translate(916.000000, 0.000000)">
                    <mask id="mask-2" fill="white">
                        <use xlink:href="#path-1"></use>
                    </mask>
                    <g id="Mask"></g>
                    <g mask="url(#mask-2)">
                        <g transform="translate(-254.000000, 35.000000)">
                            <path d="M696.4557,155.0951 C696.4557,155.0951 678.3197,165.6741 670.2597,180.7871 C662.1997,195.9001 641.5447,258.3671 641.5447,258.3671 C641.5447,258.3671 656.6577,293.1281 691.9217,302.1961 C691.9217,302.1961 728.6657,282.1701 736.7927,249.3971 L696.4557,155.0951 Z" id="Fill-1" fill="#FDBE44"></path>
                            <path d="M819.485,278.1918 L707.986,278.1918 C700.839,278.1918 695.047,272.3988 695.047,265.2528 L695.047,13.0728 C695.047,5.9268 700.839,0.1328 707.986,0.1328 L819.485,0.1328 C826.631,0.1328 832.425,5.9268 832.425,13.0728 L832.425,265.2528 C832.425,272.3988 826.631,278.1918 819.485,278.1918" id="Fill-3" fill="#C5DBFF"></path>
                            <path d="M825.1325,247.1645 L702.3385,247.1645 C701.1885,247.1645 700.2555,246.2315 700.2555,245.0815 L700.2555,33.2445 C700.2555,32.0935 701.1885,31.1605 702.3385,31.1605 L825.1325,31.1605 C826.2835,31.1605 827.2155,32.0935 827.2155,33.2445 L827.2155,245.0815 C827.2155,246.2315 826.2835,247.1645 825.1325,247.1645" id="Fill-6" fill="#FFFFFF"></path>
                            <path d="M746.4099,123.893 C751.4499,123.893 755.5359,127.979 755.5359,133.019 C755.5359,138.06 751.4499,142.145 746.4099,142.145 C741.3699,142.145 737.2839,138.06 737.2839,133.019 C737.2839,127.979 741.3699,123.893 746.4099,123.893" id="Fill-8" fill="#3B03A8"></path>
                            <path d="M785.9577,123.893 C790.9987,123.893 795.0837,127.979 795.0837,133.019 C795.0837,138.06 790.9987,142.145 785.9577,142.145 C780.9177,142.145 776.8317,138.06 776.8317,133.019 C776.8317,127.979 780.9177,123.893 785.9577,123.893" id="Fill-10" fill="#3B03A8"></path>
                            <path d="M800.4084,137.393 C797.5564,131.309 790.9964,127.601 784.1514,128.552 C783.2004,128.646 782.3454,128.932 781.6794,129.217 C779.4934,130.263 775.0254,131.119 771.4124,131.688 L771.4124,131.783 C771.4124,134.73 769.0354,137.012 766.1834,137.012 C763.2374,137.012 760.9544,134.635 760.9544,131.783 L760.9544,131.688 C757.3434,131.119 752.8744,130.263 750.6874,129.217 C750.0224,128.932 749.1664,128.646 748.2154,128.552 C741.3704,127.601 734.8114,131.404 731.9594,137.393 L723.9734,154.315 L766.1834,146.329 L808.3934,154.315 L800.4084,137.393 Z" id="Fill-12" fill="#3E7EFF"></path>
                            <path d="M788.1442,166.9589 C774.0742,161.1589 758.1982,161.1589 744.1282,166.9589 C742.0372,161.8249 739.8512,156.6919 737.7592,151.4619 C755.9162,143.9519 776.3552,143.9519 794.5132,151.4619 C792.4222,156.5959 790.3312,161.7299 788.1442,166.9589" id="Fill-14" fill="#3B03A8"></path>
                            <path d="M741.5612,142.1459 C751.9572,142.1459 760.3842,150.5729 760.3842,160.9689 C760.3842,171.3649 751.9572,179.7929 741.5612,179.7929 C731.1652,179.7929 722.7382,171.3649 722.7382,160.9689 C722.7382,150.5729 731.1652,142.1459 741.5612,142.1459" id="Fill-16" fill="#3B03A8"></path>
                            <path d="M741.5612,146.519 C749.5412,146.519 756.0112,152.988 756.0112,160.97 C756.0112,168.95 749.5412,175.419 741.5612,175.419 C733.5812,175.419 727.1112,168.95 727.1112,160.97 C727.1112,152.988 733.5812,146.519 741.5612,146.519" id="Fill-18" fill="#C5DBFF"></path>
                            <path d="M741.5612,150.5116 C747.3362,150.5116 752.0192,155.1936 752.0192,160.9696 C752.0192,166.7446 747.3362,171.4266 741.5612,171.4266 C735.7862,171.4266 731.1042,166.7446 731.1042,160.9696 C731.1042,155.1936 735.7862,150.5116 741.5612,150.5116" id="Fill-20" fill="#AECFFF"></path>
                            <path d="M790.7111,142.1459 C801.1071,142.1459 809.5351,150.5729 809.5351,160.9689 C809.5351,171.3649 801.1071,179.7929 790.7111,179.7929 C780.3151,179.7929 771.8881,171.3649 771.8881,160.9689 C771.8881,150.5729 780.3151,142.1459 790.7111,142.1459" id="Fill-22" fill="#3B03A8"></path>
                            <path d="M790.7111,146.519 C798.6921,146.519 805.1611,152.988 805.1611,160.97 C805.1611,168.95 798.6921,175.419 790.7111,175.419 C782.7311,175.419 776.2611,168.95 776.2611,160.97 C776.2611,152.988 782.7311,146.519 790.7111,146.519" id="Fill-24" fill="#C5DBFF"></path>
                            <path d="M790.7111,150.5116 C796.4871,150.5116 801.1691,155.1936 801.1691,160.9696 C801.1691,166.7446 796.4871,171.4266 790.7111,171.4266 C784.9361,171.4266 780.2531,166.7446 780.2531,160.9696 C780.2531,155.1936 784.9361,150.5116 790.7111,150.5116" id="Fill-26" fill="#AECFFF"></path>
                            <path d="M774.1711,262.35 C774.1711,268.323 769.4991,273.165 763.7351,273.165 C757.9721,273.165 753.3001,268.323 753.3001,262.35 C753.3001,256.377 757.9721,251.535 763.7351,251.535 C769.4991,251.535 774.1711,256.377 774.1711,262.35" id="Fill-28" fill="#3E7EFF"></path>
                            <path d="M779.798,13.6073 C780.382,13.6073 780.856,14.0813 780.856,14.6653 L780.856,15.5913 C780.856,16.1753 780.382,16.6493 779.798,16.6493 L747.673,16.6493 C747.089,16.6493 746.615,16.1753 746.615,15.5913 L746.615,14.6653 C746.615,14.0813 747.089,13.6073 747.673,13.6073" id="Fill-30" fill="#3E7EFF"></path>
                            <path d="M736.4557,15.2968 C736.4557,16.2308 735.7257,16.9868 734.8257,16.9868 C733.9247,16.9868 733.1947,16.2308 733.1947,15.2968 C733.1947,14.3638 733.9247,13.6078 734.8257,13.6078 C735.7257,13.6078 736.4557,14.3638 736.4557,15.2968" id="Fill-32" fill="#3E7EFF"></path>
                            <path d="M641.5446,247.4062 L625.1706,270.0772 C625.1706,270.0772 647.1206,309.1222 688.1476,324.2382 L704.5216,302.1962 C704.5216,302.1962 669.2546,289.6002 641.5446,247.4062" id="Fill-34" fill="#FFFFFF"></path>
                            <path d="M625.1706,270.0775 C625.1706,270.0775 292.1976,532.2425 175.0646,641.8185 C97.6156,714.2705 -1.7344,808.9675 0.5306,923.9025 C1.5946,977.9075 27.0526,1032.1745 71.4616,1062.9265 C341.8426,1250.1595 556.6826,708.6465 617.8396,542.2855 C625.3376,521.8885 683.1086,324.0465 688.1476,324.2375 C688.1476,324.2375 653.9086,310.7275 625.1706,270.0775" id="Fill-36" fill="#5203E7"></path>
                            <path d="M669.5812,200.5229 C669.0882,199.5759 669.2852,198.4199 670.0672,197.6939 C677.1172,191.1499 710.4612,160.4889 722.1482,155.0949 C735.2462,149.0499 741.2912,163.6589 737.2612,172.2229 C733.2312,180.7869 704.0122,205.4719 695.9522,220.5849 L690.0092,231.7279 C689.1112,233.4109 686.6942,233.3989 685.8142,231.7069 L669.5812,200.5229 Z" id="Fill-38" fill="#FDBE44"></path>
                            <path d="M763.1208,105.1225 C763.1208,106.5915 761.9308,107.7825 760.4618,107.7825 C758.9928,107.7825 757.8018,106.5915 757.8018,105.1225 C757.8018,103.6535 758.9928,102.4625 760.4618,102.4625 C761.9308,102.4625 763.1208,103.6535 763.1208,105.1225" id="Fill-41" fill="#FFB50D"></path>
                            <path d="M765.7805,206.1977 C765.7805,207.6667 764.5905,208.8577 763.1205,208.8577 C761.6525,208.8577 760.4615,207.6667 760.4615,206.1977 C760.4615,204.7287 761.6525,203.5377 763.1205,203.5377 C764.5905,203.5377 765.7805,204.7287 765.7805,206.1977" id="Fill-43" fill="#FFB50D"></path>
                            <path d="M736.4704,76.4164 L738.7694,80.6204 C738.8504,80.7684 738.9724,80.8904 739.1204,80.9714 L743.3244,83.2704 C743.9384,83.6064 743.9384,84.4874 743.3244,84.8234 L739.1204,87.1224 C738.9724,87.2034 738.8504,87.3254 738.7694,87.4744 L736.4704,91.6774 C736.1344,92.2914 735.2534,92.2914 734.9174,91.6774 L732.6184,87.4744 C732.5374,87.3254 732.4154,87.2034 732.2664,87.1224 L728.0634,84.8234 C727.4494,84.4874 727.4494,83.6064 728.0634,83.2704 L732.2664,80.9714 C732.4154,80.8904 732.5374,80.7684 732.6184,80.6204 L734.9174,76.4164 C735.2534,75.8024 736.1344,75.8024 736.4704,76.4164" id="Fill-45" fill="#FFB50D"></path>
                            <path d="M792.0104,198.5673 L794.3094,202.7703 C794.3904,202.9193 794.5124,203.0413 794.6614,203.1223 L798.8644,205.4213 C799.4784,205.7563 799.4784,206.6383 798.8644,206.9743 L794.6614,209.2733 C794.5124,209.3543 794.3904,209.4763 794.3094,209.6253 L792.0104,213.8283 C791.6744,214.4423 790.7934,214.4423 790.4574,213.8283 L788.1584,209.6253 C788.0774,209.4763 787.9554,209.3543 787.8064,209.2733 L783.6034,206.9743 C782.9894,206.6383 782.9894,205.7563 783.6034,205.4213 L787.8064,203.1223 C787.9554,203.0413 788.0774,202.9193 788.1584,202.7703 L790.4574,198.5673 C790.7934,197.9533 791.6744,197.9533 792.0104,198.5673" id="Fill-47" fill="#FFB50D"></path>
                        </g>
                    </g>
                </g>
                <g id="Page-1" transform="translate(0.000000, 127.000000)">
                    <path d="M254.57158,18.9226112 C254.57158,18.9226112 248.036434,35.4912461 258.056792,50.7515739 C258.056792,50.7515739 253.163687,61.6333539 245.756487,58.5811382 C238.350037,55.5289224 230.608875,21.974827 254.57158,18.9226112" id="Fill-1" fill="#FDA713"></path>
                    <path d="M388.358595,80.2789075 L269.811125,80.2789075 C266.819727,80.2789075 264.394188,77.8523058 264.394188,74.858671 L264.394188,5.64907759 C264.394188,2.65544274 266.819727,0.228090041 269.811125,0.228090041 L388.358595,0.228090041 C391.349994,0.228090041 393.775533,2.65544274 393.775533,5.64907759 L393.775533,74.858671 C393.775533,77.8523058 391.349994,80.2789075 388.358595,80.2789075" id="Fill-4" fill="#FFFFFF"></path>
                    <path d="M334.749379,21.7001726 L276.213738,21.7001726 C274.694774,21.7001726 273.463242,20.4677203 273.463242,18.9468697 C273.463242,17.4275212 274.694774,16.1943178 276.213738,16.1943178 L334.749379,16.1943178 C336.268343,16.1943178 337.499875,17.4275212 337.499875,18.9468697 C337.499875,20.4677203 336.268343,21.7001726 334.749379,21.7001726" id="Fill-6" fill="#CED6E0"></path>
                    <path d="M349.754175,39.0862365 L276.214263,39.0862365 C274.694549,39.0862365 273.463768,37.8537842 273.463768,36.3329336 C273.463768,34.812834 274.694549,33.5803817 276.214263,33.5803817 L349.754175,33.5803817 C351.273139,33.5803817 352.505421,34.812834 352.505421,36.3329336 C352.505421,37.8537842 351.273139,39.0862365 349.754175,39.0862365" id="Fill-8" fill="#CED6E0"></path>
                    <path d="M287.83989,65.7198232 L276.214263,65.7198232 C274.694549,65.7198232 273.463768,64.487371 273.463768,62.9672714 C273.463768,61.4471718 274.694549,60.2139685 276.214263,60.2139685 L287.83989,60.2139685 C289.358853,60.2139685 290.590385,61.4471718 290.590385,62.9672714 C290.590385,64.487371 289.358853,65.7198232 287.83989,65.7198232" id="Fill-10" fill="#C5DBFF"></path>
                    <path d="M310.572564,65.7198232 L298.946937,65.7198232 C297.427973,65.7198232 296.196442,64.487371 296.196442,62.9672714 C296.196442,61.4471718 297.427973,60.2139685 298.946937,60.2139685 L310.572564,60.2139685 C312.091528,60.2139685 313.32381,61.4471718 313.32381,62.9672714 C313.32381,64.487371 312.091528,65.7198232 310.572564,65.7198232" id="Fill-12" fill="#C5DBFF"></path>
                    <path d="M333.305238,65.7198232 L321.679611,65.7198232 C320.160648,65.7198232 318.929116,64.487371 318.929116,62.9672714 C318.929116,61.4471718 320.160648,60.2139685 321.679611,60.2139685 L333.305238,60.2139685 C334.824202,60.2139685 336.056484,61.4471718 336.056484,62.9672714 C336.056484,64.487371 334.824202,65.7198232 333.305238,65.7198232" id="Fill-14" fill="#C5DBFF"></path>
                    <path d="M356.037912,65.7198232 L344.412286,65.7198232 C342.893322,65.7198232 341.66179,64.487371 341.66179,62.9672714 C341.66179,61.4471718 342.893322,60.2139685 344.412286,60.2139685 L356.037912,60.2139685 C357.556876,60.2139685 358.789158,61.4471718 358.789158,62.9672714 C358.789158,64.487371 357.556876,65.7198232 356.037912,65.7198232" id="Fill-16" fill="#C5DBFF"></path>
                    <path d="M378.770662,65.7198232 L367.145035,65.7198232 C365.626071,65.7198232 364.39454,64.487371 364.39454,62.9672714 C364.39454,61.4471718 365.626071,60.2139685 367.145035,60.2139685 L378.770662,60.2139685 C380.289626,60.2139685 381.521907,61.4471718 381.521907,62.9672714 C381.521907,64.487371 380.289626,65.7198232 378.770662,65.7198232" id="Fill-18" fill="#C5DBFF"></path>
                    <path d="M374.683343,20.4053091 C374.683343,23.9809979 371.787256,26.879251 368.214238,26.879251 C364.641972,26.879251 361.745884,23.9809979 361.745884,20.4053091 C361.745884,16.8303714 364.641972,13.9321183 368.214238,13.9321183 C371.787256,13.9321183 374.683343,16.8303714 374.683343,20.4053091" id="Fill-20" fill="#3D7FFD"></path>
                    <path d="M383.184813,20.4053091 C383.184813,23.9809979 380.288725,26.879251 376.716458,26.879251 C373.143441,26.879251 370.247354,23.9809979 370.247354,20.4053091 C370.247354,16.8303714 373.143441,13.9321183 376.716458,13.9321183 C380.288725,13.9321183 383.184813,16.8303714 383.184813,20.4053091" id="Fill-22" fill="#FDBE44"></path>
                    <path d="M162.188787,55.3358307 C162.188787,55.3358307 183.924078,58.1477145 197.058162,49.0203577 C210.191495,39.8930008 226.397278,25.4024863 235.517815,19.925922 C244.638352,14.4493577 264.494451,3.56607552 264.494451,3.56607552 L264.494451,25.9379759 C264.494451,25.9379759 258.136417,26.1324946 252.299964,34.164839 C246.46276,42.1964324 238.071686,47.6729967 242.449213,53.8795693 C246.827491,60.0861419 254.123621,60.8161502 261.41975,56.8003535 C268.71663,52.7845568 285.86276,35.2741212 292.430177,35.6316149 C298.996844,35.9898598 304.103834,39.2756481 299.361575,46.9429884 C294.618566,54.6095776 284.768566,60.8439386 272.727926,70.323532 C254.602425,84.5939925 234.385347,99.3466191 212.329602,107.955009 C195.476158,114.533345 180.06513,115.294897 162.188787,114.446225 L161.824055,72.134283" id="Fill-24" fill="#FDBE44"></path>
                    <path d="M61.5803238,39.6736979 C62.7923429,39.0616025 64.2197486,38.7979884 65.9473448,39.0278058 C69.2074133,39.4611544 72.4554743,40.036449 75.7057867,40.540395 C96.0572,43.6947519 116.407863,46.8491087 136.758526,50.0027145 C138.944663,50.3421834 168.619242,53.4777643 168.827874,54.9738307 C168.827874,54.9738307 172.84067,83.8091585 171.016263,114.446225 C142.80211,122.070756 114.647246,129.925856 86.4638629,137.666046 C76.6761524,140.354009 66.9072038,143.111818 57.1254971,145.825316 C49.3700762,147.977789 42.1610019,152.507295 34.0453524,153.331934 C25.0403886,154.246698 27.4036381,146.069403 27.4734324,139.199665 C27.5890057,127.941615 28.0062705,116.647515 29.8907162,105.526905 C32.8731086,87.9270963 40.9850057,74.5158224 49.5449371,59.3215859 C52.6849295,53.7481378 55.442179,42.7739801 61.5803238,39.6736979" id="Fill-26" fill="#FDA713"></path>
                    <polygon id="Fill-29" fill="#FFFFFF" points="160.131957 48.0396531 181.159549 54.9732299 181.159549 114.446375 160.544718 117.365657"></polygon>
                </g>
            </g>
        </g>
    </g>
</svg>