<?xml version="1.0" encoding="UTF-8"?>
<svg width="1440px" height="451px" viewBox="0 0 1440 451" version="1.1" xmlns="http://www.w3.org/2000/svg" xmlns:xlink="http://www.w3.org/1999/xlink">
    <!-- Generator: sketchtool 45 (43475) - http://www.bohemiancoding.com/sketch -->
    <title>0CA9355C-A4B0-4701-9ACF-2C1994FC1A51</title>
    <desc>Created with sketchtool.</desc>
    <defs>
        <linearGradient x1="50%" y1="67.2879496%" x2="50%" y2="41.3409675%" id="linearGradient-1">
            <stop stop-color="#F1F1F1" offset="0%"></stop>
            <stop stop-color="#F5F5F5" offset="100%"></stop>
        </linearGradient>
    </defs>
    <g id="Page-1" stroke="none" stroke-width="1" fill="none" fill-rule="evenodd">
        <g id="About" transform="translate(0.000000, -973.000000)">
            <g id="Page-1" transform="translate(-9.000000, 973.000000)">
                <path d="M332,189.648213 C333.60395,179.15921 334.380212,173.179818 335.989059,162.705489 C341.182917,163.49785 346.376775,164.277983 351.573082,165.026324 C350.449093,172.737172 350.147893,175.931072 349.021455,183.629692 C352.464437,184.131031 355.90497,184.62748 359.343054,185.114146 C360.964145,173.695831 362.582788,162.27507 364.203879,150.854309 C373.07825,152.10399 381.95507,153.309651 390.841685,154.463955 C390.249081,159.027368 389.651579,163.593227 389.058974,168.154194 C393.202307,168.694663 397.350537,169.215567 401.498766,169.729134 C400.639245,176.615828 399.782173,183.49274 398.925101,190.372098 C401.520805,190.694912 404.118959,191.012834 406.717112,191.320975 C408.747149,174.561559 410.782083,157.787469 412.814569,141.006043 C417.751305,141.60276 422.685593,142.192139 427.624778,142.759509 C425.700039,159.540935 423.770402,176.324807 421.843213,193.111124 C425.114781,193.480404 428.383899,193.85702 431.653018,194.20918 C432.6913,184.82557 433.729581,175.437069 434.767863,166.055904 C442.26847,166.882503 449.778872,167.672419 457.281928,168.430542 C457.935751,161.935137 458.594472,155.442178 459.245847,148.936991 C472.231717,145.787111 485.146572,142.529626 497.997758,139.162092 C496.717047,154.361241 495.433888,169.550608 494.153177,184.749758 C496.325243,184.925838 498.504655,185.111701 500.684068,185.290226 C503.274875,153.578662 505.863233,121.869544 508.451591,90.1555341 C517.813269,90.920994 527.177396,91.625315 536.543971,92.2709426 C534.347418,124.011853 532.153313,155.752764 529.956759,187.486338 C531.729674,187.611062 533.505038,187.740676 535.277953,187.855618 C535.772606,180.460247 536.269708,173.050203 536.761913,165.652387 C539.421286,165.833359 542.080658,166.01433 544.737582,166.178182 C545.28366,157.584488 545.832186,148.978566 546.375815,140.375089 C549.187012,140.543833 552.000658,140.724804 554.811855,140.891102 C556.254185,116.714305 557.703862,92.5301719 559.143743,68.3509296 C564.35964,68.6566245 569.570639,68.9549827 574.784088,69.2313309 C575.494233,55.7000527 576.206828,42.1736657 576.921871,28.6448331 C581.679846,28.8991712 586.440271,29.1266082 591.195797,29.3515996 C591.942675,19.5644723 592.694449,9.78223617 593.441327,0 C595.219139,0.0855945664 596.989606,0.161406897 598.777214,0.237219227 C598.750277,10.0536932 598.730687,19.8628305 598.713545,29.6841956 C603.483765,29.887177 608.244189,30.0803762 613.014409,30.2442287 C612.524653,43.7828435 612.025102,57.3239039 611.535347,70.8698555 C616.751244,71.0532724 621.962243,71.2269071 627.180589,71.3834229 C626.467995,95.5871207 625.7554,119.793264 625.045255,144.011635 C627.205077,144.072774 629.357552,144.133913 631.517375,144.197498 C630.959053,165.371148 630.395834,186.557026 629.832615,207.740458 C632.825022,207.818716 635.817429,207.894529 638.807386,207.960559 C639.064508,196.752562 639.319181,185.549456 639.573854,174.336567 C643.653518,174.429499 647.742977,174.510202 651.834885,174.583569 C652.202202,153.749851 652.562172,132.918579 652.924591,112.079971 C657.550333,112.168011 662.176074,112.238932 666.796918,112.280507 C666.855689,107.044565 666.919357,101.811068 666.978128,96.5604532 C669.826056,96.5995821 672.661741,96.6264833 675.499875,96.6460478 C675.458246,101.886881 675.421514,107.13505 675.377436,112.363656 C680.206426,112.410121 685.037865,112.42724 689.871753,112.434577 C689.849714,126.709305 690.045616,178.608959 690.023577,192.881242 C699.436679,192.900806 700.959819,192.668478 710.372921,192.573101 C710.250482,181.629224 709.915,133.05064 709.797459,122.106763 C712.442139,122.074971 729.63256,121.938019 732.27724,121.903782 C732.093582,109.301816 731.91727,96.6876223 731.73606,84.0856565 C745.015783,83.8826751 751.647073,83.8533284 764.924347,83.4302467 C765.328396,96.0395491 765.729995,108.641515 766.136492,121.241035 C768.528948,121.170114 770.921404,121.084519 773.323656,121.006261 C773.705665,131.942801 774.090123,142.891569 774.469684,153.830555 C777.574734,153.727841 780.672438,153.610455 783.77504,153.488177 C783.089382,135.916835 782.406173,118.355275 781.715618,100.781488 C787.2621,100.556497 792.815928,100.324169 798.367307,100.074722 C799.18275,117.636281 799.995745,135.195395 800.813637,152.761846 C806.306245,152.505062 811.793957,152.228714 817.286566,151.942583 C818.146087,167.929203 818.998261,183.910931 819.855334,199.892659 C822.377575,199.770381 824.894919,199.630985 827.414711,199.484251 C825.587923,167.36917 823.761135,135.263871 821.941693,103.148789 C824.243544,103.011838 826.557639,102.884669 828.866837,102.742826 C828.761539,100.972242 828.653793,99.2065481 828.548495,97.4408544 C840.853604,96.7096323 853.148918,95.86836 865.444232,94.9317109 C865.56912,96.6998501 865.7087,98.4704348 865.848281,100.233683 C868.147683,100.055157 870.454432,99.8790768 872.751386,99.700551 C874.928349,127.137278 877.105313,154.588678 879.282276,182.030296 C882.867287,181.749057 886.447401,181.460481 890.022616,181.154786 C888.744354,165.962973 887.468541,150.768715 886.190279,135.574457 C893.965149,134.921492 901.740019,134.236736 909.51244,133.505514 C911.537579,155.050889 913.565167,176.591373 915.595204,198.139194 C918.252128,197.889747 920.909052,197.640299 923.563528,197.383516 C922.390563,185.346474 921.21515,173.306987 920.042185,161.272391 C922.936641,161.000934 925.840891,160.707467 928.740244,160.418891 C927.581972,148.983457 926.413905,137.53824 925.26298,126.105252 C932.398718,119.397084 939.478135,112.657123 946.488987,105.880479 C948.421072,123.234166 952.385644,157.533131 954.320178,174.886818 C957.501141,174.52243 960.68945,174.170269 963.872861,173.793653 C962.79295,164.432053 960.486201,144.870026 959.40629,135.50109 C967.891306,134.522866 976.368975,133.495731 984.846644,132.419685 C987.562339,153.769416 989.460142,168.357176 992.173388,189.697124 C994.431161,189.408548 996.688934,189.129754 998.954054,188.836287 C997.61947,178.545374 996.279988,168.264244 994.950302,157.975777 C1000.89349,157.210317 1006.83422,156.417956 1012.77985,155.60114 C1012.03298,148.061481 1017.82679,141.160113 1025.98611,139.981354 C1034.15034,138.814822 1041.66074,143.801317 1043.08103,151.238262 C1049.00707,150.343188 1054.93312,149.435885 1060.84202,148.496791 C1062.4729,158.733901 1064.09889,168.973456 1065.72488,179.210567 C1068.6879,178.750801 1071.65337,178.271472 1074.61395,177.792142 C1070.67631,153.588444 1070.8918,155.537555 1066.94682,131.333857 C1075.35348,129.974126 1083.76258,128.550811 1092.15699,127.098149 C1095.3453,145.383594 1097.51737,158.760802 1100.70323,177.046247 C1104.18539,176.432411 1107.67245,175.823467 1111.15706,175.202295 C1110.72118,172.756736 1108.39973,156.726097 1107.9663,154.280538 C1112.66306,153.187373 1117.96711,152.568646 1120.34732,151.99394 C1121.34887,158.821941 1123.09485,168.538147 1125,177.569596 C859.454522,227.779369 599.568169,230.542851 332,189.648213" id="Fill-1" fill="#F5F5F5"></path>
                <path d="M569.596577,206 C566.731051,205.855792 563.865526,205.699764 561,205.555556 C561.141809,203.035461 561.286064,200.524823 561.430318,198 C564.288509,198.158392 567.144254,198.3026 570,198.446809 C569.865526,200.957447 569.731051,203.477541 569.596577,206" id="Fill-3" fill="#E5E5E5"></path>
                <path d="M583.641376,207 C580.757642,206.869048 577.878821,206.742857 575,206.607143 C575.127729,204.071429 575.255459,201.530952 575.380731,199 C578.259552,199.138095 581.126092,199.264286 584,199.395238 C583.87964,201.928571 583.759279,204.471429 583.641376,207" id="Fill-5" fill="#E5E5E5"></path>
                <path d="M613.742078,208 C610.825572,207.906024 607.916506,207.807229 605,207.703614 C605.101681,205.137349 605.200882,202.568675 605.295123,200 C608.196748,200.108434 611.098374,200.204819 614,200.298795 C613.910719,202.86747 613.826398,205.433735 613.742078,208" id="Fill-7" fill="#E5E5E5"></path>
                <path d="M570.592138,192 C567.727273,191.853428 564.867322,191.706856 562,191.553191 C562.144963,189.035461 562.289926,186.524823 562.432432,184 C565.289926,184.156028 568.142506,184.297872 571,184.44208 C570.859951,186.964539 570.727273,189.477541 570.592138,192" id="Fill-9" fill="#E5E5E5"></path>
                <path d="M584.634668,193 C581.758914,192.869126 578.880691,192.74539 576,192.604997 C576.130828,190.070791 576.259188,187.538965 576.387548,185 C579.253428,185.135634 582.129183,185.266508 585,185.390244 C584.876577,187.929209 584.753154,190.463415 584.634668,193" id="Fill-11" fill="#E5E5E5"></path>
                <path d="M614.735588,194 C611.824557,193.905939 608.911031,193.811878 606,193.703346 C606.097284,191.137172 606.194568,188.563762 606.294346,186 C609.195399,186.101296 612.101441,186.200181 615,186.289418 C614.9102,188.86524 614.820399,191.433826 614.735588,194" id="Fill-13" fill="#E5E5E5"></path>
                <path d="M585.632552,180 C582.757517,179.880846 579.882483,179.75216 577,179.611558 C577.126621,177.080727 577.263172,174.533214 577.38731,172 C580.259862,172.131069 583.127448,172.266905 586,172.383676 C585.875862,174.924039 585.75669,177.469169 585.632552,180" id="Fill-15" fill="#E5E5E5"></path>
                <path d="M600.685437,180 C597.784466,179.892183 594.890985,179.777179 592,179.659778 C592.112344,177.108116 592.227184,174.54687 592.339528,172 C595.230513,172.112609 598.109015,172.239593 601,172.347409 C600.890153,174.891884 600.785298,177.448338 600.685437,180" id="Fill-17" fill="#E5E5E5"></path>
                <path d="M614.734188,181 C611.820284,180.905967 608.913904,180.811935 606,180.708258 C606.100306,178.138035 606.200613,175.560579 606.303427,173 C609.197269,173.106088 612.098635,173.197709 615,173.296564 C614.909724,175.857143 614.824464,178.434599 614.734188,181" id="Fill-19" fill="#E5E5E5"></path>
                <path d="M571.592378,166 C568.721624,165.855621 565.863297,165.708876 563,165.56213 C563.141674,163.04142 563.288318,160.525444 563.434963,158 C566.290804,158.149112 569.144159,158.293491 572,158.435503 C571.863297,160.956213 571.72908,163.47929 571.592378,166" id="Fill-21" fill="#E5E5E5"></path>
                <path d="M601.683594,167 C598.790737,166.887425 595.892857,166.767665 593,166.657485 C593.118025,164.104192 593.231027,161.553293 593.34654,159 C596.229353,159.11497 599.114676,159.22994 602,159.328144 C601.894531,161.893413 601.796596,164.446707 601.683594,167" id="Fill-23" fill="#E5E5E5"></path>
                <path d="M586.635983,153 C583.753975,152.869009 580.879498,152.745162 578,152.611789 C578.128033,150.072938 578.261088,147.531706 578.391632,145 C581.258577,145.12861 584.133054,145.254838 587,145.378684 C586.874477,147.919917 586.753975,150.456386 586.635983,153" id="Fill-25" fill="#E5E5E5"></path>
                <path d="M615.736115,155 C612.818156,154.915535 609.910347,154.811765 607,154.717647 C607.101494,152.137858 607.197914,149.565309 607.299408,147 C610.197068,147.094118 613.099803,147.190649 616,147.284766 C615.91373,149.857315 615.822385,152.429864 615.736115,155" id="Fill-27" fill="#E5E5E5"></path>
                <path d="M573.585543,139 C570.722021,138.869707 567.86101,138.720462 565,138.571217 C565.145688,136.048268 565.2964,133.52058 565.447111,131 C568.295562,131.153983 571.146525,131.289014 574,131.433521 C573.859336,133.954101 573.721183,136.47942 573.585543,139" id="Fill-29" fill="#E5E5E5"></path>
                <path d="M587.633941,139 C584.750912,138.875969 581.875456,138.749553 579,138.615981 C579.133801,136.07096 579.260028,133.533095 579.391304,131 C582.261711,131.119261 585.132118,131.255218 588,131.379249 C587.876297,133.919499 587.75007,136.457364 587.633941,139" id="Fill-31" fill="#E5E5E5"></path>
                <path d="M602.680203,140 C599.781726,139.892183 596.890863,139.781971 594,139.652591 C594.114213,137.103324 594.233503,134.54687 594.345178,132 C597.230964,132.1174 600.111675,132.227613 603,132.33543 C602.890863,134.889488 602.779188,137.44115 602.680203,140" id="Fill-33" fill="#E5E5E5"></path>
                <path d="M615.755171,141 C613.166336,140.901264 610.586568,140.802529 608,140.706201 C608.086143,138.136665 608.174554,135.569536 608.265231,133 C610.842732,133.101144 613.417965,133.197471 616,133.291391 C615.916124,135.856111 615.836781,138.432872 615.755171,141" id="Fill-35" fill="#E5E5E5"></path>
                <path d="M573.583333,126 C570.724747,125.85545 567.868687,125.722749 565,125.566351 C565.156566,123.045024 565.30303,120.518957 565.449495,118 C568.29798,118.149289 571.15404,118.2891 574,118.43128 C573.861111,120.954976 573.719697,123.473934 573.583333,126" id="Fill-37" fill="#E5E5E5"></path>
                <path d="M587.634415,126 C584.760508,125.873697 581.878984,125.747394 579,125.618707 C579.137094,123.078344 579.264034,120.533214 579.403667,118 C582.26488,118.12392 585.133709,118.252606 588,118.381293 C587.878138,120.919273 587.758815,123.464403 587.634415,126" id="Fill-39" fill="#E5E5E5"></path>
                <path d="M601.718661,127 C599.141237,126.88729 596.575156,126.779376 594,126.664269 C594.106636,124.105516 594.211004,121.556355 594.315372,119 C596.876914,119.117506 599.436188,119.230216 602,119.338129 C601.904708,121.894484 601.809416,124.450839 601.718661,127" id="Fill-41" fill="#E5E5E5"></path>
                <path d="M587.670922,113 C585.115461,112.880739 582.555461,112.751938 580,112.620751 C580.118014,110.080501 580.238298,107.537865 580.356312,105 C582.902695,105.128801 585.451348,105.262373 588,105.379249 C587.888794,107.917114 587.777589,110.462135 587.670922,113" id="Fill-43" fill="#E5E5E5"></path>
                <path d="M602.712411,114 C600.14465,113.88982 597.572325,113.777246 595,113.662275 C595.10271,111.113772 595.209986,108.555689 595.310414,106 C597.873609,106.117365 600.436805,106.232335 603,106.332934 C602.901854,108.886228 602.810556,111.444311 602.712411,114" id="Fill-45" fill="#E5E5E5"></path>
                <path d="M616.752436,114 C614.169054,113.917924 611.583381,113.821364 609,113.72239 C609.091691,111.139409 609.183381,108.570911 609.272779,106 C611.844699,106.098974 614.421203,106.19312 617,106.280024 C616.917479,108.850935 616.834957,111.424261 616.752436,114" id="Fill-47" fill="#E5E5E5"></path>
                <path d="M574.623262,99 C572.085957,98.8600652 569.541844,98.7177587 567,98.5778239 C567.131631,96.0518826 567.27234,93.5283131 567.401702,91 C569.934468,91.1423066 572.462695,91.2893567 575,91.4245479 C574.875177,93.9481174 574.748085,96.4740587 574.623262,99" id="Fill-49" fill="#E5E5E5"></path>
                <path d="M602.706338,101 C600.136794,100.90399 597.571838,100.786379 595,100.668767 C595.103241,98.1149115 595.213364,95.5490549 595.31431,93 C597.876972,93.110411 600.437339,93.230423 603,93.3312331 C602.903642,95.8874887 602.807284,98.4413441 602.706338,101" id="Fill-51" fill="#E5E5E5"></path>
                <path d="M616.755479,101 C614.16955,100.915484 611.585928,100.816481 609,100.719891 C609.087659,98.1409599 609.179931,95.5716873 609.267589,93 C611.844291,93.1014187 614.420992,93.1955931 617,93.2873529 C616.916955,95.8566254 616.83391,98.4355569 616.755479,101" id="Fill-53" fill="#E5E5E5"></path>
                <path d="M575.61883,85 C573.080742,84.8601896 570.540371,84.7227488 568,84.5781991 C568.134665,82.056872 568.264765,79.5260664 568.403994,77 C570.935235,77.1492891 573.466476,77.2938389 576,77.4265403 C575.872183,79.9549763 575.751213,82.478673 575.61883,85" id="Fill-55" fill="#E5E5E5"></path>
                <path d="M588.665042,86 C586.109263,85.8783179 583.553484,85.7614077 581,85.6230242 C581.121594,83.0796302 581.240895,80.5362362 581.360195,78 C583.906797,78.1288398 586.453398,78.2529078 589,78.372204 C588.887582,80.9179839 588.772871,83.4542201 588.665042,86" id="Fill-57" fill="#E5E5E5"></path>
                <path d="M603.709259,87 C601.141044,86.8943894 598.57283,86.7863786 596,86.6687669 C596.110759,84.1077108 596.212287,81.5538554 596.320738,79 C598.877416,79.120012 601.4364,79.2184218 604,79.3240324 C603.907701,81.8850885 603.806172,84.4389439 603.709259,87" id="Fill-59" fill="#E5E5E5"></path>
                <path d="M589.660802,73 C587.106432,72.8807394 584.552062,72.751938 582,72.6302922 C582.115374,70.0828861 582.242284,67.5450209 582.36458,65 C584.90972,65.124031 587.45486,65.2528324 590,65.3744782 C589.884626,67.9147287 589.77156,70.4573643 589.660802,73" id="Fill-61" fill="#E5E5E5"></path>
                <path d="M604.703531,61 C602.135687,60.8942943 599.572512,60.7861862 597,60.6828829 C597.109717,58.1147147 597.214765,55.5537538 597.317479,53 C599.882988,53.1081081 602.43916,53.2186186 605,53.3219219 C604.901955,55.8828829 604.806245,58.4414414 604.703531,61" id="Fill-63" fill="#E5E5E5"></path>
                <path d="M590.663846,47 C588.10534,46.8830898 585.553837,46.7614077 583,46.627796 C583.121389,44.0891739 583.240444,41.5505517 583.366501,39 C585.906332,39.1359976 588.453166,39.2648375 591,39.3769758 C590.885614,41.915598 590.778232,44.4589919 590.663846,47" id="Fill-65" fill="#E5E5E5"></path>
                <path d="M834.353153,206 C834.234595,204.117509 834.116036,202.246769 834,200.378378 C836.207207,200.256169 838.411892,200.12691 840.621622,200 C840.742703,201.87074 840.873874,203.743831 841,205.616921 C838.785225,205.748531 836.575495,205.875441 834.353153,206" id="Fill-67" fill="#E5E5E5"></path>
                <path d="M845.382047,205 C845.248833,203.133178 845.120646,201.271028 845,199.406542 C847.194255,199.273364 849.398564,199.147196 851.595332,199 C851.731059,200.871495 851.866786,202.728972 852,204.593458 C849.793178,204.726636 847.583842,204.866822 845.382047,205" id="Fill-69" fill="#E5E5E5"></path>
                <path d="M866.44389,204 C866.294264,202.148492 866.147132,200.301624 866,198.457077 C868.187032,198.301624 870.366584,198.150812 872.543641,198 C872.698254,199.844548 872.850374,201.693735 873,203.540603 C870.817955,203.700696 868.630923,203.853828 866.44389,204" id="Fill-71" fill="#E5E5E5"></path>
                <path d="M834.352153,195 C834.235613,193.120737 834.11654,191.24853 834,189.369267 C836.206659,189.251666 838.418386,189.134065 840.622512,189 C840.746652,190.872207 840.878393,192.746766 841,194.623677 C838.78574,194.750686 836.574014,194.877695 834.352153,195" id="Fill-73" fill="#E5E5E5"></path>
                <path d="M844.388468,194 C844.254775,192.132761 844.128649,190.270207 844,188.40531 C846.202162,188.276455 848.394234,188.135884 850.593874,188 C850.737658,189.867239 850.863784,191.732136 851,193.601718 C848.795315,193.732917 846.590631,193.87583 844.388468,194" id="Fill-75" fill="#E5E5E5"></path>
                <path d="M855.417085,194 C855.28392,192.148292 855.143216,190.291925 855,188.440217 C857.19598,188.302795 859.38191,188.151398 861.572864,188 C861.713568,189.861025 861.861809,191.71972 862,193.564441 C859.809045,193.715839 857.61809,193.862578 855.417085,194" id="Fill-77" fill="#E5E5E5"></path>
                <path d="M833.36588,185 C833.241379,183.118982 833.12196,181.242661 833,179.371037 C835.207985,179.255969 837.415971,179.129159 839.621416,179 C839.748457,180.871624 839.870417,182.743249 840,184.619569 C837.784392,184.748728 835.578947,184.875538 833.36588,185" id="Fill-79" fill="#E5E5E5"></path>
                <path d="M844.389873,185 C844.265823,183.1389 844.131646,181.266094 844,179.400312 C846.197468,179.271557 848.394937,179.131096 850.592405,179 C850.731646,180.870464 850.865823,182.738588 851,184.602029 C848.797468,184.742489 846.587342,184.873586 844.389873,185" id="Fill-81" fill="#E5E5E5"></path>
                <path d="M854.413992,184 C854.277678,182.139137 854.141363,180.278274 854,178.419743 C856.18608,178.282161 858.379733,178.135251 860.570862,178 C860.709701,179.858531 860.858637,181.717062 861,183.568597 C858.811396,183.720171 856.612694,183.860086 854.413992,184" id="Fill-83" fill="#E5E5E5"></path>
                <path d="M865.444883,183 C865.299102,181.139768 865.150808,179.293436 865,177.451737 C867.184201,177.301158 869.363375,177.145946 871.540036,177 C871.695871,178.844015 871.849192,180.694981 872,182.53668 C869.815799,182.694208 867.634111,182.840154 865.444883,183" id="Fill-85" fill="#E5E5E5"></path>
                <path d="M832.372721,175 C832.247629,173.12 832.122538,171.247059 832,169.374118 C834.210795,169.251765 836.419037,169.131765 838.622174,169 C838.749818,170.877647 838.880015,172.762353 839,174.630588 C836.791758,174.757647 834.580963,174.88 832.372721,175" id="Fill-87" fill="#E5E5E5"></path>
                <path d="M854.41549,174 C854.28375,172.138414 854.136808,170.281493 854,168.419907 C856.191459,168.284603 858.380384,168.144635 860.566775,168 C860.713717,169.856921 860.855592,171.713841 861,173.566096 C858.806008,173.717729 856.617083,173.862364 854.41549,174" id="Fill-89" fill="#E5E5E5"></path>
                <path d="M832.364236,166 C832.241114,164.119718 832.117992,162.246479 832,160.370892 C834.200806,160.248826 836.411872,160.131455 838.622939,160 C838.748626,161.875587 838.879443,163.746479 839,165.624413 C836.791499,165.744131 834.580432,165.875587 832.364236,166" id="Fill-91" fill="#E5E5E5"></path>
                <path d="M842.388038,165 C842.260394,163.128655 842.122538,161.261988 842,159.4 C844.192925,159.269006 846.388403,159.133333 848.588986,159 C848.724289,160.873684 848.859592,162.735673 849,164.6 C846.794311,164.738012 844.591174,164.876023 842.388038,165" id="Fill-93" fill="#E5E5E5"></path>
                <path d="M853.414758,164 C853.284987,162.140583 853.142494,160.285825 853,158.428738 C855.185751,158.288932 857.37659,158.139806 859.56743,158 C859.709924,159.861748 859.854962,161.718835 860,163.578252 C857.80916,163.727379 855.610687,163.867184 853.414758,164" id="Fill-95" fill="#E5E5E5"></path>
                <path d="M864.448101,163 C864.298734,161.153846 864.149367,159.293777 864,157.445303 C866.18481,157.303827 868.356962,157.143796 870.531646,157 C870.683544,158.85775 870.840506,160.694627 871,162.547739 C868.81519,162.70545 866.635443,162.851566 864.448101,163" id="Fill-97" fill="#E5E5E5"></path>
                <path d="M842.397436,155 C842.266667,153.128957 842.133333,151.264947 842,149.398593 C844.192308,149.269637 846.394872,149.128957 848.597436,149 C848.733333,150.871043 848.871795,152.728019 849,154.603751 C846.802564,154.739742 844.6,154.873388 842.397436,155" id="Fill-99" fill="#E5E5E5"></path>
                <path d="M852.428415,154 C852.28306,152.136805 852.147905,150.273611 852,148.417412 C854.185428,148.282161 856.373406,148.137583 858.556284,148 C858.701639,149.860863 858.849545,151.717062 859,153.573261 C856.804372,153.722503 854.616393,153.855422 852.428415,154" id="Fill-101" fill="#E5E5E5"></path>
                <path d="M831.364207,145 C831.242804,143.118385 831.123985,141.250882 831,139.371619 C833.198155,139.251666 835.409225,139.124657 837.612546,139 C837.74428,140.876911 837.873432,142.760878 838,144.630733 C835.783764,144.757742 833.580443,144.880047 831.364207,145" id="Fill-103" fill="#E5E5E5"></path>
                <path d="M841.396178,144 C841.259831,142.130265 841.123484,140.267551 841,138.390796 C843.194414,138.269111 845.388828,138.138066 847.585814,138 C847.719588,139.872075 847.855935,141.737129 848,143.606864 C845.792723,143.733229 843.595737,143.871295 841.396178,144" id="Fill-105" fill="#E5E5E5"></path>
                <path d="M852.420359,144 C852.284511,142.143969 852.140974,140.280934 852,138.417899 C854.188942,138.277821 856.37532,138.142412 858.556573,138 C858.702673,139.858366 858.851337,141.723735 859,143.584436 C856.808495,143.724514 854.614427,143.866926 852.420359,144" id="Fill-107" fill="#E5E5E5"></path>
                <path d="M862.449471,143 C862.291135,141.150271 862.148121,139.293571 862,137.446166 C864.178402,137.299768 866.351696,137.151046 868.530099,137 C868.683327,138.8567 868.83911,140.704105 869,142.560806 C866.811383,142.70488 864.630427,142.858249 862.449471,143" id="Fill-109" fill="#E5E5E5"></path>
                <path d="M830.318131,135 C830.206897,133.12 830.097887,131.242353 830,129.362353 C831.884316,129.247059 833.777531,129.129412 835.666296,129 C835.777531,130.882353 835.888765,132.76 836,134.628235 C834.100111,134.755294 832.209121,134.88 830.318131,135" id="Fill-111" fill="#E5E5E5"></path>
                <path d="M841.397786,135 C841.263469,133.133646 841.131734,131.267292 841,129.396249 C843.195572,129.271981 845.391144,129.135991 847.58155,129 C847.721033,130.875733 847.857934,132.739742 848,134.606096 C845.799262,134.737397 843.598524,134.878077 841.397786,135" id="Fill-113" fill="#E5E5E5"></path>
                <path d="M861.448718,133 C861.3,131.152772 861.148718,129.293912 861,127.435052 C863.179487,127.295463 865.351282,127.141915 867.525641,127 C867.684615,128.847228 867.838462,130.701435 868,132.550989 C865.812821,132.706863 863.635897,132.855758 861.448718,133" id="Fill-115" fill="#E5E5E5"></path>
                <path d="M840.338279,125 C840.222552,123.124267 840.111276,121.262603 840,119.391559 C841.880564,119.267292 843.758902,119.128957 845.648368,119 C845.76632,120.871043 845.879822,122.735053 846,124.603751 C844.110534,124.742087 842.227745,124.871043 840.338279,125" id="Fill-117" fill="#E5E5E5"></path>
                <path d="M850.428624,124 C850.289192,122.138414 850.144596,120.267496 850,118.408243 C852.181852,118.272939 854.368868,118.137636 856.550719,118 C856.697897,119.854588 856.847658,121.716174 857,123.570762 C854.80782,123.717729 852.618222,123.8507 850.428624,124" id="Fill-119" fill="#E5E5E5"></path>
                <path d="M839.33916,115 C839.227594,113.128225 839.109334,111.258796 839,109.389367 C840.876534,109.26036 842.755299,109.124316 844.636296,109 C844.756787,110.869429 844.877278,112.741204 845,114.615324 C843.112309,114.746677 841.22685,114.87803 839.33916,115" id="Fill-121" fill="#E5E5E5"></path>
                <path d="M850.369299,114 C850.244716,112.136965 850.129032,110.27393 850,108.415564 C851.873192,108.275486 853.74861,108.142412 855.621802,108 C855.74861,109.863035 855.873192,111.719066 856,113.584436 C854.122358,113.724514 852.246941,113.866926 850.369299,114" id="Fill-123" fill="#E5E5E5"></path>
                <path d="M860.460288,114 C860.299963,112.142415 860.152567,110.282508 860,108.436533 C862.174732,108.294892 864.35205,108.146285 866.531954,108 C866.689693,109.850619 866.850018,111.696594 867,113.551858 C864.820096,113.69582 862.640192,113.849071 860.460288,114" id="Fill-125" fill="#E5E5E5"></path>
                <polygon id="Fill-127" fill="#E5E5E5" points="1004.69461 185 1004 176.955796 1010.22897 176 1011 184.029191"></polygon>
                <polygon id="Fill-129" fill="#E5E5E5" points="1016.92648 184 1016 175.955419 1022.99527 175 1024 183.03455"></polygon>
                <polygon id="Fill-131" fill="#E5E5E5" points="1028.05296 182 1027 173.950279 1033.87024 173 1035 181.029609"></polygon>
                <polygon id="Fill-133" fill="#E5E5E5" points="1052.27904 179 1051 170.949495 1057.63473 170 1059 178.030303"></polygon>
                <polygon id="Fill-135" fill="#E5E5E5" points="1014.80135 170 1014 162.868307 1020.1377 162 1021 169.134009"></polygon>
                <polygon id="Fill-137" fill="#E5E5E5" points="1037.14428 167 1036 159.878814 1042.77096 159 1044 166.123511"></polygon>
                <polygon id="Fill-139" fill="#E5E5E5" points="1049.25812 165 1048 157.856226 1054.6634 157 1056 164.122776"></polygon>
                <path d="M0,118.258883 C0,118.258883 327.163902,215.930077 717.148012,216.673542 C1146.29624,217.490617 1457,79 1457,79 L1457,451 L0,451 L0,118.258883 Z" id="Fill-141" fill="url(#linearGradient-1)"></path>
            </g>
        </g>
    </g>
</svg>