<svg xmlns="http://www.w3.org/2000/svg" width="87" height="65" viewBox="0 0 87 65">
    <path fill="#000" fill-rule="nonzero" d="M7.222 0h72.222c3.792 0 7.223 3.43 7.223 7.222v50.556c0 3.791-3.43 7.222-7.223 7.222H7.222C3.431 65 0 61.57 0 57.778V7.222C0 3.431 3.43 0 7.222 0zm43.334 10.833v3.611h28.888v-3.61H50.556zm0 7.223v3.61H79.444v-3.61H50.556zm0 7.222v3.61h25.277v-3.61H50.556zm-21.667 14.12c-7.222 0-21.667 3.935-21.667 11.158v3.61h43.334v-3.61c0-7.223-14.445-11.159-21.667-11.159zm0-28.565c-5.983 0-10.833 4.85-10.833 10.834 0 5.983 4.85 10.833 10.833 10.833 5.983 0 10.833-4.85 10.833-10.833 0-5.983-4.85-10.834-10.833-10.834z"/>
</svg>
