<svg xmlns="http://www.w3.org/2000/svg" width="75" height="75" viewBox="0 0 75 75">
    <path fill="#000" fill-rule="nonzero" d="M57.375 60C63.75 54.375 67.5 46.5 67.5 37.5c0-16.569-13.431-30-30-30-16.569 0-30 13.431-30 30 0 9 3.75 16.875 10.125 22.5C23.25 55.125 30 52.5 37.5 52.5s14.625 2.625 19.875 7.5zM37.5 0A37.5 37.5 0 0 1 75 37.5C75 58.21 58.21 75 37.5 75a37.5 37.5 0 1 1 0-75zM18.75 26.25a3.75 3.75 0 1 1 0 7.5 3.75 3.75 0 0 1 0-7.5zM30 15a3.75 3.75 0 1 1 0 7.5 3.75 3.75 0 0 1 0-7.5zm26.25 11.25a3.75 3.75 0 1 1 0 7.5 3.75 3.75 0 0 1 0-7.5zM46.5 15.375c1.875.75 2.625 3 2.25 4.875L43.5 33c.75 1.125 1.5 2.625 1.5 4.5a7.5 7.5 0 0 1-15 0c0-3.75 2.625-7.125 6.375-7.5l5.25-12.375c.75-2.25 3-3 4.875-2.25z"/>
</svg>
