<svg xmlns="http://www.w3.org/2000/svg" xmlns:xlink="http://www.w3.org/1999/xlink" width="298" height="297" viewBox="0 0 298 297">
    <defs>
        <path id="a" d="M1.098 149.753c0 81.792 66.592 148.101 148.744 148.101 82.148 0 148.745-66.31 148.745-148.101C298.587 67.96 231.99 1.65 149.842 1.65 67.69 1.65 1.098 67.96 1.098 149.753z"/>
        <path id="c" d="M1.098 149.753c0 81.792 66.592 148.101 148.744 148.101 82.148 0 148.745-66.31 148.745-148.101C298.587 67.96 231.99 1.65 149.842 1.65 67.69 1.65 1.098 67.96 1.098 149.753z"/>
        <path id="e" d="M1.098 149.753c0 81.792 66.592 148.101 148.744 148.101 82.148 0 148.745-66.31 148.745-148.101C298.587 67.96 231.99 1.65 149.842 1.65 67.69 1.65 1.098 67.96 1.098 149.753z"/>
        <path id="g" d="M1.098 149.753c0 81.792 66.592 148.101 148.744 148.101 82.148 0 148.745-66.31 148.745-148.101C298.587 67.96 231.99 1.65 149.842 1.65 67.69 1.65 1.098 67.96 1.098 149.753z"/>
        <path id="i" d="M1.098 149.753c0 81.792 66.592 148.101 148.744 148.101 82.148 0 148.745-66.31 148.745-148.101C298.587 67.96 231.99 1.65 149.842 1.65 67.69 1.65 1.098 67.96 1.098 149.753z"/>
        <path id="k" d="M1.098 149.753c0 81.792 66.592 148.101 148.744 148.101 82.148 0 148.745-66.31 148.745-148.101C298.587 67.96 231.99 1.65 149.842 1.65 67.69 1.65 1.098 67.96 1.098 149.753z"/>
        <path id="m" d="M1.098 149.753c0 81.792 66.592 148.101 148.744 148.101 82.148 0 148.745-66.31 148.745-148.101C298.587 67.96 231.99 1.65 149.842 1.65 67.69 1.65 1.098 67.96 1.098 149.753z"/>
        <path id="o" d="M1.098 149.753c0 81.792 66.592 148.101 148.744 148.101 82.148 0 148.745-66.31 148.745-148.101C298.587 67.96 231.99 1.65 149.842 1.65 67.69 1.65 1.098 67.96 1.098 149.753"/>
    </defs>
    <g fill="none" fill-rule="evenodd" transform="translate(-1 -1)">
        <circle cx="150.5" cy="150.5" r="78.5" fill="#0097B8"/>
        <mask id="b" fill="#fff">
            <use xlink:href="#a"/>
        </mask>
        <path fill="#FFB50D" d="M152.055 73.885l-72.563 72.249L6.93 73.884 79.492 1.636z" mask="url(#b)"/>
        <mask id="d" fill="#fff">
            <use xlink:href="#c"/>
        </mask>
        <path fill="#27E3CC" d="M296.383 73.885l-72.563 72.249-72.563-72.25L223.82 1.636z" mask="url(#d)"/>
        <mask id="f" fill="#fff">
            <use xlink:href="#e"/>
        </mask>
        <path fill="#FFDD0F" d="M223.694 2.68l-72.563 72.25L78.568 2.68l28.737-28.611c24.204-24.1 63.449-24.1 87.653 0L223.694 2.68z" mask="url(#f)"/>
        <g>
            <mask id="h" fill="#fff">
                <use xlink:href="#g"/>
            </mask>
            <path fill="#3E7EFF" d="M297.182 218.384l-72.563 72.25-72.563-72.25 72.563-72.249z" mask="url(#h)"/>
        </g>
        <g>
            <mask id="j" fill="#fff">
                <use xlink:href="#i"/>
            </mask>
            <path fill="#2C50FF" d="M224.624 290.629l-28.736 28.612c-24.204 24.1-63.45 24.1-87.654 0l-28.736-28.612 72.563-72.25 72.563 72.25z" mask="url(#j)"/>
        </g>
        <g>
            <mask id="l" fill="#fff">
                <use xlink:href="#k"/>
            </mask>
            <path fill="#3B03A8" d="M152.06 218.384l-72.557 72.25-72.563-72.25 72.563-72.249z" mask="url(#l)"/>
        </g>
        <g>
            <mask id="n" fill="#fff">
                <use xlink:href="#m"/>
            </mask>
            <path fill="#5203E9" d="M79.503 146.137l-72.558 72.25-28.736-28.612c-24.204-24.1-24.204-63.175 0-87.275L6.945 73.888l72.558 72.25z" mask="url(#n)"/>
        </g>
        <g>
            <mask id="p" fill="#fff">
                <use xlink:href="#o"/>
            </mask>
            <path fill="#08C0A6" d="M324.26 189.776l-28.736 28.612-72.563-72.25 72.563-72.249 28.736 28.612c24.204 24.1 24.204 63.175 0 87.275" mask="url(#p)"/>
        </g>
    </g>
</svg>
