<svg xmlns="http://www.w3.org/2000/svg" width="65" height="65" viewBox="0 0 65 65">
    <g fill="#818A91" fill-rule="evenodd">
        <path d="M60.702 12.712h-4.727c.623-.987 1.035-2.095 1.152-3.266.375-3.744-1.596-7.1-4.953-8.587-3.085-1.368-6.553-.81-9.049 1.455l-5.969 5.41a6.339 6.339 0 0 0-4.688-2.07 6.338 6.338 0 0 0-4.694 2.076l-5.976-5.416c-2.5-2.265-5.967-2.822-9.05-1.455C9.392 2.347 7.42 5.704 7.796 9.448c.118 1.17.53 2.277 1.152 3.264H4.235A4.235 4.235 0 0 0 0 16.946V23.3c0 1.17.948 2.118 2.117 2.118H62.82c1.17 0 2.118-.948 2.118-2.118v-6.353a4.235 4.235 0 0 0-4.235-4.234zm-34.586-.706v.706h-9.962a4.178 4.178 0 0 1-4.046-5.194c.29-1.207 1.16-2.236 2.287-2.757 1.548-.714 3.261-.485 4.56.69l7.163 6.492-.002.063zm26.81-3.122c-.159 2.2-2.147 3.828-4.353 3.828H38.82v-.706l-.002-.075 7.05-6.39c1.086-.984 2.604-1.443 4.007-1.024 2.014.6 3.197 2.313 3.05 4.367zM4.235 29.652v31.056a4.235 4.235 0 0 0 4.235 4.235h19.763V29.652H4.235zM36.703 29.652v35.291h19.763a4.235 4.235 0 0 0 4.236-4.235V29.652H36.703z"/>
    </g>
</svg>
