<svg xmlns="http://www.w3.org/2000/svg" width="81" height="70" viewBox="0 0 81 70">
    <g fill="#818A91" fill-rule="evenodd">
        <path d="M25.903 66.25c0 2.035-1.666 3.7-3.7 3.7H6.907a3.712 3.712 0 0 1-3.7-3.7V49.474c0-2.034 1.664-3.7 3.7-3.7h15.296c2.034 0 3.7 1.666 3.7 3.7V66.25zM53.101 66.25c0 2.035-1.666 3.7-3.7 3.7H34.105a3.712 3.712 0 0 1-3.7-3.7V40.594c0-2.036 1.665-3.7 3.7-3.7h15.296c2.034 0 3.7 1.664 3.7 3.7V66.25zM80.299 66.25c0 2.035-1.665 3.7-3.7 3.7H61.303a3.712 3.712 0 0 1-3.7-3.7V30.726c0-2.036 1.665-3.7 3.7-3.7h15.296a3.71 3.71 0 0 1 3.7 3.7V66.25zM77.099.305L60.477 4.349c-1.32.319-1.613 1.364-.653 2.324l3.546 3.463c.298.34-.055.792-.336.984-2.233 1.523-5.777 3.76-10.676 6.316C25.686 31.351 3.7 30.498 3.369 30.483a3.207 3.207 0 0 0-.328 6.406c.13.007.66.031 1.548.031 5.7 0 26.177-.984 50.736-13.797 5.81-3.03 9.839-5.646 12.19-7.3.333-.236.912-.64 1.447-.095l3.88 3.879c.958.96 2 .665 2.314-.656l3.77-16.827c.313-1.32-.51-2.14-1.827-1.82z"/>
    </g>
</svg>
