<svg xmlns="http://www.w3.org/2000/svg" xmlns:xlink="http://www.w3.org/1999/xlink" width="88" height="89" viewBox="0 0 88 89">
    <defs>
        <path id="a" d="M.584 44.468c0 24.298 19.564 43.995 43.695 43.995 24.13 0 43.695-19.697 43.695-43.995C87.974 20.169 68.41.473 44.279.473S.584 20.169.584 44.468z"/>
        <path id="c" d="M.584 44.468c0 24.298 19.564 43.995 43.695 43.995 24.13 0 43.695-19.697 43.695-43.995C87.974 20.169 68.41.473 44.279.473S.584 20.169.584 44.468z"/>
        <path id="e" d="M.584 44.468c0 24.298 19.564 43.995 43.695 43.995 24.13 0 43.695-19.697 43.695-43.995C87.974 20.169 68.41.473 44.279.473S.584 20.169.584 44.468z"/>
        <path id="g" d="M.584 44.468c0 24.298 19.564 43.995 43.695 43.995 24.13 0 43.695-19.697 43.695-43.995C87.974 20.169 68.41.473 44.279.473S.584 20.169.584 44.468z"/>
        <path id="i" d="M.584 44.468c0 24.298 19.564 43.995 43.695 43.995 24.13 0 43.695-19.697 43.695-43.995C87.974 20.169 68.41.473 44.279.473S.584 20.169.584 44.468z"/>
        <path id="k" d="M.584 44.468c0 24.298 19.564 43.995 43.695 43.995 24.13 0 43.695-19.697 43.695-43.995C87.974 20.169 68.41.473 44.279.473S.584 20.169.584 44.468z"/>
        <path id="m" d="M.584 44.468c0 24.298 19.564 43.995 43.695 43.995 24.13 0 43.695-19.697 43.695-43.995C87.974 20.169 68.41.473 44.279.473S.584 20.169.584 44.468z"/>
        <path id="o" d="M.584 44.468c0 24.298 19.564 43.995 43.695 43.995 24.13 0 43.695-19.697 43.695-43.995C87.974 20.169 68.41.473 44.279.473S.584 20.169.584 44.468"/>
    </defs>
    <g fill="none" fill-rule="evenodd">
        <g transform="translate(-.023 .102)">
            <mask id="b" fill="#fff">
                <use xlink:href="#a"/>
            </mask>
            <path fill="#007994" d="M44.846 23.568l-20.98 21.124L2.884 23.568 23.866 2.444z" mask="url(#b)"/>
        </g>
        <g transform="translate(-.023 .102)">
            <mask id="d" fill="#fff">
                <use xlink:href="#c"/>
            </mask>
            <path fill="#007994" d="M86.577 23.568l-20.98 21.124-20.982-21.124L65.597 2.444z" mask="url(#d)"/>
        </g>
        <g transform="translate(-.023 .102)">
            <mask id="f" fill="#fff">
                <use xlink:href="#e"/>
            </mask>
            <path fill="#0097B8" d="M65.56 2.748L44.58 23.873 23.6 2.748l8.308-8.365c6.998-7.047 18.346-7.047 25.346 0l8.308 8.365z" mask="url(#f)"/>
        </g>
        <g transform="translate(-.023 .102)">
            <mask id="h" fill="#fff">
                <use xlink:href="#g"/>
            </mask>
            <path fill="#007994" d="M86.808 65.817L65.828 86.94 44.846 65.817l20.982-21.124z" mask="url(#h)"/>
        </g>
        <g transform="translate(-.023 .102)">
            <mask id="j" fill="#fff">
                <use xlink:href="#i"/>
            </mask>
            <path fill="#0097B8" d="M65.828 86.941l-8.308 8.365c-7 7.046-18.347 7.046-25.345 0l-8.308-8.365 20.981-21.124 20.98 21.124z" mask="url(#j)"/>
        </g>
        <g transform="translate(-.023 .102)">
            <mask id="l" fill="#fff">
                <use xlink:href="#k"/>
            </mask>
            <path fill="#007994" d="M44.85 65.817L23.868 86.94 2.887 65.817 23.87 44.693z" mask="url(#l)"/>
        </g>
        <g transform="translate(-.023 .102)">
            <mask id="n" fill="#fff">
                <use xlink:href="#m"/>
            </mask>
            <path fill="#0097B8" d="M23.868 44.693L2.888 65.818l-8.31-8.365c-6.998-7.047-6.998-18.473 0-25.519l8.31-8.365 20.98 21.124z" mask="url(#n)"/>
        </g>
        <g transform="translate(-.023 .102)">
            <mask id="p" fill="#fff">
                <use xlink:href="#o"/>
            </mask>
            <path fill="#0097B8" d="M94.638 57.453l-8.308 8.365-20.982-21.124L86.33 23.568l8.308 8.367c6.998 7.046 6.998 18.47 0 25.518" mask="url(#p)"/>
        </g>
    </g>
</svg>
