<svg xmlns="http://www.w3.org/2000/svg" xmlns:xlink="http://www.w3.org/1999/xlink" width="90" height="90" viewBox="0 0 90 90">
    <defs>
        <path id="a" d="M.33 44.926c0 24.537 19.977 44.43 44.623 44.43 24.644 0 44.623-19.893 44.623-44.43 0-24.538-19.98-44.43-44.623-44.43C20.307.495.329 20.387.329 44.925z"/>
        <path id="c" d="M.33 44.926c0 24.537 19.977 44.43 44.623 44.43 24.644 0 44.623-19.893 44.623-44.43 0-24.538-19.98-44.43-44.623-44.43C20.307.495.329 20.387.329 44.925z"/>
        <path id="e" d="M.33 44.926c0 24.537 19.977 44.43 44.623 44.43 24.644 0 44.623-19.893 44.623-44.43 0-24.538-19.98-44.43-44.623-44.43C20.307.495.329 20.387.329 44.925z"/>
        <path id="g" d="M.33 44.926c0 24.537 19.977 44.43 44.623 44.43 24.644 0 44.623-19.893 44.623-44.43 0-24.538-19.98-44.43-44.623-44.43C20.307.495.329 20.387.329 44.925z"/>
        <path id="i" d="M.33 44.926c0 24.537 19.977 44.43 44.623 44.43 24.644 0 44.623-19.893 44.623-44.43 0-24.538-19.98-44.43-44.623-44.43C20.307.495.329 20.387.329 44.925z"/>
        <path id="k" d="M.33 44.926c0 24.537 19.977 44.43 44.623 44.43 24.644 0 44.623-19.893 44.623-44.43 0-24.538-19.98-44.43-44.623-44.43C20.307.495.329 20.387.329 44.925z"/>
        <path id="m" d="M.33 44.926c0 24.537 19.977 44.43 44.623 44.43 24.644 0 44.623-19.893 44.623-44.43 0-24.538-19.98-44.43-44.623-44.43C20.307.495.329 20.387.329 44.925z"/>
        <path id="o" d="M.33 44.926c0 24.537 19.977 44.43 44.623 44.43 24.644 0 44.623-19.893 44.623-44.43 0-24.538-19.98-44.43-44.623-44.43C20.307.495.329 20.387.329 44.925"/>
    </defs>
    <g fill="none" fill-rule="evenodd">
        <g>
            <mask id="b" fill="#fff">
                <use xlink:href="#a"/>
            </mask>
            <path fill="#FFB50D" d="M45.616 22.165L23.848 43.84 2.078 22.165 23.849.491z" mask="url(#b)"/>
        </g>
        <g>
            <mask id="d" fill="#fff">
                <use xlink:href="#c"/>
            </mask>
            <path fill="#27E3CC" d="M88.915 22.165L67.146 43.84 45.377 22.165 67.147.491z" mask="url(#d)"/>
        </g>
        <g>
            <mask id="f" fill="#fff">
                <use xlink:href="#e"/>
            </mask>
            <path fill="#FFDD0F" d="M67.108.804L45.34 22.48 23.571.804l8.62-8.583c7.262-7.23 19.035-7.23 26.296 0L67.108.804z" mask="url(#f)"/>
        </g>
        <g>
            <mask id="h" fill="#fff">
                <use xlink:href="#g"/>
            </mask>
            <path fill="#3E7EFF" d="M89.155 65.515L67.385 87.19 45.618 65.515l21.769-21.674z" mask="url(#h)"/>
        </g>
        <g>
            <mask id="j" fill="#fff">
                <use xlink:href="#i"/>
            </mask>
            <path fill="#2C50FF" d="M67.387 87.189l-8.62 8.583c-7.262 7.23-19.035 7.23-26.297 0l-8.62-8.583 21.768-21.675 21.77 21.675z" mask="url(#j)"/>
        </g>
        <g>
            <mask id="l" fill="#fff">
                <use xlink:href="#k"/>
            </mask>
            <path fill="#3B03A8" d="M45.618 65.515L23.851 87.19 2.082 65.515l21.769-21.674z" mask="url(#l)"/>
        </g>
        <g>
            <mask id="n" fill="#fff">
                <use xlink:href="#m"/>
            </mask>
            <path fill="#5203E9" d="M23.85 43.841L2.085 65.516l-8.621-8.584c-7.262-7.23-7.262-18.952 0-26.182l8.62-8.584 21.768 21.675z" mask="url(#n)"/>
        </g>
        <g>
            <mask id="p" fill="#fff">
                <use xlink:href="#o"/>
            </mask>
            <path fill="#08C0A6" d="M97.278 56.933l-8.62 8.583-21.77-21.674 21.77-21.675 8.62 8.583c7.261 7.23 7.261 18.953 0 26.183" mask="url(#p)"/>
        </g>
    </g>
</svg>
