<svg xmlns="http://www.w3.org/2000/svg" xmlns:xlink="http://www.w3.org/1999/xlink" width="90" height="89" viewBox="0 0 90 89">
    <defs>
        <path id="a" d="M.489 44.602c0 24.372 19.842 44.128 44.32 44.128 24.477 0 44.319-19.756 44.319-44.128S69.286.474 44.808.474C20.331.474.49 20.23.49 44.602z"/>
        <path id="c" d="M.489 44.602c0 24.372 19.842 44.128 44.32 44.128 24.477 0 44.319-19.756 44.319-44.128S69.286.474 44.808.474C20.331.474.49 20.23.49 44.602z"/>
        <path id="e" d="M.489 44.602c0 24.372 19.842 44.128 44.32 44.128 24.477 0 44.319-19.756 44.319-44.128S69.286.474 44.808.474C20.331.474.49 20.23.49 44.602z"/>
        <path id="g" d="M.489 44.602c0 24.372 19.842 44.128 44.32 44.128 24.477 0 44.319-19.756 44.319-44.128S69.286.474 44.808.474C20.331.474.49 20.23.49 44.602z"/>
        <path id="i" d="M.489 44.602c0 24.372 19.842 44.128 44.32 44.128 24.477 0 44.319-19.756 44.319-44.128S69.286.474 44.808.474C20.331.474.49 20.23.49 44.602z"/>
        <path id="k" d="M.489 44.602c0 24.372 19.842 44.128 44.32 44.128 24.477 0 44.319-19.756 44.319-44.128S69.286.474 44.808.474C20.331.474.49 20.23.49 44.602z"/>
        <path id="m" d="M.489 44.602c0 24.372 19.842 44.128 44.32 44.128 24.477 0 44.319-19.756 44.319-44.128S69.286.474 44.808.474C20.331.474.49 20.23.49 44.602z"/>
        <path id="o" d="M.489 44.602c0 24.372 19.842 44.128 44.32 44.128 24.477 0 44.319-19.756 44.319-44.128S69.286.474 44.808.474C20.331.474.49 20.23.49 44.602"/>
    </defs>
    <g fill="none" fill-rule="evenodd">
        <g>
            <mask id="b" fill="#fff">
                <use xlink:href="#a"/>
            </mask>
            <path fill="#3E7EFF" d="M45.048 23.26l-21.28 21.188L2.489 23.26l21.28-21.187z" mask="url(#b)"/>
        </g>
        <g>
            <mask id="d" fill="#fff">
                <use xlink:href="#c"/>
            </mask>
            <path fill="#3E7EFF" d="M87.377 23.26l-21.28 21.188L44.816 23.26 66.097 2.073z" mask="url(#d)"/>
        </g>
        <g>
            <mask id="f" fill="#fff">
                <use xlink:href="#e"/>
            </mask>
            <path fill="#2C50FF" d="M66.059 2.378l-21.28 21.188L23.498 2.378l8.426-8.39c7.1-7.067 18.61-7.067 25.708 0l8.427 8.39z" mask="url(#f)"/>
        </g>
        <g>
            <mask id="h" fill="#fff">
                <use xlink:href="#g"/>
            </mask>
            <path fill="#3E7EFF" d="M87.61 65.638L66.33 86.826 45.048 65.638 66.33 44.45z" mask="url(#h)"/>
        </g>
        <g>
            <mask id="j" fill="#fff">
                <use xlink:href="#i"/>
            </mask>
            <path fill="#2C50FF" d="M66.33 86.825l-8.426 8.39c-7.098 7.069-18.608 7.069-25.708 0l-8.427-8.39 21.282-21.188 21.28 21.188z" mask="url(#j)"/>
        </g>
        <g>
            <mask id="l" fill="#fff">
                <use xlink:href="#k"/>
            </mask>
            <path fill="#3E7EFF" d="M45.052 65.638l-21.28 21.188L2.49 65.638 23.772 44.45z" mask="url(#l)"/>
        </g>
        <g>
            <mask id="n" fill="#fff">
                <use xlink:href="#m"/>
            </mask>
            <path fill="#2C50FF" d="M23.773 44.45L2.493 65.639l-8.429-8.39c-7.098-7.067-7.098-18.528 0-25.595l8.429-8.39 21.28 21.188z" mask="url(#n)"/>
        </g>
        <g>
            <mask id="p" fill="#fff">
                <use xlink:href="#o"/>
            </mask>
            <path fill="#2C50FF" d="M95.553 57.248l-8.427 8.39-21.281-21.187 21.281-21.19 8.427 8.392c7.098 7.068 7.098 18.526 0 25.595" mask="url(#p)"/>
        </g>
    </g>
</svg>
