<svg xmlns="http://www.w3.org/2000/svg" xmlns:xlink="http://www.w3.org/1999/xlink" width="89" height="89" viewBox="0 0 89 89">
    <defs>
        <path id="a" d="M.504 44.468c0 24.298 19.783 43.995 44.186 43.995 24.404 0 44.186-19.697 44.186-43.995C88.876 20.169 69.094.473 44.69.473 20.287.473.504 20.169.504 44.468z"/>
        <path id="c" d="M.504 44.468c0 24.298 19.783 43.995 44.186 43.995 24.404 0 44.186-19.697 44.186-43.995C88.876 20.169 69.094.473 44.69.473 20.287.473.504 20.169.504 44.468z"/>
        <path id="e" d="M.504 44.468c0 24.298 19.783 43.995 44.186 43.995 24.404 0 44.186-19.697 44.186-43.995C88.876 20.169 69.094.473 44.69.473 20.287.473.504 20.169.504 44.468z"/>
        <path id="g" d="M.504 44.468c0 24.298 19.783 43.995 44.186 43.995 24.404 0 44.186-19.697 44.186-43.995C88.876 20.169 69.094.473 44.69.473 20.287.473.504 20.169.504 44.468z"/>
        <path id="i" d="M.504 44.468c0 24.298 19.783 43.995 44.186 43.995 24.404 0 44.186-19.697 44.186-43.995C88.876 20.169 69.094.473 44.69.473 20.287.473.504 20.169.504 44.468z"/>
        <path id="k" d="M.504 44.468c0 24.298 19.783 43.995 44.186 43.995 24.404 0 44.186-19.697 44.186-43.995C88.876 20.169 69.094.473 44.69.473 20.287.473.504 20.169.504 44.468z"/>
        <path id="m" d="M.504 44.468c0 24.298 19.783 43.995 44.186 43.995 24.404 0 44.186-19.697 44.186-43.995C88.876 20.169 69.094.473 44.69.473 20.287.473.504 20.169.504 44.468z"/>
        <path id="o" d="M.504 44.468c0 24.298 19.783 43.995 44.186 43.995 24.404 0 44.186-19.697 44.186-43.995C88.876 20.169 69.094.473 44.69.473 20.287.473.504 20.169.504 44.468"/>
    </defs>
    <g fill="none" fill-rule="evenodd">
        <g>
            <mask id="b" fill="#fff">
                <use xlink:href="#a"/>
            </mask>
            <path fill="#E6E6E6" d="M45.264 23.568L24.048 44.692 2.831 23.568 24.048 2.444z" mask="url(#b)"/>
        </g>
        <g>
            <mask id="d" fill="#fff">
                <use xlink:href="#c"/>
            </mask>
            <path fill="#E6E6E6" d="M87.464 23.568L66.248 44.692 45.03 23.568 66.248 2.444z" mask="url(#d)"/>
        </g>
        <g>
            <mask id="f" fill="#fff">
                <use xlink:href="#e"/>
            </mask>
            <path fill="#CCC" d="M66.211 2.748L44.995 23.873 23.778 2.748l8.401-8.365c7.077-7.047 18.552-7.047 25.63 0l8.402 8.365z" mask="url(#f)"/>
        </g>
        <g>
            <mask id="h" fill="#fff">
                <use xlink:href="#g"/>
            </mask>
            <path fill="#E6E6E6" d="M87.697 65.817L66.481 86.94 45.264 65.817 66.48 44.693z" mask="url(#h)"/>
        </g>
        <g>
            <mask id="j" fill="#fff">
                <use xlink:href="#i"/>
            </mask>
            <path fill="#CCC" d="M66.482 86.941l-8.401 8.365c-7.079 7.046-18.554 7.046-25.631 0l-8.401-8.365 21.217-21.124L66.482 86.94z" mask="url(#j)"/>
        </g>
        <g>
            <mask id="l" fill="#fff">
                <use xlink:href="#k"/>
            </mask>
            <path fill="#E6E6E6" d="M45.267 65.817L24.05 86.94 2.834 65.817 24.05 44.693z" mask="url(#l)"/>
        </g>
        <g>
            <mask id="n" fill="#fff">
                <use xlink:href="#m"/>
            </mask>
            <path fill="#CCC" d="M24.052 44.693L2.836 65.818l-8.403-8.365c-7.078-7.047-7.078-18.473 0-25.519l8.403-8.365 21.216 21.124z" mask="url(#n)"/>
        </g>
        <g>
            <mask id="p" fill="#fff">
                <use xlink:href="#o"/>
            </mask>
            <path fill="#CCC" d="M95.615 57.453l-8.401 8.365-21.218-21.124 21.218-21.126 8.401 8.367c7.078 7.046 7.078 18.47 0 25.518" mask="url(#p)"/>
        </g>
    </g>
</svg>
