<svg xmlns="http://www.w3.org/2000/svg" xmlns:xlink="http://www.w3.org/1999/xlink" width="90" height="89" viewBox="0 0 90 89">
    <defs>
        <path id="a" d="M.548 44.602c0 24.372 19.842 44.128 44.32 44.128 24.477 0 44.32-19.756 44.32-44.128S69.344.474 44.867.474C20.39.474.548 20.23.548 44.602z"/>
        <path id="c" d="M.548 44.602c0 24.372 19.842 44.128 44.32 44.128 24.477 0 44.32-19.756 44.32-44.128S69.344.474 44.867.474C20.39.474.548 20.23.548 44.602z"/>
        <path id="e" d="M.548 44.602c0 24.372 19.842 44.128 44.32 44.128 24.477 0 44.32-19.756 44.32-44.128S69.344.474 44.867.474C20.39.474.548 20.23.548 44.602z"/>
        <path id="g" d="M.548 44.602c0 24.372 19.842 44.128 44.32 44.128 24.477 0 44.32-19.756 44.32-44.128S69.344.474 44.867.474C20.39.474.548 20.23.548 44.602z"/>
        <path id="i" d="M.548 44.602c0 24.372 19.842 44.128 44.32 44.128 24.477 0 44.32-19.756 44.32-44.128S69.344.474 44.867.474C20.39.474.548 20.23.548 44.602z"/>
        <path id="k" d="M.548 44.602c0 24.372 19.842 44.128 44.32 44.128 24.477 0 44.32-19.756 44.32-44.128S69.344.474 44.867.474C20.39.474.548 20.23.548 44.602z"/>
        <path id="m" d="M.548 44.602c0 24.372 19.842 44.128 44.32 44.128 24.477 0 44.32-19.756 44.32-44.128S69.344.474 44.867.474C20.39.474.548 20.23.548 44.602z"/>
        <path id="o" d="M.548 44.602c0 24.372 19.842 44.128 44.32 44.128 24.477 0 44.32-19.756 44.32-44.128S69.344.474 44.867.474C20.39.474.548 20.23.548 44.602"/>
    </defs>
    <g fill="none" fill-rule="evenodd">
        <g>
            <mask id="b" fill="#fff">
                <use xlink:href="#a"/>
            </mask>
            <path fill="#FFDD0F" d="M45.443 23.639l-21.28 21.188L2.88 23.639 24.163 2.45z" mask="url(#b)"/>
        </g>
        <g>
            <mask id="d" fill="#fff">
                <use xlink:href="#c"/>
            </mask>
            <path fill="#FFDD0F" d="M87.771 23.639l-21.28 21.188-21.28-21.188L66.49 2.45z" mask="url(#d)"/>
        </g>
        <g>
            <mask id="f" fill="#fff">
                <use xlink:href="#e"/>
            </mask>
            <path fill="#FFB50D" d="M66.453 2.757l-21.28 21.188L23.892 2.757l8.427-8.39c7.1-7.07 18.61-7.07 25.707 0l8.427 8.39z" mask="url(#f)"/>
        </g>
        <g>
            <mask id="h" fill="#fff">
                <use xlink:href="#g"/>
            </mask>
            <path fill="#FFDD0F" d="M88.004 66.015l-21.28 21.188-21.281-21.188 21.281-21.188z" mask="url(#h)"/>
        </g>
        <g>
            <mask id="j" fill="#fff">
                <use xlink:href="#i"/>
            </mask>
            <path fill="#FFB50D" d="M66.725 87.203l-8.427 8.39c-7.098 7.068-18.608 7.068-25.708 0l-8.426-8.39 21.281-21.188 21.28 21.188z" mask="url(#j)"/>
        </g>
        <g>
            <mask id="l" fill="#fff">
                <use xlink:href="#k"/>
            </mask>
            <path fill="#FFDD0F" d="M45.446 66.015l-21.28 21.188L2.885 66.015l21.281-21.188z" mask="url(#l)"/>
        </g>
        <g>
            <mask id="n" fill="#fff">
                <use xlink:href="#m"/>
            </mask>
            <path fill="#FFB50D" d="M24.167 44.828L2.887 66.016l-8.428-8.39c-7.098-7.068-7.098-18.528 0-25.595l8.428-8.39 21.28 21.187z" mask="url(#n)"/>
        </g>
        <g>
            <mask id="p" fill="#fff">
                <use xlink:href="#o"/>
            </mask>
            <path fill="#FFB50D" d="M95.947 57.626l-8.426 8.39L66.239 44.83l21.282-21.19 8.426 8.392c7.098 7.067 7.098 18.526 0 25.595" mask="url(#p)"/>
        </g>
    </g>
</svg>
