<svg xmlns="http://www.w3.org/2000/svg" width="70" height="60" viewBox="0 0 70 60">
    <g fill="#818A91" fill-rule="evenodd">
        <path d="M11.915 13.612C5.362 13.612 0 18.974 0 25.528v2.532c0 6.256 4.84 11.394 11.097 11.84v17.8c0 1.266.968 2.234 2.234 2.234h7.893c1.267 0 2.235-.968 2.235-2.234V39.976h1.266V13.612h-12.81zM68.887.43a2.098 2.098 0 0 0-2.085-.223l-36.79 15.64v21.82l36.79 15.64c1.117.446 2.458-.075 2.905-1.192.148-.298.148-.596.148-.894V2.292c0-.744-.372-1.415-.968-1.861z"/>
    </g>
</svg>
