<svg xmlns="http://www.w3.org/2000/svg" width="69" height="70" viewBox="0 0 69 70">
    <path fill="#818A91" fill-rule="evenodd" d="M67.812 39.041l-1.064-1.438c-1.15-1.58-1.178-3.71-.043-5.29l1.036-1.453a4.51 4.51 0 0 0-1.575-6.616l-1.59-.846a4.52 4.52 0 0 1-2.34-4.754l.297-1.763c.455-2.694-1.561-5.177-4.314-5.29l-1.787-.07a4.547 4.547 0 0 1-4.187-3.273l-.497-1.72c-.766-2.624-3.66-3.979-6.186-2.907l-1.647.705a4.581 4.581 0 0 1-5.207-1.142l-1.192-1.326C35.67-.187 32.464-.16 30.662 1.9l-1.178 1.34a4.577 4.577 0 0 1-5.18 1.213l-1.66-.677c-2.54-1.044-5.42.366-6.144 3.004l-.468 1.72c-.511 1.877-2.186 3.217-4.144 3.33l-1.787.099c-2.74.155-4.726 2.666-4.229 5.346l.326 1.749a4.531 4.531 0 0 1-2.27 4.782l-1.576.86C-.046 25.993-.74 29.111.877 31.311L1.94 32.75c1.149 1.58 1.177 3.71.043 5.29L.948 39.492a4.51 4.51 0 0 0 1.575 6.615l1.59.846a4.519 4.519 0 0 1 2.34 4.754l-.298 1.764c-.453 2.693 1.561 5.176 4.314 5.29l1.789.07a4.547 4.547 0 0 1 4.185 3.272l.497 1.721c.766 2.624 3.661 3.978 6.187 2.906l1.646-.705a4.582 4.582 0 0 1 5.208 1.142l1.191 1.326c1.831 2.031 5.039 2.003 6.84-.056l1.178-1.34a4.577 4.577 0 0 1 5.18-1.214l1.66.677c2.54 1.045 5.42-.366 6.145-3.004l.468-1.721c.51-1.876 2.185-3.216 4.143-3.329l1.788-.098c2.739-.156 4.725-2.667 4.229-5.347l-.327-1.749a4.53 4.53 0 0 1 2.27-4.782l1.576-.86c2.412-1.312 3.107-4.43 1.49-6.63zm-25.018 7.702c-1.29 1.551-2.965 2.595-4.91 3.131-.85.226-1.234.677-1.191 1.552.043.86 0 1.735 0 2.595 0 .776-.397 1.186-1.164 1.2-.936.028-1.873.028-2.81 0-.822-.014-1.206-.48-1.22-1.27-.014-.635-.014-1.27-.014-1.89-.015-1.397-.057-1.453-1.405-1.665-1.731-.268-3.42-.663-4.995-1.425-1.234-.592-1.362-.902-1.008-2.2.27-.96.526-1.932.838-2.877.355-1.1.653-1.242 1.674-.72 1.745.903 3.605 1.41 5.549 1.65 1.248.156 2.483.028 3.646-.48 2.172-.944 2.512-3.44.681-4.936-.624-.508-1.333-.889-2.071-1.213-1.901-.833-3.888-1.467-5.676-2.54-2.91-1.735-4.753-4.104-4.54-7.63.24-3.979 2.51-6.46 6.172-7.787 1.518-.55 1.518-.522 1.532-2.102v-1.594c.028-1.184.227-1.396 1.419-1.425.37-.014.738 0 1.107 0 2.526 0 2.526 0 2.54 2.512.014 1.777 0 1.791 1.788 2.059 1.362.211 2.668.62 3.93 1.17.696.31.966.79.753 1.524-.312 1.087-.61 2.186-.965 3.259-.326 1.015-.653 1.17-1.646.69-1.972-.944-4.045-1.34-6.23-1.227-.567.028-1.135.113-1.66.34-1.887.817-2.2 2.89-.581 4.16.808.65 1.745 1.114 2.71 1.51 1.674.69 3.349 1.34 4.938 2.214 5.01 2.808 6.371 9.112 2.81 13.415z"/>
</svg>
