<svg xmlns="http://www.w3.org/2000/svg" xmlns:xlink="http://www.w3.org/1999/xlink" width="45" height="45" viewBox="0 0 45 45">
    <defs>
        <circle id="a" cx="22.5" cy="22.5" r="22.5"/>
    </defs>
    <g fill="none" fill-rule="evenodd">
        <mask id="b" fill="#fff">
            <use xlink:href="#a"/>
        </mask>
        <use fill="#2C50FF" xlink:href="#a"/>
        <g mask="url(#b)">
            <path fill="#FFB50D" d="M26.04-11.255L12.774 2.003-.494-11.255l13.268-13.258z"/>
            <path fill="#27E3CC" d="M26.04 15.262L12.774 2.004l13.266-13.26"/>
            <path fill="#5203E9" d="M26.04-11.255L39.306 2.003 26.04 15.263"/>
            <path fill="#3E7EFF" d="M52.573 15.262L39.307 28.518 26.04 15.262 39.307 2.004z"/>
            <path fill="#08C0A6" d="M52.567-11.25L39.3 2.01l13.266 13.258c7.327-7.323 7.327-19.196 0-26.516"/>
            <path fill="#27E3CC" d="M26.034-11.25L39.3 2.01 52.567-11.25c-7.326-7.323-19.206-7.323-26.533 0"/>
            <path fill="#5203E9" d="M-.505 15.272L12.762 2.014-.505-11.244c-7.327 7.323-7.327 19.195 0 26.516"/>
            <path fill="#3B03A8" d="M26.028 15.272L12.762 2.014-.504 15.272c7.327 7.323 19.205 7.323 26.532 0"/>
            <path fill="#2C50FF" d="M39.295 28.53L26.029 15.274 12.76 28.53c7.327 7.322 19.207 7.322 26.534 0"/>
        </g>
    </g>
</svg>
