<svg xmlns="http://www.w3.org/2000/svg" xmlns:xlink="http://www.w3.org/1999/xlink" width="45" height="45" viewBox="0 0 45 45">
    <defs>
        <circle id="a" cx="22.5" cy="22.5" r="22.5"/>
    </defs>
    <g fill="none" fill-rule="evenodd">
        <mask id="b" fill="#fff">
            <use xlink:href="#a"/>
        </mask>
        <use fill="#FFDD0F" xlink:href="#a"/>
        <g mask="url(#b)">
            <path fill="#FFB50D" d="M12.04 18.745L-1.226 32.003l-13.268-13.258L-1.226 5.487z"/>
            <path fill="#27E3CC" d="M12.04 45.262L-1.226 32.004l13.266-13.26"/>
            <path fill="#5203E9" d="M12.04 18.745l13.266 13.258-13.266 13.26"/>
            <path fill="#3E7EFF" d="M38.573 45.262L25.307 58.518 12.04 45.262l13.267-13.258z"/>
            <path fill="#08C0A6" d="M38.567 18.75L25.3 32.01l13.266 13.258c7.327-7.323 7.327-19.196 0-26.516"/>
            <path fill="#27E3CC" d="M12.034 18.75L25.3 32.01 38.567 18.75c-7.326-7.323-19.206-7.323-26.533 0"/>
            <path fill="#FFDD0F" d="M-1.233 5.492L12.034 18.75 25.302 5.492c-7.327-7.323-19.207-7.323-26.535 0"/>
            <path fill="#3B03A8" d="M12.028 45.272L-1.238 32.014l-13.266 13.258c7.327 7.323 19.205 7.323 26.532 0"/>
        </g>
    </g>
</svg>
