<svg width="99" height="88" viewBox="0 0 99 88" fill="none" xmlns="http://www.w3.org/2000/svg">
<path d="M92.6129 17.6C92.6129 17.0109 93.0895 16.5333 93.6774 16.5333H97.9355C98.5234 16.5333 99 17.0109 99 17.6C99 18.1891 98.5234 18.6667 97.9355 18.6667H93.6774C93.0895 18.6667 92.6129 18.1891 92.6129 17.6Z" fill="#D6E4FF"/>
<path d="M95.8066 14.4C96.3945 14.4 96.8711 14.8776 96.8711 15.4667V19.7333C96.8711 20.3224 96.3945 20.8 95.8066 20.8C95.2187 20.8 94.7421 20.3224 94.7421 19.7333V15.4667C94.7421 14.8776 95.2187 14.4 95.8066 14.4Z" fill="#D6E4FF"/>
<path d="M36.7258 24C36.7258 23.4109 37.2024 22.9333 37.7903 22.9333H42.0484C42.6363 22.9333 43.1129 23.4109 43.1129 24C43.1129 24.5891 42.6363 25.0667 42.0484 25.0667H37.7903C37.2024 25.0667 36.7258 24.5891 36.7258 24Z" fill="#D6E4FF"/>
<path d="M39.9195 20.8C40.5074 20.8 40.984 21.2776 40.984 21.8667V26.1333C40.984 26.7224 40.5074 27.2 39.9195 27.2C39.3316 27.2 38.855 26.7224 38.855 26.1333V21.8667C38.855 21.2776 39.3316 20.8 39.9195 20.8Z" fill="#D6E4FF"/>
<path d="M51.0968 4.8C51.0968 3.91634 51.8117 3.2 52.6935 3.2H59.0806C59.9625 3.2 60.6774 3.91634 60.6774 4.8C60.6774 5.68366 59.9625 6.4 59.0806 6.4H52.6935C51.8117 6.4 51.0968 5.68366 51.0968 4.8Z" fill="#D6E4FF"/>
<path d="M55.8871 0C56.769 0 57.4839 0.716344 57.4839 1.6V8C57.4839 8.88365 56.769 9.6 55.8871 9.6C55.0052 9.6 54.2903 8.88365 54.2903 8V1.6C54.2903 0.716345 55.0052 0 55.8871 0Z" fill="#D6E4FF"/>
<path d="M27.1451 83.2C27.1451 82.3163 27.86 81.6 28.7419 81.6H35.129C36.0109 81.6 36.7258 82.3163 36.7258 83.2C36.7258 84.0836 36.0109 84.8 35.129 84.8H28.7419C27.86 84.8 27.1451 84.0836 27.1451 83.2Z" fill="#D6E4FF"/>
<path d="M31.9355 78.4C32.8173 78.4 33.5322 79.1163 33.5322 80V86.4C33.5322 87.2836 32.8173 88 31.9355 88C31.0536 88 30.3387 87.2836 30.3387 86.4V80C30.3387 79.1163 31.0536 78.4 31.9355 78.4Z" fill="#D6E4FF"/>
<path d="M78.2419 76.8C78.2419 76.2109 78.7185 75.7333 79.3065 75.7333H83.5645C84.1524 75.7333 84.629 76.2109 84.629 76.8C84.629 77.3891 84.1524 77.8667 83.5645 77.8667H79.3065C78.7185 77.8667 78.2419 77.3891 78.2419 76.8Z" fill="#D6E4FF"/>
<path d="M81.4356 73.6C82.0235 73.6 82.5001 74.0776 82.5001 74.6667V78.9333C82.5001 79.5224 82.0235 80 81.4356 80C80.8477 80 80.3711 79.5224 80.3711 78.9333V74.6667C80.3711 74.0776 80.8477 73.6 81.4356 73.6Z" fill="#D6E4FF"/>
<path d="M0 46.4C0 45.8109 0.4766 45.3333 1.06452 45.3333H5.32258C5.9105 45.3333 6.3871 45.8109 6.3871 46.4C6.3871 46.9891 5.9105 47.4667 5.32258 47.4667H1.06452C0.4766 47.4667 0 46.9891 0 46.4Z" fill="#D6E4FF"/>
<path d="M3.19368 43.2C3.78159 43.2 4.25819 43.6776 4.25819 44.2667V48.5333C4.25819 49.1224 3.78159 49.6 3.19368 49.6C2.60576 49.6 2.12916 49.1224 2.12916 48.5333V44.2667C2.12916 43.6776 2.60576 43.2 3.19368 43.2Z" fill="#D6E4FF"/>
<mask id="mask0" mask-type="alpha" maskUnits="userSpaceOnUse" x="20" y="7" width="76" height="77">
<ellipse cx="58" cy="45.0909" rx="38" ry="38.0768" fill="white"/>
</mask>
<g mask="url(#mask0)">
<path fill-rule="evenodd" clip-rule="evenodd" d="M50.8162 28.8335L44.4489 32.9932L46.4146 38.0352C46.4422 38.1068 46.4797 38.1727 46.5108 38.2422C46.6508 38.233 46.7909 38.2252 46.9323 38.2252C46.955 38.2252 46.9776 38.2273 47.001 38.2273C47.0236 38.2273 47.0448 38.2252 47.0674 38.2252C48.7721 38.2252 50.2362 39.2755 51.126 40.6895C52.1566 40.6122 53.1808 40.3613 54.1314 39.9084C54.7793 39.5994 55.3438 39.2323 55.5475 38.834C56.2294 35.2576 50.8162 28.8335 50.8162 28.8335Z" fill="#F0AB85"/>
<path fill-rule="evenodd" clip-rule="evenodd" d="M58.915 30.1376C58.915 30.1376 59.6944 37.5426 58.1256 42.2587C58.8541 42.8923 61.5299 45.7663 62.3717 42.0411C63.2127 38.3159 61.4267 28.8335 61.4267 28.8335L58.915 30.1376Z" fill="#F0AB85"/>
<path fill-rule="evenodd" clip-rule="evenodd" d="M55.0947 29.6138L53.5973 30.5791L54.1313 31.6996L55.7391 30.9902L55.0947 29.6138Z" fill="#08C0A6"/>
<path fill-rule="evenodd" clip-rule="evenodd" d="M54.2126 30.9612C54.3625 31.3036 54.3732 31.6303 54.2366 31.6905C54.1001 31.7508 53.8674 31.5219 53.7168 31.1788C53.5668 30.8365 53.5562 30.5098 53.6927 30.4495C53.8299 30.3893 54.0626 30.6182 54.2126 30.9612Z" fill="#222222"/>
<path fill-rule="evenodd" clip-rule="evenodd" d="M73.1702 24.1512C73.1716 24.1371 73.1744 24.1236 73.1758 24.1094C72.8943 23.4659 72.3971 22.4439 71.7272 21.5041C70.645 19.9859 70.3359 19.2262 70.3359 19.2262L54.8661 29.3712L55.8677 31.2657L73.1723 24.8579C73.1567 24.6211 73.1511 24.3851 73.1702 24.1512Z" fill="#0C665A"/>
<path fill-rule="evenodd" clip-rule="evenodd" d="M49.4115 40.693L48.8549 44.1744H53.7778L54.1315 39.9084L49.4115 40.693Z" fill="#EC967C"/>
<path fill-rule="evenodd" clip-rule="evenodd" d="M62.124 49.3312C62.124 49.3312 67.9381 47.4757 69.7602 44.9809C71.5822 42.4869 68.4983 28.8335 68.4983 28.8335L68.8972 26.3763C69.1215 24.9935 68.0626 23.7348 66.6642 23.7227L65.111 23.7086C64.4645 23.7029 64.0281 24.3691 64.2905 24.9609L66.3339 29.5671C66.3339 29.5671 67.8674 39.9084 65.7193 40.693C63.1588 41.6073 60.2595 41.8277 60.2595 41.8277L62.124 49.3312Z" fill="#F0AB85"/>
<path fill-rule="evenodd" clip-rule="evenodd" d="M51.2008 40.693L49.7055 37.3689L50.6767 36.7573C51.3946 36.3058 51.708 35.4192 51.4349 34.6154L50.3704 31.4828C50.3704 31.4828 53.3999 31.1114 53.3086 28.2835C53.3086 26.827 51.3083 26.8192 51.3083 26.8192C51.3083 26.8192 50.7106 28.1205 48.8546 28.275C48.0582 28.175 45.8719 28.4692 44.3964 31.049C43.404 32.7847 43.839 35.5028 44.7027 37.5426C45.4772 39.3704 47.4534 40.3917 49.4113 40.693H51.2008Z" fill="#070D29"/>
<path fill-rule="evenodd" clip-rule="evenodd" d="M45.2892 68.6133C45.2892 68.6133 45.5976 75.6994 47.1275 83.3808C47.5781 85.6439 47.4083 87.9856 46.6734 90.1728C43.2019 100.507 38.3348 116.048 38.3348 116.048H42.6643C42.6643 116.048 52.4741 97.6812 55.0021 88.5703C57.53 79.4593 57.9629 76.5669 57.9629 76.5669L54.9547 68.6133H45.2892Z" fill="#111F66"/>
<path fill-rule="evenodd" clip-rule="evenodd" d="M48.9008 35.8211C48.7226 36.3448 49.0826 37.038 49.7057 37.369C50.3282 37.7007 50.9768 37.544 51.155 37.021C51.3333 36.4972 50.9732 35.8041 50.3508 35.4731C49.7284 35.1414 49.079 35.2973 48.9008 35.8211Z" fill="#F0AB85"/>
<path fill-rule="evenodd" clip-rule="evenodd" d="M59.4066 68.6134H45.2892V50.4645C45.2892 46.4891 48.3088 43.1672 52.2591 42.798L62.0767 41.6073C62.0767 41.6073 63.2311 43.3777 66.4473 47.492C62.5818 49.8855 58.1073 50.9876 58.1073 50.9876L59.4066 68.6134Z" fill="#3E7EFF"/>
<path fill-rule="evenodd" clip-rule="evenodd" d="M45.2892 68.6133C45.2892 68.6133 47.2831 75.844 54.64 83.9485C55.8679 85.1725 57.6376 87.7184 57.3858 91.3181L55.8679 116.048H60.2596C60.2596 116.048 65.6119 95.5125 64.4576 85.3887C63.3032 75.2657 59.4066 68.6133 59.4066 68.6133H45.2892Z" fill="#233FCC"/>
<path fill-rule="evenodd" clip-rule="evenodd" d="M70.8015 22.4697C71.5604 24.048 72.591 25.1275 73.1024 24.8801C73.6138 24.6335 73.4129 23.1536 72.6539 21.5752C71.8943 19.9968 70.8644 18.9174 70.3523 19.1648C69.8409 19.4121 70.0418 20.892 70.8015 22.4697Z" fill="#08C0A6"/>
<path fill-rule="evenodd" clip-rule="evenodd" d="M58.3054 27.117L58.4362 27.1793C58.8967 27.4005 59.4243 27.4338 59.9089 27.2722L59.9959 27.2431C60.793 26.9766 61.4154 26.3444 61.6701 25.5421C61.7832 25.1856 61.4706 24.839 61.1049 24.9156L60.1274 25.1211C59.7462 25.2012 59.4123 25.4294 59.1987 25.7547L58.3054 27.117Z" fill="#F0AB85"/>
</g>
</svg>
