<?xml version="1.0" encoding="UTF-8"?>
<svg width="18px" height="17px" viewBox="0 0 18 17" version="1.1" xmlns="http://www.w3.org/2000/svg" xmlns:xlink="http://www.w3.org/1999/xlink">
    <!-- Generator: sketchtool 44.1 (41455) - http://www.bohemiancoding.com/sketch -->
    <title>64E61B1E-0485-4E86-8839-A9F56372E839</title>
    <desc>Created with sketchtool.</desc>
    <defs></defs>
    <g id="Page-1" stroke="none" stroke-width="1" fill="none" fill-rule="evenodd">
        <g id="MapReveal" transform="translate(-982.000000, -236.000000)">
            <g id="Group-67">
                <g id="directions-fork" transform="translate(982.000000, 236.000000)">
                    <path d="M0,0 L0,8.5 L3,5.5 L6,9 C7,10 7,11 7,11 L7,17 L11,17 L11,10 C11,10 11,9 10.47,8 C9.94,7 9,6 9,6 L6,2.58 L8.5,0" id="Shape" fill="#FFFFFF" fill-rule="nonzero"></path>
                    <path d="M15,0 L10.54,4.47 L11,5 C11,5 11.93,6 12.47,7 C12.68,7.4 12.8,7.79 12.87,8.13 L18,3" id="Path" fill="#A6C4FF"></path>
                </g>
            </g>
        </g>
    </g>
</svg>