<svg xmlns="http://www.w3.org/2000/svg" xmlns:xlink="http://www.w3.org/1999/xlink" width="70" height="70" viewBox="0 0 70 70">
    <defs>
        <linearGradient id="a" x1="50%" x2="50%" y1="0%" y2="98.497%">
            <stop offset="0%" stop-color="#5203E9"/>
            <stop offset="100%" stop-color="#783AED"/>
        </linearGradient>
        <circle id="b" cx="35" cy="35" r="35"/>
    </defs>
    <g fill="none" fill-rule="evenodd">
        <g>
            <use fill="url(#a)" xlink:href="#b"/>
            <circle cx="35" cy="35" r="34.5" stroke="#7127FF" stroke-opacity=".654"/>
        </g>
        <g fill="#FFF">
            <path d="M35 25.286a1.72 1.72 0 0 1-1.714-1.715v-6.857A1.72 1.72 0 0 1 35 15a1.72 1.72 0 0 1 1.714 1.714v6.857A1.72 1.72 0 0 1 35 25.286" opacity=".65"/>
            <path d="M39.857 26.587a1.72 1.72 0 0 1-.627-2.342l3.428-5.938A1.72 1.72 0 0 1 45 17.68a1.72 1.72 0 0 1 .627 2.341L42.2 25.96a1.72 1.72 0 0 1-2.342.627" opacity=".75"/>
            <path d="M43.413 30.143a1.72 1.72 0 0 1 .627-2.342l5.939-3.428A1.72 1.72 0 0 1 52.32 25a1.72 1.72 0 0 1-.627 2.342l-5.938 3.428a1.72 1.72 0 0 1-2.342-.627" opacity=".85"/>
            <path d="M44.714 35a1.72 1.72 0 0 1 1.715-1.714h6.857A1.72 1.72 0 0 1 55 35a1.72 1.72 0 0 1-1.714 1.714h-6.857A1.72 1.72 0 0 1 44.714 35" opacity=".9"/>
            <path d="M43.413 39.857a1.72 1.72 0 0 1 2.342-.627l5.938 3.428A1.72 1.72 0 0 1 52.32 45a1.72 1.72 0 0 1-2.341.627L44.04 42.2a1.72 1.72 0 0 1-.627-2.342" opacity=".2"/>
            <path d="M39.857 43.413a1.72 1.72 0 0 1 2.342.627l3.428 5.939A1.72 1.72 0 0 1 45 52.32a1.72 1.72 0 0 1-2.342-.627l-3.428-5.938a1.72 1.72 0 0 1 .627-2.342" opacity=".25"/>
            <path d="M35 44.714a1.72 1.72 0 0 1 1.714 1.715v6.857A1.72 1.72 0 0 1 35 55a1.72 1.72 0 0 1-1.714-1.714v-6.857A1.72 1.72 0 0 1 35 44.714" opacity=".3"/>
            <path d="M30.143 43.413a1.72 1.72 0 0 1 .627 2.342l-3.428 5.938A1.72 1.72 0 0 1 25 52.32a1.72 1.72 0 0 1-.627-2.341L27.8 44.04a1.72 1.72 0 0 1 2.342-.627" opacity=".35"/>
            <path d="M26.587 39.857a1.72 1.72 0 0 1-.627 2.342l-5.939 3.428A1.72 1.72 0 0 1 17.68 45a1.72 1.72 0 0 1 .627-2.342l5.938-3.428a1.72 1.72 0 0 1 2.342.627" opacity=".4"/>
            <path d="M25.286 35a1.72 1.72 0 0 1-1.715 1.714h-6.857A1.72 1.72 0 0 1 15 35a1.72 1.72 0 0 1 1.714-1.714h6.857A1.72 1.72 0 0 1 25.286 35" opacity=".45"/>
            <path d="M26.587 30.143a1.72 1.72 0 0 1-2.342.627l-5.938-3.428A1.72 1.72 0 0 1 17.68 25a1.72 1.72 0 0 1 2.341-.627L25.96 27.8a1.72 1.72 0 0 1 .627 2.342" opacity=".5"/>
            <path d="M30.143 26.587a1.72 1.72 0 0 1-2.342-.627l-3.428-5.939A1.72 1.72 0 0 1 25 17.68a1.72 1.72 0 0 1 2.342.627l3.428 5.938a1.72 1.72 0 0 1-.627 2.342" opacity=".55"/>
        </g>
    </g>
</svg>
