<svg xmlns="http://www.w3.org/2000/svg" width="29" height="28" viewBox="0 0 29 28">
    <g fill="none" fill-rule="evenodd">
        <path fill="#E1E1E1" fill-rule="nonzero" d="M25.113 13.582c0 5.813-4.83 10.538-10.806 10.538C8.33 24.12 3.5 19.395 3.5 13.582c0-5.813 4.83-10.538 10.806-10.538 5.976 0 10.807 4.725 10.807 10.538h3c0-7.485-6.188-13.538-13.806-13.538C6.688.044.5 6.097.5 13.582S6.688 27.12 14.306 27.12c7.619 0 13.807-6.053 13.807-13.538h-3z"/>
        <path fill="#FFF" d="M7.838 23.636h12.938a12.168 12.168 0 0 0 2.289-1.829H5.548a12.172 12.172 0 0 0 2.29 1.829M2.49 16.324h23.633c.143-.593.24-1.204.29-1.828H2.2c.05.624.146 1.235.29 1.828M4.075 19.98h20.463c.378-.577.708-1.189.982-1.828H3.094c.273.64.603 1.25.981 1.828M20.777 3.53H7.837a12.102 12.102 0 0 0-2.29 1.828h17.519a12.098 12.098 0 0 0-2.289-1.827"/>
        <path fill="#DC241F" d="M3.094 18.152H25.52c.25-.587.45-1.198.602-1.828H2.491c.152.63.353 1.241.603 1.828M5.548 21.807h17.517a11.858 11.858 0 0 0 1.473-1.827H4.075c.43.656.924 1.269 1.473 1.827M14.307 25.463c2.378 0 4.595-.671 6.469-1.827H7.838a12.284 12.284 0 0 0 6.469 1.827M2.49 10.842h23.633c-.153-.63-.353-1.241-.603-1.828H3.093c-.25.587-.45 1.198-.603 1.828M2.162 13.582c0 .308.015.611.04.914h24.21c.024-.303.04-.606.04-.914 0-.308-.016-.612-.04-.913H2.202c-.025.3-.04.605-.04.913M5.548 5.358c-.55.56-1.043 1.171-1.473 1.827H24.54a11.929 11.929 0 0 0-1.474-1.827H5.548zM14.307 1.702c-2.38 0-4.597.67-6.47 1.828h12.94a12.269 12.269 0 0 0-6.47-1.828"/>
        <path fill="#FFF" d="M2.201 12.669h24.211a11.643 11.643 0 0 0-.289-1.827H2.49c-.143.593-.24 1.203-.289 1.827M3.093 9.014H25.52a11.8 11.8 0 0 0-.981-1.829H4.075a11.76 11.76 0 0 0-.982 1.829"/>
        <path fill="#0035AD" d="M14.298 1.702C7.595 1.706 2.162 7.022 2.162 13.58c0 .315.015.623.04.93h12.096V1.702z"/>
        <path fill="#FFD100" d="M8.464 11.818c-1.51 0-2.735-1.199-2.735-2.677 0-1.476 1.225-2.675 2.735-2.675.444 0 .861.106 1.231.288a3.125 3.125 0 0 0-1.902-.642c-1.71 0-3.097 1.357-3.097 3.029 0 1.674 1.387 3.03 3.097 3.03.717 0 1.377-.24 1.901-.642-.37.184-.786.289-1.23.289"/>
        <path fill="#FFD100" d="M10.907 6.601l.221 1.595.907-1.343-.51 1.53 1.414-.826L11.8 8.72l1.638-.144-1.54.565 1.54.566-1.638-.143 1.138 1.162-1.414-.826.51 1.531-.907-1.343-.22 1.595-.22-1.595-.908 1.343.509-1.53-1.412.825 1.136-1.162-1.638.143 1.54-.566-1.54-.565 1.638.144-1.136-1.163 1.412.826-.509-1.53.907 1.343z"/>
    </g>
</svg>
