<svg xmlns="http://www.w3.org/2000/svg" width="29" height="28" viewBox="0 0 29 28">
    <g fill="none" fill-rule="evenodd">
        <path fill="#E0E0E0" fill-rule="nonzero" d="M25.113 13.583c0 5.813-4.83 10.539-10.806 10.539C8.33 24.122 3.5 19.396 3.5 13.583s4.83-10.54 10.807-10.54c5.976 0 10.806 4.727 10.806 10.54h3c0-7.485-6.188-13.54-13.806-13.54C6.689.044.5 6.099.5 13.584c0 7.485 6.189 13.539 13.807 13.539s13.806-6.054 13.806-13.539h-3z"/>
        <path fill="#FFF" d="M14.307 25.462c6.707 0 12.144-5.319 12.144-11.88H2.161c0 6.561 5.439 11.88 12.146 11.88"/>
        <path fill="#F42A41" d="M14.307 1.702C7.6 1.702 2.162 7.02 2.162 13.582h24.29c0-6.562-5.438-11.88-12.145-11.88"/>
        <path fill="#FFF" d="M6.907 8.701c0-1.454.876-2.701 2.138-3.276a3.539 3.539 0 0 0-.77-.087c-1.899 0-3.439 1.506-3.439 3.363 0 1.858 1.54 3.363 3.438 3.363.266 0 .522-.033.771-.089-1.262-.576-2.138-1.823-2.138-3.274M10.65 5.98l.198.604h.649l-.524.371.2.601-.522-.371-.526.371.2-.6-.524-.372h.648zM12.56 7.38l.2.602h.647l-.524.372.202.601-.524-.371-.524.371.2-.601-.523-.372h.647z"/>
        <path fill="#FFF" d="M8.705 7.38l.2.602h.646l-.523.372.2.601-.523-.371-.524.371.2-.601-.524-.372h.648zM11.828 9.607l.2.601h.65l-.525.373.2.603-.525-.373-.522.373.2-.603-.524-.373h.647zM9.452 9.607l.2.601h.648l-.524.373.2.603-.524-.373-.523.373.2-.603-.525-.373h.648z"/>
    </g>
</svg>
