<svg xmlns="http://www.w3.org/2000/svg" width="29" height="28" viewBox="0 0 29 28">
    <g fill="none" fill-rule="evenodd">
        <path fill="#E0E0E0" fill-rule="nonzero" d="M25.113 13.583c0 5.813-4.83 10.538-10.806 10.538C8.33 24.121 3.5 19.396 3.5 13.583c0-5.814 4.83-10.54 10.806-10.54 5.977 0 10.807 4.726 10.807 10.54h3c0-7.486-6.188-13.54-13.806-13.54C6.688.043.5 6.097.5 13.583c0 7.485 6.189 13.538 13.806 13.538 7.619 0 13.807-6.053 13.807-13.538h-3z"/>
        <path fill="#FFF" d="M14.307 25.462c6.707 0 12.145-5.32 12.145-11.88H2.162c0 6.56 5.438 11.88 12.145 11.88"/>
        <path fill="#CE1126" d="M14.307 1.701C7.6 1.701 2.162 7.02 2.162 13.581h24.29c0-6.561-5.438-11.88-12.145-11.88"/>
    </g>
</svg>
