<svg width="173" height="180" viewBox="0 0 173 180" fill="none" xmlns="http://www.w3.org/2000/svg">
<path fill-rule="evenodd" clip-rule="evenodd" d="M54.5125 62.5018C57.1223 36.3098 78.8436 15.8011 105.181 15.8011C131.52 15.8011 153.24 36.3098 155.85 62.5018H171.387C168.728 27.5858 140.061 0 105.181 0C70.3012 0 41.6349 27.5858 38.9751 62.5018H54.5125Z" fill="#5A88F4"/>
<path fill-rule="evenodd" clip-rule="evenodd" d="M168.045 174.327H42.3182C39.8512 174.327 37.833 172.267 37.833 169.75V65.213C37.833 62.6958 39.8512 60.6353 42.3182 60.6353H168.045C170.512 60.6353 172.53 62.6958 172.53 65.213V169.75C172.53 172.267 170.512 174.327 168.045 174.327Z" fill="#5A88F4"/>
<path fill-rule="evenodd" clip-rule="evenodd" d="M172.53 71.8394V62.9238C172.53 61.6652 170.512 60.6353 168.045 60.6353H42.3182C39.8512 60.6353 37.833 61.6652 37.833 62.9238V71.8394H172.53Z" fill="#2648AF"/>
<path fill-rule="evenodd" clip-rule="evenodd" d="M37.833 163.889V172.805C37.833 174.063 39.8512 175.093 42.3182 175.093H168.045C170.512 175.093 172.53 174.063 172.53 172.805V163.889H37.833Z" fill="#2648AF"/>
<path fill-rule="evenodd" clip-rule="evenodd" d="M119.688 109.369C119.688 101.988 113.826 96.0054 106.594 96.0054C99.3632 96.0054 93.5007 101.988 93.5007 109.369C93.5007 114.134 95.9514 118.306 99.6294 120.672V139.532C99.6294 143.442 102.765 146.642 106.597 146.642C110.429 146.642 113.564 143.442 113.564 139.532V120.669C117.239 118.302 119.688 114.133 119.688 109.369Z" fill="#FFFFFE"/>
<path fill-rule="evenodd" clip-rule="evenodd" d="M4.93367 55.8366L2.56738 60.5873L7.53699 59.4295L24.5406 53.9609L4.93367 55.8366Z" fill="#A0D2BB"/>
<path fill-rule="evenodd" clip-rule="evenodd" d="M2.56738 60.5872L11.0111 60.0517L8.94156 58.978L2.56738 60.5872Z" fill="#5BBDB7"/>
<mask id="mask0" mask-type="alpha" maskUnits="userSpaceOnUse" x="4" y="63" width="3" height="3">
<path d="M4.43099 65.3674C4.38683 65.3449 4.34592 65.313 4.31151 65.2726C4.16735 65.1036 4.18488 64.8478 4.35047 64.7006C4.87256 64.2367 5.43491 63.8231 6.02129 63.4719C6.2109 63.3572 6.45377 63.4215 6.56481 63.6157C6.67585 63.8086 6.61286 64.0571 6.4239 64.1704C5.87908 64.4965 5.35699 64.8809 4.87126 65.3124C4.74593 65.4237 4.57125 65.4403 4.43099 65.3674Z" fill="white"/>
</mask>
<g mask="url(#mask0)">
<path fill-rule="evenodd" clip-rule="evenodd" d="M4.43099 65.3674C4.38683 65.3449 4.34592 65.313 4.31151 65.2726C4.16735 65.1036 4.18488 64.8478 4.35047 64.7006C4.87256 64.2367 5.43491 63.8231 6.02129 63.4719C6.2109 63.3572 6.45377 63.4215 6.56481 63.6157C6.67585 63.8086 6.61286 64.0571 6.4239 64.1704C5.87908 64.4965 5.35699 64.8809 4.87126 65.3124C4.74593 65.4237 4.57125 65.4403 4.43099 65.3674Z" fill="url(#paint0_linear)"/>
</g>
<mask id="mask1" mask-type="alpha" maskUnits="userSpaceOnUse" x="0" y="66" width="23" height="44">
<path d="M14.502 76.0819C14.4247 76.0414 14.3604 75.9765 14.3221 75.8903C14.2299 75.6869 14.3169 75.4463 14.5156 75.3522C15.8079 74.7444 17.3332 74.5979 18.7008 74.9505C18.9125 75.0069 19.0424 75.2262 18.9885 75.4436C18.9352 75.6603 18.719 75.7916 18.506 75.7366C17.3293 75.433 15.9624 75.5642 14.8488 76.0885C14.7338 76.1428 14.6065 76.1356 14.502 76.0819ZM21.4041 80.6861C21.2424 80.6026 21.1535 80.4137 21.1989 80.2268C21.4366 79.2572 21.3496 78.3625 20.9418 77.5685C20.797 77.2888 20.6145 77.031 20.3969 76.8036C20.2443 76.6426 20.2476 76.3861 20.4047 76.2303C20.5619 76.0739 20.8145 76.0772 20.9664 76.2383C21.2366 76.5219 21.4645 76.8421 21.6444 77.1907C22.1398 78.1537 22.2522 79.2711 21.9697 80.4237C21.9165 80.6404 21.7009 80.7729 21.4879 80.7186C21.4587 80.7106 21.4301 80.7 21.4041 80.6861ZM0.929585 70.7724C0.756204 70.6823 0.669189 70.4735 0.734126 70.28C0.938027 69.6736 1.18544 69.0777 1.46791 68.5104C1.81078 67.8224 2.21078 67.1663 2.6582 66.5605C2.78937 66.3816 3.03808 66.3445 3.21406 66.481C3.38939 66.6149 3.42445 66.8694 3.29263 67.0483C2.87379 67.6163 2.49781 68.232 2.17637 68.8776C1.91013 69.4118 1.6783 69.9718 1.48609 70.5431C1.41466 70.7545 1.18868 70.8672 0.980885 70.795C0.962703 70.7883 0.945819 70.781 0.929585 70.7724ZM9.99474 80.6252C9.98305 80.6185 9.97072 80.6119 9.95903 80.6046C9.77461 80.4833 9.72201 80.2321 9.84019 80.0439C10.7331 78.6302 11.5558 77.597 12.4299 76.7917C12.5929 76.6426 12.8435 76.6558 12.9909 76.8215C13.1377 76.9872 13.1247 77.2437 12.9617 77.3935C12.1415 78.1497 11.3623 79.1313 10.5084 80.4833C10.3967 80.6596 10.174 80.7186 9.99474 80.6252ZM17.3326 85.5051C17.2612 85.468 17.1995 85.4077 17.1599 85.3288C17.0599 85.1293 17.1371 84.8854 17.3319 84.7834C17.6293 84.6276 17.919 84.4566 18.1943 84.2737C18.9748 83.7561 19.6781 83.0708 20.2268 82.2914C20.3547 82.1098 20.6041 82.0687 20.7814 82.1986C20.9593 82.3298 20.9996 82.583 20.8716 82.7646C20.2658 83.6248 19.4898 84.3817 18.6268 84.9537C18.33 85.1512 18.0157 85.3368 17.6943 85.5051C17.5761 85.5661 17.4423 85.5621 17.3326 85.5051ZM0.397754 77.2344C0.290608 77.1788 0.208788 77.0734 0.18671 76.9428C-0.0483612 75.5755 -0.0613485 74.1605 0.147098 72.7355C0.179566 72.5142 0.38152 72.3611 0.598408 72.3942C0.815946 72.4267 0.9653 72.6341 0.932832 72.8548C0.736723 74.1936 0.749061 75.5218 0.968547 76.803C1.00621 77.023 0.862051 77.2338 0.646461 77.2715C0.558147 77.2874 0.471781 77.2729 0.397754 77.2344ZM11.1032 86.6849C10.9636 86.6119 10.8733 86.4582 10.8876 86.2885C10.9058 86.0658 11.098 85.9001 11.3169 85.9187C12.6409 86.034 13.9364 85.9319 15.1676 85.6132C15.3793 85.5575 15.5962 85.6887 15.6501 85.9068C15.704 86.1235 15.5754 86.3442 15.3624 86.3992C14.0455 86.7399 12.6617 86.8499 11.2493 86.7266C11.1967 86.722 11.1474 86.7074 11.1032 86.6849ZM3.25107 82.9912C3.21341 82.9714 3.17769 82.9455 3.14717 82.913C2.54196 82.2781 2.01598 81.5802 1.58415 80.8386C1.31466 80.376 1.07569 79.8862 0.873739 79.3831C0.789971 79.1757 0.887376 78.9391 1.08998 78.8542C1.29388 78.7687 1.52505 78.8688 1.60817 79.0756C1.79649 79.5422 2.01792 79.9962 2.26728 80.425C2.66664 81.1116 3.15431 81.7585 3.71602 82.3477C3.86927 82.5081 3.86537 82.7646 3.70822 82.9203C3.58355 83.0449 3.39848 83.0675 3.25107 82.9912ZM6.84077 86.3289C6.64726 86.2289 6.56868 85.9883 6.66479 85.7888C6.70765 85.7 6.75051 85.6112 6.79401 85.5224C6.1901 85.2367 5.60697 84.9047 5.06021 84.5322C4.87838 84.4082 4.82903 84.1564 4.95046 83.9701C5.07254 83.7846 5.31865 83.7309 5.50177 83.8581C6.02192 84.2127 6.57842 84.5295 7.15571 84.7999C7.5817 83.9642 8.05119 83.0966 8.58367 82.1615C8.69406 81.9679 8.93952 81.9036 9.12654 82.015C9.31615 82.127 9.38044 82.3755 9.2707 82.5691C8.75705 83.4704 8.30314 84.3088 7.89015 85.1148C8.26093 85.2606 8.63951 85.3878 9.02329 85.4965C9.23823 85.5595 9.35901 85.7802 9.29992 85.9956C9.24083 86.2116 9.02199 86.3376 8.8103 86.2779C8.37522 86.1546 7.94599 86.0082 7.5265 85.8411C7.4765 85.9425 7.4265 86.0446 7.3778 86.1467C7.28039 86.3475 7.04272 86.4303 6.84596 86.3316C6.84402 86.3303 6.84272 86.3296 6.84077 86.3289ZM4.53422 92.4337C4.37123 92.3489 4.28226 92.1567 4.33097 91.9684C4.65695 90.7118 5.10241 89.3916 5.65567 88.0462C5.74009 87.8401 5.97322 87.7426 6.17517 87.8295C6.37063 87.909 6.47323 88.1529 6.38751 88.3597C5.84919 89.6706 5.41541 90.9551 5.09852 92.1772C5.04267 92.3926 4.82513 92.5219 4.61279 92.4642C4.58552 92.4562 4.55889 92.4463 4.53422 92.4337ZM3.85433 98.9182C3.73355 98.8559 3.64783 98.7333 3.63744 98.5862L3.62575 98.39C3.55822 97.1009 3.6264 95.7635 3.82836 94.4141C3.86147 94.1927 4.06473 94.0396 4.28097 94.0741C4.49785 94.1059 4.64721 94.3147 4.61344 94.5354C4.41993 95.8311 4.35434 97.1135 4.41863 98.3456L4.42967 98.5285C4.44526 98.7519 4.28032 98.9454 4.06148 98.9613C3.98745 98.9666 3.91602 98.9507 3.85433 98.9182ZM5.70827 105.135C5.64074 105.101 5.58295 105.046 5.54333 104.974C4.86345 103.752 4.3511 102.442 4.02122 101.078C3.96862 100.861 4.09914 100.641 4.31214 100.587C4.52448 100.534 4.74007 100.667 4.79267 100.883C5.10501 102.176 5.58944 103.418 6.23361 104.574C6.34206 104.769 6.27517 105.016 6.08426 105.126C5.96412 105.196 5.82256 105.195 5.70827 105.135ZM10.0896 109.827C10.0811 109.823 10.074 109.819 10.0668 109.815C8.91744 109.122 7.86742 108.194 6.94467 107.056C6.8057 106.883 6.82908 106.628 6.99792 106.485C7.1674 106.342 7.41741 106.369 7.55767 106.539C8.42068 107.604 9.40057 108.472 10.4707 109.116C10.659 109.23 10.722 109.479 10.611 109.672C10.5038 109.857 10.2746 109.924 10.0896 109.827Z" fill="white"/>
</mask>
<g mask="url(#mask1)">
<path fill-rule="evenodd" clip-rule="evenodd" d="M14.502 76.0819C14.4247 76.0414 14.3604 75.9765 14.3221 75.8903C14.2299 75.6869 14.3169 75.4463 14.5156 75.3522C15.8079 74.7444 17.3332 74.5979 18.7008 74.9505C18.9125 75.0069 19.0424 75.2262 18.9885 75.4436C18.9352 75.6603 18.719 75.7916 18.506 75.7366C17.3293 75.433 15.9624 75.5642 14.8488 76.0885C14.7338 76.1428 14.6065 76.1356 14.502 76.0819ZM21.4041 80.6861C21.2424 80.6026 21.1535 80.4137 21.1989 80.2268C21.4366 79.2572 21.3496 78.3625 20.9418 77.5685C20.797 77.2888 20.6145 77.031 20.3969 76.8036C20.2443 76.6426 20.2476 76.3861 20.4047 76.2303C20.5619 76.0739 20.8145 76.0772 20.9664 76.2383C21.2366 76.5219 21.4645 76.8421 21.6444 77.1907C22.1398 78.1537 22.2522 79.2711 21.9697 80.4237C21.9165 80.6404 21.7009 80.7729 21.4879 80.7186C21.4587 80.7106 21.4301 80.7 21.4041 80.6861ZM0.929585 70.7724C0.756204 70.6823 0.669189 70.4735 0.734126 70.28C0.938027 69.6736 1.18544 69.0777 1.46791 68.5104C1.81078 67.8224 2.21078 67.1663 2.6582 66.5605C2.78937 66.3816 3.03808 66.3445 3.21406 66.481C3.38939 66.6149 3.42445 66.8694 3.29263 67.0483C2.87379 67.6163 2.49781 68.232 2.17637 68.8776C1.91013 69.4118 1.6783 69.9718 1.48609 70.5431C1.41466 70.7545 1.18868 70.8672 0.980885 70.795C0.962703 70.7883 0.945819 70.781 0.929585 70.7724ZM9.99474 80.6252C9.98305 80.6185 9.97072 80.6119 9.95903 80.6046C9.77461 80.4833 9.72201 80.2321 9.84019 80.0439C10.7331 78.6302 11.5558 77.597 12.4299 76.7917C12.5929 76.6426 12.8435 76.6558 12.9909 76.8215C13.1377 76.9872 13.1247 77.2437 12.9617 77.3935C12.1415 78.1497 11.3623 79.1313 10.5084 80.4833C10.3967 80.6596 10.174 80.7186 9.99474 80.6252ZM17.3326 85.5051C17.2612 85.468 17.1995 85.4077 17.1599 85.3288C17.0599 85.1293 17.1371 84.8854 17.3319 84.7834C17.6293 84.6276 17.919 84.4566 18.1943 84.2737C18.9748 83.7561 19.6781 83.0708 20.2268 82.2914C20.3547 82.1098 20.6041 82.0687 20.7814 82.1986C20.9593 82.3298 20.9996 82.583 20.8716 82.7646C20.2658 83.6248 19.4898 84.3817 18.6268 84.9537C18.33 85.1512 18.0157 85.3368 17.6943 85.5051C17.5761 85.5661 17.4423 85.5621 17.3326 85.5051ZM0.397754 77.2344C0.290608 77.1788 0.208788 77.0734 0.18671 76.9428C-0.0483612 75.5755 -0.0613485 74.1605 0.147098 72.7355C0.179566 72.5142 0.38152 72.3611 0.598408 72.3942C0.815946 72.4267 0.9653 72.6341 0.932832 72.8548C0.736723 74.1936 0.749061 75.5218 0.968547 76.803C1.00621 77.023 0.862051 77.2338 0.646461 77.2715C0.558147 77.2874 0.471781 77.2729 0.397754 77.2344ZM11.1032 86.6849C10.9636 86.6119 10.8733 86.4582 10.8876 86.2885C10.9058 86.0658 11.098 85.9001 11.3169 85.9187C12.6409 86.034 13.9364 85.9319 15.1676 85.6132C15.3793 85.5575 15.5962 85.6887 15.6501 85.9068C15.704 86.1235 15.5754 86.3442 15.3624 86.3992C14.0455 86.7399 12.6617 86.8499 11.2493 86.7266C11.1967 86.722 11.1474 86.7074 11.1032 86.6849ZM3.25107 82.9912C3.21341 82.9714 3.17769 82.9455 3.14717 82.913C2.54196 82.2781 2.01598 81.5802 1.58415 80.8386C1.31466 80.376 1.07569 79.8862 0.873739 79.3831C0.789971 79.1757 0.887376 78.9391 1.08998 78.8542C1.29388 78.7687 1.52505 78.8688 1.60817 79.0756C1.79649 79.5422 2.01792 79.9962 2.26728 80.425C2.66664 81.1116 3.15431 81.7585 3.71602 82.3477C3.86927 82.5081 3.86537 82.7646 3.70822 82.9203C3.58355 83.0449 3.39848 83.0675 3.25107 82.9912ZM6.84077 86.3289C6.64726 86.2289 6.56868 85.9883 6.66479 85.7888C6.70765 85.7 6.75051 85.6112 6.79401 85.5224C6.1901 85.2367 5.60697 84.9047 5.06021 84.5322C4.87838 84.4082 4.82903 84.1564 4.95046 83.9701C5.07254 83.7846 5.31865 83.7309 5.50177 83.8581C6.02192 84.2127 6.57842 84.5295 7.15571 84.7999C7.5817 83.9642 8.05119 83.0966 8.58367 82.1615C8.69406 81.9679 8.93952 81.9036 9.12654 82.015C9.31615 82.127 9.38044 82.3755 9.2707 82.5691C8.75705 83.4704 8.30314 84.3088 7.89015 85.1148C8.26093 85.2606 8.63951 85.3878 9.02329 85.4965C9.23823 85.5595 9.35901 85.7802 9.29992 85.9956C9.24083 86.2116 9.02199 86.3376 8.8103 86.2779C8.37522 86.1546 7.94599 86.0082 7.5265 85.8411C7.4765 85.9425 7.4265 86.0446 7.3778 86.1467C7.28039 86.3475 7.04272 86.4303 6.84596 86.3316C6.84402 86.3303 6.84272 86.3296 6.84077 86.3289ZM4.53422 92.4337C4.37123 92.3489 4.28226 92.1567 4.33097 91.9684C4.65695 90.7118 5.10241 89.3916 5.65567 88.0462C5.74009 87.8401 5.97322 87.7426 6.17517 87.8295C6.37063 87.909 6.47323 88.1529 6.38751 88.3597C5.84919 89.6706 5.41541 90.9551 5.09852 92.1772C5.04267 92.3926 4.82513 92.5219 4.61279 92.4642C4.58552 92.4562 4.55889 92.4463 4.53422 92.4337ZM3.85433 98.9182C3.73355 98.8559 3.64783 98.7333 3.63744 98.5862L3.62575 98.39C3.55822 97.1009 3.6264 95.7635 3.82836 94.4141C3.86147 94.1927 4.06473 94.0396 4.28097 94.0741C4.49785 94.1059 4.64721 94.3147 4.61344 94.5354C4.41993 95.8311 4.35434 97.1135 4.41863 98.3456L4.42967 98.5285C4.44526 98.7519 4.28032 98.9454 4.06148 98.9613C3.98745 98.9666 3.91602 98.9507 3.85433 98.9182ZM5.70827 105.135C5.64074 105.101 5.58295 105.046 5.54333 104.974C4.86345 103.752 4.3511 102.442 4.02122 101.078C3.96862 100.861 4.09914 100.641 4.31214 100.587C4.52448 100.534 4.74007 100.667 4.79267 100.883C5.10501 102.176 5.58944 103.418 6.23361 104.574C6.34206 104.769 6.27517 105.016 6.08426 105.126C5.96412 105.196 5.82256 105.195 5.70827 105.135ZM10.0896 109.827C10.0811 109.823 10.074 109.819 10.0668 109.815C8.91744 109.122 7.86742 108.194 6.94467 107.056C6.8057 106.883 6.82908 106.628 6.99792 106.485C7.1674 106.342 7.41741 106.369 7.55767 106.539C8.42068 107.604 9.40057 108.472 10.4707 109.116C10.659 109.23 10.722 109.479 10.611 109.672C10.5038 109.857 10.2746 109.924 10.0896 109.827Z" fill="url(#paint1_linear)"/>
</g>
<mask id="mask2" mask-type="alpha" maskUnits="userSpaceOnUse" x="12" y="110" width="3" height="2">
<path d="M12.3299 110.818C12.1637 110.732 12.0754 110.535 12.128 110.346C12.189 110.13 12.4078 110.006 12.6195 110.067C13.2286 110.244 13.8566 110.352 14.4865 110.388C14.7053 110.399 14.8735 110.592 14.8611 110.814C14.8488 111.038 14.6618 111.209 14.4429 111.197C13.7546 111.158 13.0676 111.041 12.4013 110.847C12.376 110.839 12.3526 110.83 12.3299 110.818Z" fill="white"/>
</mask>
<g mask="url(#mask2)">
<path fill-rule="evenodd" clip-rule="evenodd" d="M12.3299 110.818C12.1637 110.732 12.0754 110.535 12.128 110.346C12.189 110.13 12.4078 110.006 12.6195 110.067C13.2286 110.244 13.8566 110.352 14.4865 110.388C14.7053 110.399 14.8735 110.592 14.8611 110.814C14.8488 111.038 14.6618 111.209 14.4429 111.197C13.7546 111.158 13.0676 111.041 12.4013 110.847C12.376 110.839 12.3526 110.83 12.3299 110.818Z" fill="url(#paint2_linear)"/>
</g>
<path fill-rule="evenodd" clip-rule="evenodd" d="M20.4395 179.24L50.1623 84.9312H48.4694L18.7466 179.24H20.4395Z" fill="#F5B742"/>
<path fill-rule="evenodd" clip-rule="evenodd" d="M35.8086 179.24L65.5314 84.9312H63.8385L34.1157 179.24H35.8086Z" fill="#F5B742"/>
<path fill-rule="evenodd" clip-rule="evenodd" d="M40.7695 109.422V110.828L56.6946 110.819L56.9667 109.413L40.7695 109.422Z" fill="#F5B742"/>
<path fill-rule="evenodd" clip-rule="evenodd" d="M44.0618 100.284V101.691L59.9862 101.681L60.2589 100.275L44.0618 100.284Z" fill="#F5B742"/>
<path fill-rule="evenodd" clip-rule="evenodd" d="M46.7837 91.1465V92.5522L62.7088 92.5429L62.9808 91.1372L46.7837 91.1465Z" fill="#F5B742"/>
<path fill-rule="evenodd" clip-rule="evenodd" d="M37.8679 118.678V120.084L53.793 120.075L54.0651 118.669L37.8679 118.678Z" fill="#F5B742"/>
<path fill-rule="evenodd" clip-rule="evenodd" d="M35.1465 127.933V129.339L51.0709 129.33L51.343 127.923L35.1465 127.933Z" fill="#F5B742"/>
<path fill-rule="evenodd" clip-rule="evenodd" d="M32.33 137.549L31.6865 138.956L47.6116 138.946L47.8837 137.54L32.33 137.549Z" fill="#F5B742"/>
<path fill-rule="evenodd" clip-rule="evenodd" d="M29.3447 147.164L28.7012 148.571L44.6262 148.562L44.8983 147.156L29.3447 147.164Z" fill="#F5B742"/>
<path fill-rule="evenodd" clip-rule="evenodd" d="M26.5483 156.566L25.9048 157.973L41.8299 157.963L42.1019 156.558L26.5483 156.566Z" fill="#F5B742"/>
<path fill-rule="evenodd" clip-rule="evenodd" d="M24.2314 166.173L23.5879 167.579L39.513 167.571L39.7857 166.164L24.2314 166.173Z" fill="#F5B742"/>
<path fill-rule="evenodd" clip-rule="evenodd" d="M74.0396 177.478L80.1514 177.47C80.9625 177.557 81.8697 177.792 82.0216 178.51C82.0216 178.51 82.1281 178.986 82.1099 179.461C81.8937 179.72 73.7896 179.426 73.7896 179.426L73.7545 179.396C72.8961 178.341 74.0396 177.478 74.0396 177.478Z" fill="#17324A"/>
<path fill-rule="evenodd" clip-rule="evenodd" d="M82.1104 179.461L73.79 179.426L73.8621 179.756H82.1221L82.1104 179.461Z" fill="#1B2441"/>
<path fill-rule="evenodd" clip-rule="evenodd" d="M76.4589 177.47L77.0089 177.474L76.8375 178.238H76.3037L76.4589 177.47Z" fill="#FFFFFE"/>
<path fill-rule="evenodd" clip-rule="evenodd" d="M77.6396 177.47L78.1896 177.474L78.0182 178.238H77.4844L77.6396 177.47Z" fill="#FFFFFE"/>
<path fill-rule="evenodd" clip-rule="evenodd" d="M73.6204 175.399L74.0398 177.478C74.5301 177.731 75.1678 177.746 75.6782 177.517L75.7711 177.475L76.0652 175.399H73.6204Z" fill="#F0AB85"/>
<path fill-rule="evenodd" clip-rule="evenodd" d="M59.7557 177.478L65.8675 177.47C66.6786 177.557 67.5857 177.792 67.7377 178.51C67.7377 178.51 67.8442 178.986 67.826 179.461C67.6097 179.72 59.5056 179.426 59.5056 179.426L59.4706 179.396C58.6121 178.341 59.7557 177.478 59.7557 177.478Z" fill="#1B2441"/>
<path fill-rule="evenodd" clip-rule="evenodd" d="M67.826 179.461L59.5056 179.426L59.5777 179.756H67.8376L67.826 179.461Z" fill="#1B2441"/>
<path fill-rule="evenodd" clip-rule="evenodd" d="M62.1755 177.47L62.7255 177.474L62.554 178.238H62.0203L62.1755 177.47Z" fill="#FFFFFE"/>
<path fill-rule="evenodd" clip-rule="evenodd" d="M63.3551 177.47L63.9052 177.474L63.7337 178.238H63.2L63.3551 177.47Z" fill="#FFFFFE"/>
<path fill-rule="evenodd" clip-rule="evenodd" d="M60.021 175.399L59.7554 177.478C60.2456 177.731 60.8833 177.746 61.3937 177.517L61.4866 177.475L62.4658 175.399H60.021Z" fill="#F0AB85"/>
<path fill-rule="evenodd" clip-rule="evenodd" d="M69.1416 105.527L64.1084 108.876L65.6617 112.936C65.6838 112.994 65.713 113.047 65.7383 113.102C65.8487 113.095 65.9591 113.088 66.0708 113.088C66.089 113.088 66.1071 113.09 66.1253 113.09C66.1429 113.09 66.1604 113.088 66.1779 113.088C67.5254 113.088 68.6832 113.935 69.3864 115.073C70.2007 115.011 71.0105 114.809 71.7618 114.444C72.2735 114.195 72.7196 113.9 72.8813 113.579C73.4197 110.7 69.1416 105.527 69.1416 105.527Z" fill="#F0AB85"/>
<path fill-rule="evenodd" clip-rule="evenodd" d="M75.543 106.577C75.543 106.577 76.1592 112.54 74.9189 116.337C75.4949 116.846 77.6099 119.161 78.2755 116.161C78.9405 113.163 77.5287 105.527 77.5287 105.527L75.543 106.577Z" fill="#F0AB85"/>
<path fill-rule="evenodd" clip-rule="evenodd" d="M72.5234 106.154L71.3396 106.932L71.7617 107.835L73.0325 107.263L72.5234 106.154Z" fill="#1B2441"/>
<path fill-rule="evenodd" clip-rule="evenodd" d="M71.8261 107.24C71.945 107.515 71.9534 107.779 71.845 107.827C71.7372 107.875 71.5527 107.691 71.4346 107.415C71.3157 107.139 71.3073 106.876 71.4157 106.828C71.5235 106.779 71.7073 106.963 71.8261 107.24Z" fill="#1B2441"/>
<path fill-rule="evenodd" clip-rule="evenodd" d="M86.8122 101.758C86.8129 101.746 86.8154 101.735 86.8161 101.723C86.5934 101.205 86.2005 100.382 85.6713 99.626C84.8154 98.4032 84.5712 97.7915 84.5712 97.7915L72.343 105.96L73.1346 107.485L86.8128 102.326C86.8005 102.135 86.7966 101.945 86.8122 101.758Z" fill="#F9CC58"/>
<path fill-rule="evenodd" clip-rule="evenodd" d="M68.0311 115.075L67.5908 117.879H71.4818L71.7617 114.444L68.0311 115.075Z" fill="#EC967C"/>
<path fill-rule="evenodd" clip-rule="evenodd" d="M78.0794 122.031C78.0794 122.031 82.6756 120.537 84.1159 118.528C85.5562 116.519 83.1185 105.527 83.1185 105.527L83.4334 103.548C83.6107 102.435 82.7743 101.421 81.6684 101.412L80.4405 101.401C79.9294 101.396 79.5853 101.932 79.7924 102.408L81.4074 106.117C81.4074 106.117 82.6197 114.444 80.9223 115.075C78.8976 115.812 76.606 115.989 76.606 115.989L78.0794 122.031Z" fill="#F0AB85"/>
<path fill-rule="evenodd" clip-rule="evenodd" d="M69.4456 115.075L68.2631 112.399L69.0313 111.907C69.5988 111.543 69.8469 110.829 69.6307 110.183L68.7891 107.66C68.7891 107.66 71.1839 107.361 71.1112 105.084C71.1112 103.911 69.5306 103.905 69.5306 103.905C69.5306 103.905 69.0579 104.953 67.591 105.077C66.9618 104.996 65.2331 105.234 64.0669 107.311C63.2824 108.708 63.626 110.897 64.3091 112.539C64.9208 114.011 66.4832 114.833 68.0313 115.075H69.4456Z" fill="#1B2441"/>
<path fill-rule="evenodd" clip-rule="evenodd" d="M64.772 137.556C64.772 137.556 65.0162 143.262 66.2253 149.447C66.5812 151.268 66.4474 153.155 65.8669 154.915C63.1226 163.236 59.2751 175.748 59.2751 175.748H62.6973C62.6973 175.748 70.452 160.961 72.4501 153.625C74.4482 146.289 74.7905 143.96 74.7905 143.96L72.4125 137.556H64.772Z" fill="#005C5A"/>
<path fill-rule="evenodd" clip-rule="evenodd" d="M67.6271 111.153C67.4862 111.575 67.7706 112.133 68.2629 112.399C68.7551 112.666 69.2681 112.54 69.409 112.119C69.5499 111.697 69.2655 111.139 68.7733 110.873C68.281 110.606 67.7674 110.731 67.6271 111.153Z" fill="#F0AB85"/>
<mask id="mask3" mask-type="alpha" maskUnits="userSpaceOnUse" x="64" y="115" width="18" height="23">
<path d="M75.9316 137.556H64.7722V122.944C64.7722 119.743 67.1593 117.068 70.2821 116.771L78.0427 115.812C78.0427 115.812 78.955 117.237 81.4973 120.55C78.4414 122.477 74.9049 123.365 74.9049 123.365L75.9316 137.556Z" fill="white"/>
</mask>
<g mask="url(#mask3)">
<path fill-rule="evenodd" clip-rule="evenodd" d="M75.9316 137.556H64.7722V122.944C64.7722 119.743 67.1593 117.068 70.2821 116.771L78.0427 115.812C78.0427 115.812 78.955 117.237 81.4973 120.55C78.4414 122.477 74.9049 123.365 74.9049 123.365L75.9316 137.556Z" fill="url(#paint3_linear)"/>
</g>
<path fill-rule="evenodd" clip-rule="evenodd" d="M64.7722 137.556C64.7722 137.556 66.3482 143.379 72.164 149.904C73.1348 150.889 74.5335 152.939 74.3348 155.837L73.1348 175.748H76.6063C76.6063 175.748 80.8375 159.214 79.9245 151.063C79.0122 142.912 75.9316 137.556 75.9316 137.556H64.7722Z" fill="#21837F"/>
<path fill-rule="evenodd" clip-rule="evenodd" d="M84.9387 100.403C85.5394 101.674 86.353 102.543 86.7576 102.343C87.1621 102.145 87.003 100.953 86.403 99.683C85.803 98.4118 84.9887 97.5429 84.5842 97.7417C84.1796 97.9412 84.3387 99.1322 84.9387 100.403Z" fill="#EE9E35"/>
<path fill-rule="evenodd" clip-rule="evenodd" d="M75.0608 104.144L75.164 104.194C75.5283 104.373 75.9459 104.4 76.329 104.269L76.3978 104.246C77.0277 104.031 77.5193 103.523 77.7212 102.877C77.8102 102.59 77.5634 102.311 77.2745 102.372L76.5017 102.537C76.2004 102.602 75.9368 102.785 75.7679 103.048L75.0608 104.144Z" fill="#F0AB85"/>
<path fill-rule="evenodd" clip-rule="evenodd" d="M13.5194 115.601L17.0513 122.391L13.1596 122.199L12.8862 115.381L13.5194 115.601Z" fill="#F0AB85"/>
<path fill-rule="evenodd" clip-rule="evenodd" d="M7.97298 112.592L11.2354 112.587L12.5874 134.11H6.74048L7.97298 112.592Z" fill="#FFFFFE"/>
<path fill-rule="evenodd" clip-rule="evenodd" d="M1.98325 175.773C1.98325 175.773 1.17673 176.42 1.32479 177.245C1.47219 178.069 1.68194 180 1.68194 180H2.51053L2.48521 178.199C2.48781 178.081 4.26317 180 4.56383 180H8.9516C8.9516 180 9.24251 178.785 6.66648 178.396C4.09044 178.004 1.98325 175.773 1.98325 175.773Z" fill="#13374D"/>
<path fill-rule="evenodd" clip-rule="evenodd" d="M3.88473 174.951L4.47955 176.531C4.62566 176.965 4.91073 177.334 5.28931 177.581C5.70816 177.854 6.36337 178.236 7.33807 178.53C6.14583 179.569 4.24838 178.484 3.16329 177.717C2.63405 177.343 2.26002 176.785 2.10222 176.149L1.85352 174.951H3.88473Z" fill="#F0AB85"/>
<path fill-rule="evenodd" clip-rule="evenodd" d="M10.3405 175.773C10.3405 175.773 9.53467 176.42 9.68207 177.245C9.83013 178.069 10.0392 180 10.0392 180H10.8685L10.8431 178.199C10.8451 178.081 12.6211 180 12.9218 180H17.3089C17.3089 180 17.6004 178.785 15.0244 178.396C12.4477 178.004 10.3405 175.773 10.3405 175.773Z" fill="#13374D"/>
<path fill-rule="evenodd" clip-rule="evenodd" d="M12.2429 174.951L12.8377 176.531C12.9838 176.965 13.2689 177.334 13.6475 177.581C14.0657 177.854 14.7209 178.236 15.6956 178.53C14.5033 179.569 12.6065 178.484 11.5208 177.717C10.9922 177.343 10.6175 176.785 10.4604 176.149L10.2117 174.951H12.2429Z" fill="#F0AB85"/>
<path fill-rule="evenodd" clip-rule="evenodd" d="M5.47072 134.11C5.47072 134.11 4.9233 137.328 8.07468 153.139C5.52331 161.379 9.60913 175.166 9.60913 175.166H12.5878L14.6157 134.11H5.47072Z" fill="#21837F"/>
<path fill-rule="evenodd" clip-rule="evenodd" d="M10.8777 112.592L11.9355 138.707L15.4414 137.174C15.4414 137.174 13.8615 132.273 14.0122 125.462C13.4758 120.538 16.2135 123.132 12.8596 113.649C11.6102 112.588 10.8777 112.592 10.8777 112.592Z" fill="#17324A"/>
<path fill-rule="evenodd" clip-rule="evenodd" d="M11.3353 109.895L10.9249 112.096C10.7438 113.065 9.66581 113.546 8.84696 113.022L7.40796 112.101L9.9775 106.174L11.3353 109.895Z" fill="#EC967C"/>
<path fill-rule="evenodd" clip-rule="evenodd" d="M2.6046 134.11C2.6046 134.11 -1.2981 137.328 1.85393 153.139C-0.697433 161.379 1.55392 175.166 1.55392 175.166H4.22736L11.749 134.11H2.6046Z" fill="#5BBDB7"/>
<path fill-rule="evenodd" clip-rule="evenodd" d="M7.97301 110.379C7.97301 110.379 4.67877 112.268 3.65537 113.955C2.67937 115.563 2.3417 119.223 2.2482 122.48C2.11897 126.954 0.00268555 138.706 0.00268555 138.706H8.83277L9.05291 113.122L7.97301 110.379Z" fill="#17324A"/>
<path fill-rule="evenodd" clip-rule="evenodd" d="M14.474 103.29C12.4766 102.774 10.5558 104.863 10.5558 104.863L9.05313 113.122L6.74268 109.488C6.74268 109.488 6.61086 104.549 8.84403 101.278C10.4434 99.2981 13.5136 99.8668 15.0656 101.793C15.8202 102.729 15.978 104.023 15.9046 105.213C15.8065 106.811 15.363 115.983 15.363 115.983L10.7876 112.523C10.7876 112.523 10.8973 111.59 11.335 109.894C12.0889 106.976 15.815 103.637 14.474 103.29Z" fill="#1B2441"/>
<path fill-rule="evenodd" clip-rule="evenodd" d="M9.95739 104.737C10.2522 104.614 10.634 104.818 10.81 105.191C10.9853 105.564 10.8886 105.965 10.5931 106.088C10.2983 106.21 9.91648 106.007 9.74115 105.634C9.56517 105.261 9.66192 104.859 9.95739 104.737Z" fill="#F0AB85"/>
<path fill-rule="evenodd" clip-rule="evenodd" d="M12.1008 110.282C12.4722 110.421 12.8359 110.5 13.0774 110.411C14.8145 109.126 15.4418 103.994 15.4418 103.994L14.0664 102.502L11.3267 103.116L9.97736 106.174C9.61696 106.989 9.65852 107.932 10.0897 108.711C10.6008 109.418 11.293 109.978 12.1008 110.282Z" fill="#F0AB85"/>
<path fill-rule="evenodd" clip-rule="evenodd" d="M14.9312 103.184C14.789 104.736 10.5557 104.863 10.5557 104.863L10.335 102.762L12.8032 101.375L14.7565 102.575C14.7565 102.575 14.9533 102.924 14.9312 103.184Z" fill="#1B2441"/>
<path fill-rule="evenodd" clip-rule="evenodd" d="M14.839 103.485C14.6987 104.063 15.2721 105.07 15.2721 105.07L15.6085 104.449L15.5994 103.911L15.2669 103.491C15.2669 103.491 14.9799 102.908 14.839 103.485Z" fill="#1B2441"/>
<path fill-rule="evenodd" clip-rule="evenodd" d="M4.55616 113.955C0.283328 114.465 2.30156 125.714 3.21912 130.334C3.44509 131.47 4.58408 132.164 5.66787 131.815C9.3855 130.619 14.8168 125.649 14.8168 125.649L13.9557 124.543L6.74063 126.261C6.74063 126.261 9.50953 113.365 4.55616 113.955Z" fill="#F0AB85"/>
<path fill-rule="evenodd" clip-rule="evenodd" d="M13.1037 121.9L11.7082 130.715C11.6679 130.97 11.8614 131.201 12.1147 131.201H17.6382C17.8408 131.201 18.0129 131.052 18.0447 130.848L19.4149 122.034C19.4545 121.779 19.2616 121.548 19.0084 121.548H13.5095C13.3076 121.548 13.1362 121.698 13.1037 121.9Z" fill="#21837F"/>
<path fill-rule="evenodd" clip-rule="evenodd" d="M19.2343 125.803C19.2681 125.493 19.2395 125.299 19.1382 124.658C19.0064 123.825 19.0408 122.519 18.207 123.169C17.4187 124.179 17.3272 125.252 17.3272 125.252C17.1668 125.844 17.5213 126.667 17.8531 127.113L18.4265 128.389C18.4265 128.389 19.4168 127.213 19.2343 125.803Z" fill="#F0AB85"/>
<mask id="mask4" mask-type="alpha" maskUnits="userSpaceOnUse" x="15" y="124" width="2" height="2">
<path d="M15.6208 124.972C15.6208 125.21 15.8092 125.403 16.0423 125.403C16.2748 125.403 16.4637 125.21 16.4637 124.972C16.4637 124.735 16.2748 124.543 16.0423 124.543C15.8092 124.543 15.6208 124.735 15.6208 124.972Z" fill="white"/>
</mask>
<g mask="url(#mask4)">
<path fill-rule="evenodd" clip-rule="evenodd" d="M15.6208 124.972C15.6208 125.21 15.8092 125.403 16.0423 125.403C16.2748 125.403 16.4637 125.21 16.4637 124.972C16.4637 124.735 16.2748 124.543 16.0423 124.543C15.8092 124.543 15.6208 124.735 15.6208 124.972Z" fill="url(#paint4_linear)"/>
</g>
<path fill-rule="evenodd" clip-rule="evenodd" d="M110.118 85.605L109.818 87.4382C110.376 87.8325 111.109 87.8577 111.691 87.5025L111.796 87.4382L112.24 85.605H110.118Z" fill="#F0AB85"/>
<path fill-rule="evenodd" clip-rule="evenodd" d="M124.511 43.202C122.916 48.5757 117.562 56.8252 117.562 56.8252L121.791 55.0589L124.779 48.011C124.779 48.011 126.106 37.8282 124.511 43.202Z" fill="#A0D2BB"/>
<path fill-rule="evenodd" clip-rule="evenodd" d="M113.019 64.7803L109.684 85.7682H112.649C112.649 85.7682 119.307 66.8846 120.006 61.3333C120.006 58.1884 113.275 61.3333 113.275 61.3333L113.019 64.7803Z" fill="#1B2441"/>
<path fill-rule="evenodd" clip-rule="evenodd" d="M124.062 34.7203L125.169 37.6431L127.563 35.8741L125.947 32.4277L124.062 34.7203Z" fill="#EC967C"/>
<path fill-rule="evenodd" clip-rule="evenodd" d="M123.16 35.2055C122.789 35.2737 122.435 35.291 122.226 35.1796C120.836 33.8269 121.175 29.3075 121.175 29.3075L122.727 28.2119L125.172 29.1265L125.881 31.9552C126.07 32.7108 125.861 33.5187 125.319 34.1311C124.715 34.6699 123.968 35.0563 123.16 35.2055Z" fill="#F0AB85"/>
<path fill-rule="evenodd" clip-rule="evenodd" d="M124.741 30.0786C124.524 29.6246 124.003 29.4105 123.54 29.5921C123.203 29.7253 122.797 29.8651 122.394 29.9506C121.434 30.1561 119.646 30.1382 119.34 28.6483C119.036 27.1584 120.932 27.2863 120.932 27.2863L123.455 27.4639C124.201 27.5163 124.943 27.3619 125.629 27.057C126.235 26.7872 126.774 27.3612 126.904 27.7449C127.188 28.586 126.892 30.0229 126.642 30.9441C126.5 31.4777 126.262 31.9787 125.947 32.4281L124.741 30.0786Z" fill="#1B2441"/>
<path fill-rule="evenodd" clip-rule="evenodd" d="M126.158 30.7182C125.905 30.571 125.512 30.693 125.281 30.9906C125.05 31.2881 125.068 31.648 125.321 31.7952C125.575 31.9423 125.967 31.8203 126.198 31.5228C126.429 31.2252 126.411 30.8646 126.158 30.7182Z" fill="#F0AB85"/>
<path fill-rule="evenodd" clip-rule="evenodd" d="M109.763 87.2431C109.763 87.2431 109.755 89.1923 105.92 90.3615C105.133 90.602 105.389 90.8393 105.241 91.1767C106.5 91.1767 109.654 91.1767 109.654 91.1767L111.381 89.1943L111.92 89.6656L113.165 88.4162C113.165 88.4162 112.949 86.6082 112 86.5923C111.217 86.8647 109.763 87.2431 109.763 87.2431Z" fill="#1B2441"/>
<path fill-rule="evenodd" clip-rule="evenodd" d="M120.66 85.0335L121.377 86.7209C122.029 86.9105 122.73 86.6931 123.169 86.1649L123.249 86.0701L122.669 84.335L120.66 85.0335Z" fill="#F0AB85"/>
<path fill-rule="evenodd" clip-rule="evenodd" d="M124.643 36.8255C124.643 36.8255 124.338 36.345 127.049 34.9141C131.137 39.0862 132.479 55.0589 132.479 55.0589C132.479 55.0589 122.921 55.0589 121.791 55.0589C121.429 45.9432 124.643 36.8255 124.643 36.8255Z" fill="#005C5A"/>
<path fill-rule="evenodd" clip-rule="evenodd" d="M114.081 54.6265C114.033 54.4204 114.124 54.2063 114.303 54.1003L116.046 53.069C116.476 52.8139 116.985 52.7304 117.472 52.8338L119.362 52.9106L119.609 53.2148L120.002 54.9195C119.623 54.826 119.4 54.7671 119.4 54.7671L118.2 54.8009C118.2 54.8009 115.937 56.9462 114.815 55.0805C114.768 57.0662 114.198 56.9138 114.198 56.9138L114.081 54.6265Z" fill="#F0AB85"/>
<path fill-rule="evenodd" clip-rule="evenodd" d="M132.48 55.0591L132.641 56.4125C132.643 56.431 132.646 56.4489 132.647 56.4668C132.934 59.0509 131.267 61.4455 128.814 62.1474C128.814 62.1474 123.948 63.7917 117.807 64.135C121.838 69.418 122.954 84.2421 122.954 84.2421L120.357 85.2045L110.325 60.8199C109.684 59.2617 110.591 57.4934 112.21 57.1415L121.791 55.0591H132.48Z" fill="#13374D"/>
<path fill-rule="evenodd" clip-rule="evenodd" d="M125.797 42.0433C125.797 42.0433 127.787 43.903 128.959 45.8104C129.284 46.34 129.235 47.026 128.833 47.4985C126.607 50.1151 118.675 52.6283 118.675 52.6283L119.189 55.581C119.189 55.581 130.445 53.3216 134.432 49.2403C138.523 45.0529 127.946 36.3057 127.946 36.3057" fill="#005C5A"/>
<path fill-rule="evenodd" clip-rule="evenodd" d="M128.824 45.8966C129.115 46.3712 129.071 46.9723 128.713 47.3925C127.698 48.5862 124.989 49.8613 122.624 50.7852C122.627 50.9337 122.622 50.9436 122.624 51.1199C125.107 50.1682 127.844 48.9076 128.953 47.6046C129.403 47.0764 129.459 46.3202 129.093 45.7243C127.924 43.8202 125.924 41.9426 125.904 41.9233L125.69 42.1626C125.709 42.1812 127.678 44.0296 128.824 45.8966Z" fill="#21837F"/>
<path fill-rule="evenodd" clip-rule="evenodd" d="M132.085 50.8813C127.762 53.262 121.428 54.968 119.167 55.4505C119.189 55.581 119.209 55.6891 119.233 55.7626C121.41 55.3087 127.685 53.6643 132.129 51.2545C132.123 51.1292 132.104 50.998 132.085 50.8813Z" fill="#21837F"/>
<path fill-rule="evenodd" clip-rule="evenodd" d="M109.877 58.1886L106.545 46.0314L107.156 45.8564L110.333 57.4496L119.898 55.7536L120.007 56.3918L109.877 58.1886Z" fill="#21837F"/>
<path fill-rule="evenodd" clip-rule="evenodd" d="M121.218 86.3473C121.218 86.3473 121.368 88.3124 117.534 89.4816C116.747 89.7222 117.003 89.9594 116.855 90.2968C118.114 90.2968 121.268 90.2968 121.268 90.2968L122.996 88.3138L123.533 88.785L124.779 87.5363C124.779 87.5363 124.198 85.7283 123.249 85.7124C122.466 85.9848 121.218 86.3473 121.218 86.3473Z" fill="#1B2441"/>
<defs>
<linearGradient id="paint0_linear" x1="4.21378" y1="64.413" x2="6.61975" y2="64.413" gradientUnits="userSpaceOnUse">
<stop stop-color="#D4EBDE"/>
<stop offset="1" stop-color="#B0DCDF"/>
</linearGradient>
<linearGradient id="paint1_linear" x1="1.66255e-05" y1="88.1343" x2="22.1216" y2="88.1343" gradientUnits="userSpaceOnUse">
<stop stop-color="#D4EBDE"/>
<stop offset="1" stop-color="#B0DCDF"/>
</linearGradient>
<linearGradient id="paint2_linear" x1="12.1129" y1="110.624" x2="14.8619" y2="110.624" gradientUnits="userSpaceOnUse">
<stop stop-color="#D4EBDE"/>
<stop offset="1" stop-color="#B0DCDF"/>
</linearGradient>
<linearGradient id="paint3_linear" x1="64.7722" y1="126.685" x2="81.4975" y2="126.685" gradientUnits="userSpaceOnUse">
<stop stop-color="#D4EBDE"/>
<stop offset="1" stop-color="#B0DCDF"/>
</linearGradient>
<linearGradient id="paint4_linear" x1="15.6208" y1="124.972" x2="16.4637" y2="124.972" gradientUnits="userSpaceOnUse">
<stop stop-color="#D4EBDE"/>
<stop offset="1" stop-color="#B0DCDF"/>
</linearGradient>
</defs>
</svg>
