<svg width="233" height="193" viewBox="0 0 233 193" fill="none" xmlns="http://www.w3.org/2000/svg">
<path fill-rule="evenodd" clip-rule="evenodd" d="M80.6614 79.252C82.6456 59.7422 99.1592 44.4657 119.182 44.4657C139.206 44.4657 155.719 59.7422 157.703 79.252H169.516C167.494 53.2438 145.7 32.6958 119.182 32.6958C92.6648 32.6958 70.8712 53.2438 68.8491 79.252H80.6614Z" fill="#5A88F4"/>
<path fill-rule="evenodd" clip-rule="evenodd" d="M166.975 162.549H71.3908C69.5153 162.549 67.981 161.014 67.981 159.139V81.2717C67.981 79.3967 69.5153 77.8618 71.3908 77.8618H166.975C168.851 77.8618 170.385 79.3967 170.385 81.2717V159.139C170.385 161.014 168.851 162.549 166.975 162.549Z" fill="#5A88F4"/>
<path fill-rule="evenodd" clip-rule="evenodd" d="M170.385 86.2075V79.5665C170.385 78.629 168.851 77.8618 166.975 77.8618H71.3908C69.5153 77.8618 67.981 78.629 67.981 79.5665V86.2075H170.385Z" fill="#2648AF"/>
<path fill-rule="evenodd" clip-rule="evenodd" d="M67.981 154.773V161.414C67.981 162.351 69.5153 163.119 71.3908 163.119H166.975C168.851 163.119 170.385 162.351 170.385 161.414V154.773H67.981Z" fill="#2648AF"/>
<path fill-rule="evenodd" clip-rule="evenodd" d="M130.211 114.163C130.211 108.665 125.754 104.208 120.256 104.208C114.759 104.208 110.302 108.665 110.302 114.163C110.302 117.712 112.165 120.819 114.962 122.582V136.631C114.962 139.543 117.346 141.926 120.258 141.926C123.172 141.926 125.556 139.543 125.556 136.631V122.58C128.349 120.817 130.211 117.711 130.211 114.163Z" fill="#FFFFFE"/>
<path fill-rule="evenodd" clip-rule="evenodd" d="M42.9689 74.2873L41.1699 77.826L44.9481 76.9635L57.8751 72.8901L42.9689 74.2873Z" fill="#A0D2BB"/>
<path fill-rule="evenodd" clip-rule="evenodd" d="M41.1699 77.8261L47.5893 77.4272L46.0159 76.6274L41.1699 77.8261Z" fill="#5BBDB7"/>
<mask id="mask0" mask-type="alpha" maskUnits="userSpaceOnUse" x="42" y="79" width="3" height="3">
<path d="M42.5869 81.3869C42.5534 81.3701 42.5223 81.3464 42.4961 81.3163C42.3865 81.1904 42.3998 80.9998 42.5257 80.8902C42.9226 80.5447 43.3502 80.2366 43.796 79.9749C43.9401 79.8895 44.1248 79.9374 44.2092 80.0821C44.2936 80.2257 44.2457 80.4109 44.1021 80.4953C43.6879 80.7382 43.2909 81.0245 42.9217 81.3459C42.8264 81.4288 42.6936 81.4412 42.5869 81.3869Z" fill="white"/>
</mask>
<g mask="url(#mask0)">
<path fill-rule="evenodd" clip-rule="evenodd" d="M42.5869 81.3869C42.5534 81.3701 42.5223 81.3464 42.4961 81.3163C42.3865 81.1904 42.3998 80.9998 42.5257 80.8902C42.9226 80.5447 43.3502 80.2366 43.796 79.9749C43.9401 79.8895 44.1248 79.9374 44.2092 80.0821C44.2936 80.2257 44.2457 80.4109 44.1021 80.4953C43.6879 80.7382 43.2909 81.0245 42.9217 81.3459C42.8264 81.4288 42.6936 81.4412 42.5869 81.3869Z" fill="url(#paint0_linear)"/>
</g>
<mask id="mask1" mask-type="alpha" maskUnits="userSpaceOnUse" x="39" y="82" width="18" height="33">
<path d="M50.2434 89.3678C50.1847 89.3376 50.1358 89.2893 50.1067 89.2251C50.0366 89.0735 50.1027 88.8943 50.2538 88.8242C51.2362 88.3715 52.3959 88.2624 53.4356 88.525C53.5965 88.567 53.6952 88.7304 53.6543 88.8923C53.6138 89.0538 53.4494 89.1515 53.2875 89.1105C52.3929 88.8844 51.3537 88.9822 50.5071 89.3727C50.4197 89.4132 50.3229 89.4077 50.2434 89.3678ZM55.4908 92.7974C55.3678 92.7352 55.3002 92.5945 55.3348 92.4552C55.5155 91.733 55.4493 91.0665 55.1393 90.4751C55.0292 90.2668 54.8905 90.0747 54.7251 89.9054C54.6091 89.7854 54.6115 89.5944 54.731 89.4783C54.8505 89.3618 55.0425 89.3643 55.158 89.4843C55.3634 89.6956 55.5367 89.934 55.6734 90.1937C56.0501 90.911 56.1355 91.7434 55.9208 92.6019C55.8803 92.7633 55.7164 92.862 55.5545 92.8216C55.5322 92.8156 55.5105 92.8077 55.4908 92.7974ZM39.925 85.4129C39.7932 85.3457 39.727 85.1902 39.7764 85.0461C39.9314 84.5943 40.1195 84.1505 40.3342 83.7279C40.5949 83.2155 40.899 82.7267 41.2392 82.2755C41.3389 82.1422 41.528 82.1146 41.6618 82.2163C41.795 82.316 41.8217 82.5056 41.7215 82.6389C41.4031 83.062 41.1172 83.5206 40.8728 84.0014C40.6704 84.3993 40.4942 84.8165 40.3481 85.2421C40.2938 85.3995 40.122 85.4835 39.964 85.4297C39.9502 85.4247 39.9373 85.4193 39.925 85.4129ZM46.8168 92.7519C46.8079 92.747 46.7985 92.7421 46.7896 92.7366C46.6494 92.6463 46.6094 92.4592 46.6993 92.319C47.3781 91.266 48.0036 90.4963 48.6681 89.8965C48.792 89.7854 48.9826 89.7953 49.0946 89.9187C49.2062 90.0421 49.1963 90.2332 49.0724 90.3448C48.4489 90.908 47.8565 91.6392 47.2073 92.6463C47.1224 92.7776 46.953 92.8216 46.8168 92.7519ZM52.3954 96.3869C52.3411 96.3593 52.2942 96.3144 52.2641 96.2556C52.188 96.107 52.2468 95.9253 52.3949 95.8493C52.621 95.7333 52.8412 95.6059 53.0505 95.4697C53.6439 95.0841 54.1786 94.5736 54.5957 93.9931C54.693 93.8578 54.8826 93.8272 55.0173 93.9239C55.1526 94.0217 55.1832 94.2103 55.086 94.3456C54.6253 94.9864 54.0354 95.5501 53.3793 95.9762C53.1537 96.1233 52.9147 96.2615 52.6704 96.3869C52.5805 96.4323 52.4788 96.4294 52.3954 96.3869ZM39.5207 90.2263C39.4392 90.1848 39.377 90.1063 39.3602 90.009C39.1815 88.9906 39.1716 87.9366 39.3301 86.8752C39.3548 86.7103 39.5083 86.5962 39.6732 86.6209C39.8386 86.6451 39.9521 86.7996 39.9274 86.964C39.7784 87.9613 39.7877 88.9506 39.9546 89.9049C39.9832 90.0688 39.8736 90.2258 39.7097 90.2539C39.6426 90.2658 39.5769 90.2549 39.5207 90.2263ZM47.6595 97.2657C47.5534 97.2114 47.4847 97.0968 47.4956 96.9705C47.5094 96.8046 47.6555 96.6812 47.8219 96.695C48.8285 96.7809 49.8134 96.7049 50.7494 96.4674C50.9104 96.4259 51.0753 96.5237 51.1163 96.6861C51.1572 96.8475 51.0595 97.0119 50.8976 97.0529C49.8964 97.3067 48.8443 97.3886 47.7706 97.2968C47.7306 97.2933 47.6931 97.2825 47.6595 97.2657ZM41.6899 94.5144C41.6613 94.4996 41.6341 94.4803 41.6109 94.4561C41.1508 93.9832 40.7509 93.4633 40.4226 92.9109C40.2177 92.5663 40.0361 92.2015 39.8825 91.8268C39.8188 91.6723 39.8929 91.496 40.0469 91.4328C40.2019 91.3691 40.3777 91.4437 40.4409 91.5977C40.584 91.9453 40.7524 92.2834 40.942 92.6029C41.2456 93.1143 41.6163 93.5961 42.0434 94.035C42.1599 94.1545 42.1569 94.3455 42.0374 94.4616C41.9427 94.5544 41.802 94.5712 41.6899 94.5144ZM44.419 97.0006C44.2718 96.926 44.2121 96.7468 44.2852 96.5982C44.3178 96.5321 44.3503 96.4659 44.3834 96.3998C43.9243 96.187 43.481 95.9396 43.0653 95.6622C42.9271 95.5699 42.8895 95.3823 42.9819 95.2436C43.0747 95.1053 43.2618 95.0653 43.401 95.1601C43.7964 95.4242 44.2195 95.6602 44.6584 95.8616C44.9823 95.2391 45.3392 94.5929 45.744 93.8963C45.8279 93.7521 46.0145 93.7043 46.1567 93.7872C46.3009 93.8706 46.3498 94.0558 46.2663 94.1999C45.8758 94.8713 45.5307 95.4958 45.2168 96.0961C45.4986 96.2048 45.7865 96.2995 46.0782 96.3805C46.2416 96.4274 46.3335 96.5918 46.2885 96.7522C46.2436 96.9132 46.0772 97.007 45.9163 96.9626C45.5855 96.8707 45.2592 96.7616 44.9403 96.6372C44.9023 96.7128 44.8643 96.7888 44.8272 96.8648C44.7532 97.0144 44.5725 97.0761 44.4229 97.0025C44.4214 97.0016 44.4204 97.0011 44.419 97.0006ZM42.6654 101.548C42.5415 101.485 42.4739 101.342 42.5109 101.201C42.7587 100.265 43.0974 99.2819 43.518 98.2797C43.5822 98.1262 43.7594 98.0536 43.9129 98.1183C44.0615 98.1775 44.1395 98.3592 44.0744 98.5132C43.6651 99.4897 43.3353 100.446 43.0944 101.357C43.052 101.517 42.8866 101.614 42.7251 101.571C42.7044 101.565 42.6842 101.557 42.6654 101.548ZM42.1485 106.378C42.0567 106.332 41.9915 106.24 41.9836 106.131L41.9747 105.985C41.9234 105.024 41.9752 104.028 42.1288 103.023C42.154 102.858 42.3085 102.744 42.4729 102.77C42.6378 102.793 42.7513 102.949 42.7256 103.113C42.5785 104.078 42.5287 105.034 42.5775 105.952L42.5859 106.088C42.5978 106.254 42.4724 106.398 42.306 106.41C42.2497 106.414 42.1954 106.402 42.1485 106.378ZM43.558 111.009C43.5066 110.983 43.4627 110.943 43.4326 110.889C42.9157 109.979 42.5262 109.003 42.2754 107.987C42.2354 107.825 42.3346 107.661 42.4966 107.621C42.658 107.582 42.8219 107.68 42.8619 107.842C43.0994 108.805 43.4676 109.73 43.9574 110.591C44.0398 110.736 43.989 110.92 43.8438 111.002C43.7525 111.054 43.6449 111.053 43.558 111.009ZM46.8889 114.504C46.8824 114.501 46.877 114.498 46.8716 114.495C45.9978 113.979 45.1995 113.287 44.498 112.44C44.3923 112.311 44.4101 112.121 44.5384 112.014C44.6673 111.908 44.8574 111.928 44.964 112.055C45.6201 112.848 46.3651 113.494 47.1786 113.974C47.3218 114.059 47.3697 114.244 47.2853 114.388C47.2038 114.526 47.0296 114.576 46.8889 114.504Z" fill="white"/>
</mask>
<g mask="url(#mask1)">
<path fill-rule="evenodd" clip-rule="evenodd" d="M50.2434 89.3678C50.1847 89.3376 50.1358 89.2893 50.1067 89.2251C50.0366 89.0735 50.1027 88.8943 50.2538 88.8242C51.2362 88.3715 52.3959 88.2624 53.4356 88.525C53.5965 88.567 53.6952 88.7304 53.6543 88.8923C53.6138 89.0538 53.4494 89.1515 53.2875 89.1105C52.3929 88.8844 51.3537 88.9822 50.5071 89.3727C50.4197 89.4132 50.3229 89.4077 50.2434 89.3678ZM55.4908 92.7974C55.3678 92.7352 55.3002 92.5945 55.3348 92.4552C55.5155 91.733 55.4493 91.0665 55.1393 90.4751C55.0292 90.2668 54.8905 90.0747 54.7251 89.9054C54.6091 89.7854 54.6115 89.5944 54.731 89.4783C54.8505 89.3618 55.0425 89.3643 55.158 89.4843C55.3634 89.6956 55.5367 89.934 55.6734 90.1937C56.0501 90.911 56.1355 91.7434 55.9208 92.6019C55.8803 92.7633 55.7164 92.862 55.5545 92.8216C55.5322 92.8156 55.5105 92.8077 55.4908 92.7974ZM39.925 85.4129C39.7932 85.3457 39.727 85.1902 39.7764 85.0461C39.9314 84.5943 40.1195 84.1505 40.3342 83.7279C40.5949 83.2155 40.899 82.7267 41.2392 82.2755C41.3389 82.1422 41.528 82.1146 41.6618 82.2163C41.795 82.316 41.8217 82.5056 41.7215 82.6389C41.4031 83.062 41.1172 83.5206 40.8728 84.0014C40.6704 84.3993 40.4942 84.8165 40.3481 85.2421C40.2938 85.3995 40.122 85.4835 39.964 85.4297C39.9502 85.4247 39.9373 85.4193 39.925 85.4129ZM46.8168 92.7519C46.8079 92.747 46.7985 92.7421 46.7896 92.7366C46.6494 92.6463 46.6094 92.4592 46.6993 92.319C47.3781 91.266 48.0036 90.4963 48.6681 89.8965C48.792 89.7854 48.9826 89.7953 49.0946 89.9187C49.2062 90.0421 49.1963 90.2332 49.0724 90.3448C48.4489 90.908 47.8565 91.6392 47.2073 92.6463C47.1224 92.7776 46.953 92.8216 46.8168 92.7519ZM52.3954 96.3869C52.3411 96.3593 52.2942 96.3144 52.2641 96.2556C52.188 96.107 52.2468 95.9253 52.3949 95.8493C52.621 95.7333 52.8412 95.6059 53.0505 95.4697C53.6439 95.0841 54.1786 94.5736 54.5957 93.9931C54.693 93.8578 54.8826 93.8272 55.0173 93.9239C55.1526 94.0217 55.1832 94.2103 55.086 94.3456C54.6253 94.9864 54.0354 95.5501 53.3793 95.9762C53.1537 96.1233 52.9147 96.2615 52.6704 96.3869C52.5805 96.4323 52.4788 96.4294 52.3954 96.3869ZM39.5207 90.2263C39.4392 90.1848 39.377 90.1063 39.3602 90.009C39.1815 88.9906 39.1716 87.9366 39.3301 86.8752C39.3548 86.7103 39.5083 86.5962 39.6732 86.6209C39.8386 86.6451 39.9521 86.7996 39.9274 86.964C39.7784 87.9613 39.7877 88.9506 39.9546 89.9049C39.9832 90.0688 39.8736 90.2258 39.7097 90.2539C39.6426 90.2658 39.5769 90.2549 39.5207 90.2263ZM47.6595 97.2657C47.5534 97.2114 47.4847 97.0968 47.4956 96.9705C47.5094 96.8046 47.6555 96.6812 47.8219 96.695C48.8285 96.7809 49.8134 96.7049 50.7494 96.4674C50.9104 96.4259 51.0753 96.5237 51.1163 96.6861C51.1572 96.8475 51.0595 97.0119 50.8976 97.0529C49.8964 97.3067 48.8443 97.3886 47.7706 97.2968C47.7306 97.2933 47.6931 97.2825 47.6595 97.2657ZM41.6899 94.5144C41.6613 94.4996 41.6341 94.4803 41.6109 94.4561C41.1508 93.9832 40.7509 93.4633 40.4226 92.9109C40.2177 92.5663 40.0361 92.2015 39.8825 91.8268C39.8188 91.6723 39.8929 91.496 40.0469 91.4328C40.2019 91.3691 40.3777 91.4437 40.4409 91.5977C40.584 91.9453 40.7524 92.2834 40.942 92.6029C41.2456 93.1143 41.6163 93.5961 42.0434 94.035C42.1599 94.1545 42.1569 94.3455 42.0374 94.4616C41.9427 94.5544 41.802 94.5712 41.6899 94.5144ZM44.419 97.0006C44.2718 96.926 44.2121 96.7468 44.2852 96.5982C44.3178 96.5321 44.3503 96.4659 44.3834 96.3998C43.9243 96.187 43.481 95.9396 43.0653 95.6622C42.9271 95.5699 42.8895 95.3823 42.9819 95.2436C43.0747 95.1053 43.2618 95.0653 43.401 95.1601C43.7964 95.4242 44.2195 95.6602 44.6584 95.8616C44.9823 95.2391 45.3392 94.5929 45.744 93.8963C45.8279 93.7521 46.0145 93.7043 46.1567 93.7872C46.3009 93.8706 46.3498 94.0558 46.2663 94.1999C45.8758 94.8713 45.5307 95.4958 45.2168 96.0961C45.4986 96.2048 45.7865 96.2995 46.0782 96.3805C46.2416 96.4274 46.3335 96.5918 46.2885 96.7522C46.2436 96.9132 46.0772 97.007 45.9163 96.9626C45.5855 96.8707 45.2592 96.7616 44.9403 96.6372C44.9023 96.7128 44.8643 96.7888 44.8272 96.8648C44.7532 97.0144 44.5725 97.0761 44.4229 97.0025C44.4214 97.0016 44.4204 97.0011 44.419 97.0006ZM42.6654 101.548C42.5415 101.485 42.4739 101.342 42.5109 101.201C42.7587 100.265 43.0974 99.2819 43.518 98.2797C43.5822 98.1262 43.7594 98.0536 43.9129 98.1183C44.0615 98.1775 44.1395 98.3592 44.0744 98.5132C43.6651 99.4897 43.3353 100.446 43.0944 101.357C43.052 101.517 42.8866 101.614 42.7251 101.571C42.7044 101.565 42.6842 101.557 42.6654 101.548ZM42.1485 106.378C42.0567 106.332 41.9915 106.24 41.9836 106.131L41.9747 105.985C41.9234 105.024 41.9752 104.028 42.1288 103.023C42.154 102.858 42.3085 102.744 42.4729 102.77C42.6378 102.793 42.7513 102.949 42.7256 103.113C42.5785 104.078 42.5287 105.034 42.5775 105.952L42.5859 106.088C42.5978 106.254 42.4724 106.398 42.306 106.41C42.2497 106.414 42.1954 106.402 42.1485 106.378ZM43.558 111.009C43.5066 110.983 43.4627 110.943 43.4326 110.889C42.9157 109.979 42.5262 109.003 42.2754 107.987C42.2354 107.825 42.3346 107.661 42.4966 107.621C42.658 107.582 42.8219 107.68 42.8619 107.842C43.0994 108.805 43.4676 109.73 43.9574 110.591C44.0398 110.736 43.989 110.92 43.8438 111.002C43.7525 111.054 43.6449 111.053 43.558 111.009ZM46.8889 114.504C46.8824 114.501 46.877 114.498 46.8716 114.495C45.9978 113.979 45.1995 113.287 44.498 112.44C44.3923 112.311 44.4101 112.121 44.5384 112.014C44.6673 111.908 44.8574 111.928 44.964 112.055C45.6201 112.848 46.3651 113.494 47.1786 113.974C47.3218 114.059 47.3697 114.244 47.2853 114.388C47.2038 114.526 47.0296 114.576 46.8889 114.504Z" fill="url(#paint1_linear)"/>
</g>
<mask id="mask2" mask-type="alpha" maskUnits="userSpaceOnUse" x="48" y="114" width="3" height="2">
<path d="M48.5923 115.242C48.4659 115.178 48.3988 115.031 48.4388 114.89C48.4852 114.73 48.6516 114.637 48.8125 114.682C49.2756 114.814 49.753 114.895 50.2318 114.921C50.3982 114.93 50.5261 115.073 50.5167 115.239C50.5073 115.406 50.3651 115.533 50.1987 115.524C49.6754 115.496 49.1531 115.408 48.6466 115.263C48.6274 115.258 48.6096 115.251 48.5923 115.242Z" fill="white"/>
</mask>
<g mask="url(#mask2)">
<path fill-rule="evenodd" clip-rule="evenodd" d="M48.5923 115.242C48.4659 115.178 48.3988 115.031 48.4388 114.89C48.4852 114.73 48.6516 114.637 48.8125 114.682C49.2756 114.814 49.753 114.895 50.2318 114.921C50.3982 114.93 50.5261 115.073 50.5167 115.239C50.5073 115.406 50.3651 115.533 50.1987 115.524C49.6754 115.496 49.1531 115.408 48.6466 115.263C48.6274 115.258 48.6096 115.251 48.5923 115.242Z" fill="url(#paint2_linear)"/>
</g>
<path fill-rule="evenodd" clip-rule="evenodd" d="M203.295 164.672C203.295 164.672 202.507 165.404 200.707 165.862C200.312 165.963 199.884 165.828 199.884 166.481C200.725 166.481 202.067 166.481 202.067 166.481L203.883 166.167V166.481H204.864C204.864 166.481 205.137 164.878 204.564 164.672C204.034 164.672 203.295 164.672 203.295 164.672Z" fill="#1B2441"/>
<path fill-rule="evenodd" clip-rule="evenodd" d="M203.406 163.521L203.295 164.672C203.653 164.92 204.123 164.936 204.497 164.712L204.565 164.672L204.768 163.521H203.406Z" fill="#F0AB85"/>
<path fill-rule="evenodd" clip-rule="evenodd" d="M211.202 164.672C211.202 164.672 210.412 165.404 208.614 165.862C208.218 165.963 207.791 165.828 207.791 166.481C208.631 166.481 209.974 166.481 209.974 166.481L211.79 166.167V166.481H212.77C212.77 166.481 213.044 164.878 212.471 164.672C211.94 164.672 211.202 164.672 211.202 164.672Z" fill="#1B2441"/>
<path fill-rule="evenodd" clip-rule="evenodd" d="M211.313 163.521L211.202 164.672C211.56 164.92 212.03 164.936 212.404 164.712L212.471 164.672L212.675 163.521H211.313Z" fill="#F0AB85"/>
<path fill-rule="evenodd" clip-rule="evenodd" d="M191.597 120.92C191.475 120.955 191.049 121.033 190.233 120.745C189.501 120.487 188.152 119.475 188.099 120.348C188.595 121.045 189.095 121.929 189.095 121.929C189.437 122.318 190.289 122.464 190.841 122.45L192.545 122.192C192.545 122.192 193.017 121.455 193.046 121.424L192.804 121.156C192.387 121.145 191.98 121.062 191.597 120.92Z" fill="#F0AB85"/>
<path fill-rule="evenodd" clip-rule="evenodd" d="M191.205 121.141C191.205 121.141 191.165 121.167 191.086 121.195C191.161 121.278 191.23 121.365 191.297 121.453C191.66 121.632 192.018 121.822 192.38 122.006C192.461 121.768 192.575 121.435 192.587 121.412L190.471 119.71C190.471 119.71 190.154 119.892 190.459 120.381C190.765 120.871 191.205 121.141 191.205 121.141Z" fill="#F0AB85"/>
<path fill-rule="evenodd" clip-rule="evenodd" d="M208.027 114.673L207.799 116.928L210.214 117.024L209.731 113.528L208.027 114.673Z" fill="#EC967C"/>
<path fill-rule="evenodd" clip-rule="evenodd" d="M207.285 115.086C207.004 115.078 206.744 115.036 206.608 114.925C205.799 113.747 206.721 110.574 206.721 110.574L208.015 110.029L209.659 111.054L209.753 113.181C209.777 113.749 209.505 114.294 209.018 114.648C208.498 114.94 207.896 115.102 207.285 115.086Z" fill="#F0AB85"/>
<path fill-rule="evenodd" clip-rule="evenodd" d="M209.4 112.26C209.309 111.902 209.357 111.078 208.993 111.137C208.727 111.181 207.819 111.218 207.512 111.218C206.783 111.218 205.482 110.933 205.482 109.823C205.482 109.268 206.021 108.79 206.362 108.648C206.696 108.508 207.074 108.515 207.416 108.634C208.219 108.915 209.284 109.534 209.709 109.449C210.424 109.305 211.137 109.725 211.127 110.332C211.116 110.98 210.778 111.955 210.459 112.576C210.274 112.934 210.027 113.256 209.731 113.528L209.4 112.26Z" fill="#1B2441"/>
<path fill-rule="evenodd" clip-rule="evenodd" d="M210.139 112.34C209.977 112.197 209.672 112.224 209.46 112.401C209.247 112.578 209.206 112.837 209.368 112.981C209.531 113.125 209.836 113.098 210.048 112.92C210.261 112.744 210.301 112.484 210.139 112.34Z" fill="#F0AB85"/>
<path fill-rule="evenodd" clip-rule="evenodd" d="M205.715 117.943C201.162 121.483 192.332 120.547 192.332 120.547L191.923 122.862C191.923 122.862 203.127 126.172 204.525 123.523C205.922 120.875 210.268 114.403 205.715 117.943Z" fill="#005C5A"/>
<path fill-rule="evenodd" clip-rule="evenodd" d="M209.006 116.274C208.924 116.274 208.842 116.275 208.762 116.278C206.097 116.376 204.016 120.053 204.016 122.719V132.363H214.3V121.327C214.3 118.874 212.544 116.73 210.12 116.357C209.774 116.304 209.404 116.274 209.006 116.274Z" fill="#005C5A"/>
<path fill-rule="evenodd" clip-rule="evenodd" d="M205.725 130.496L203.45 130.758C202.519 130.794 201.773 129.469 201.523 128.455C201.485 128.303 201.625 128.166 201.777 128.204C202.577 128.4 204.633 128.918 205.178 129.189L205.725 130.496Z" fill="#F0AB85"/>
<path fill-rule="evenodd" clip-rule="evenodd" d="M213.696 118.918C213.696 118.918 218.882 125.846 215.624 129.206C212.366 132.566 205.034 131.141 205.034 131.141V129.002C205.034 129.002 211.958 129.019 212.366 126.669C212.773 124.318 210.719 121.772 210.719 121.772" fill="#005C5A"/>
<path fill-rule="evenodd" clip-rule="evenodd" d="M214.3 130.096C211.018 131.987 205.85 131.179 205.136 131.056V129.104C206.035 129.096 212.072 128.963 212.466 126.686C212.876 124.318 210.883 121.814 210.799 121.709L210.64 121.837C210.66 121.862 212.66 124.373 212.265 126.652C211.879 128.88 205.172 128.901 205.036 128.901H205.034L204.933 128.9V131.225L205.015 131.241C205.048 131.247 206.574 131.535 208.537 131.535C210.365 131.535 212.569 131.282 214.3 130.325V130.096Z" fill="#21837F"/>
<path fill-rule="evenodd" clip-rule="evenodd" d="M204.016 132.362C202.841 138.066 202.66 144.206 202.633 149.358C202.59 157.658 203.272 163.723 203.272 163.723H204.968L208.512 139.998C208.512 139.998 208.899 143.526 209.421 149.509C209.832 154.204 210.025 158.173 211.128 163.723C212.836 163.723 212.831 163.723 212.831 163.723C212.831 163.723 214.3 146.592 214.3 132.362C210.314 132.362 206.067 132.362 204.016 132.362Z" fill="#1B2441"/>
<path fill-rule="evenodd" clip-rule="evenodd" d="M207.906 115.665H210.054L210.396 116.456H207.629L207.906 115.665Z" fill="#FFFFFE"/>
<path fill-rule="evenodd" clip-rule="evenodd" d="M183.826 155.564V147.684H192.526V138.093H183.826V95.9595H168.057V166.183H196.843V155.564H183.826Z" fill="#F4C05F"/>
<path fill-rule="evenodd" clip-rule="evenodd" d="M183.826 155.564V147.684H192.527V138.093H183.826V95.9595H175.592V166.183H196.843V155.564H183.826Z" fill="#F5B742"/>
<path fill-rule="evenodd" clip-rule="evenodd" d="M176.279 74.0243C171.454 74.0243 167.544 70.1134 167.544 65.2891C167.544 60.4653 171.454 56.5544 176.279 56.5544C181.103 56.5544 185.013 60.4653 185.013 65.2891C185.013 70.1134 181.103 74.0243 176.279 74.0243ZM190.665 51.4043H161.891C157.213 51.4043 153.385 55.2323 153.385 59.9104V88.1377C153.385 92.8163 157.213 96.6443 161.891 96.6443H190.665C195.344 96.6443 199.172 92.8163 199.172 88.1377V59.9104C199.172 55.2323 195.344 51.4043 190.665 51.4043Z" fill="#B0C1FA"/>
<path fill-rule="evenodd" clip-rule="evenodd" d="M190.665 51.4043H176.085V56.5643C176.151 56.5628 176.213 56.5544 176.278 56.5544C181.103 56.5544 185.013 60.4653 185.013 65.2891C185.013 70.1134 181.103 74.0243 176.278 74.0243C176.213 74.0243 176.151 74.0164 176.085 74.0149V96.6443H190.665C195.344 96.6443 199.172 92.8163 199.172 88.1377V59.9104C199.172 55.2323 195.344 51.4043 190.665 51.4043Z" fill="#5A88F4"/>
<path fill-rule="evenodd" clip-rule="evenodd" d="M162.855 55.8783L173.132 54.4624L162.964 52.5104L161.549 42.2344L159.597 52.4013L149.321 53.8166L159.488 55.7687L160.903 66.0447L162.855 55.8783Z" fill="#FFFFFE"/>
<path fill-rule="evenodd" clip-rule="evenodd" d="M132.77 26.4492L152.342 21.418L152.59 20.2061" fill="#A0D2BB"/>
<path fill-rule="evenodd" clip-rule="evenodd" d="M152.9 24.7764L152.875 24.8173L152.054 27.8555L132.819 26.4509L152.9 24.7764Z" fill="#5BBDB7"/>
<mask id="mask3" mask-type="alpha" maskUnits="userSpaceOnUse" x="198" y="60" width="4" height="3">
<path d="M200.661 61.7722C200.021 61.547 199.387 61.2721 198.777 60.9551C198.638 60.883 198.467 60.9378 198.394 61.0766C198.322 61.2163 198.376 61.3876 198.516 61.4601C199.148 61.7894 199.807 62.0748 200.472 62.3088C200.712 62.3942 200.954 62.4727 201.197 62.5453C201.287 62.5729 201.379 62.5537 201.448 62.5018C201.496 62.4663 201.533 62.4159 201.551 62.3552C201.597 62.2046 201.511 62.0461 201.361 62.0012C201.126 61.9306 200.893 61.8541 200.661 61.7722Z" fill="white"/>
</mask>
<g mask="url(#mask3)">
<path fill-rule="evenodd" clip-rule="evenodd" d="M200.661 61.7722C200.021 61.547 199.387 61.2721 198.777 60.9551C198.638 60.883 198.467 60.9378 198.394 61.0766C198.322 61.2163 198.376 61.3876 198.516 61.4601C199.148 61.7894 199.807 62.0748 200.472 62.3088C200.712 62.3942 200.954 62.4727 201.197 62.5453C201.287 62.5729 201.379 62.5537 201.448 62.5018C201.496 62.4663 201.533 62.4159 201.551 62.3552C201.597 62.2046 201.511 62.0461 201.361 62.0012C201.126 61.9306 200.893 61.8541 200.661 61.7722Z" fill="url(#paint3_linear)"/>
</g>
<mask id="mask4" mask-type="alpha" maskUnits="userSpaceOnUse" x="159" y="20" width="4" height="2">
<path d="M162.356 20.8769C161.469 20.991 160.545 21.1366 159.532 21.3237C159.378 21.3523 159.276 21.5004 159.304 21.655C159.333 21.8095 159.481 21.9117 159.635 21.883C160.638 21.6979 161.552 21.5533 162.428 21.4412C162.478 21.4343 162.524 21.4155 162.561 21.3874C162.641 21.3286 162.688 21.2284 162.674 21.1228C162.654 20.9668 162.512 20.8567 162.356 20.8769Z" fill="white"/>
</mask>
<g mask="url(#mask4)">
<path fill-rule="evenodd" clip-rule="evenodd" d="M162.356 20.8769C161.469 20.991 160.545 21.1366 159.532 21.3237C159.378 21.3523 159.276 21.5004 159.304 21.655C159.333 21.8095 159.481 21.9117 159.635 21.883C160.638 21.6979 161.552 21.5533 162.428 21.4412C162.478 21.4343 162.524 21.4155 162.561 21.3874C162.641 21.3286 162.688 21.2284 162.674 21.1228C162.654 20.9668 162.512 20.8567 162.356 20.8769Z" fill="url(#paint4_linear)"/>
</g>
<mask id="mask5" mask-type="alpha" maskUnits="userSpaceOnUse" x="163" y="20" width="5" height="2">
<path d="M167.098 21.0946C167.168 21.0433 167.213 20.9613 167.214 20.8685C167.215 20.7115 167.089 20.5832 166.931 20.5817C166.02 20.5733 165.055 20.6118 164.065 20.6943C163.909 20.7076 163.792 20.8453 163.806 21.0013C163.819 21.1583 163.956 21.2748 164.112 21.261C165.085 21.18 166.032 21.1425 166.927 21.1504C166.991 21.1509 167.05 21.1302 167.098 21.0946Z" fill="white"/>
</mask>
<g mask="url(#mask5)">
<path fill-rule="evenodd" clip-rule="evenodd" d="M167.098 21.0946C167.168 21.0433 167.213 20.9613 167.214 20.8685C167.215 20.7115 167.089 20.5832 166.931 20.5817C166.02 20.5733 165.055 20.6118 164.065 20.6943C163.909 20.7076 163.792 20.8453 163.806 21.0013C163.819 21.1583 163.956 21.2748 164.112 21.261C165.085 21.18 166.032 21.1425 166.927 21.1504C166.991 21.1509 167.05 21.1302 167.098 21.0946Z" fill="url(#paint5_linear)"/>
</g>
<mask id="mask6" mask-type="alpha" maskUnits="userSpaceOnUse" x="194" y="58" width="4" height="3">
<path d="M195.174 58.3443C195.062 58.2348 194.883 58.2333 194.773 58.3493C194.662 58.4618 194.664 58.6415 194.778 58.7511C195.467 59.4245 196.222 60.0382 197.022 60.5743C197.124 60.6429 197.255 60.636 197.349 60.5664C197.374 60.5481 197.397 60.5244 197.416 60.4963C197.503 60.366 197.469 60.1892 197.338 60.1019C196.568 59.585 195.839 58.9935 195.174 58.3443Z" fill="white"/>
</mask>
<g mask="url(#mask6)">
<path fill-rule="evenodd" clip-rule="evenodd" d="M195.174 58.3443C195.062 58.2348 194.883 58.2333 194.773 58.3493C194.662 58.4618 194.664 58.6415 194.778 58.7511C195.467 59.4245 196.222 60.0382 197.022 60.5743C197.124 60.6429 197.255 60.636 197.349 60.5664C197.374 60.5481 197.397 60.5244 197.416 60.4963C197.503 60.366 197.469 60.1892 197.338 60.1019C196.568 59.585 195.839 58.9935 195.174 58.3443Z" fill="url(#paint6_linear)"/>
</g>
<mask id="mask7" mask-type="alpha" maskUnits="userSpaceOnUse" x="191" y="54" width="4" height="4">
<path d="M194.002 57.5118C194.124 57.4116 194.141 57.2329 194.041 57.1114C193.881 56.915 193.725 56.7155 193.574 56.5116C193.169 55.9656 192.802 55.391 192.481 54.803C192.406 54.6653 192.233 54.6144 192.095 54.6894C191.961 54.764 191.906 54.9378 191.982 55.0755C192.315 55.6862 192.697 56.283 193.116 56.8503C193.273 57.0611 193.435 57.2689 193.602 57.4718C193.698 57.5898 193.869 57.6101 193.991 57.5202C193.995 57.5177 193.998 57.5143 194.002 57.5118Z" fill="white"/>
</mask>
<g mask="url(#mask7)">
<path fill-rule="evenodd" clip-rule="evenodd" d="M194.002 57.5118C194.124 57.4116 194.141 57.2329 194.041 57.1114C193.881 56.915 193.725 56.7155 193.574 56.5116C193.169 55.9656 192.802 55.391 192.481 54.803C192.406 54.6653 192.233 54.6144 192.095 54.6894C191.961 54.764 191.906 54.9378 191.982 55.0755C192.315 55.6862 192.697 56.283 193.116 56.8503C193.273 57.0611 193.435 57.2689 193.602 57.4718C193.698 57.5898 193.869 57.6101 193.991 57.5202C193.995 57.5177 193.998 57.5143 194.002 57.5118Z" fill="url(#paint7_linear)"/>
</g>
<mask id="mask8" mask-type="alpha" maskUnits="userSpaceOnUse" x="190" y="50" width="2" height="4">
<path d="M191.609 53.6623C191.631 53.653 191.651 53.6411 191.67 53.6278C191.772 53.5522 191.814 53.414 191.763 53.2911C191.426 52.4706 191.142 51.6002 190.898 50.6297C190.86 50.4771 190.705 50.3848 190.553 50.4233C190.401 50.4613 190.309 50.6163 190.347 50.7684C190.598 51.7656 190.89 52.6616 191.238 53.5073C191.297 53.653 191.464 53.7221 191.609 53.6623Z" fill="white"/>
</mask>
<g mask="url(#mask8)">
<path fill-rule="evenodd" clip-rule="evenodd" d="M191.609 53.6623C191.631 53.653 191.651 53.6411 191.67 53.6278C191.772 53.5522 191.814 53.414 191.763 53.2911C191.426 52.4706 191.142 51.6002 190.898 50.6297C190.86 50.4771 190.705 50.3848 190.553 50.4233C190.401 50.4613 190.309 50.6163 190.347 50.7684C190.598 51.7656 190.89 52.6616 191.238 53.5073C191.297 53.653 191.464 53.7221 191.609 53.6623Z" fill="url(#paint8_linear)"/>
</g>
<mask id="mask9" mask-type="alpha" maskUnits="userSpaceOnUse" x="184" y="28" width="3" height="4">
<path d="M184.069 29.4C184.306 29.6888 184.535 29.9836 184.758 30.2832C185.093 30.7359 185.413 31.2044 185.709 31.6764C185.792 31.8097 185.968 31.8497 186.101 31.7663C186.107 31.7623 186.114 31.7584 186.12 31.7539C186.238 31.6665 186.27 31.5011 186.191 31.3748C185.888 30.8905 185.559 30.4096 185.215 29.9451C184.988 29.6375 184.752 29.3354 184.509 29.0392C184.409 28.9182 184.239 28.8841 184.108 29.0002C183.987 29.0999 183.97 29.2786 184.069 29.4Z" fill="white"/>
</mask>
<g mask="url(#mask9)">
<path fill-rule="evenodd" clip-rule="evenodd" d="M184.069 29.4C184.306 29.6888 184.535 29.9836 184.758 30.2832C185.093 30.7359 185.413 31.2044 185.709 31.6764C185.792 31.8097 185.968 31.8497 186.101 31.7663C186.107 31.7623 186.114 31.7584 186.12 31.7539C186.238 31.6665 186.27 31.5011 186.191 31.3748C185.888 30.8905 185.559 30.4096 185.215 29.9451C184.988 29.6375 184.752 29.3354 184.509 29.0392C184.409 28.9182 184.239 28.8841 184.108 29.0002C183.987 29.0999 183.97 29.2786 184.069 29.4Z" fill="url(#paint9_linear)"/>
</g>
<mask id="mask10" mask-type="alpha" maskUnits="userSpaceOnUse" x="186" y="32" width="3" height="4">
<path d="M186.547 33.1371C186.982 33.9694 187.361 34.8329 187.674 35.7023C187.727 35.8504 187.89 35.9269 188.038 35.8736C188.065 35.8642 188.089 35.8513 188.111 35.8346C188.209 35.762 188.253 35.6307 188.209 35.5102C187.888 34.6162 187.498 33.729 187.051 32.8735C186.979 32.7342 186.807 32.6804 186.668 32.753C186.531 32.8241 186.474 32.9969 186.547 33.1371Z" fill="white"/>
</mask>
<g mask="url(#mask10)">
<path fill-rule="evenodd" clip-rule="evenodd" d="M186.547 33.1371C186.982 33.9694 187.361 34.8329 187.674 35.7023C187.727 35.8504 187.89 35.9269 188.038 35.8736C188.065 35.8642 188.089 35.8513 188.111 35.8346C188.209 35.762 188.253 35.6307 188.209 35.5102C187.888 34.6162 187.498 33.729 187.051 32.8735C186.979 32.7342 186.807 32.6804 186.668 32.753C186.531 32.8241 186.474 32.9969 186.547 33.1371Z" fill="url(#paint10_linear)"/>
</g>
<mask id="mask11" mask-type="alpha" maskUnits="userSpaceOnUse" x="180" y="25" width="4" height="4">
<path d="M180.894 26.23C181.617 26.8234 182.31 27.4657 182.952 28.1391C183.052 28.2442 183.214 28.2556 183.327 28.1717C183.337 28.1643 183.346 28.1569 183.355 28.1485C183.468 28.0404 183.472 27.8602 183.364 27.7466C182.705 27.0569 181.996 26.3984 181.255 25.7902C181.134 25.6904 180.954 25.7067 180.855 25.8296C180.755 25.9511 180.773 26.1298 180.894 26.23Z" fill="white"/>
</mask>
<g mask="url(#mask11)">
<path fill-rule="evenodd" clip-rule="evenodd" d="M180.894 26.23C181.617 26.8234 182.31 27.4657 182.952 28.1391C183.052 28.2442 183.214 28.2556 183.327 28.1717C183.337 28.1643 183.346 28.1569 183.355 28.1485C183.468 28.0404 183.472 27.8602 183.364 27.7466C182.705 27.0569 181.996 26.3984 181.255 25.7902C181.134 25.6904 180.954 25.7067 180.855 25.8296C180.755 25.9511 180.773 26.1298 180.894 26.23Z" fill="url(#paint11_linear)"/>
</g>
<mask id="mask12" mask-type="alpha" maskUnits="userSpaceOnUse" x="172" y="21" width="5" height="3">
<path d="M175.651 22.9941C175.748 23.037 175.856 23.0212 175.936 22.9625C175.974 22.9343 176.006 22.8958 176.026 22.8489C176.09 22.7057 176.025 22.5374 175.881 22.4742C175.001 22.0842 174.091 21.75 173.18 21.4799C173.029 21.4355 172.872 21.5219 172.827 21.672C172.782 21.8225 172.868 21.9805 173.019 22.0254C173.907 22.2881 174.792 22.6144 175.651 22.9941Z" fill="white"/>
</mask>
<g mask="url(#mask12)">
<path fill-rule="evenodd" clip-rule="evenodd" d="M175.651 22.9941C175.748 23.037 175.856 23.0212 175.936 22.9625C175.974 22.9343 176.006 22.8958 176.026 22.8489C176.09 22.7057 176.025 22.5374 175.881 22.4742C175.001 22.0842 174.091 21.75 173.18 21.4799C173.029 21.4355 172.872 21.5219 172.827 21.672C172.782 21.8225 172.868 21.9805 173.019 22.0254C173.907 22.2881 174.792 22.6144 175.651 22.9941Z" fill="url(#paint12_linear)"/>
</g>
<mask id="mask13" mask-type="alpha" maskUnits="userSpaceOnUse" x="189" y="41" width="1" height="4">
<path d="M189.662 44.8081C189.714 44.8022 189.76 44.783 189.799 44.7543C189.878 44.6961 189.925 44.5978 189.912 44.4932L189.872 44.1357C189.778 43.3113 189.683 42.4864 189.575 41.6644C189.554 41.5089 189.411 41.3993 189.255 41.42C189.1 41.4412 188.99 41.5829 189.011 41.7394C189.119 42.5579 189.213 43.3794 189.306 44.1999L189.347 44.5578C189.365 44.7138 189.506 44.8259 189.662 44.8081Z" fill="white"/>
</mask>
<g mask="url(#mask13)">
<path fill-rule="evenodd" clip-rule="evenodd" d="M189.662 44.8081C189.714 44.8022 189.76 44.783 189.799 44.7543C189.878 44.6961 189.925 44.5978 189.912 44.4932L189.872 44.1357C189.778 43.3113 189.683 42.4864 189.575 41.6644C189.554 41.5089 189.411 41.3993 189.255 41.42C189.1 41.4412 188.99 41.5829 189.011 41.7394C189.119 42.5579 189.213 43.3794 189.306 44.1999L189.347 44.5578C189.365 44.7138 189.506 44.8259 189.662 44.8081Z" fill="url(#paint13_linear)"/>
</g>
<mask id="mask14" mask-type="alpha" maskUnits="userSpaceOnUse" x="177" y="23" width="4" height="3">
<path d="M179.553 25.2085C179.656 25.2811 179.79 25.2756 179.887 25.2045C179.91 25.1868 179.931 25.1655 179.949 25.1399C180.04 25.012 180.01 24.8343 179.881 24.7439C179.097 24.1905 178.273 23.682 177.434 23.2323C177.294 23.1582 177.123 23.211 177.048 23.3488C176.974 23.487 177.026 23.6593 177.165 23.7339C177.985 24.1722 178.788 24.6684 179.553 25.2085Z" fill="white"/>
</mask>
<g mask="url(#mask14)">
<path fill-rule="evenodd" clip-rule="evenodd" d="M179.553 25.2085C179.656 25.2811 179.79 25.2756 179.887 25.2045C179.91 25.1868 179.931 25.1655 179.949 25.1399C180.04 25.012 180.01 24.8343 179.881 24.7439C179.097 24.1905 178.273 23.682 177.434 23.2323C177.294 23.1582 177.123 23.211 177.048 23.3488C176.974 23.487 177.026 23.6593 177.165 23.7339C177.985 24.1722 178.788 24.6684 179.553 25.2085Z" fill="url(#paint14_linear)"/>
</g>
<mask id="mask15" mask-type="alpha" maskUnits="userSpaceOnUse" x="189" y="45" width="2" height="5">
<path d="M189.795 45.9382C189.638 45.959 189.529 46.0997 189.549 46.2562C189.688 47.3635 189.826 48.2625 189.98 49.0845C190.009 49.239 190.157 49.3402 190.312 49.3111C190.356 49.3032 190.395 49.2854 190.428 49.2607C190.513 49.1975 190.56 49.0899 190.539 48.9793C190.386 48.1687 190.251 47.281 190.112 46.1851C190.093 46.0291 189.951 45.919 189.795 45.9382Z" fill="white"/>
</mask>
<g mask="url(#mask15)">
<path fill-rule="evenodd" clip-rule="evenodd" d="M189.795 45.9382C189.638 45.959 189.529 46.0997 189.549 46.2562C189.688 47.3635 189.826 48.2625 189.98 49.0845C190.009 49.239 190.157 49.3402 190.312 49.3111C190.356 49.3032 190.395 49.2854 190.428 49.2607C190.513 49.1975 190.56 49.0899 190.539 48.9793C190.386 48.1687 190.251 47.281 190.112 46.1851C190.093 46.0291 189.951 45.919 189.795 45.9382Z" fill="url(#paint15_linear)"/>
</g>
<mask id="mask16" mask-type="alpha" maskUnits="userSpaceOnUse" x="202" y="62" width="5" height="2">
<path d="M202.989 62.4013C202.836 62.3712 202.686 62.4714 202.657 62.6255C202.625 62.7795 202.726 62.9291 202.881 62.9592C203.767 63.1345 204.699 63.2544 205.732 63.3275C205.803 63.3329 205.869 63.3117 205.922 63.2727C205.986 63.2248 206.03 63.1503 206.036 63.0639C206.047 62.9074 205.929 62.7711 205.772 62.7602C204.764 62.6887 203.853 62.5712 202.989 62.4013Z" fill="white"/>
</mask>
<g mask="url(#mask16)">
<path fill-rule="evenodd" clip-rule="evenodd" d="M202.989 62.4013C202.836 62.3712 202.686 62.4714 202.657 62.6255C202.625 62.7795 202.726 62.9291 202.881 62.9592C203.767 63.1345 204.699 63.2544 205.732 63.3275C205.803 63.3329 205.869 63.3117 205.922 63.2727C205.986 63.2248 206.03 63.1503 206.036 63.0639C206.047 62.9074 205.929 62.7711 205.772 62.7602C204.764 62.6887 203.853 62.5712 202.989 62.4013Z" fill="url(#paint16_linear)"/>
</g>
<mask id="mask17" mask-type="alpha" maskUnits="userSpaceOnUse" x="188" y="36" width="2" height="5">
<path d="M188.376 36.9599C188.225 37.0014 188.134 37.1564 188.176 37.3084C188.4 38.1447 188.591 39.0452 188.762 40.0607C188.787 40.2162 188.934 40.3204 189.088 40.2947C189.135 40.2868 189.176 40.2686 189.211 40.2429C189.294 40.1812 189.341 40.076 189.322 39.9669C189.149 38.9327 188.954 38.0149 188.724 37.1613C188.684 37.0093 188.528 36.9194 188.376 36.9599Z" fill="white"/>
</mask>
<g mask="url(#mask17)">
<path fill-rule="evenodd" clip-rule="evenodd" d="M188.376 36.9599C188.225 37.0014 188.134 37.1564 188.176 37.3084C188.4 38.1447 188.591 39.0452 188.762 40.0607C188.787 40.2162 188.934 40.3204 189.088 40.2947C189.135 40.2868 189.176 40.2686 189.211 40.2429C189.294 40.1812 189.341 40.076 189.322 39.9669C189.149 38.9327 188.954 38.0149 188.724 37.1613C188.684 37.0093 188.528 36.9194 188.376 36.9599Z" fill="url(#paint17_linear)"/>
</g>
<mask id="mask18" mask-type="alpha" maskUnits="userSpaceOnUse" x="168" y="20" width="4" height="2">
<path d="M169.651 20.7504C169.319 20.7109 168.986 20.6788 168.654 20.6531C168.498 20.6418 168.361 20.7588 168.349 20.9153C168.338 21.0722 168.455 21.209 168.612 21.2208C168.936 21.245 169.26 21.2761 169.584 21.3146C170.185 21.3862 170.792 21.4859 171.388 21.6123C171.47 21.6296 171.553 21.6089 171.616 21.5625C171.67 21.5225 171.709 21.4637 171.724 21.3931C171.757 21.2391 171.659 21.088 171.505 21.0559C170.893 20.9261 170.269 20.8234 169.651 20.7504Z" fill="white"/>
</mask>
<g mask="url(#mask18)">
<path fill-rule="evenodd" clip-rule="evenodd" d="M169.651 20.7504C169.319 20.7109 168.986 20.6788 168.654 20.6531C168.498 20.6418 168.361 20.7588 168.349 20.9153C168.338 21.0722 168.455 21.209 168.612 21.2208C168.936 21.245 169.26 21.2761 169.584 21.3146C170.185 21.3862 170.792 21.4859 171.388 21.6123C171.47 21.6296 171.553 21.6089 171.616 21.5625C171.67 21.5225 171.709 21.4637 171.724 21.3931C171.757 21.2391 171.659 21.088 171.505 21.0559C170.893 20.9261 170.269 20.8234 169.651 20.7504Z" fill="url(#paint18_linear)"/>
</g>
<path fill-rule="evenodd" clip-rule="evenodd" d="M154.818 117.455C154.818 117.455 150.975 124.853 151.245 126.481C151.515 128.109 154.818 130.935 154.818 130.935L155.351 130.012L153.675 126.222L155.834 120.001L154.818 117.455Z" fill="#F0AB85"/>
<path fill-rule="evenodd" clip-rule="evenodd" d="M158.936 114.28L158.624 116.398H156.742L156.549 113.145L158.936 114.28Z" fill="#EC967C"/>
<path fill-rule="evenodd" clip-rule="evenodd" d="M162.382 123.634V117.663C159.966 115.952 158.258 116.133 158.258 116.133C157.835 116.089 157.745 116.09 157.181 116.089C157.165 116.089 153.135 115.79 153.878 122.174C155.487 127.601 154.714 129.996 154.714 129.996C154.714 129.996 158.925 131.712 161.276 130.502C160.685 129.146 161.774 125.416 162.366 123.607C162.371 123.615 162.378 123.626 162.382 123.634Z" fill="#21837F"/>
<path fill-rule="evenodd" clip-rule="evenodd" d="M156.104 115.46C156.104 115.46 154.504 116.398 154.504 117.883C154.504 118.804 154.865 119.349 155.28 119.993C155.967 121.058 155.959 122.447 155.201 123.462C155.19 123.477 155.179 123.492 155.167 123.507C154.883 123.878 154.826 124.259 154.902 124.623C155.198 126.032 157.137 126.243 157.888 125.014C158.163 124.563 158.429 124.022 158.625 123.4C158.954 122.358 158.63 121.704 158.227 121.312C157.887 120.98 157.847 120.441 158.179 120.1C158.783 119.481 159.38 118.547 158.625 117.725C157.358 116.345 156.997 115.054 156.997 115.054L156.104 115.46Z" fill="#1B2441"/>
<path fill-rule="evenodd" clip-rule="evenodd" d="M152.536 163.134L153.664 163.33C153.897 161.931 157.405 155.297 157.691 151.852C158.007 148.028 158.896 143.77 158.896 143.77L155.123 142.647C155.123 142.647 154.167 142.647 155.216 150.442C152.857 153.54 152.225 160.567 152.536 163.134Z" fill="#EC967C"/>
<path fill-rule="evenodd" clip-rule="evenodd" d="M160.669 109.281L157.188 109.116L156.569 111.514C156.56 111.548 156.556 111.582 156.549 111.617C156.603 111.651 156.658 111.685 156.71 111.723C156.719 111.729 156.727 111.736 156.735 111.743C156.744 111.749 156.752 111.753 156.761 111.759C157.394 112.217 157.658 113 157.609 113.763C158.014 114.01 158.461 114.192 158.936 114.279C159.26 114.338 159.568 114.354 159.75 114.26C160.961 113.117 160.669 109.281 160.669 109.281Z" fill="#F0AB85"/>
<path fill-rule="evenodd" clip-rule="evenodd" d="M156.093 114.951C156.997 115.054 155.561 114.951 156.997 115.054C157.038 114.292 159.491 112.308 159.958 111.906C161.15 110.88 161.062 109.64 161.062 109.64C161.062 109.64 158.692 107.085 157.157 107.627C155.954 108.051 155.539 109 155.345 109.651C155.174 110.222 154.822 111.193 156.093 114.951Z" fill="#1B2441"/>
<path fill-rule="evenodd" clip-rule="evenodd" d="M155.314 139.812C155.314 139.812 156.201 145.144 157.434 150.847C156.146 154.291 158.108 163.901 158.144 163.867C158.292 163.727 158.97 164.563 158.97 164.563C158.97 164.563 160.401 156.081 160.718 152.257C161.034 148.432 161.518 143.769 161.518 143.769L155.314 139.812Z" fill="#F0AB85"/>
<path fill-rule="evenodd" clip-rule="evenodd" d="M157.984 163.33C157.984 163.33 157.447 163.785 157.546 164.365C157.644 164.946 157.783 166.306 157.783 166.306H158.336L158.319 165.038C158.32 164.955 159.503 166.306 159.704 166.306H162.626C162.626 166.306 162.82 165.45 161.104 165.175C159.388 164.9 157.984 163.33 157.984 163.33Z" fill="#13374D"/>
<path fill-rule="evenodd" clip-rule="evenodd" d="M156.995 115.46H156.104C155.904 115.46 155.741 115.297 155.741 115.097V115.011C155.741 114.812 155.904 114.648 156.104 114.648H156.995C157.195 114.648 157.358 114.812 157.358 115.011V115.097C157.358 115.297 157.195 115.46 156.995 115.46Z" fill="#FAD473"/>
<path fill-rule="evenodd" clip-rule="evenodd" d="M161.112 129.197C161.112 129.197 162.07 134.581 162.07 137.26C162.07 138.733 161.39 144.981 161.39 144.981C161.39 144.981 155.791 145.144 154.654 145.144C154.508 140.714 152.857 137.795 152.857 134.251C152.857 131.751 155.06 129.569 155.06 129.569L161.112 129.197Z" fill="#F9CC58"/>
<path fill-rule="evenodd" clip-rule="evenodd" d="M171.787 122.953L171.535 123.026C171.026 123.174 170.627 123.569 170.475 124.076L170.416 124.275C170.416 124.275 168.206 125.039 165.743 125.353C163.232 118.203 162.382 117.664 162.382 117.664C162.382 117.664 160.762 118.179 160.762 120.136C160.762 121.778 161.859 126.429 163.945 127.886C164.521 128.288 165.278 128.321 165.912 128.02C169.265 126.427 171.631 125.066 171.631 125.066L174.162 123.668L173.043 123.08C172.656 122.876 172.206 122.831 171.787 122.953Z" fill="#F0AB85"/>
<path fill-rule="evenodd" clip-rule="evenodd" d="M153.793 162.363L153.716 163.573C153.699 163.828 153.769 164.079 153.914 164.289C154.075 164.521 154.345 164.838 154.793 165.203C153.946 165.475 153.175 164.525 152.772 163.893C152.575 163.585 152.498 163.217 152.552 162.856L152.695 161.904L153.793 162.363Z" fill="#EC967C"/>
<path fill-rule="evenodd" clip-rule="evenodd" d="M152.536 163.028C152.536 163.028 151.79 163.095 151.667 163.662C151.543 164.229 151.191 165.376 151.191 165.376L151.598 165.7L152.17 164.563C152.17 164.563 153.403 166.224 153.599 166.306H156.789C156.789 166.306 156.789 165.25 154.793 165.203C152.953 165.158 152.536 163.028 152.536 163.028Z" fill="#1B2441"/>
<path fill-rule="evenodd" clip-rule="evenodd" d="M54.7577 166.208L77.3545 95.9595H76.0675L53.4707 166.208H54.7577Z" fill="#F5B742"/>
<path fill-rule="evenodd" clip-rule="evenodd" d="M66.4418 166.208L89.0386 95.9595H87.7516L65.1548 166.208H66.4418Z" fill="#F5B742"/>
<path fill-rule="evenodd" clip-rule="evenodd" d="M70.2134 114.202V115.249L82.3204 115.243L82.5273 114.195L70.2134 114.202Z" fill="#F5B742"/>
<path fill-rule="evenodd" clip-rule="evenodd" d="M72.7163 107.396V108.443L84.8229 108.436L85.0302 107.389L72.7163 107.396Z" fill="#F5B742"/>
<path fill-rule="evenodd" clip-rule="evenodd" d="M74.7861 100.589V101.636L86.8932 101.629L87.1 100.582L74.7861 100.589Z" fill="#F5B742"/>
<path fill-rule="evenodd" clip-rule="evenodd" d="M68.0078 121.097V122.144L80.1149 122.137L80.3217 121.09L68.0078 121.097Z" fill="#F5B742"/>
<path fill-rule="evenodd" clip-rule="evenodd" d="M65.9385 127.99V129.038L78.045 129.031L78.2519 127.983L65.9385 127.99Z" fill="#F5B742"/>
<path fill-rule="evenodd" clip-rule="evenodd" d="M63.7973 135.153L63.3081 136.201L75.4152 136.194L75.622 135.146L63.7973 135.153Z" fill="#F5B742"/>
<path fill-rule="evenodd" clip-rule="evenodd" d="M61.5278 142.316L61.0386 143.363L73.1456 143.357L73.3525 142.309L61.5278 142.316Z" fill="#F5B742"/>
<path fill-rule="evenodd" clip-rule="evenodd" d="M59.4018 149.318L58.9126 150.366L71.0197 150.359L71.2265 149.312L59.4018 149.318Z" fill="#F5B742"/>
<path fill-rule="evenodd" clip-rule="evenodd" d="M57.6406 156.475L57.1514 157.522L69.2584 157.516L69.4658 156.468L57.6406 156.475Z" fill="#F5B742"/>
<path fill-rule="evenodd" clip-rule="evenodd" d="M95.507 164.895L100.153 164.889C100.77 164.954 101.46 165.129 101.575 165.664C101.575 165.664 101.656 166.019 101.642 166.372C101.478 166.565 95.3169 166.346 95.3169 166.346L95.2902 166.324C94.6376 165.538 95.507 164.895 95.507 164.895Z" fill="#17324A"/>
<path fill-rule="evenodd" clip-rule="evenodd" d="M101.643 166.372L95.3174 166.346L95.3722 166.593H101.652L101.643 166.372Z" fill="#1B2441"/>
<path fill-rule="evenodd" clip-rule="evenodd" d="M97.3465 164.889L97.7647 164.892L97.6343 165.461H97.2285L97.3465 164.889Z" fill="#FFFFFE"/>
<path fill-rule="evenodd" clip-rule="evenodd" d="M98.244 164.889L98.6621 164.892L98.5318 165.461H98.126L98.244 164.889Z" fill="#FFFFFE"/>
<path fill-rule="evenodd" clip-rule="evenodd" d="M95.1885 163.347L95.5074 164.895C95.8801 165.083 96.3649 165.095 96.753 164.924L96.8235 164.893L97.0472 163.347H95.1885Z" fill="#F0AB85"/>
<path fill-rule="evenodd" clip-rule="evenodd" d="M84.6476 164.895L89.2941 164.889C89.9107 164.954 90.6004 165.129 90.7159 165.664C90.7159 165.664 90.7969 166.019 90.7831 166.372C90.6187 166.565 84.4575 166.346 84.4575 166.346L84.4309 166.324C83.7782 165.538 84.6476 164.895 84.6476 164.895Z" fill="#1B2441"/>
<path fill-rule="evenodd" clip-rule="evenodd" d="M90.7831 166.372L84.4575 166.346L84.5123 166.593H90.792L90.7831 166.372Z" fill="#1B2441"/>
<path fill-rule="evenodd" clip-rule="evenodd" d="M86.4871 164.889L86.9053 164.892L86.7749 165.461H86.3691L86.4871 164.889Z" fill="#FFFFFE"/>
<path fill-rule="evenodd" clip-rule="evenodd" d="M87.3841 164.889L87.8023 164.892L87.6719 165.461H87.2661L87.3841 164.889Z" fill="#FFFFFE"/>
<path fill-rule="evenodd" clip-rule="evenodd" d="M84.8494 163.347L84.6475 164.895C85.0202 165.083 85.505 165.095 85.893 164.924L85.9636 164.893L86.7081 163.347H84.8494Z" fill="#F0AB85"/>
<path fill-rule="evenodd" clip-rule="evenodd" d="M91.7831 111.3L87.9565 113.795L89.1374 116.819C89.1542 116.862 89.1764 116.902 89.1957 116.943C89.2796 116.938 89.3635 116.933 89.4484 116.933C89.4623 116.933 89.4761 116.934 89.4899 116.934C89.5032 116.934 89.5166 116.933 89.5299 116.933C90.5543 116.933 91.4345 117.563 91.9692 118.411C92.5883 118.365 93.2039 118.214 93.7751 117.942C94.1641 117.757 94.5033 117.537 94.6262 117.298C95.0354 115.153 91.7831 111.3 91.7831 111.3Z" fill="#F0AB85"/>
<path fill-rule="evenodd" clip-rule="evenodd" d="M96.6502 112.083C96.6502 112.083 97.1187 116.524 96.1758 119.352C96.6137 119.732 98.2216 121.456 98.7276 119.221C99.2332 116.988 98.1599 111.3 98.1599 111.3L96.6502 112.083Z" fill="#F0AB85"/>
<path fill-rule="evenodd" clip-rule="evenodd" d="M94.3546 111.768L93.4546 112.348L93.7755 113.02L94.7416 112.594L94.3546 111.768Z" fill="#1B2441"/>
<path fill-rule="evenodd" clip-rule="evenodd" d="M93.8245 112.576C93.9148 112.782 93.9212 112.978 93.8388 113.014C93.7568 113.05 93.6166 112.913 93.5268 112.707C93.4364 112.501 93.43 112.305 93.5125 112.269C93.5944 112.233 93.7341 112.371 93.8245 112.576Z" fill="#1B2441"/>
<path fill-rule="evenodd" clip-rule="evenodd" d="M105.218 108.493C105.218 108.484 105.22 108.476 105.22 108.467C105.051 108.082 104.752 107.468 104.35 106.905C103.699 105.994 103.514 105.539 103.514 105.539L94.2173 111.623L94.8191 112.759L105.218 108.916C105.209 108.774 105.206 108.632 105.218 108.493Z" fill="#F9CC58"/>
<path fill-rule="evenodd" clip-rule="evenodd" d="M90.9392 118.413L90.6045 120.502H93.5626L93.7754 117.943L90.9392 118.413Z" fill="#EC967C"/>
<path fill-rule="evenodd" clip-rule="evenodd" d="M98.5787 123.594C98.5787 123.594 102.073 122.482 103.168 120.985C104.263 119.489 102.41 111.301 102.41 111.301L102.649 109.827C102.784 108.998 102.148 108.243 101.307 108.235L100.374 108.228C99.9852 108.224 99.7235 108.623 99.881 108.978L101.109 111.741C101.109 111.741 102.03 117.943 100.74 118.413C99.2007 118.962 97.4585 119.094 97.4585 119.094L98.5787 123.594Z" fill="#F0AB85"/>
<path fill-rule="evenodd" clip-rule="evenodd" d="M92.0146 118.413L91.1156 116.419L91.6996 116.053C92.1311 115.782 92.3197 115.25 92.1553 114.768L91.5155 112.889C91.5155 112.889 93.3362 112.667 93.2809 110.971C93.2809 110.097 92.0793 110.092 92.0793 110.092C92.0793 110.092 91.7199 110.873 90.6047 110.965C90.1263 110.905 88.8121 111.082 87.9254 112.629C87.3291 113.67 87.5902 115.301 88.1096 116.524C88.5746 117.62 89.7624 118.232 90.9394 118.413H92.0146Z" fill="#1B2441"/>
<path fill-rule="evenodd" clip-rule="evenodd" d="M88.4612 135.158C88.4612 135.158 88.6469 139.409 89.5661 144.016C89.8366 145.372 89.7349 146.777 89.2936 148.089C87.2073 154.287 84.2822 163.607 84.2822 163.607H86.8839C86.8839 163.607 92.7795 152.592 94.2985 147.128C95.8176 141.663 96.0778 139.929 96.0778 139.929L94.2699 135.158H88.4612Z" fill="#005C5A"/>
<path fill-rule="evenodd" clip-rule="evenodd" d="M90.6319 115.491C90.5248 115.805 90.741 116.221 91.1152 116.42C91.4894 116.619 91.8795 116.525 91.9866 116.211C92.0937 115.897 91.8775 115.481 91.5033 115.283C91.1291 115.084 90.7385 115.178 90.6319 115.491Z" fill="#F0AB85"/>
<mask id="mask19" mask-type="alpha" maskUnits="userSpaceOnUse" x="88" y="118" width="14" height="18">
<path d="M96.9453 135.158H88.4614V124.274C88.4614 121.889 90.2762 119.897 92.6503 119.676L98.5503 118.962C98.5503 118.962 99.2439 120.023 101.177 122.491C98.8534 123.926 96.1648 124.587 96.1648 124.587L96.9453 135.158Z" fill="white"/>
</mask>
<g mask="url(#mask19)">
<path fill-rule="evenodd" clip-rule="evenodd" d="M96.9453 135.158H88.4614V124.274C88.4614 121.889 90.2762 119.897 92.6503 119.676L98.5503 118.962C98.5503 118.962 99.2439 120.023 101.177 122.491C98.8534 123.926 96.1648 124.587 96.1648 124.587L96.9453 135.158Z" fill="url(#paint19_linear)"/>
</g>
<path fill-rule="evenodd" clip-rule="evenodd" d="M88.4614 135.158C88.4614 135.158 89.6596 139.496 94.081 144.356C94.8191 145.09 95.8825 146.617 95.7314 148.775L94.8191 163.607H97.4583C97.4583 163.607 100.675 151.291 99.981 145.219C99.2874 139.148 96.9454 135.158 96.9454 135.158H88.4614Z" fill="#21837F"/>
<path fill-rule="evenodd" clip-rule="evenodd" d="M103.793 107.484C104.25 108.431 104.868 109.078 105.176 108.929C105.484 108.782 105.363 107.894 104.906 106.948C104.45 106.001 103.831 105.353 103.524 105.502C103.216 105.65 103.337 106.537 103.793 107.484Z" fill="#EE9E35"/>
<path fill-rule="evenodd" clip-rule="evenodd" d="M96.2832 110.271L96.3617 110.308C96.6387 110.441 96.9561 110.461 97.2474 110.364L97.2997 110.347C97.7786 110.187 98.1523 109.808 98.3058 109.327C98.3735 109.113 98.1859 108.905 97.9662 108.951L97.3787 109.074C97.1496 109.122 96.9492 109.259 96.8208 109.454L96.2832 110.271Z" fill="#F0AB85"/>
<path fill-rule="evenodd" clip-rule="evenodd" d="M49.4965 118.805L52.1816 123.862L49.223 123.719L49.0151 118.641L49.4965 118.805Z" fill="#F0AB85"/>
<path fill-rule="evenodd" clip-rule="evenodd" d="M45.2798 116.564L47.76 116.56L48.7879 132.592H44.3428L45.2798 116.564Z" fill="#FFFFFE"/>
<path fill-rule="evenodd" clip-rule="evenodd" d="M40.7263 163.625C40.7263 163.625 40.1132 164.108 40.2257 164.722C40.3378 165.336 40.4972 166.774 40.4972 166.774H41.1272L41.1079 165.433C41.1099 165.345 42.4596 166.774 42.6882 166.774H46.024C46.024 166.774 46.2452 165.869 44.2867 165.579C42.3283 165.288 40.7263 163.625 40.7263 163.625Z" fill="#13374D"/>
<path fill-rule="evenodd" clip-rule="evenodd" d="M42.1717 163.013L42.6239 164.19C42.735 164.513 42.9517 164.788 43.2395 164.972C43.5579 165.176 44.0561 165.46 44.7971 165.679C43.8907 166.453 42.4481 165.645 41.6232 165.073C41.2208 164.795 40.9365 164.379 40.8165 163.905L40.6274 163.013H42.1717Z" fill="#F0AB85"/>
<path fill-rule="evenodd" clip-rule="evenodd" d="M47.0797 163.625C47.0797 163.625 46.4671 164.108 46.5791 164.722C46.6917 165.336 46.8506 166.774 46.8506 166.774H47.4811L47.4618 165.433C47.4633 165.345 48.8135 166.774 49.0421 166.774H52.3774C52.3774 166.774 52.5991 165.869 50.6406 165.579C48.6817 165.288 47.0797 163.625 47.0797 163.625Z" fill="#13374D"/>
<path fill-rule="evenodd" clip-rule="evenodd" d="M48.5262 163.013L48.9784 164.19C49.0895 164.513 49.3062 164.788 49.594 164.972C49.9119 165.176 50.4101 165.46 51.1511 165.679C50.2447 166.453 48.8026 165.645 47.9772 165.073C47.5753 164.795 47.2905 164.379 47.171 163.905L46.9819 163.013H48.5262Z" fill="#F0AB85"/>
<path fill-rule="evenodd" clip-rule="evenodd" d="M43.3773 132.592C43.3773 132.592 42.9611 134.989 45.3569 146.766C43.4173 152.904 46.5235 163.173 46.5235 163.173H48.788L50.3298 132.592H43.3773Z" fill="#21837F"/>
<path fill-rule="evenodd" clip-rule="evenodd" d="M47.4883 116.563L48.2925 136.015L50.9579 134.874C50.9579 134.874 49.7568 131.222 49.8713 126.149C49.4635 122.481 51.5449 124.414 48.995 117.35C48.0452 116.56 47.4883 116.563 47.4883 116.563Z" fill="#17324A"/>
<path fill-rule="evenodd" clip-rule="evenodd" d="M47.8359 114.554L47.5239 116.194C47.3861 116.916 46.5666 117.273 45.9441 116.883L44.8501 116.197L46.8036 111.782L47.8359 114.554Z" fill="#EC967C"/>
<path fill-rule="evenodd" clip-rule="evenodd" d="M41.1989 132.592C41.1989 132.592 38.2319 134.989 40.6282 146.766C38.6885 152.904 40.4001 163.173 40.4001 163.173H42.4326L48.1509 132.592H41.1989Z" fill="#5BBDB7"/>
<path fill-rule="evenodd" clip-rule="evenodd" d="M45.2797 114.915C45.2797 114.915 42.7752 116.323 41.9972 117.579C41.2552 118.777 40.9985 121.503 40.9274 123.929C40.8291 127.262 39.2202 136.015 39.2202 136.015H45.9333L46.1007 116.958L45.2797 114.915Z" fill="#17324A"/>
<path fill-rule="evenodd" clip-rule="evenodd" d="M50.2222 109.634C48.7036 109.25 47.2433 110.806 47.2433 110.806L46.1009 116.958L44.3444 114.251C44.3444 114.251 44.2442 110.572 45.9419 108.136C47.1579 106.661 49.492 107.085 50.6719 108.519C51.2456 109.217 51.3655 110.18 51.3097 111.067C51.2352 112.257 50.898 119.089 50.898 119.089L47.4195 116.512C47.4195 116.512 47.503 115.817 47.8357 114.554C48.4089 112.38 51.2416 109.893 50.2222 109.634Z" fill="#1B2441"/>
<path fill-rule="evenodd" clip-rule="evenodd" d="M46.7888 110.712C47.0129 110.621 47.3032 110.772 47.437 111.05C47.5703 111.328 47.4967 111.627 47.2721 111.718C47.048 111.809 46.7577 111.658 46.6244 111.38C46.4906 111.103 46.5642 110.803 46.7888 110.712Z" fill="#F0AB85"/>
<path fill-rule="evenodd" clip-rule="evenodd" d="M48.4181 114.843C48.7005 114.946 48.9769 115.005 49.1606 114.938C50.4812 113.982 50.9581 110.159 50.9581 110.159L49.9125 109.048L47.8296 109.505L46.8038 111.782C46.5298 112.39 46.5614 113.092 46.8892 113.673C47.2777 114.199 47.804 114.616 48.4181 114.843Z" fill="#F0AB85"/>
<path fill-rule="evenodd" clip-rule="evenodd" d="M50.57 109.555C50.4618 110.711 47.2435 110.806 47.2435 110.806L47.0757 109.241L48.9522 108.208L50.4372 109.102C50.4372 109.102 50.5868 109.362 50.57 109.555Z" fill="#1B2441"/>
<path fill-rule="evenodd" clip-rule="evenodd" d="M50.4997 109.779C50.3931 110.21 50.829 110.96 50.829 110.96L51.0847 110.497L51.0778 110.097L50.825 109.784C50.825 109.784 50.6068 109.349 50.4997 109.779Z" fill="#1B2441"/>
<path fill-rule="evenodd" clip-rule="evenodd" d="M42.6822 117.579C39.4337 117.958 40.9681 126.337 41.6657 129.778C41.8375 130.625 42.7034 131.142 43.5274 130.882C46.3537 129.991 50.4828 126.289 50.4828 126.289L49.8282 125.465L44.3429 126.745C44.3429 126.745 46.448 117.139 42.6822 117.579Z" fill="#F0AB85"/>
<path fill-rule="evenodd" clip-rule="evenodd" d="M49.1807 123.497L48.1198 130.062C48.0892 130.253 48.2363 130.425 48.4288 130.425H52.6281C52.7821 130.425 52.9129 130.314 52.9371 130.162L53.9788 123.596C54.0089 123.407 53.8623 123.234 53.6697 123.234H49.4892C49.3357 123.234 49.2054 123.346 49.1807 123.497Z" fill="#21837F"/>
<path fill-rule="evenodd" clip-rule="evenodd" d="M53.841 126.404C53.8667 126.173 53.845 126.029 53.768 125.551C53.6678 124.931 53.6939 123.958 53.06 124.442C52.4607 125.194 52.3911 125.994 52.3911 125.994C52.2692 126.434 52.5387 127.048 52.791 127.38L53.2269 128.33C53.2269 128.33 53.9798 127.454 53.841 126.404Z" fill="#F0AB85"/>
<mask id="mask20" mask-type="alpha" maskUnits="userSpaceOnUse" x="51" y="125" width="1" height="2">
<path d="M51.0942 125.785C51.0942 125.962 51.2374 126.106 51.4146 126.106C51.5914 126.106 51.735 125.962 51.735 125.785C51.735 125.608 51.5914 125.465 51.4146 125.465C51.2374 125.465 51.0942 125.608 51.0942 125.785Z" fill="white"/>
</mask>
<g mask="url(#mask20)">
<path fill-rule="evenodd" clip-rule="evenodd" d="M51.0942 125.785C51.0942 125.962 51.2374 126.106 51.4146 126.106C51.5914 126.106 51.735 125.962 51.735 125.785C51.735 125.608 51.5914 125.465 51.4146 125.465C51.2374 125.465 51.0942 125.608 51.0942 125.785Z" fill="url(#paint20_linear)"/>
</g>
<path fill-rule="evenodd" clip-rule="evenodd" d="M122.936 96.4609L122.707 97.8265C123.132 98.1202 123.688 98.139 124.131 97.8743L124.211 97.8265L124.548 96.4609H122.936Z" fill="#F0AB85"/>
<path fill-rule="evenodd" clip-rule="evenodd" d="M133.878 64.8762C132.665 68.879 128.595 75.0239 128.595 75.0239L131.81 73.7082L134.082 68.4584C134.082 68.4584 135.091 60.8735 133.878 64.8762Z" fill="#A0D2BB"/>
<path fill-rule="evenodd" clip-rule="evenodd" d="M125.142 80.9496L122.606 96.583H124.86C124.86 96.583 129.922 82.517 130.454 78.3819C130.454 76.0394 125.336 78.3819 125.336 78.3819L125.142 80.9496Z" fill="#1B2441"/>
<path fill-rule="evenodd" clip-rule="evenodd" d="M133.537 58.5582L134.378 60.7354L136.199 59.4177L134.97 56.8506L133.537 58.5582Z" fill="#EC967C"/>
<path fill-rule="evenodd" clip-rule="evenodd" d="M132.851 58.9198C132.569 58.9706 132.3 58.9835 132.141 58.9005C131.084 57.8929 131.342 54.5265 131.342 54.5265L132.522 53.7104L134.381 54.3917L134.92 56.4988C135.064 57.0616 134.905 57.6634 134.492 58.1195C134.033 58.5209 133.465 58.8087 132.851 58.9198Z" fill="#F0AB85"/>
<path fill-rule="evenodd" clip-rule="evenodd" d="M134.053 55.1009C133.888 54.7628 133.492 54.6033 133.14 54.7386C132.884 54.8378 132.575 54.942 132.268 55.0057C131.539 55.1587 130.18 55.1454 129.947 54.0356C129.716 52.9258 131.158 53.0211 131.158 53.0211L133.075 53.1534C133.643 53.1924 134.207 53.0773 134.728 52.8502C135.189 52.6493 135.599 53.0768 135.697 53.3627C135.913 53.9892 135.688 55.0595 135.498 55.7457C135.39 56.1431 135.21 56.5163 134.97 56.851L134.053 55.1009Z" fill="#1B2441"/>
<path fill-rule="evenodd" clip-rule="evenodd" d="M135.13 55.5772C134.938 55.4676 134.639 55.5585 134.464 55.7801C134.288 56.0018 134.302 56.2699 134.494 56.3795C134.687 56.4891 134.985 56.3982 135.161 56.1766C135.337 55.9549 135.323 55.6863 135.13 55.5772Z" fill="#F0AB85"/>
<path fill-rule="evenodd" clip-rule="evenodd" d="M122.666 97.6816C122.666 97.6816 122.66 99.1335 119.744 100.004C119.146 100.184 119.341 100.36 119.228 100.612C120.185 100.612 122.583 100.612 122.583 100.612L123.896 99.135L124.306 99.486L125.252 98.5554C125.252 98.5554 125.088 97.2086 124.367 97.1968C123.771 97.3997 122.666 97.6816 122.666 97.6816Z" fill="#1B2441"/>
<path fill-rule="evenodd" clip-rule="evenodd" d="M130.95 96.0355L131.495 97.2924C131.991 97.4336 132.525 97.2717 132.858 96.8782L132.919 96.8076L132.478 95.5151L130.95 96.0355Z" fill="#F0AB85"/>
<path fill-rule="evenodd" clip-rule="evenodd" d="M133.978 60.1264C133.978 60.1264 133.747 59.7685 135.808 58.7026C138.916 61.8104 139.936 73.7081 139.936 73.7081C139.936 73.7081 132.67 73.7081 131.81 73.7081C131.535 66.918 133.978 60.1264 133.978 60.1264Z" fill="#005C5A"/>
<path fill-rule="evenodd" clip-rule="evenodd" d="M125.948 73.3862C125.912 73.2326 125.981 73.0732 126.117 72.9942L127.442 72.226C127.77 72.0359 128.156 71.9737 128.527 72.0508L129.963 72.108L130.151 72.3346L130.45 73.6044C130.162 73.5348 129.992 73.4908 129.992 73.4908L129.08 73.516C129.08 73.516 127.359 75.114 126.507 73.7243C126.471 75.2034 126.038 75.0899 126.038 75.0899L125.948 73.3862Z" fill="#F0AB85"/>
<path fill-rule="evenodd" clip-rule="evenodd" d="M139.936 73.708L140.059 74.7161C140.06 74.7299 140.062 74.7433 140.063 74.7566C140.282 76.6815 139.014 78.4651 137.149 78.9879C137.149 78.9879 133.45 80.2128 128.781 80.4685C131.846 84.4036 132.694 95.4458 132.694 95.4458L130.719 96.1626L123.093 77.9991C122.606 76.8384 123.295 75.5213 124.526 75.2592L131.81 73.708H139.936Z" fill="#13374D"/>
<path fill-rule="evenodd" clip-rule="evenodd" d="M134.856 64.0131C134.856 64.0131 136.369 65.3983 137.259 66.8191C137.507 67.2136 137.47 67.7246 137.164 68.0766C135.472 70.0256 129.441 71.8977 129.441 71.8977L129.832 74.097C129.832 74.097 138.389 72.414 141.421 69.374C144.53 66.2549 136.49 59.7393 136.49 59.7393" fill="#005C5A"/>
<path fill-rule="evenodd" clip-rule="evenodd" d="M137.157 66.8835C137.378 67.2369 137.345 67.6847 137.073 67.9977C136.301 68.8868 134.241 69.8367 132.443 70.5248C132.446 70.6354 132.441 70.6428 132.443 70.7742C134.331 70.0652 136.412 69.1263 137.255 68.1557C137.597 67.7622 137.639 67.1989 137.361 66.7551C136.472 65.3367 134.952 63.9381 134.937 63.9238L134.774 64.1021C134.789 64.1159 136.285 65.4928 137.157 66.8835Z" fill="#21837F"/>
<path fill-rule="evenodd" clip-rule="evenodd" d="M139.636 70.5962C136.35 72.3695 131.534 73.6402 129.815 73.9996C129.832 74.0969 129.848 74.1774 129.866 74.2322C131.521 73.894 136.291 72.6692 139.669 70.8741C139.665 70.7808 139.651 70.6831 139.636 70.5962Z" fill="#21837F"/>
<path fill-rule="evenodd" clip-rule="evenodd" d="M122.752 76.0395L120.219 66.9839L120.684 66.8535L123.099 75.489L130.371 74.2257L130.454 74.7011L122.752 76.0395Z" fill="#21837F"/>
<path fill-rule="evenodd" clip-rule="evenodd" d="M131.375 97.0144C131.375 97.0144 131.489 98.4782 128.574 99.3491C127.976 99.5283 128.17 99.705 128.058 99.9563C129.015 99.9563 131.413 99.9563 131.413 99.9563L132.726 98.4792L133.135 98.8302L134.082 97.9001C134.082 97.9001 133.64 96.5534 132.918 96.5415C132.324 96.7444 131.375 97.0144 131.375 97.0144Z" fill="#1B2441"/>
<defs>
<linearGradient id="paint0_linear" x1="42.4218" y1="80.676" x2="44.2509" y2="80.676" gradientUnits="userSpaceOnUse">
<stop stop-color="#D4EBDE"/>
<stop offset="1" stop-color="#B0DCDF"/>
</linearGradient>
<linearGradient id="paint1_linear" x1="39.2183" y1="98.3454" x2="56.0362" y2="98.3454" gradientUnits="userSpaceOnUse">
<stop stop-color="#D4EBDE"/>
<stop offset="1" stop-color="#B0DCDF"/>
</linearGradient>
<linearGradient id="paint2_linear" x1="48.4273" y1="115.098" x2="50.5172" y2="115.098" gradientUnits="userSpaceOnUse">
<stop stop-color="#D4EBDE"/>
<stop offset="1" stop-color="#B0DCDF"/>
</linearGradient>
<linearGradient id="paint3_linear" x1="198.362" y1="61.7406" x2="201.563" y2="61.7406" gradientUnits="userSpaceOnUse">
<stop stop-color="#D4EBDE"/>
<stop offset="1" stop-color="#B0DCDF"/>
</linearGradient>
<linearGradient id="paint4_linear" x1="159.299" y1="21.3812" x2="162.676" y2="21.3812" gradientUnits="userSpaceOnUse">
<stop stop-color="#D4EBDE"/>
<stop offset="1" stop-color="#B0DCDF"/>
</linearGradient>
<linearGradient id="paint5_linear" x1="163.805" y1="20.9214" x2="167.214" y2="20.9214" gradientUnits="userSpaceOnUse">
<stop stop-color="#D4EBDE"/>
<stop offset="1" stop-color="#B0DCDF"/>
</linearGradient>
<linearGradient id="paint6_linear" x1="194.692" y1="59.4423" x2="197.464" y2="59.4423" gradientUnits="userSpaceOnUse">
<stop stop-color="#D4EBDE"/>
<stop offset="1" stop-color="#B0DCDF"/>
</linearGradient>
<linearGradient id="paint7_linear" x1="191.948" y1="56.1152" x2="194.106" y2="56.1152" gradientUnits="userSpaceOnUse">
<stop stop-color="#D4EBDE"/>
<stop offset="1" stop-color="#B0DCDF"/>
</linearGradient>
<linearGradient id="paint8_linear" x1="190.338" y1="52.049" x2="191.785" y2="52.049" gradientUnits="userSpaceOnUse">
<stop stop-color="#D4EBDE"/>
<stop offset="1" stop-color="#B0DCDF"/>
</linearGradient>
<linearGradient id="paint9_linear" x1="184.005" y1="30.3693" x2="186.234" y2="30.3693" gradientUnits="userSpaceOnUse">
<stop stop-color="#D4EBDE"/>
<stop offset="1" stop-color="#B0DCDF"/>
</linearGradient>
<linearGradient id="paint10_linear" x1="186.515" y1="34.3056" x2="188.226" y2="34.3056" gradientUnits="userSpaceOnUse">
<stop stop-color="#D4EBDE"/>
<stop offset="1" stop-color="#B0DCDF"/>
</linearGradient>
<linearGradient id="paint11_linear" x1="180.79" y1="26.9762" x2="183.443" y2="26.9762" gradientUnits="userSpaceOnUse">
<stop stop-color="#D4EBDE"/>
<stop offset="1" stop-color="#B0DCDF"/>
</linearGradient>
<linearGradient id="paint12_linear" x1="172.815" y1="22.2435" x2="176.051" y2="22.2435" gradientUnits="userSpaceOnUse">
<stop stop-color="#D4EBDE"/>
<stop offset="1" stop-color="#B0DCDF"/>
</linearGradient>
<linearGradient id="paint13_linear" x1="189.008" y1="43.1138" x2="189.914" y2="43.1138" gradientUnits="userSpaceOnUse">
<stop stop-color="#D4EBDE"/>
<stop offset="1" stop-color="#B0DCDF"/>
</linearGradient>
<linearGradient id="paint14_linear" x1="177.015" y1="24.2296" x2="180.002" y2="24.2296" gradientUnits="userSpaceOnUse">
<stop stop-color="#D4EBDE"/>
<stop offset="1" stop-color="#B0DCDF"/>
</linearGradient>
<linearGradient id="paint15_linear" x1="189.546" y1="47.6261" x2="190.544" y2="47.6261" gradientUnits="userSpaceOnUse">
<stop stop-color="#D4EBDE"/>
<stop offset="1" stop-color="#B0DCDF"/>
</linearGradient>
<linearGradient id="paint16_linear" x1="202.651" y1="62.8624" x2="206.037" y2="62.8624" gradientUnits="userSpaceOnUse">
<stop stop-color="#D4EBDE"/>
<stop offset="1" stop-color="#B0DCDF"/>
</linearGradient>
<linearGradient id="paint17_linear" x1="188.165" y1="38.6243" x2="189.326" y2="38.6243" gradientUnits="userSpaceOnUse">
<stop stop-color="#D4EBDE"/>
<stop offset="1" stop-color="#B0DCDF"/>
</linearGradient>
<linearGradient id="paint18_linear" x1="168.348" y1="21.1354" x2="171.731" y2="21.1354" gradientUnits="userSpaceOnUse">
<stop stop-color="#D4EBDE"/>
<stop offset="1" stop-color="#B0DCDF"/>
</linearGradient>
<linearGradient id="paint19_linear" x1="88.4614" y1="127.06" x2="101.177" y2="127.06" gradientUnits="userSpaceOnUse">
<stop stop-color="#D4EBDE"/>
<stop offset="1" stop-color="#B0DCDF"/>
</linearGradient>
<linearGradient id="paint20_linear" x1="51.0942" y1="125.785" x2="51.735" y2="125.785" gradientUnits="userSpaceOnUse">
<stop stop-color="#D4EBDE"/>
<stop offset="1" stop-color="#B0DCDF"/>
</linearGradient>
</defs>
</svg>
