<svg xmlns="http://www.w3.org/2000/svg" width="125" height="124" viewBox="0 0 125 124">
    <g fill="none" fill-rule="evenodd">
        <path fill="#FFB50D" d="M62.226 36.056L36.46 61.557 10.693 36.056 36.46 10.554z"/>
        <path fill="#27E3CC" d="M62.226 87.062L36.46 61.56l25.765-25.505"/>
        <path fill="#5203E9" d="M62.226 36.056L87.99 61.557 62.226 87.063"/>
        <path fill="#3E7EFF" d="M113.755 87.062L87.991 112.56 62.226 87.062 87.991 61.56z"/>
        <path fill="#FFB50D" d="M87.98 61.57H36.447"/>
        <path fill="#07C0A6" d="M113.744 36.067L87.979 61.569l25.765 25.502c14.23-14.086 14.23-36.923 0-51.004"/>
        <path fill="#27E3CC" d="M62.214 36.067L87.98 61.569l25.764-25.502c-14.226-14.085-37.299-14.085-51.529 0"/>
        <path fill="#5203E9" d="M10.673 87.081L36.437 61.58 10.673 36.078c-14.23 14.085-14.23 36.922 0 51.003"/>
        <path fill="#FFDD0F" d="M36.448 10.564l25.765 25.502L87.98 10.564c-14.23-14.085-37.302-14.085-51.533 0"/>
        <path fill="#3B03A8" d="M62.203 87.081L36.438 61.58 10.674 87.081c14.23 14.085 37.298 14.085 51.529 0"/>
        <path fill="#2C50FF" d="M87.968 112.584L62.204 87.082l-25.769 25.502c14.23 14.085 37.303 14.085 51.533 0"/>
    </g>
</svg>
