<?xml version="1.0" encoding="UTF-8"?>
<svg width="73px" height="72px" viewBox="0 0 73 72" version="1.1" xmlns="http://www.w3.org/2000/svg" xmlns:xlink="http://www.w3.org/1999/xlink">
    <!-- Generator: sketchtool 45 (43475) - http://www.bohemiancoding.com/sketch -->
    <title>B0309664-E2F0-4E3A-93AE-BDB91244AB9C</title>
    <desc>Created with sketchtool.</desc>
    <defs></defs>
    <g id="Page-1" stroke="none" stroke-width="1" fill="none" fill-rule="evenodd">
        <g id="Referral" transform="translate(-736.000000, -774.000000)">
            <g id="Group-10" transform="translate(-97.000000, 613.000000)">
                <g id="Group-6" transform="translate(484.000000, 161.000000)">
                    <g id="Group-4" transform="translate(168.000000, 0.000000)">
                        <g id="Group-8">
                            <g id="Google-+" transform="translate(181.000000, 0.000000)">
                                <path d="M0,35.9574468 C0,16.0986963 16.1410396,0 36.0520231,0 C55.9630067,0 72.1040462,16.0986963 72.1040462,35.9574468 C72.1040462,55.8161973 55.9630067,71.9148936 36.0520231,71.9148936 C16.1410396,71.9148936 0,55.8161973 0,35.9574468 Z" id="back" fill="#DC4E41"></path>
                                <path d="M29.4545455,34.9300912 L29.4545455,38.8340426 L35.9509091,38.8340426 C35.6890909,40.5094883 33.9872727,43.7465147 29.4545455,43.7465147 C25.5436364,43.7465147 22.3527273,40.5257548 22.3527273,36.5567376 C22.3527273,32.5877204 25.5436364,29.3669605 29.4545455,29.3669605 C31.68,29.3669605 33.1690909,30.3104154 34.02,31.1237386 L37.1290909,28.1469757 C35.1327273,26.2925988 32.5472727,25.1702128 29.4545455,25.1702128 C23.1218182,25.1702128 18,30.261616 18,36.5567376 C18,42.8518592 23.1218182,47.9432624 29.4545455,47.9432624 C36.0654545,47.9432624 40.4509091,43.3235866 40.4509091,36.817001 C40.4509091,36.0687437 40.3690909,35.4994174 40.2709091,34.9300912 L29.4545455,34.9300912 L29.4545455,34.9300912 Z" id="Shape" fill="#FFFFFF"></path>
                                <polyline id="Shape-Copy" fill="#FFFFFF" points="54 34.9300912 50.7272727 34.9300912 50.7272727 31.6767984 47.4545455 31.6767984 47.4545455 34.9300912 44.1818182 34.9300912 44.1818182 38.183384 47.4545455 38.183384 47.4545455 41.4366768 50.7272727 41.4366768 50.7272727 38.183384 54 38.183384"></polyline>
                            </g>
                        </g>
                    </g>
                </g>
            </g>
        </g>
    </g>
</svg>