<svg width="20" height="21" viewBox="0 0 20 21" fill="none" xmlns="http://www.w3.org/2000/svg">
<path d="M9 5.12547H11V7.16133H9V5.12547ZM9 9.19719H11V15.3048H9V9.19719ZM10 0.0358276C4.48 0.0358276 0 4.59615 0 10.2151C0 15.8341 4.48 20.3944 10 20.3944C15.52 20.3944 20 15.8341 20 10.2151C20 4.59615 15.52 0.0358276 10 0.0358276ZM10 18.3586C5.59 18.3586 2 14.7042 2 10.2151C2 5.72605 5.59 2.07169 10 2.07169C14.41 2.07169 18 5.72605 18 10.2151C18 14.7042 14.41 18.3586 10 18.3586Z" fill="#CCCCCC"/>
</svg>
