<svg width="120" height="120" viewBox="0 0 120 120" fill="none" xmlns="http://www.w3.org/2000/svg">
<path fill-rule="evenodd" clip-rule="evenodd" d="M60 120C93.1371 120 120 93.1371 120 60C120 26.8629 93.1371 0 60 0C26.8629 0 0 26.8629 0 60C0 93.1371 26.8629 120 60 120Z" fill="#F3F5FD"/>
<mask id="mask0" mask-type="alpha" maskUnits="userSpaceOnUse" x="0" y="0" width="120" height="120">
<path fill-rule="evenodd" clip-rule="evenodd" d="M60 120C93.1371 120 120 93.1371 120 60C120 26.8629 93.1371 0 60 0C26.8629 0 0 26.8629 0 60C0 93.1371 26.8629 120 60 120Z" fill="white"/>
</mask>
<g mask="url(#mask0)">
<rect x="21.4285" y="25.7148" width="77.1429" height="98.5714" fill="#79C0FF"/>
<g filter="url(#filter0_d)">
<path fill-rule="evenodd" clip-rule="evenodd" d="M25.7141 30H85.7108L102.857 47.1429V128.571H25.7141V30Z" fill="white"/>
</g>
<path fill-rule="evenodd" clip-rule="evenodd" d="M102.857 47.1429H85.7141V30L102.857 47.1429Z" fill="#C4E3FF"/>
<path d="M34.2854 72.8577C34.2854 71.6742 35.2448 70.7148 36.4283 70.7148H92.1425C93.326 70.7148 94.2854 71.6742 94.2854 72.8577C94.2854 74.0412 93.326 75.0006 92.1425 75.0006H36.4283C35.2448 75.0006 34.2854 74.0412 34.2854 72.8577Z" fill="#C4E3FF"/>
<path d="M34.2854 81.4291C34.2854 80.2457 35.2448 79.2863 36.4283 79.2863H92.1425C93.326 79.2863 94.2854 80.2457 94.2854 81.4291C94.2854 82.6126 93.326 83.572 92.1425 83.572H36.4283C35.2448 83.572 34.2854 82.6126 34.2854 81.4291Z" fill="#C4E3FF"/>
<path d="M34.2854 90.0006C34.2854 88.8171 35.2448 87.8577 36.4283 87.8577H92.1425C93.326 87.8577 94.2854 88.8171 94.2854 90.0006C94.2854 91.184 93.326 92.1434 92.1425 92.1434H36.4283C35.2448 92.1434 34.2854 91.184 34.2854 90.0006Z" fill="#C4E3FF"/>
<path d="M34.2854 98.572C34.2854 97.3885 35.2448 96.4291 36.4283 96.4291H92.1425C93.326 96.4291 94.2854 97.3885 94.2854 98.572C94.2854 99.7555 93.326 100.715 92.1425 100.715H36.4283C35.2448 100.715 34.2854 99.7555 34.2854 98.572Z" fill="#C4E3FF"/>
<path d="M34.2854 107.143C34.2854 105.96 35.2448 105.001 36.4283 105.001H92.1425C93.326 105.001 94.2854 105.96 94.2854 107.143C94.2854 108.327 93.326 109.286 92.1425 109.286H36.4283C35.2448 109.286 34.2854 108.327 34.2854 107.143Z" fill="#C4E3FF"/>
<path d="M34.2854 115.715C34.2854 114.531 35.2448 113.572 36.4283 113.572H92.1425C93.326 113.572 94.2854 114.531 94.2854 115.715C94.2854 116.898 93.326 117.858 92.1425 117.858H36.4283C35.2448 117.858 34.2854 116.898 34.2854 115.715Z" fill="#C4E3FF"/>
<path fill-rule="evenodd" clip-rule="evenodd" d="M63.4704 63.9073C63.3428 64.2191 62.9866 64.3685 62.6747 64.241C62.4788 64.1608 62.3384 63.9848 62.3038 63.7759C62.2244 63.2959 61.771 62.9712 61.2911 63.0506C61.058 63.0891 60.8501 63.2197 60.7142 63.413C60.5205 63.6887 60.1399 63.7551 59.8643 63.5613C59.6911 63.4395 59.5934 63.2367 59.6062 63.0253C59.6356 62.5398 59.2658 62.1223 58.7802 62.0929C58.5444 62.0786 58.3127 62.1596 58.1372 62.3179C57.8869 62.5435 57.5012 62.5235 57.2755 62.2733C57.1337 62.116 57.0836 61.8965 57.1432 61.6933C57.2799 61.2265 57.0123 60.7372 56.5454 60.6004C56.3187 60.534 56.0747 60.5615 55.8684 60.6767C55.5742 60.841 55.2026 60.7357 55.0383 60.4415C54.9351 60.2567 54.9351 60.0315 55.0383 59.8466C55.2755 59.4219 55.1235 58.8853 54.6987 58.6481C54.4924 58.5329 54.2485 58.5055 54.0217 58.5719C53.6984 58.6666 53.3595 58.4812 53.2648 58.1579C53.2052 57.9547 53.2554 57.7351 53.3971 57.5779C53.7229 57.2166 53.6941 56.6596 53.3328 56.3339C53.1573 56.1757 52.9256 56.0946 52.6897 56.1089C52.3534 56.1292 52.0642 55.8731 52.0439 55.5368C52.0311 55.3254 52.1288 55.1226 52.302 55.0008C52.6999 54.7211 52.7958 54.1717 52.516 53.7737C52.3802 53.5804 52.1723 53.4498 51.9392 53.4112C51.6067 53.3562 51.3818 53.0422 51.4368 52.7098C51.4714 52.5009 51.6117 52.3248 51.8077 52.2446C52.258 52.0605 52.4737 51.5462 52.2895 51.0959C52.2 50.8772 52.0264 50.7036 51.8077 50.6142C51.4959 50.4866 51.3465 50.1304 51.474 49.8185C51.5542 49.6226 51.7303 49.4822 51.9392 49.4476C52.4191 49.3682 52.7438 48.9148 52.6645 48.4349C52.6259 48.2018 52.4953 47.9939 52.302 47.858C52.0263 47.6643 51.9599 47.2837 52.1537 47.0081C52.2755 46.8349 52.4784 46.7372 52.6897 46.75C53.1753 46.7794 53.5927 46.4096 53.6222 45.924C53.6365 45.6882 53.5554 45.4565 53.3971 45.281C53.1715 45.0307 53.1915 44.645 53.4417 44.4193C53.599 44.2775 53.8185 44.2274 54.0217 44.287C54.4886 44.4237 54.9779 44.1561 55.1146 43.6892C55.181 43.4624 55.1535 43.2185 55.0383 43.0122C54.874 42.718 54.9793 42.3464 55.2735 42.1821C55.4584 42.0789 55.6835 42.0789 55.8684 42.1821C56.2931 42.4193 56.8297 42.2673 57.0669 41.8425C57.1821 41.6362 57.2096 41.3923 57.1432 41.1655C57.0485 40.8422 57.2338 40.5033 57.5572 40.4086C57.7604 40.349 57.9799 40.3992 58.1372 40.5409C58.4984 40.8667 59.0554 40.8379 59.3811 40.4766C59.5394 40.3011 59.6204 40.0694 59.6062 39.8335C59.5858 39.4972 59.8419 39.208 60.1782 39.1877C60.3896 39.1748 60.5925 39.2726 60.7142 39.4458C60.994 39.8437 61.5434 39.9396 61.9413 39.6598C62.1347 39.524 62.2653 39.3161 62.3038 39.083C62.3588 38.7505 62.6728 38.5256 63.0053 38.5806C63.2142 38.6151 63.3902 38.7555 63.4704 38.9515C63.6546 39.4018 64.1688 39.6175 64.6191 39.4333C64.8378 39.3438 65.0114 39.1702 65.1008 38.9515C65.2284 38.6397 65.5846 38.4903 65.8965 38.6178C66.0925 38.698 66.2329 38.8741 66.2674 39.083C66.3468 39.5629 66.8002 39.8876 67.2801 39.8083C67.5133 39.7697 67.7211 39.6391 67.857 39.4458C68.0508 39.1701 68.4313 39.1037 68.7069 39.2975C68.8802 39.4193 68.9779 39.6222 68.9651 39.8335C68.9356 40.3191 69.3054 40.7365 69.791 40.766C70.0269 40.7802 70.2586 40.6992 70.4341 40.5409C70.6843 40.3153 71.0701 40.3353 71.2957 40.5855C71.4375 40.7428 71.4876 40.9623 71.4281 41.1655C71.2913 41.6324 71.559 42.1217 72.0258 42.2584C72.2526 42.3248 72.4965 42.2973 72.7028 42.1821C72.997 42.0178 73.3686 42.1231 73.5329 42.4173C73.6362 42.6022 73.6362 42.8273 73.5329 43.0122C73.2957 43.4369 73.4478 43.9735 73.8725 44.2107C74.0788 44.3259 74.3227 44.3534 74.5495 44.287C74.8729 44.1922 75.2118 44.3776 75.3065 44.701C75.366 44.9042 75.3159 45.1237 75.1741 45.281C74.8483 45.6422 74.8772 46.1992 75.2384 46.5249C75.4139 46.6832 75.6457 46.7642 75.8815 46.75C76.2178 46.7296 76.507 46.9857 76.5274 47.322C76.5402 47.5334 76.4425 47.7363 76.2692 47.858C75.8713 48.1378 75.7754 48.6872 76.0552 49.0851C76.1911 49.2785 76.3989 49.4091 76.6321 49.4476C76.9645 49.5026 77.1894 49.8166 77.1344 50.1491C77.0999 50.358 76.9595 50.534 76.7635 50.6142C76.3133 50.7983 76.0976 51.3126 76.2817 51.7629C76.3712 51.9816 76.5448 52.1552 76.7635 52.2446C77.0753 52.3722 77.2247 52.7284 77.0972 53.0403C77.017 53.2363 76.841 53.3767 76.6321 53.4112C76.1521 53.4906 75.8274 53.944 75.9068 54.4239C75.9453 54.657 76.0759 54.8649 76.2692 55.0008C76.5449 55.1946 76.6113 55.5751 76.4175 55.8507C76.2957 56.024 76.0929 56.1217 75.8815 56.1089C75.396 56.0794 74.9785 56.4492 74.9491 56.9348C74.9348 57.1707 75.0159 57.4024 75.1741 57.5779C75.3997 57.8281 75.3797 58.2139 75.1295 58.4395C74.9722 58.5813 74.7527 58.6314 74.5495 58.5719C74.0827 58.4351 73.5934 58.7028 73.4566 59.1696C73.3902 59.3964 73.4177 59.6403 73.5329 59.8466C73.6972 60.1408 73.5919 60.5124 73.2977 60.6767C73.1129 60.78 72.8877 60.78 72.7028 60.6767C72.2781 60.4395 71.7415 60.5916 71.5044 61.0163C71.3891 61.2226 71.3617 61.4665 71.4281 61.6933C71.5228 62.0167 71.3374 62.3556 71.0141 62.4503C70.8109 62.5098 70.5913 62.4597 70.4341 62.3179C70.0728 61.9921 69.5158 62.021 69.1901 62.3822C69.0319 62.5577 68.9508 62.7895 68.9651 63.0253C68.9854 63.3616 68.7293 63.6508 68.393 63.6712C68.1816 63.684 67.9788 63.5863 67.857 63.413C67.5773 63.0151 67.0279 62.9192 66.6299 63.199C66.4366 63.3349 66.306 63.5427 66.2674 63.7759C66.2124 64.1083 65.8984 64.3332 65.566 64.2782C65.3571 64.2437 65.181 64.1033 65.1008 63.9073C64.9167 63.4571 64.4024 63.2414 63.9521 63.4255C63.7334 63.515 63.5598 63.6886 63.4704 63.9073Z" fill="#C4E3FF"/>
<path fill-rule="evenodd" clip-rule="evenodd" d="M54.1069 51.4286C54.1069 45.8071 58.664 41.25 64.2855 41.25C69.907 41.25 74.4641 45.8071 74.4641 51.4286C74.4641 57.05 69.907 61.6071 64.2855 61.6071C58.664 61.6071 54.1069 57.05 54.1069 51.4286ZM64.2855 42.3214C59.2558 42.3214 55.1784 46.3988 55.1784 51.4286C55.1784 56.4583 59.2558 60.5357 64.2855 60.5357C69.3152 60.5357 73.3926 56.4583 73.3926 51.4286C73.3926 46.3988 69.3152 42.3214 64.2855 42.3214Z" fill="white"/>
<g filter="url(#filter1_d)">
<path fill-rule="evenodd" clip-rule="evenodd" d="M27 38C31.9706 38 36 33.9706 36 29C36 24.0294 31.9706 20 27 20C22.0294 20 18 24.0294 18 29C18 33.9706 22.0294 38 27 38Z" fill="#FFB50D"/>
<path d="M26 32H28V34H26V32ZM26 24H28V30H26V24Z" fill="white"/>
</g>
</g>
<defs>
<filter id="filter0_d" x="22.7141" y="29" width="81.1429" height="102.571" filterUnits="userSpaceOnUse" color-interpolation-filters="sRGB">
<feFlood flood-opacity="0" result="BackgroundImageFix"/>
<feColorMatrix in="SourceAlpha" type="matrix" values="0 0 0 0 0 0 0 0 0 0 0 0 0 0 0 0 0 0 127 0"/>
<feOffset dx="-1" dy="1"/>
<feGaussianBlur stdDeviation="1"/>
<feColorMatrix type="matrix" values="0 0 0 0 0 0 0 0 0 0 0 0 0 0 0 0 0 0 0.12 0"/>
<feBlend mode="normal" in2="BackgroundImageFix" result="effect1_dropShadow"/>
<feBlend mode="normal" in="SourceGraphic" in2="effect1_dropShadow" result="shape"/>
</filter>
<filter id="filter1_d" x="14" y="18" width="26" height="26" filterUnits="userSpaceOnUse" color-interpolation-filters="sRGB">
<feFlood flood-opacity="0" result="BackgroundImageFix"/>
<feColorMatrix in="SourceAlpha" type="matrix" values="0 0 0 0 0 0 0 0 0 0 0 0 0 0 0 0 0 0 127 0"/>
<feOffset dy="2"/>
<feGaussianBlur stdDeviation="2"/>
<feColorMatrix type="matrix" values="0 0 0 0 0 0 0 0 0 0 0 0 0 0 0 0 0 0 0.25 0"/>
<feBlend mode="normal" in2="BackgroundImageFix" result="effect1_dropShadow"/>
<feBlend mode="normal" in="SourceGraphic" in2="effect1_dropShadow" result="shape"/>
</filter>
</defs>
</svg>
