<svg xmlns="http://www.w3.org/2000/svg" width="14" height="17" viewBox="0 0 14 17">
    <path fill="#19C0A6" fill-rule="evenodd" d="M13.415 7.937a1.107 1.107 0 0 0-.811-.332h-.382V5.323c0-1.458-.525-2.709-1.575-3.754C9.596.523 8.339 0 6.875 0S4.153.523 3.103 1.569c-1.05 1.045-1.575 2.296-1.575 3.754v2.282h-.382a1.11 1.11 0 0 0-.812.332A1.1 1.1 0 0 0 0 8.745v6.845c0 .316.112.586.334.808.223.221.494.332.812.332h11.458c.318 0 .589-.11.812-.332a1.1 1.1 0 0 0 .334-.808V8.745c0-.316-.112-.586-.335-.808zM9.93 7.605H3.82V5.323c0-.84.3-1.557.896-2.15a2.95 2.95 0 0 1 2.16-.891 2.95 2.95 0 0 1 2.16.89c.597.594.895 1.311.895 2.151v2.282z"/>
</svg>
