<svg xmlns="http://www.w3.org/2000/svg" xmlns:xlink="http://www.w3.org/1999/xlink" width="104" height="104" viewBox="0 0 104 104">
    <defs>
        <circle id="a" cx="52" cy="52" r="52"/>
    </defs>
    <g fill="none" fill-rule="evenodd">
        <mask id="b" fill="#fff">
            <use xlink:href="#a"/>
        </mask>
        <use fill="#BEF1EA" xlink:href="#a"/>
        <g mask="url(#b)">
            <path fill="#000" fill-opacity="0" fill-rule="nonzero" d="M13.4 2.172h79.134V155.92H13.4z"/>
            <path fill="#FFF" d="M42.443 62.734l.212 15.148-4.09-1.094 2.308-14.768 1.57.714"/>
            <path fill="#EC967C" d="M40.246 59.009a2.21 2.21 0 0 0 .1 1.569l.53 1.985.375.19 1.2.436c-.188-.38-.076.03-.076.03l.435-3.061s1.281-1.8-1.54-2.567c-.27-.073-.573.01-.731.24-.397.582-.293 1.178-.293 1.178"/>
            <path fill="#000" fill-opacity="0" fill-rule="nonzero" d="M21.81 2.185l70.737 8.829-8.423 67.488-70.737-8.828z"/>
            <g fill-rule="nonzero">
                <path fill="#08C0A6" d="M56.266 13l6.6 20.62L84 38.807l-17.69 12.61L67.875 73 50.342 60.175l-20.167 8.148 6.854-20.537L23 31.241l21.77.133z"/>
                <path fill="#000" fill-opacity=".1" d="M62.65 33.62L55.985 13 50 60.175 67.711 73 66.13 51.419 84 38.809z"/>
            </g>
            <path fill="#005C5A" d="M40.38 89.797c1.67-6.287 2.275-11.915 2.275-11.915l-3.946-2.017-1.78 5.234 3.45 8.698"/>
            <path fill="#FFF" d="M56.947 64.692l-5.387 14.15-3.397-2.54 7.588-12.857 1.196 1.247"/>
            <path fill="#FFF" d="M56.28 60.413c-.34.421-.514.953-.488 1.495l-.238 2.042.278.316.953.85c-.034-.422-.081 0-.081 0l1.533-2.68s1.853-1.195-.484-2.958c-.224-.168-.537-.205-.77-.05a1.728 1.728 0 0 0-.704.985M41.992 82.31H38.52l1.386-4.102 2.714 1.677-.628 2.425"/>
            <path fill="#08C0A6" d="M46.604 86.72c-.017-.102-.041-.19-.062-.284 3.439-4.456 5.018-7.595 5.018-7.595l-2.923-3.343-5.302 6.34-1.949.008s-2.632-1.746-4.931.637c-.84.87-1.4 3.232-.839 5.727 1.548 6.883.337 10.523.337 10.523l8.957 3.357s.204-5.984.344-10.181v-.015c.028-.818.3-1.6.728-2.296.493-.803.805-1.781.622-2.878"/>
            <path fill="#FFF" d="M43.212 70.837l-5.694 2.003.561 4.272c.009.06.024.118.036.178.11.02.219.04.328.067l.052.015.052.01c1.313.325 2.244 1.416 2.662 2.679.809.136 1.645.137 2.464-.032.557-.115 1.061-.292 1.294-.561 1.201-2.634-1.755-8.631-1.755-8.631"/>
            <path fill="#008976" d="M43.081 74.473c-1.533.752-1.172 8.692-1.436 14.099-.143 2.91-2.315 5.288-5.177 5.747-2.03.325-4.257.385-5.601-.384.889-.73 5.678-7.814 4.144-17.193-.202-1.234-.227-4.67 1.842-6.537 2.297-2.072 7.038.632 7.038.632s1.296 2.6-.81 3.636M45.093 98.523s1.192 6.102 1.192 9.731c0 1.994-.486 14.555-.486 14.555s-8.51.619-10.164.619c-.41-10.294-2.744-10.61-2.744-15.41 0-2.087 1.064-4.445 1.881-5.948.587-1.08.955-1.832 1.18-3.337l.056-.195 9.085-.015"/>
        </g>
    </g>
</svg>
