<svg xmlns="http://www.w3.org/2000/svg" width="37" height="37" viewBox="0 0 37 37">
    <g fill="none" fill-rule="nonzero">
        <path fill="#9B9B9B" d="M18.482.702C8.658.702.702 8.676.702 18.5c0 9.824 7.956 17.798 17.78 17.798 9.842 0 17.816-7.974 17.816-17.798 0-9.824-7.974-17.798-17.816-17.798zm.018 32.036c-7.867 0-14.238-6.371-14.238-14.238 0-7.867 6.371-14.238 14.238-14.238 7.867 0 14.238 6.371 14.238 14.238 0 7.867-6.371 14.238-14.238 14.238z"/>
        <path fill="#FFF" d="M19.39 9.601h-2.67V20.28l9.344 5.606 1.335-2.19-8.01-4.751z"/>
    </g>
</svg>
