<svg xmlns="http://www.w3.org/2000/svg" width="38" height="38" viewBox="0 0 38 38">
    <g fill="none" fill-rule="evenodd">
        <path fill="#55ACEE" d="M.5 19C.5 8.507 8.895 0 19.25 0S38 8.507 38 19s-8.395 19-18.75 19S.5 29.493.5 19z"/>
        <path fill="#FFF" d="M18.688 15.443l.04.658-.656-.08c-2.387-.31-4.472-1.356-6.243-3.113l-.865-.873-.223.644c-.473 1.436-.17 2.952.813 3.972.524.564.406.644-.499.309-.314-.108-.59-.188-.616-.148-.092.094.223 1.315.472 1.798.341.67 1.036 1.328 1.797 1.717l.643.309-.761.013c-.735 0-.76.014-.682.295.262.873 1.298 1.798 2.452 2.2l.814.283-.709.429a7.31 7.31 0 0 1-3.515.993c-.59.013-1.075.067-1.075.107 0 .134 1.6.886 2.531 1.18 2.794.873 6.112.497 8.604-.992 1.77-1.06 3.541-3.166 4.367-5.206.446-1.087.892-3.072.892-4.025 0-.617.04-.698.774-1.436.433-.429.84-.899.918-1.033.131-.255.118-.255-.55-.027-1.116.403-1.273.35-.722-.254.406-.43.892-1.208.892-1.436 0-.04-.197.027-.42.147-.236.135-.76.336-1.154.457l-.708.228-.643-.443c-.354-.242-.853-.51-1.115-.59-.669-.188-1.692-.161-2.295.053-1.64.604-2.676 2.16-2.558 3.864z"/>
    </g>
</svg>
