<?xml version="1.0" encoding="UTF-8"?>
<svg width="24px" height="24px" viewBox="0 0 24 24" version="1.1" xmlns="http://www.w3.org/2000/svg" xmlns:xlink="http://www.w3.org/1999/xlink">
    <!-- Generator: sketchtool 50.2 (55047) - http://www.bohemiancoding.com/sketch -->
    <title>DC0024E9-8956-4AEE-B100-815EEEC3321D</title>
    <desc>Created with sketchtool.</desc>
    <defs></defs>
    <g id="2FA" stroke="none" stroke-width="1" fill="none" fill-rule="evenodd">
        <g id="verification_complete_inv" transform="translate(-27.000000, -336.000000)">
            <g id="Group-3" transform="translate(27.000000, 256.000000)">
                <g id="Group-2" transform="translate(0.000000, 80.000000)">
                    <g id="-g-icon_esa">
                        <circle id="Oval" fill="#CCCCCC" cx="12" cy="12" r="12"></circle>
                        <path d="M12.6137725,10.3562874 L16.0718563,10.3562874 L12.6137725,6.92814371 L12.6137725,10.3562874 Z M14.4850299,13.4850299 L14.4850299,12.2275449 L9.51497006,12.2275449 L9.51497006,13.4850299 L14.4850299,13.4850299 Z M14.4850299,15.9700599 L14.4850299,14.7125749 L9.51497006,14.7125749 L9.51497006,15.9700599 L14.4850299,15.9700599 Z M13.257485,6 L17,9.74251497 L17,17.2275449 C17,17.566868 16.8752507,17.8562862 16.6257485,18.0958084 C16.3762463,18.3353305 16.081838,18.4550898 15.742515,18.4550898 L8.25748503,18.4550898 C7.91816198,18.4550898 7.62375374,18.3353305 7.3742515,18.0958084 C7.12474925,17.8562862 7,17.566868 7,17.2275449 L7.02994012,7.22754491 C7.02994012,6.88822186 7.1496994,6.59880359 7.38922156,6.35928144 C7.62874371,6.11975928 7.91816198,6 8.25748503,6 L13.257485,6 Z" id="description---material" fill="#FFFFFF"></path>
                    </g>
                </g>
            </g>
        </g>
    </g>
</svg>