<svg xmlns="http://www.w3.org/2000/svg" width="24" height="24" viewBox="0 0 24 24">
    <g fill="none" fill-rule="evenodd">
        <circle cx="12" cy="12" r="11.5" fill="#FFF" stroke="#08C0A6"/>
        <path fill="#08C0A6" d="M12.614 10.356h3.458l-3.458-3.428v3.428zm1.871 3.129v-1.257h-4.97v1.257h4.97zm0 2.485v-1.257h-4.97v1.257h4.97zM13.257 6L17 9.743v7.485c0 .339-.125.628-.374.868-.25.24-.544.36-.883.36H8.257c-.339 0-.633-.12-.883-.36A1.16 1.16 0 0 1 7 17.228l.03-10c0-.34.12-.63.36-.869.239-.24.528-.359.867-.359h5z"/>
    </g>
</svg>
