<svg xmlns="http://www.w3.org/2000/svg" width="24" height="24" viewBox="0 0 24 24">
    <g fill="none" fill-rule="evenodd">
        <circle cx="12" cy="12" r="12" fill="#CCC"/>
        <path fill="#FFF" d="M12.302 11.226c.73.19 1.314.39 1.755.604.603.29 1.062.635 1.377 1.038.377.49.566 1.088.566 1.792 0 .768-.27 1.397-.811 1.887-.478.44-1.132.742-1.963.906v1.698h-2.358v-1.698c-.805-.176-1.46-.503-1.962-.981-.554-.529-.856-1.208-.906-2.038h1.736c.025.503.214.893.566 1.17.402.327.987.49 1.755.49.767 0 1.34-.163 1.717-.49.276-.252.415-.554.415-.906 0-.428-.151-.78-.453-1.056-.378-.365-1.013-.655-1.906-.868-1.182-.277-2.069-.655-2.66-1.132-.68-.554-1.02-1.258-1.02-2.114 0-.73.265-1.352.793-1.868.491-.478 1.132-.798 1.925-.962V5h2.358v1.736c.805.189 1.434.566 1.887 1.132.415.528.635 1.145.66 1.849h-1.735c-.038-1.107-.698-1.66-1.981-1.66-.654 0-1.17.135-1.548.405-.377.27-.566.626-.566 1.066 0 .378.176.698.529.963.352.264.962.509 1.83.735z"/>
    </g>
</svg>
