<svg xmlns="http://www.w3.org/2000/svg" xmlns:xlink="http://www.w3.org/1999/xlink" width="104" height="104" viewBox="0 0 104 104">
    <defs>
        <circle id="a" cx="52" cy="52" r="52"/>
        <filter id="c" width="192.3%" height="192.3%" x="-44.9%" y="-32.1%" filterUnits="objectBoundingBox">
            <feOffset dy="2" in="SourceAlpha" result="shadowOffsetOuter1"/>
            <feGaussianBlur in="shadowOffsetOuter1" result="shadowBlurOuter1" stdDeviation="2"/>
            <feColorMatrix in="shadowBlurOuter1" result="shadowMatrixOuter1" values="0 0 0 0 0 0 0 0 0 0 0 0 0 0 0 0 0 0 0.25 0"/>
            <feMerge>
                <feMergeNode in="shadowMatrixOuter1"/>
                <feMergeNode in="SourceGraphic"/>
            </feMerge>
        </filter>
    </defs>
    <g fill="none" fill-rule="evenodd">
        <mask id="b" fill="#fff">
            <use xlink:href="#a"/>
        </mask>
        <use fill="#CDE8FF" xlink:href="#a"/>
        <path fill="#20143D" d="M18.2 57.2l33.8-13 33.8 13V104H18.2z" mask="url(#b)"/>
        <rect width="46.8" height="67.6" x="28.6" y="36.4" fill="#FFF" mask="url(#b)" rx="2"/>
        <rect width="36.4" height="2.6" x="33.8" y="41.6" fill="#DEDCE7" mask="url(#b)" rx="1.3"/>
        <rect width="36.4" height="2.6" x="33.8" y="48.1" fill="#DEDCE7" mask="url(#b)" rx="1.3"/>
        <rect width="36.4" height="2.6" x="33.8" y="54.6" fill="#DEDCE7" mask="url(#b)" rx="1.3"/>
        <rect width="20.8" height="2.6" x="33.8" y="61.1" fill="#DEDCE7" mask="url(#b)" rx="1.3"/>
        <path fill="#3D81F7" d="M18.2 57.2L85.8 104H18.2z" mask="url(#b)"/>
        <path fill="#79C0FF" d="M85.8 57.2V104H18.2z" mask="url(#b)"/>
        <g filter="url(#c)" mask="url(#b)">
            <g transform="translate(67.6 26)">
                <circle cx="7.8" cy="7.8" r="7.8" fill="#D9FFF3"/>
                <path fill="#08C0A6" d="M6.372 9.91l4.7-4.71.628.629-5.328 5.328L3.9 8.684l.618-.628z"/>
            </g>
        </g>
    </g>
</svg>
