<svg xmlns="http://www.w3.org/2000/svg" xmlns:xlink="http://www.w3.org/1999/xlink" width="104" height="104" viewBox="0 0 104 104">
    <defs>
        <circle id="a" cx="52" cy="52" r="52"/>
    </defs>
    <g fill="none" fill-rule="evenodd">
        <mask id="b" fill="#fff">
            <use xlink:href="#a"/>
        </mask>
        <use fill="#CDE8FF" xlink:href="#a"/>
        <g mask="url(#b)">
            <g transform="translate(24 20)">
                <rect width="52" height="96" x="4" fill="#3D81F7" rx="4"/>
                <rect width="52" height="96" fill="#79C0FF" rx="4"/>
                <g fill="#CDE8FF" transform="translate(19 5)">
                    <circle cx="1" cy="1" r="1"/>
                    <rect width="12" height="2" x="3" rx="1"/>
                </g>
                <rect width="44" height="76" x="4" y="12" fill="#FFF" rx="1"/>
                <g transform="translate(12 28)">
                    <path fill="#79C0FF" fill-rule="nonzero" d="M8 20H4V10C4 4.477 8.477 0 14 0s10 4.477 10 10v10h-4V10a6 6 0 1 0-12 0v10z"/>
                    <rect width="28" height="24" y="16" fill="#CDE8FF" rx="2"/>
                    <path fill="#3D81F7" d="M12.263 28.447a3 3 0 1 1 3.473 0L17 33.5h-6l1.263-5.053z"/>
                </g>
            </g>
        </g>
    </g>
</svg>
