<?xml version="1.0" encoding="UTF-8"?>
<svg width="34px" height="32px" viewBox="0 0 34 32" version="1.1" xmlns="http://www.w3.org/2000/svg" xmlns:xlink="http://www.w3.org/1999/xlink">
    <!-- Generator: sketchtool 49.2 (51160) - http://www.bohemiancoding.com/sketch -->
    <title>06B5E4FB-C31C-4924-88B0-FF08EA6E3A21</title>
    <desc>Created with sketchtool.</desc>
    <defs></defs>
    <g id="Page-1" stroke="none" stroke-width="1" fill="none" fill-rule="evenodd">
        <g id="FPX01" transform="translate(-583.000000, -411.000000)" fill="#000000" fill-rule="nonzero">
            <g id="ic_account_balance_wallet_black_24px" transform="translate(583.000000, 411.000000)">
                <path d="M32,26.6666667 L32,28.4444444 C32,30.4 30.4,32 28.4444444,32 L3.55555556,32 C1.58222222,32 0,30.4 0,28.4444444 L0,3.55555556 C0,1.6 1.58222222,0 3.55555556,0 L28.4444444,0 C30.4,0 32,1.6 32,3.55555556 L32,5.33333333 L16,5.33333333 C14.0266667,5.33333333 12.4444444,6.93333333 12.4444444,8.88888889 L12.4444444,23.1111111 C12.4444444,25.0666667 14.0266667,26.6666667 16,26.6666667 L32,26.6666667 Z M16,23.1111111 L33.7777778,23.1111111 L33.7777778,8.88888889 L16,8.88888889 L16,23.1111111 Z M23.1111111,18.6666667 C21.6355556,18.6666667 20.4444444,17.4755556 20.4444444,16 C20.4444444,14.5244444 21.6355556,13.3333333 23.1111111,13.3333333 C24.5866667,13.3333333 25.7777778,14.5244444 25.7777778,16 C25.7777778,17.4755556 24.5866667,18.6666667 23.1111111,18.6666667 Z" id="Shape"></path>
            </g>
        </g>
    </g>
</svg>